G04 Layer_Color=8388736*
%FSLAX25Y25*%
%MOIN*%
G70*
G01*
G75*
%ADD96R,0.04737X0.07099*%
%ADD97R,0.05800X0.07300*%
%ADD98R,0.07300X0.05800*%
%ADD99R,0.05524X0.05524*%
%ADD100R,0.04737X0.12611*%
%ADD101R,0.12611X0.32296*%
%ADD102R,0.05524X0.05524*%
%ADD103R,0.07099X0.06706*%
%ADD104R,0.06312X0.04737*%
%ADD105R,0.06706X0.05524*%
%ADD106R,0.04343X0.03162*%
%ADD107R,0.03162X0.04343*%
%ADD108R,0.08674X0.12611*%
%ADD109R,0.07257X0.04737*%
%ADD110R,0.13398X0.10642*%
%ADD111R,0.13005X0.13005*%
%ADD112R,0.04343X0.01745*%
%ADD113R,0.01745X0.04343*%
%ADD114O,0.03162X0.09461*%
%ADD115R,0.07296X0.03162*%
%ADD116R,0.01784X0.07690*%
%ADD117R,0.07690X0.01784*%
%ADD118R,0.06706X0.08083*%
%ADD119R,0.09265X0.13595*%
%ADD120R,0.09265X0.04540*%
%ADD121R,0.03162X0.09461*%
%ADD122R,0.13398X0.08477*%
%ADD123R,0.08083X0.05721*%
%ADD124R,0.05721X0.08083*%
%ADD125R,0.07257X0.10249*%
%ADD126R,0.10249X0.07257*%
%ADD127R,0.03123X0.02572*%
%ADD128R,0.10642X0.09265*%
%ADD129R,0.09265X0.10642*%
%ADD130R,0.05721X0.07099*%
%ADD131R,0.09658X0.07099*%
%ADD132R,0.06706X0.10249*%
%ADD133R,0.03162X0.02375*%
%ADD134C,0.08674*%
%ADD135C,0.04737*%
%ADD136C,0.05918*%
%ADD137C,0.06706*%
%ADD138R,0.06706X0.06706*%
%ADD139C,0.13300*%
%ADD140C,0.09658*%
%ADD141R,0.09658X0.09658*%
%ADD142C,0.07099*%
%ADD143R,0.07099X0.07099*%
%ADD144C,0.07887*%
%ADD145C,0.14383*%
%ADD146C,0.07965*%
%ADD147C,0.07493*%
%ADD148C,0.10367*%
%ADD149O,0.18800X0.08800*%
%ADD150O,0.08800X0.18800*%
%ADD151C,0.05800*%
%ADD152C,0.02769*%
D96*
X73905Y50000D02*
D03*
X62094D02*
D03*
D97*
X268000Y96000D02*
D03*
X276000D02*
D03*
X386500Y260000D02*
D03*
X378500D02*
D03*
X361500Y247500D02*
D03*
X353500D02*
D03*
X324000Y60000D02*
D03*
X316000D02*
D03*
X314000Y110000D02*
D03*
X306000D02*
D03*
X301500Y52500D02*
D03*
X293500D02*
D03*
X276500Y60000D02*
D03*
X268500D02*
D03*
X274000Y196000D02*
D03*
X282000D02*
D03*
X263000D02*
D03*
X255000D02*
D03*
X129000Y266000D02*
D03*
X137000D02*
D03*
X232000Y145000D02*
D03*
X240000D02*
D03*
X368500Y90000D02*
D03*
X376500D02*
D03*
X406000Y105000D02*
D03*
X414000D02*
D03*
X22000Y183000D02*
D03*
X30000D02*
D03*
X77000Y67000D02*
D03*
X69000D02*
D03*
X361000Y260000D02*
D03*
X370000D02*
D03*
X352500Y236000D02*
D03*
X361500D02*
D03*
X328000Y267500D02*
D03*
X337000D02*
D03*
X206500Y73000D02*
D03*
X215500D02*
D03*
X164500Y248000D02*
D03*
X155500D02*
D03*
X194500Y166000D02*
D03*
X203500D02*
D03*
X140500Y196000D02*
D03*
X149500D02*
D03*
X264500Y167000D02*
D03*
X273500D02*
D03*
X30500Y172000D02*
D03*
X21500D02*
D03*
X30500Y160000D02*
D03*
X21500D02*
D03*
X35500Y110000D02*
D03*
X44500D02*
D03*
X335000Y162000D02*
D03*
X327000D02*
D03*
D98*
X228000Y98000D02*
D03*
Y90000D02*
D03*
X295000Y121000D02*
D03*
Y129000D02*
D03*
X342500Y188500D02*
D03*
Y196500D02*
D03*
X179000Y246000D02*
D03*
Y254000D02*
D03*
X238000Y181000D02*
D03*
Y173000D02*
D03*
X99000Y108000D02*
D03*
Y116000D02*
D03*
X387500Y82000D02*
D03*
Y90000D02*
D03*
X417500Y81000D02*
D03*
Y89000D02*
D03*
X165000Y115500D02*
D03*
Y107500D02*
D03*
X134000Y115500D02*
D03*
Y107500D02*
D03*
X124000D02*
D03*
Y115500D02*
D03*
X175000Y107500D02*
D03*
Y115500D02*
D03*
X99000Y83500D02*
D03*
Y91500D02*
D03*
X119000Y83500D02*
D03*
Y91500D02*
D03*
X139000Y83500D02*
D03*
Y91500D02*
D03*
X89000Y83500D02*
D03*
Y91500D02*
D03*
X109000Y83500D02*
D03*
Y91500D02*
D03*
X12500Y113500D02*
D03*
Y121500D02*
D03*
Y141000D02*
D03*
Y149000D02*
D03*
X352500Y197000D02*
D03*
Y188000D02*
D03*
X332500Y197000D02*
D03*
Y188000D02*
D03*
X390000Y212000D02*
D03*
Y203000D02*
D03*
X410000D02*
D03*
Y212000D02*
D03*
X400000Y203000D02*
D03*
Y212000D02*
D03*
X380000D02*
D03*
Y203000D02*
D03*
X410000Y225500D02*
D03*
Y234500D02*
D03*
X400000Y225500D02*
D03*
Y234500D02*
D03*
X380000D02*
D03*
Y225500D02*
D03*
X390000D02*
D03*
Y234500D02*
D03*
X296000Y261500D02*
D03*
Y252500D02*
D03*
X322500Y197000D02*
D03*
Y188000D02*
D03*
Y78000D02*
D03*
Y87000D02*
D03*
X98000Y226500D02*
D03*
Y235500D02*
D03*
X127000Y225500D02*
D03*
Y234500D02*
D03*
X76000Y266500D02*
D03*
Y257500D02*
D03*
X105000Y160500D02*
D03*
Y169500D02*
D03*
Y187500D02*
D03*
Y178500D02*
D03*
X161000Y161500D02*
D03*
Y170500D02*
D03*
X207000Y248500D02*
D03*
Y239500D02*
D03*
X159000Y92000D02*
D03*
Y83000D02*
D03*
X170000D02*
D03*
Y92000D02*
D03*
X129000Y83000D02*
D03*
Y92000D02*
D03*
X149000Y83000D02*
D03*
Y92000D02*
D03*
X58000Y260500D02*
D03*
Y251500D02*
D03*
X10000Y255500D02*
D03*
Y246500D02*
D03*
X20000Y211500D02*
D03*
Y220500D02*
D03*
X344000Y161000D02*
D03*
Y153000D02*
D03*
D99*
X221001Y107865D02*
D03*
Y116133D02*
D03*
X210001Y107865D02*
D03*
Y116133D02*
D03*
X404999Y80867D02*
D03*
Y89135D02*
D03*
X69000Y90134D02*
D03*
Y81866D02*
D03*
D100*
X116937Y210000D02*
D03*
X109063D02*
D03*
D101*
X113000Y237559D02*
D03*
D102*
X83937Y113299D02*
D03*
X76063D02*
D03*
D103*
X80000Y100504D02*
D03*
D104*
X305669Y125000D02*
D03*
X314331Y128740D02*
D03*
Y121260D02*
D03*
X363331Y157000D02*
D03*
X354669Y153260D02*
D03*
Y160740D02*
D03*
D105*
X117315Y265000D02*
D03*
X87000D02*
D03*
D106*
X240528Y156260D02*
D03*
Y163740D02*
D03*
X231472Y160000D02*
D03*
D107*
X376240Y79528D02*
D03*
X368760D02*
D03*
X372500Y70472D02*
D03*
D108*
X422500Y227500D02*
D03*
Y209784D02*
D03*
D109*
X370000Y213858D02*
D03*
Y206142D02*
D03*
Y224142D02*
D03*
Y231858D02*
D03*
D110*
X65000Y166555D02*
D03*
Y198445D02*
D03*
D111*
X335000Y220000D02*
D03*
D112*
X324961Y213110D02*
D03*
Y215079D02*
D03*
Y217047D02*
D03*
Y219016D02*
D03*
Y220984D02*
D03*
Y222953D02*
D03*
Y224921D02*
D03*
Y226890D02*
D03*
X345039D02*
D03*
Y224921D02*
D03*
Y222953D02*
D03*
Y220984D02*
D03*
Y219016D02*
D03*
Y217047D02*
D03*
Y215079D02*
D03*
Y213110D02*
D03*
D113*
X328110Y230039D02*
D03*
X330079D02*
D03*
X332047D02*
D03*
X334016D02*
D03*
X335984D02*
D03*
X337953D02*
D03*
X339921D02*
D03*
X341890D02*
D03*
Y209961D02*
D03*
X339921D02*
D03*
X337953D02*
D03*
X335984D02*
D03*
X334016D02*
D03*
X332047D02*
D03*
X330079D02*
D03*
X328110D02*
D03*
D114*
X310000Y94449D02*
D03*
X305000D02*
D03*
X300000D02*
D03*
X295000D02*
D03*
X310000Y75551D02*
D03*
X305000D02*
D03*
X300000D02*
D03*
X295000D02*
D03*
D115*
X224878Y47500D02*
D03*
Y52500D02*
D03*
Y57500D02*
D03*
Y62500D02*
D03*
X197122Y47500D02*
D03*
Y52500D02*
D03*
Y57500D02*
D03*
Y62500D02*
D03*
D116*
X167236Y229949D02*
D03*
X169205D02*
D03*
X171173D02*
D03*
X173142D02*
D03*
X175110D02*
D03*
X177079D02*
D03*
X179047D02*
D03*
X181016D02*
D03*
X182984D02*
D03*
X184953D02*
D03*
X186921D02*
D03*
X188890D02*
D03*
X190858D02*
D03*
X192827D02*
D03*
X194795D02*
D03*
X196764D02*
D03*
Y186051D02*
D03*
X194795D02*
D03*
X192827D02*
D03*
X190858D02*
D03*
X188890D02*
D03*
X186921D02*
D03*
X184953D02*
D03*
X182984D02*
D03*
X181016D02*
D03*
X179047D02*
D03*
X177079D02*
D03*
X175110D02*
D03*
X173142D02*
D03*
X171173D02*
D03*
X169205D02*
D03*
X167236D02*
D03*
D117*
X203949Y222764D02*
D03*
Y220795D02*
D03*
Y218827D02*
D03*
Y216858D02*
D03*
Y214890D02*
D03*
Y212921D02*
D03*
Y210953D02*
D03*
Y208984D02*
D03*
Y207016D02*
D03*
Y205047D02*
D03*
Y203079D02*
D03*
Y201110D02*
D03*
Y199142D02*
D03*
Y197173D02*
D03*
Y195205D02*
D03*
Y193236D02*
D03*
X160051D02*
D03*
Y195205D02*
D03*
Y197173D02*
D03*
Y199142D02*
D03*
Y201110D02*
D03*
Y203079D02*
D03*
Y205047D02*
D03*
Y207016D02*
D03*
Y208984D02*
D03*
Y210953D02*
D03*
Y212921D02*
D03*
Y214890D02*
D03*
Y216858D02*
D03*
Y218827D02*
D03*
Y220795D02*
D03*
Y222764D02*
D03*
D118*
X417500Y67716D02*
D03*
X407500D02*
D03*
Y32283D02*
D03*
X417500D02*
D03*
D119*
X45417Y252000D02*
D03*
D120*
X22583Y242945D02*
D03*
Y252000D02*
D03*
Y261055D02*
D03*
D121*
X45000Y141850D02*
D03*
X40000D02*
D03*
X35000D02*
D03*
X30000D02*
D03*
X45000Y123150D02*
D03*
X40000D02*
D03*
X35000D02*
D03*
X30000D02*
D03*
D122*
X37500Y132500D02*
D03*
D123*
X312500Y189055D02*
D03*
Y195945D02*
D03*
X325000Y48445D02*
D03*
Y41555D02*
D03*
X270000Y48445D02*
D03*
Y41555D02*
D03*
X335000Y79055D02*
D03*
Y85945D02*
D03*
X141000Y238445D02*
D03*
Y231555D02*
D03*
X224000Y260555D02*
D03*
Y267445D02*
D03*
X274000Y157445D02*
D03*
Y150555D02*
D03*
D124*
X207445Y84000D02*
D03*
X200555D02*
D03*
D125*
X325000Y9626D02*
D03*
Y25374D02*
D03*
X270000Y9626D02*
D03*
Y25374D02*
D03*
D126*
X305374Y32500D02*
D03*
X289626D02*
D03*
X40374Y42500D02*
D03*
X24626D02*
D03*
D127*
X361653Y70000D02*
D03*
X353346D02*
D03*
D128*
X59701Y237000D02*
D03*
X72299D02*
D03*
X46299Y24000D02*
D03*
X33701D02*
D03*
D129*
X65000Y131201D02*
D03*
Y143799D02*
D03*
D130*
X225000Y236587D02*
D03*
Y247413D02*
D03*
D131*
X36000Y209996D02*
D03*
Y222004D02*
D03*
D132*
X269000Y182000D02*
D03*
D133*
X274315Y185937D02*
D03*
Y182000D02*
D03*
Y178063D02*
D03*
X263685D02*
D03*
Y182000D02*
D03*
Y185937D02*
D03*
D134*
X253000Y109000D02*
D03*
X272213D02*
D03*
X313287Y252500D02*
D03*
X332500D02*
D03*
X121000Y164787D02*
D03*
Y184000D02*
D03*
D135*
X290000Y150221D02*
D03*
D136*
Y179748D02*
D03*
D137*
X268000Y269000D02*
D03*
X258000D02*
D03*
X248000D02*
D03*
X385000Y37000D02*
D03*
X355000D02*
D03*
X345000D02*
D03*
Y57000D02*
D03*
X355000D02*
D03*
X385000D02*
D03*
X308000Y219000D02*
D03*
X298000D02*
D03*
X308000Y229000D02*
D03*
X298001Y209099D02*
D03*
X308001D02*
D03*
X159000Y268000D02*
D03*
X189000D02*
D03*
X179000D02*
D03*
X169000D02*
D03*
X149000D02*
D03*
X240551Y131890D02*
D03*
X180551D02*
D03*
X170551D02*
D03*
X160551D02*
D03*
X130551D02*
D03*
X100551D02*
D03*
X110551D02*
D03*
X120551D02*
D03*
X140551D02*
D03*
X150551D02*
D03*
X190551D02*
D03*
X200551D02*
D03*
X210551D02*
D03*
X220551D02*
D03*
X230551D02*
D03*
D138*
X238000Y269000D02*
D03*
X298000Y229000D02*
D03*
X199000Y268000D02*
D03*
X90551Y131890D02*
D03*
D139*
X66000Y212000D02*
D03*
X420000Y15000D02*
D03*
Y260000D02*
D03*
X15000Y15000D02*
D03*
D140*
X305000Y12500D02*
D03*
X379842D02*
D03*
X364843D02*
D03*
X349843D02*
D03*
D141*
X290000D02*
D03*
D142*
X380039Y157000D02*
D03*
D143*
X409961D02*
D03*
D144*
X32658Y75157D02*
D03*
X42500Y85000D02*
D03*
X22815D02*
D03*
Y65315D02*
D03*
X42500D02*
D03*
X12972Y75157D02*
D03*
D145*
X166595Y27252D02*
D03*
X121595D02*
D03*
D146*
X170177Y7961D02*
D03*
X160177D02*
D03*
X128012D02*
D03*
X118012D02*
D03*
D147*
X126594Y52252D02*
D03*
X131595Y62252D02*
D03*
X136594Y52252D02*
D03*
X141595Y62252D02*
D03*
X146595Y52252D02*
D03*
X151594Y62252D02*
D03*
X156595Y52252D02*
D03*
X161594Y62252D02*
D03*
D148*
X113602Y39260D02*
D03*
X174587D02*
D03*
D149*
X73622Y37402D02*
D03*
Y12205D02*
D03*
D150*
X92126Y24803D02*
D03*
D151*
X45000Y235000D02*
D03*
X75000Y180000D02*
D03*
X55000D02*
D03*
X180000Y200000D02*
D03*
Y210000D02*
D03*
X205000Y20000D02*
D03*
X130000Y155000D02*
D03*
X120000D02*
D03*
X410000Y255000D02*
D03*
Y265000D02*
D03*
X400000Y255000D02*
D03*
Y265000D02*
D03*
X375000Y180000D02*
D03*
Y190000D02*
D03*
X365000Y170000D02*
D03*
Y180000D02*
D03*
Y190000D02*
D03*
X313000Y265000D02*
D03*
X49500Y42500D02*
D03*
X47000Y158000D02*
D03*
X25000Y192000D02*
D03*
X36000Y203000D02*
D03*
X52000Y133000D02*
D03*
D152*
X224000Y44000D02*
D03*
X339331Y224331D02*
D03*
Y220000D02*
D03*
Y215669D02*
D03*
X335000Y224331D02*
D03*
Y220000D02*
D03*
Y215669D02*
D03*
X330669Y224331D02*
D03*
Y220000D02*
D03*
Y215669D02*
D03*
X41831Y134665D02*
D03*
Y130335D02*
D03*
X37500Y134665D02*
D03*
Y130335D02*
D03*
X33169Y134665D02*
D03*
Y130335D02*
D03*
X164000Y121615D02*
D03*
X201000Y138378D02*
D03*
X142000Y181000D02*
D03*
X171000Y122000D02*
D03*
X147000Y184000D02*
D03*
X168000Y165000D02*
D03*
X140000Y190000D02*
D03*
X153000Y171000D02*
D03*
X202000Y231000D02*
D03*
X426000Y35000D02*
D03*
X320000Y100000D02*
D03*
X235000Y118000D02*
D03*
Y113000D02*
D03*
Y108000D02*
D03*
Y104000D02*
D03*
X348000Y76000D02*
D03*
X300000Y183000D02*
D03*
X279000D02*
D03*
X215000Y219000D02*
D03*
X370000Y146000D02*
D03*
X297000Y180000D02*
D03*
X215000Y215000D02*
D03*
X259000Y186000D02*
D03*
X189000Y175000D02*
D03*
X192000Y178000D02*
D03*
X188000Y157000D02*
D03*
X247500Y145000D02*
D03*
X250000Y150000D02*
D03*
X287000Y94000D02*
D03*
X284000Y91000D02*
D03*
X186000Y154000D02*
D03*
X238000Y83000D02*
D03*
X167000Y153000D02*
D03*
X242000Y80000D02*
D03*
X173000Y159000D02*
D03*
X246000Y80000D02*
D03*
X175000Y155000D02*
D03*
X247000Y83000D02*
D03*
X175000Y151000D02*
D03*
X115000Y110000D02*
D03*
Y116000D02*
D03*
X236000Y66000D02*
D03*
Y69000D02*
D03*
X105000Y101000D02*
D03*
X190000Y109000D02*
D03*
X240000Y68000D02*
D03*
X190000Y113000D02*
D03*
X240000Y72000D02*
D03*
X252000Y234000D02*
D03*
X178000Y240000D02*
D03*
X181000Y239000D02*
D03*
X172000Y258000D02*
D03*
X139000Y252000D02*
D03*
X243000Y205000D02*
D03*
X224000Y210000D02*
D03*
X239000Y205000D02*
D03*
X227000D02*
D03*
X231000D02*
D03*
X235000D02*
D03*
X302000Y187000D02*
D03*
X85000Y237000D02*
D03*
X338000Y205000D02*
D03*
X351000Y226000D02*
D03*
X350000Y203000D02*
D03*
X355000Y219000D02*
D03*
X135000Y250000D02*
D03*
X149000Y262000D02*
D03*
X214000Y267000D02*
D03*
X211000Y262000D02*
D03*
X199000Y243000D02*
D03*
X153000Y188000D02*
D03*
X213000Y153000D02*
D03*
X252000D02*
D03*
X216000Y156000D02*
D03*
X218000Y159000D02*
D03*
X215000Y165000D02*
D03*
X218000Y168000D02*
D03*
X323000Y125000D02*
D03*
X160000Y185000D02*
D03*
X158000Y178000D02*
D03*
X217000Y243000D02*
D03*
X149000Y248000D02*
D03*
X345000Y139000D02*
D03*
X341000Y122000D02*
D03*
X349000Y137000D02*
D03*
X356000Y122000D02*
D03*
X348000Y97000D02*
D03*
X187000Y116000D02*
D03*
X178000Y95000D02*
D03*
X183000Y103000D02*
D03*
X195000Y15000D02*
D03*
X139000Y100000D02*
D03*
X109000D02*
D03*
X80000Y92000D02*
D03*
X228000Y213000D02*
D03*
X196000Y221000D02*
D03*
X397000Y89000D02*
D03*
X406000Y113000D02*
D03*
X310000Y166000D02*
D03*
X305000Y170000D02*
D03*
X298000Y176000D02*
D03*
X219000Y190000D02*
D03*
X216000Y188000D02*
D03*
X213000Y186000D02*
D03*
X210000Y184000D02*
D03*
X187000Y221000D02*
D03*
X375000Y125000D02*
D03*
X282000Y262000D02*
D03*
X187000Y87750D02*
D03*
X184000Y249000D02*
D03*
X124000Y197000D02*
D03*
Y201000D02*
D03*
X103000Y195000D02*
D03*
Y200000D02*
D03*
X245540Y139304D02*
D03*
X269000Y246000D02*
D03*
X243000Y245000D02*
D03*
M02*
