G04 Layer_Color=65535*
%FSLAX25Y25*%
%MOIN*%
G70*
G01*
G75*
%ADD48C,0.01000*%
%ADD50C,0.00600*%
%ADD89C,0.00984*%
%ADD90C,0.00500*%
%ADD91C,0.02362*%
%ADD92C,0.00787*%
%ADD93C,0.00394*%
%ADD94C,0.01200*%
%ADD95C,0.00800*%
D48*
X418622Y157000D02*
G03*
X418622Y157000I-23622J0D01*
G01*
X425512Y72500D02*
G03*
X425512Y72500I-512J0D01*
G01*
X233000Y264000D02*
X273000D01*
X233000D02*
Y274000D01*
X273000Y264000D02*
Y274000D01*
X233000D02*
X273000D01*
X307382Y246595D02*
X338878D01*
Y258405D01*
X307382D02*
X338878D01*
X307382Y246595D02*
Y258405D01*
X115094Y189906D02*
X126906D01*
Y158409D02*
Y189906D01*
X115094Y158409D02*
X126906D01*
X115094D02*
Y189906D01*
X75669Y101488D02*
Y109756D01*
X84331Y101488D02*
Y109756D01*
X79606Y112118D02*
X80394D01*
X280157Y-18720D02*
Y18406D01*
X315197D01*
Y-18720D02*
Y18406D01*
X280157Y-18720D02*
X315197D01*
X340000D02*
Y18406D01*
X389685D01*
Y-18720D02*
Y18406D01*
X340000Y-18720D02*
X389685D01*
X100189Y263032D02*
X104126Y266968D01*
X94283D02*
X100189D01*
X104126D02*
X110031D01*
X90346Y257913D02*
X113969D01*
X90346Y272087D02*
X113969D01*
X340394Y32236D02*
Y61764D01*
Y32236D02*
X389606D01*
Y61764D01*
X340394D02*
X389606D01*
X422500Y157000D02*
X432500D01*
X427500Y152000D02*
Y162000D01*
X85079Y162421D02*
Y202579D01*
X72874Y162421D02*
X85079D01*
X72874Y202579D02*
X85079D01*
X44921D02*
X57126D01*
X44921Y162421D02*
Y202579D01*
Y162421D02*
X57126D01*
X402500Y30217D02*
Y70217D01*
X422500Y30217D02*
Y70217D01*
X352382Y68032D02*
X352382Y68031D01*
Y67343D02*
Y68031D01*
Y67343D02*
X362619D01*
X362618Y67344D02*
X362619Y67343D01*
X362618Y67344D02*
Y68032D01*
Y71969D02*
Y72658D01*
X362619Y72658D01*
X352382D02*
X362619D01*
X352382Y72658D02*
X352382Y72658D01*
X352382Y71969D02*
Y72658D01*
X293000Y234000D02*
X313000D01*
Y204000D02*
Y234000D01*
X293000Y204000D02*
Y234000D01*
Y204000D02*
X313000D01*
X144000Y263000D02*
X204000D01*
X144000D02*
Y273000D01*
X204000Y263000D02*
Y273000D01*
X144000D02*
X204000D01*
X85551Y126890D02*
Y136890D01*
X245551D01*
Y126890D02*
Y136890D01*
X85551Y126890D02*
X245551D01*
X112835Y68252D02*
X175354D01*
X112835Y-16000D02*
X175354D01*
X112835Y47173D02*
Y68252D01*
X112598Y-15764D02*
Y31189D01*
Y-15764D02*
X112835Y-16000D01*
X175354D02*
Y30953D01*
X175591Y46937D02*
Y68016D01*
X175354Y68252D02*
X175591Y68016D01*
X221000Y232500D02*
Y251500D01*
X229000D01*
Y232500D02*
Y251500D01*
X42500Y206000D02*
Y226000D01*
X29500D02*
X42500D01*
X29500Y206000D02*
Y226000D01*
X268000Y256000D02*
Y262000D01*
X270000Y260000D01*
X268000Y262000D02*
X270000Y260000D01*
X266000D02*
X268000Y262000D01*
X258000Y256000D02*
Y262000D01*
Y256000D02*
X260000Y258000D01*
X258000Y256000D02*
X260000Y258000D01*
X256000D02*
X258000Y256000D01*
X265063Y173339D02*
X272937D01*
X261126Y174126D02*
Y189874D01*
Y174126D02*
X276480D01*
Y189874D01*
X261126D02*
X276480D01*
D50*
X279800Y91400D02*
Y100600D01*
X264200Y91400D02*
Y100600D01*
Y91400D02*
X279800D01*
X264200Y100600D02*
X279800D01*
X223400Y86200D02*
X232600D01*
X223400Y101800D02*
X232600D01*
X223400Y86200D02*
Y101800D01*
X232600Y86200D02*
Y101800D01*
X290400Y132800D02*
X299600D01*
X290400Y117200D02*
X299600D01*
Y132800D01*
X290400Y117200D02*
Y132800D01*
X374700Y255400D02*
Y264600D01*
X390300Y255400D02*
Y264600D01*
X374700D02*
X390300D01*
X374700Y255400D02*
X390300D01*
X349700Y242900D02*
Y252100D01*
X365300Y242900D02*
Y252100D01*
X349700D02*
X365300D01*
X349700Y242900D02*
X365300D01*
X337900Y200300D02*
X347100D01*
X337900Y184700D02*
X347100D01*
Y200300D01*
X337900Y184700D02*
Y200300D01*
X312200Y64600D02*
X327800D01*
X312200Y55400D02*
X327800D01*
X312200D02*
Y64600D01*
X327800Y55400D02*
Y64600D01*
X302200Y114600D02*
X317800D01*
X302200Y105400D02*
X317800D01*
X302200D02*
Y114600D01*
X317800Y105400D02*
Y114600D01*
X289700Y57100D02*
X305300D01*
X289700Y47900D02*
X305300D01*
X289700D02*
Y57100D01*
X305300Y47900D02*
Y57100D01*
X264700Y64600D02*
X280300D01*
X264700Y55400D02*
X280300D01*
X264700D02*
Y64600D01*
X280300Y55400D02*
Y64600D01*
X285800Y191400D02*
Y200600D01*
X270200Y191400D02*
Y200600D01*
Y191400D02*
X285800D01*
X270200Y200600D02*
X285800D01*
X251200Y191400D02*
Y200600D01*
X266800Y191400D02*
Y200600D01*
X251200D02*
X266800D01*
X251200Y191400D02*
X266800D01*
X174400Y257800D02*
X183600D01*
X174400Y242200D02*
X183600D01*
Y257800D01*
X174400Y242200D02*
Y257800D01*
X125200Y261400D02*
X140800D01*
X125200Y270600D02*
X140800D01*
Y261400D02*
Y270600D01*
X125200Y261400D02*
Y270600D01*
X233400Y169200D02*
Y184800D01*
X242600Y169200D02*
Y184800D01*
X233400Y169200D02*
X242600D01*
X233400Y184800D02*
X242600D01*
X103600Y104200D02*
Y119800D01*
X94400Y104200D02*
Y119800D01*
X103600D01*
X94400Y104200D02*
X103600D01*
X228200Y140400D02*
X243800D01*
X228200Y149600D02*
X243800D01*
Y140400D02*
Y149600D01*
X228200Y140400D02*
Y149600D01*
X364700Y85400D02*
X380300D01*
X364700Y94600D02*
X380300D01*
Y85400D02*
Y94600D01*
X364700Y85400D02*
Y94600D01*
X392100Y78200D02*
Y93800D01*
X382900Y78200D02*
Y93800D01*
X392100D01*
X382900Y78200D02*
X392100D01*
X402200Y100400D02*
X417800D01*
X402200Y109600D02*
X417800D01*
Y100400D02*
Y109600D01*
X402200Y100400D02*
Y109600D01*
X422100Y77200D02*
Y92800D01*
X412900Y77200D02*
Y92800D01*
X422100D01*
X412900Y77200D02*
X422100D01*
X160400Y103700D02*
Y119300D01*
X169600Y103700D02*
Y119300D01*
X160400Y103700D02*
X169600D01*
X160400Y119300D02*
X169600D01*
X129400Y103700D02*
Y119300D01*
X138600Y103700D02*
Y119300D01*
X129400Y103700D02*
X138600D01*
X129400Y119300D02*
X138600D01*
X128600Y103700D02*
Y119300D01*
X119400Y103700D02*
Y119300D01*
X128600D01*
X119400Y103700D02*
X128600D01*
X179600D02*
Y119300D01*
X170400Y103700D02*
Y119300D01*
X179600D01*
X170400Y103700D02*
X179600D01*
X103600Y79700D02*
Y95300D01*
X94400Y79700D02*
Y95300D01*
X103600D01*
X94400Y79700D02*
X103600D01*
X123600D02*
Y95300D01*
X114400Y79700D02*
Y95300D01*
X123600D01*
X114400Y79700D02*
X123600D01*
X143600D02*
Y95300D01*
X134400Y79700D02*
Y95300D01*
X143600D01*
X134400Y79700D02*
X143600D01*
X93600D02*
Y95300D01*
X84400Y79700D02*
Y95300D01*
X93600D01*
X84400Y79700D02*
X93600D01*
X113600D02*
Y95300D01*
X104400Y79700D02*
Y95300D01*
X113600D01*
X104400Y79700D02*
X113600D01*
X18200Y178400D02*
X33800D01*
X18200Y187600D02*
X33800D01*
Y178400D02*
Y187600D01*
X18200Y178400D02*
Y187600D01*
X65200Y71600D02*
X80800D01*
X65200Y62400D02*
X80800D01*
X65200D02*
Y71600D01*
X80800Y62400D02*
Y71600D01*
X17100Y109700D02*
Y125300D01*
X7900Y109700D02*
Y125300D01*
X17100D01*
X7900Y109700D02*
X17100D01*
Y137200D02*
Y152800D01*
X7900Y137200D02*
Y152800D01*
X17100D01*
X7900Y137200D02*
X17100D01*
X55622Y-17717D02*
Y38002D01*
Y-17717D02*
X93622D01*
X55622Y38002D02*
X62271Y37989D01*
X93622Y-17717D02*
Y13093D01*
X84474Y37492D02*
X92474D01*
X347900Y184200D02*
Y200800D01*
X357100Y184200D02*
Y200800D01*
X347900Y184200D02*
X357100D01*
X347900Y200800D02*
X357100D01*
X327900Y184200D02*
Y200800D01*
X337100Y184200D02*
Y200800D01*
X327900Y184200D02*
X337100D01*
X327900Y200800D02*
X337100D01*
X385400Y199200D02*
Y215800D01*
X394600Y199200D02*
Y215800D01*
X385400Y199200D02*
X394600D01*
X385400Y215800D02*
X394600D01*
X414600Y199200D02*
Y215800D01*
X405400Y199200D02*
Y215800D01*
X414600D01*
X405400Y199200D02*
X414600D01*
X404600D02*
Y215800D01*
X395400Y199200D02*
Y215800D01*
X404600D01*
X395400Y199200D02*
X404600D01*
X375400D02*
Y215800D01*
X384600Y199200D02*
Y215800D01*
X375400Y199200D02*
X384600D01*
X375400Y215800D02*
X384600D01*
X414600Y221700D02*
Y238300D01*
X405400Y221700D02*
Y238300D01*
X414600D01*
X405400Y221700D02*
X414600D01*
X404600D02*
Y238300D01*
X395400Y221700D02*
Y238300D01*
X404600D01*
X395400Y221700D02*
X404600D01*
X375400D02*
Y238300D01*
X384600Y221700D02*
Y238300D01*
X375400Y221700D02*
X384600D01*
X375400Y238300D02*
X384600D01*
X394600Y221700D02*
Y238300D01*
X385400Y221700D02*
Y238300D01*
X394600D01*
X385400Y221700D02*
X394600D01*
X357200Y255400D02*
X373800D01*
X357200Y264600D02*
X373800D01*
Y255400D02*
Y264600D01*
X357200Y255400D02*
Y264600D01*
X348700Y231400D02*
X365300D01*
X348700Y240600D02*
X365300D01*
Y231400D02*
Y240600D01*
X348700Y231400D02*
Y240600D01*
X324200Y262900D02*
X340800D01*
X324200Y272100D02*
X340800D01*
Y262900D02*
Y272100D01*
X324200Y262900D02*
Y272100D01*
X291400Y248700D02*
Y265300D01*
X300600Y248700D02*
Y265300D01*
X291400Y248700D02*
X300600D01*
X291400Y265300D02*
X300600D01*
X317900Y184200D02*
Y200800D01*
X327100Y184200D02*
Y200800D01*
X317900Y184200D02*
X327100D01*
X317900Y200800D02*
X327100D01*
Y74200D02*
Y90800D01*
X317900Y74200D02*
Y90800D01*
X327100D01*
X317900Y74200D02*
X327100D01*
X219300Y68400D02*
Y77600D01*
X202700Y68400D02*
Y77600D01*
Y68400D02*
X219300D01*
X202700Y77600D02*
X219300D01*
X93400Y239300D02*
X102600D01*
X93400Y222700D02*
X102600D01*
Y239300D01*
X93400Y222700D02*
Y239300D01*
X122400Y238300D02*
X131600D01*
X122400Y221700D02*
X131600D01*
Y238300D01*
X122400Y221700D02*
Y238300D01*
X71400Y253700D02*
Y270300D01*
X80600Y253700D02*
Y270300D01*
X71400Y253700D02*
X80600D01*
X71400Y270300D02*
X80600D01*
X100400Y173300D02*
X109600D01*
X100400Y156700D02*
X109600D01*
Y173300D01*
X100400Y156700D02*
Y173300D01*
Y174700D02*
X109600D01*
X100400Y191300D02*
X109600D01*
X100400Y174700D02*
Y191300D01*
X109600Y174700D02*
Y191300D01*
X156400Y174300D02*
X165600D01*
X156400Y157700D02*
X165600D01*
Y174300D01*
X156400Y157700D02*
Y174300D01*
X151700Y243400D02*
Y252600D01*
X168300Y243400D02*
Y252600D01*
X151700D02*
X168300D01*
X151700Y243400D02*
X168300D01*
X202400Y235700D02*
X211600D01*
X202400Y252300D02*
X211600D01*
X202400Y235700D02*
Y252300D01*
X211600Y235700D02*
Y252300D01*
X207300Y161400D02*
Y170600D01*
X190700Y161400D02*
Y170600D01*
Y161400D02*
X207300D01*
X190700Y170600D02*
X207300D01*
X153300Y191400D02*
Y200600D01*
X136700Y191400D02*
Y200600D01*
Y191400D02*
X153300D01*
X136700Y200600D02*
X153300D01*
X277300Y162400D02*
Y171600D01*
X260700Y162400D02*
Y171600D01*
Y162400D02*
X277300D01*
X260700Y171600D02*
X277300D01*
X154400Y79200D02*
X163600D01*
X154400Y95800D02*
X163600D01*
X154400Y79200D02*
Y95800D01*
X163600Y79200D02*
Y95800D01*
X165400D02*
X174600D01*
X165400Y79200D02*
X174600D01*
Y95800D01*
X165400Y79200D02*
Y95800D01*
X124400D02*
X133600D01*
X124400Y79200D02*
X133600D01*
Y95800D01*
X124400Y79200D02*
Y95800D01*
X144400D02*
X153600D01*
X144400Y79200D02*
X153600D01*
Y95800D01*
X144400Y79200D02*
Y95800D01*
X53400Y247700D02*
X62600D01*
X53400Y264300D02*
X62600D01*
X53400Y247700D02*
Y264300D01*
X62600Y247700D02*
Y264300D01*
X5400Y242700D02*
X14600D01*
X5400Y259300D02*
X14600D01*
X5400Y242700D02*
Y259300D01*
X14600Y242700D02*
Y259300D01*
X17700Y167400D02*
Y176600D01*
X34300Y167400D02*
Y176600D01*
X17700D02*
X34300D01*
X17700Y167400D02*
X34300D01*
X17700Y155400D02*
Y164600D01*
X34300Y155400D02*
Y164600D01*
X17700D02*
X34300D01*
X17700Y155400D02*
X34300D01*
X48300Y105400D02*
Y114600D01*
X31700Y105400D02*
Y114600D01*
Y105400D02*
X48300D01*
X31700Y114600D02*
X48300D01*
X15400Y224300D02*
X24600D01*
X15400Y207700D02*
X24600D01*
Y224300D01*
X15400Y207700D02*
Y224300D01*
X323200Y166600D02*
X338800D01*
X323200Y157400D02*
X338800D01*
X323200D02*
Y166600D01*
X338800Y157400D02*
Y166600D01*
X339400Y149200D02*
Y164800D01*
X348600Y149200D02*
Y164800D01*
X339400Y149200D02*
X348600D01*
X339400Y164800D02*
X348600D01*
X268000Y86000D02*
Y88999D01*
X269499D01*
X269999Y88499D01*
Y87499D01*
X269499Y87000D01*
X268000D01*
X269000D02*
X269999Y86000D01*
X272998Y88999D02*
X270999D01*
Y87499D01*
X271999Y87999D01*
X272498D01*
X272998Y87499D01*
Y86500D01*
X272498Y86000D01*
X271499D01*
X270999Y86500D01*
X273998Y88999D02*
X275997D01*
Y88499D01*
X273998Y86500D01*
Y86000D01*
X217000Y124999D02*
Y122000D01*
X218999D01*
X221998Y124999D02*
X219999D01*
Y122000D01*
X221998D01*
X219999Y123500D02*
X220999D01*
X222998Y124999D02*
Y122000D01*
X224498D01*
X224997Y122500D01*
Y124499D01*
X224498Y124999D01*
X222998D01*
X227497Y122000D02*
Y124999D01*
X225997Y123500D01*
X227996D01*
X235000Y92000D02*
Y94999D01*
X236500D01*
X236999Y94499D01*
Y93499D01*
X236500Y93000D01*
X235000D01*
X236000D02*
X236999Y92000D01*
X239998D02*
X237999D01*
X239998Y93999D01*
Y94499D01*
X239498Y94999D01*
X238499D01*
X237999Y94499D01*
X242997Y92000D02*
X240998D01*
X242997Y93999D01*
Y94499D01*
X242498Y94999D01*
X241498D01*
X240998Y94499D01*
X203000Y124999D02*
Y122000D01*
X204999D01*
X207998Y124999D02*
X205999D01*
Y122000D01*
X207998D01*
X205999Y123500D02*
X206999D01*
X208998Y124999D02*
Y122000D01*
X210498D01*
X210997Y122500D01*
Y124499D01*
X210498Y124999D01*
X208998D01*
X211997Y124499D02*
X212497Y124999D01*
X213497D01*
X213996Y124499D01*
Y123999D01*
X213497Y123500D01*
X212997D01*
X213497D01*
X213996Y123000D01*
Y122500D01*
X213497Y122000D01*
X212497D01*
X211997Y122500D01*
X320000Y239999D02*
X321999Y237000D01*
Y239999D02*
X320000Y237000D01*
X324998Y239999D02*
X322999D01*
Y238499D01*
X323999Y238999D01*
X324499D01*
X324998Y238499D01*
Y237500D01*
X324499Y237000D01*
X323499D01*
X322999Y237500D01*
X110000Y200999D02*
X111999Y198000D01*
Y200999D02*
X110000Y198000D01*
X114499D02*
Y200999D01*
X112999Y199499D01*
X114998D01*
X132319Y171980D02*
X135318Y173979D01*
X132319D02*
X135318Y171980D01*
X132818Y174979D02*
X132319Y175479D01*
Y176479D01*
X132818Y176979D01*
X133318D01*
X133818Y176479D01*
Y175979D01*
Y176479D01*
X134318Y176979D01*
X134818D01*
X135318Y176479D01*
Y175479D01*
X134818Y174979D01*
X77000Y121999D02*
Y120000D01*
X78000Y119000D01*
X78999Y120000D01*
Y121999D01*
X79999Y119000D02*
Y121999D01*
X81499D01*
X81998Y121499D01*
Y120500D01*
X81499Y120000D01*
X79999D01*
X80999D02*
X81998Y119000D01*
X82998D02*
X83998D01*
X83498D01*
Y121999D01*
X82998Y121499D01*
X307000Y136999D02*
X308999D01*
X308000D01*
Y134000D01*
X311998D02*
X309999D01*
X311998Y135999D01*
Y136499D01*
X311498Y136999D01*
X310499D01*
X309999Y136499D01*
X355000Y147999D02*
X356999D01*
X356000D01*
Y145000D01*
X357999D02*
X358999D01*
X358499D01*
Y147999D01*
X357999Y147499D01*
X95157Y253499D02*
X94657Y253999D01*
X93657D01*
X93158Y253499D01*
Y252999D01*
X93657Y252500D01*
X94657D01*
X95157Y252000D01*
Y251500D01*
X94657Y251000D01*
X93657D01*
X93158Y251500D01*
X96157Y253999D02*
Y251000D01*
X97156Y252000D01*
X98156Y251000D01*
Y253999D01*
X99155Y251000D02*
X100155D01*
X99655D01*
Y253999D01*
X99155Y253499D01*
X357500Y24500D02*
Y27499D01*
X358999D01*
X359499Y26999D01*
Y26000D01*
X358999Y25500D01*
X357500D01*
X358500D02*
X359499Y24500D01*
X362498Y27499D02*
X360499D01*
Y24500D01*
X362498D01*
X360499Y26000D02*
X361499D01*
X363498Y27499D02*
Y24500D01*
X365497D01*
X366497D02*
X367497D01*
X366997D01*
Y27499D01*
X366497Y26999D01*
X291000Y135000D02*
Y137999D01*
X292499D01*
X292999Y137499D01*
Y136500D01*
X292499Y136000D01*
X291000D01*
X292000D02*
X292999Y135000D01*
X295998Y137999D02*
X293999D01*
Y136500D01*
X294999Y136999D01*
X295498D01*
X295998Y136500D01*
Y135500D01*
X295498Y135000D01*
X294499D01*
X293999Y135500D01*
X298498Y135000D02*
Y137999D01*
X296998Y136500D01*
X298997D01*
X378000Y267000D02*
Y269999D01*
X379500D01*
X379999Y269499D01*
Y268499D01*
X379500Y268000D01*
X378000D01*
X379000D02*
X379999Y267000D01*
X382998Y269999D02*
X380999D01*
Y268499D01*
X381999Y268999D01*
X382499D01*
X382998Y268499D01*
Y267500D01*
X382499Y267000D01*
X381499D01*
X380999Y267500D01*
X383998Y269499D02*
X384498Y269999D01*
X385498D01*
X385997Y269499D01*
Y268999D01*
X385498Y268499D01*
X384998D01*
X385498D01*
X385997Y268000D01*
Y267500D01*
X385498Y267000D01*
X384498D01*
X383998Y267500D01*
X346000Y255000D02*
Y257999D01*
X347499D01*
X347999Y257499D01*
Y256500D01*
X347499Y256000D01*
X346000D01*
X347000D02*
X347999Y255000D01*
X350998Y257999D02*
X348999D01*
Y256500D01*
X349999Y256999D01*
X350499D01*
X350998Y256500D01*
Y255500D01*
X350499Y255000D01*
X349499D01*
X348999Y255500D01*
X353997Y255000D02*
X351998D01*
X353997Y256999D01*
Y257499D01*
X353498Y257999D01*
X352498D01*
X351998Y257499D01*
X344000Y173000D02*
X341001D01*
Y174499D01*
X341501Y174999D01*
X342500D01*
X343000Y174499D01*
Y173000D01*
Y174000D02*
X344000Y174999D01*
X341001Y177998D02*
Y175999D01*
X342500D01*
X342001Y176999D01*
Y177499D01*
X342500Y177998D01*
X343500D01*
X344000Y177499D01*
Y176499D01*
X343500Y175999D01*
X344000Y178998D02*
Y179998D01*
Y179498D01*
X341001D01*
X341501Y178998D01*
X315000Y67000D02*
Y69999D01*
X316499D01*
X316999Y69499D01*
Y68499D01*
X316499Y68000D01*
X315000D01*
X316000D02*
X316999Y67000D01*
X319998Y69999D02*
X317999D01*
Y68499D01*
X318999Y68999D01*
X319498D01*
X319998Y68499D01*
Y67500D01*
X319498Y67000D01*
X318499D01*
X317999Y67500D01*
X320998Y69499D02*
X321498Y69999D01*
X322498D01*
X322997Y69499D01*
Y67500D01*
X322498Y67000D01*
X321498D01*
X320998Y67500D01*
Y69499D01*
X320000Y108000D02*
Y110999D01*
X321499D01*
X321999Y110499D01*
Y109500D01*
X321499Y109000D01*
X320000D01*
X321000D02*
X321999Y108000D01*
X324499D02*
Y110999D01*
X322999Y109500D01*
X324998D01*
X325998Y108500D02*
X326498Y108000D01*
X327498D01*
X327997Y108500D01*
Y110499D01*
X327498Y110999D01*
X326498D01*
X325998Y110499D01*
Y109999D01*
X326498Y109500D01*
X327997D01*
X292500Y60000D02*
Y62999D01*
X294000D01*
X294499Y62499D01*
Y61500D01*
X294000Y61000D01*
X292500D01*
X293500D02*
X294499Y60000D01*
X296999D02*
Y62999D01*
X295499Y61500D01*
X297498D01*
X298498Y62499D02*
X298998Y62999D01*
X299998D01*
X300497Y62499D01*
Y61999D01*
X299998Y61500D01*
X300497Y61000D01*
Y60500D01*
X299998Y60000D01*
X298998D01*
X298498Y60500D01*
Y61000D01*
X298998Y61500D01*
X298498Y61999D01*
Y62499D01*
X298998Y61500D02*
X299998D01*
X268000Y67000D02*
Y69999D01*
X269499D01*
X269999Y69499D01*
Y68499D01*
X269499Y68000D01*
X268000D01*
X269000D02*
X269999Y67000D01*
X272498D02*
Y69999D01*
X270999Y68499D01*
X272998D01*
X273998Y69999D02*
X275997D01*
Y69499D01*
X273998Y67500D01*
Y67000D01*
X275000Y203000D02*
Y205999D01*
X276500D01*
X276999Y205499D01*
Y204500D01*
X276500Y204000D01*
X275000D01*
X276000D02*
X276999Y203000D01*
X279499D02*
Y205999D01*
X277999Y204500D01*
X279998D01*
X282498Y203000D02*
Y205999D01*
X280998Y204500D01*
X282997D01*
X255000Y203000D02*
Y205999D01*
X256500D01*
X256999Y205499D01*
Y204500D01*
X256500Y204000D01*
X255000D01*
X256000D02*
X256999Y203000D01*
X259499D02*
Y205999D01*
X257999Y204500D01*
X259998D01*
X260998Y205499D02*
X261498Y205999D01*
X262498D01*
X262997Y205499D01*
Y204999D01*
X262498Y204500D01*
X261998D01*
X262498D01*
X262997Y204000D01*
Y203500D01*
X262498Y203000D01*
X261498D01*
X260998Y203500D01*
X186000Y245000D02*
Y247999D01*
X187499D01*
X187999Y247499D01*
Y246499D01*
X187499Y246000D01*
X186000D01*
X187000D02*
X187999Y245000D01*
X190499D02*
Y247999D01*
X188999Y246499D01*
X190998D01*
X193997Y245000D02*
X191998D01*
X193997Y246999D01*
Y247499D01*
X193498Y247999D01*
X192498D01*
X191998Y247499D01*
X129000Y254000D02*
Y256999D01*
X130499D01*
X130999Y256499D01*
Y255500D01*
X130499Y255000D01*
X129000D01*
X130000D02*
X130999Y254000D01*
X133499D02*
Y256999D01*
X131999Y255500D01*
X133998D01*
X134998Y254000D02*
X135998D01*
X135498D01*
Y256999D01*
X134998Y256499D01*
X234000Y187000D02*
Y189999D01*
X235500D01*
X235999Y189499D01*
Y188499D01*
X235500Y188000D01*
X234000D01*
X235000D02*
X235999Y187000D01*
X236999Y189499D02*
X237499Y189999D01*
X238498D01*
X238998Y189499D01*
Y188999D01*
X238498Y188499D01*
X237999D01*
X238498D01*
X238998Y188000D01*
Y187500D01*
X238498Y187000D01*
X237499D01*
X236999Y187500D01*
X241997Y189999D02*
X240998Y189499D01*
X239998Y188499D01*
Y187500D01*
X240498Y187000D01*
X241498D01*
X241997Y187500D01*
Y188000D01*
X241498Y188499D01*
X239998D01*
X95000Y122000D02*
Y124999D01*
X96500D01*
X96999Y124499D01*
Y123500D01*
X96500Y123000D01*
X95000D01*
X96000D02*
X96999Y122000D01*
X97999Y124499D02*
X98499Y124999D01*
X99499D01*
X99998Y124499D01*
Y123999D01*
X99499Y123500D01*
X98999D01*
X99499D01*
X99998Y123000D01*
Y122500D01*
X99499Y122000D01*
X98499D01*
X97999Y122500D01*
X102997Y124999D02*
X100998D01*
Y123500D01*
X101998Y123999D01*
X102498D01*
X102997Y123500D01*
Y122500D01*
X102498Y122000D01*
X101498D01*
X100998Y122500D01*
X218000Y144000D02*
Y146999D01*
X219499D01*
X219999Y146499D01*
Y145500D01*
X219499Y145000D01*
X218000D01*
X219000D02*
X219999Y144000D01*
X220999Y146499D02*
X221499Y146999D01*
X222498D01*
X222998Y146499D01*
Y145999D01*
X222498Y145500D01*
X221999D01*
X222498D01*
X222998Y145000D01*
Y144500D01*
X222498Y144000D01*
X221499D01*
X220999Y144500D01*
X225498Y144000D02*
Y146999D01*
X223998Y145500D01*
X225997D01*
X369000Y97000D02*
Y99999D01*
X370499D01*
X370999Y99499D01*
Y98500D01*
X370499Y98000D01*
X369000D01*
X370000D02*
X370999Y97000D01*
X371999Y99499D02*
X372499Y99999D01*
X373499D01*
X373998Y99499D01*
Y98999D01*
X373499Y98500D01*
X372999D01*
X373499D01*
X373998Y98000D01*
Y97500D01*
X373499Y97000D01*
X372499D01*
X371999Y97500D01*
X374998Y99499D02*
X375498Y99999D01*
X376498D01*
X376997Y99499D01*
Y98999D01*
X376498Y98500D01*
X375998D01*
X376498D01*
X376997Y98000D01*
Y97500D01*
X376498Y97000D01*
X375498D01*
X374998Y97500D01*
X384000Y96000D02*
Y98999D01*
X385500D01*
X385999Y98499D01*
Y97500D01*
X385500Y97000D01*
X384000D01*
X385000D02*
X385999Y96000D01*
X386999Y98499D02*
X387499Y98999D01*
X388498D01*
X388998Y98499D01*
Y97999D01*
X388498Y97500D01*
X387999D01*
X388498D01*
X388998Y97000D01*
Y96500D01*
X388498Y96000D01*
X387499D01*
X386999Y96500D01*
X391997Y96000D02*
X389998D01*
X391997Y97999D01*
Y98499D01*
X391498Y98999D01*
X390498D01*
X389998Y98499D01*
X409000Y112000D02*
Y114999D01*
X410499D01*
X410999Y114499D01*
Y113499D01*
X410499Y113000D01*
X409000D01*
X410000D02*
X410999Y112000D01*
X411999Y114499D02*
X412499Y114999D01*
X413498D01*
X413998Y114499D01*
Y113999D01*
X413498Y113499D01*
X412999D01*
X413498D01*
X413998Y113000D01*
Y112500D01*
X413498Y112000D01*
X412499D01*
X411999Y112500D01*
X414998Y112000D02*
X415998D01*
X415498D01*
Y114999D01*
X414998Y114499D01*
X414000Y95000D02*
Y97999D01*
X415499D01*
X415999Y97499D01*
Y96500D01*
X415499Y96000D01*
X414000D01*
X415000D02*
X415999Y95000D01*
X416999Y97499D02*
X417499Y97999D01*
X418499D01*
X418998Y97499D01*
Y96999D01*
X418499Y96500D01*
X417999D01*
X418499D01*
X418998Y96000D01*
Y95500D01*
X418499Y95000D01*
X417499D01*
X416999Y95500D01*
X419998Y97499D02*
X420498Y97999D01*
X421498D01*
X421997Y97499D01*
Y95500D01*
X421498Y95000D01*
X420498D01*
X419998Y95500D01*
Y97499D01*
X152000Y121000D02*
Y123999D01*
X153499D01*
X153999Y123499D01*
Y122500D01*
X153499Y122000D01*
X152000D01*
X153000D02*
X153999Y121000D01*
X156998D02*
X154999D01*
X156998Y122999D01*
Y123499D01*
X156499Y123999D01*
X155499D01*
X154999Y123499D01*
X157998D02*
X158498Y123999D01*
X159498D01*
X159997Y123499D01*
Y122999D01*
X159498Y122500D01*
X159997Y122000D01*
Y121500D01*
X159498Y121000D01*
X158498D01*
X157998Y121500D01*
Y122000D01*
X158498Y122500D01*
X157998Y122999D01*
Y123499D01*
X158498Y122500D02*
X159498D01*
X131000Y121000D02*
Y123999D01*
X132500D01*
X132999Y123499D01*
Y122500D01*
X132500Y122000D01*
X131000D01*
X132000D02*
X132999Y121000D01*
X135998D02*
X133999D01*
X135998Y122999D01*
Y123499D01*
X135499Y123999D01*
X134499D01*
X133999Y123499D01*
X136998Y123999D02*
X138997D01*
Y123499D01*
X136998Y121500D01*
Y121000D01*
X120000D02*
Y123999D01*
X121500D01*
X121999Y123499D01*
Y122500D01*
X121500Y122000D01*
X120000D01*
X121000D02*
X121999Y121000D01*
X124998D02*
X122999D01*
X124998Y122999D01*
Y123499D01*
X124499Y123999D01*
X123499D01*
X122999Y123499D01*
X125998D02*
X126498Y123999D01*
X127498D01*
X127997Y123499D01*
Y122999D01*
X127498Y122500D01*
X126998D01*
X127498D01*
X127997Y122000D01*
Y121500D01*
X127498Y121000D01*
X126498D01*
X125998Y121500D01*
X174000Y121000D02*
Y123999D01*
X175499D01*
X175999Y123499D01*
Y122500D01*
X175499Y122000D01*
X174000D01*
X175000D02*
X175999Y121000D01*
X178998D02*
X176999D01*
X178998Y122999D01*
Y123499D01*
X178499Y123999D01*
X177499D01*
X176999Y123499D01*
X179998Y121000D02*
X180998D01*
X180498D01*
Y123999D01*
X179998Y123499D01*
X94000Y98000D02*
Y100999D01*
X95499D01*
X95999Y100499D01*
Y99499D01*
X95499Y99000D01*
X94000D01*
X95000D02*
X95999Y98000D01*
X98998D02*
X96999D01*
X98998Y99999D01*
Y100499D01*
X98499Y100999D01*
X97499D01*
X96999Y100499D01*
X99998D02*
X100498Y100999D01*
X101498D01*
X101997Y100499D01*
Y98500D01*
X101498Y98000D01*
X100498D01*
X99998Y98500D01*
Y100499D01*
X115000Y98000D02*
Y100999D01*
X116499D01*
X116999Y100499D01*
Y99499D01*
X116499Y99000D01*
X115000D01*
X116000D02*
X116999Y98000D01*
X117999D02*
X118999D01*
X118499D01*
Y100999D01*
X117999Y100499D01*
X120498Y98500D02*
X120998Y98000D01*
X121998D01*
X122498Y98500D01*
Y100499D01*
X121998Y100999D01*
X120998D01*
X120498Y100499D01*
Y99999D01*
X120998Y99499D01*
X122498D01*
X135000Y74000D02*
Y76999D01*
X136500D01*
X136999Y76499D01*
Y75499D01*
X136500Y75000D01*
X135000D01*
X136000D02*
X136999Y74000D01*
X137999D02*
X138999D01*
X138499D01*
Y76999D01*
X137999Y76499D01*
X142498Y76999D02*
X141498Y76499D01*
X140498Y75499D01*
Y74500D01*
X140998Y74000D01*
X141998D01*
X142498Y74500D01*
Y75000D01*
X141998Y75499D01*
X140498D01*
X85000Y75000D02*
Y77999D01*
X86500D01*
X86999Y77499D01*
Y76499D01*
X86500Y76000D01*
X85000D01*
X86000D02*
X86999Y75000D01*
X87999D02*
X88999D01*
X88499D01*
Y77999D01*
X87999Y77499D01*
X92498Y77999D02*
X90498D01*
Y76499D01*
X91498Y76999D01*
X91998D01*
X92498Y76499D01*
Y75500D01*
X91998Y75000D01*
X90998D01*
X90498Y75500D01*
X105000Y74000D02*
Y76999D01*
X106500D01*
X106999Y76499D01*
Y75499D01*
X106500Y75000D01*
X105000D01*
X106000D02*
X106999Y74000D01*
X107999D02*
X108999D01*
X108499D01*
Y76999D01*
X107999Y76499D01*
X111998Y74000D02*
Y76999D01*
X110498Y75499D01*
X112498D01*
X10000Y181000D02*
Y183999D01*
X11500D01*
X11999Y183499D01*
Y182500D01*
X11500Y182000D01*
X10000D01*
X11000D02*
X11999Y181000D01*
X14499D02*
Y183999D01*
X12999Y182500D01*
X14998D01*
X83000Y66000D02*
Y68999D01*
X84500D01*
X84999Y68499D01*
Y67500D01*
X84500Y67000D01*
X83000D01*
X84000D02*
X84999Y66000D01*
X85999Y68499D02*
X86499Y68999D01*
X87499D01*
X87998Y68499D01*
Y67999D01*
X87499Y67500D01*
X86999D01*
X87499D01*
X87998Y67000D01*
Y66500D01*
X87499Y66000D01*
X86499D01*
X85999Y66500D01*
X10000Y127000D02*
Y129999D01*
X11500D01*
X11999Y129499D01*
Y128499D01*
X11500Y128000D01*
X10000D01*
X11000D02*
X11999Y127000D01*
X14998D02*
X12999D01*
X14998Y128999D01*
Y129499D01*
X14499Y129999D01*
X13499D01*
X12999Y129499D01*
X19000Y144000D02*
Y146999D01*
X20500D01*
X20999Y146499D01*
Y145500D01*
X20500Y145000D01*
X19000D01*
X20000D02*
X20999Y144000D01*
X21999D02*
X22999D01*
X22499D01*
Y146999D01*
X21999Y146499D01*
X247999Y158500D02*
Y160499D01*
X247499Y160999D01*
X246500D01*
X246000Y160499D01*
Y158500D01*
X246500Y158000D01*
X247499D01*
X247000Y159000D02*
X247999Y158000D01*
X247499D02*
X247999Y158500D01*
X250998Y158000D02*
X248999D01*
X250998Y159999D01*
Y160499D01*
X250499Y160999D01*
X249499D01*
X248999Y160499D01*
X359499Y78000D02*
Y79999D01*
X358999Y80499D01*
X358000D01*
X357500Y79999D01*
Y78000D01*
X358000Y77500D01*
X358999D01*
X358500Y78500D02*
X359499Y77500D01*
X358999D02*
X359499Y78000D01*
X360499Y77500D02*
X361499D01*
X360999D01*
Y80499D01*
X360499Y79999D01*
X425000Y237500D02*
X423001D01*
X422001Y238500D01*
X423001Y239499D01*
X425000D01*
X423500D01*
Y237500D01*
X425000Y240499D02*
X422001D01*
X425000Y242498D01*
X422001D01*
Y243498D02*
Y245497D01*
Y244498D01*
X425000D01*
Y246497D02*
Y247497D01*
Y246997D01*
X422001D01*
X422501Y246497D01*
X389000Y74999D02*
Y72000D01*
X390999D01*
X393998Y74999D02*
X391999D01*
Y72000D01*
X393998D01*
X391999Y73500D02*
X392999D01*
X394998Y74999D02*
Y72000D01*
X396498D01*
X396997Y72500D01*
Y74499D01*
X396498Y74999D01*
X394998D01*
X399996Y72000D02*
X397997D01*
X399996Y73999D01*
Y74499D01*
X399497Y74999D01*
X398497D01*
X397997Y74499D01*
X64000Y99999D02*
Y97000D01*
X65999D01*
X68998Y99999D02*
X66999D01*
Y97000D01*
X68998D01*
X66999Y98500D02*
X67999D01*
X69998Y99999D02*
Y97000D01*
X71498D01*
X71997Y97500D01*
Y99499D01*
X71498Y99999D01*
X69998D01*
X72997Y97000D02*
X73997D01*
X73497D01*
Y99999D01*
X72997Y99499D01*
X368001Y194000D02*
X371000D01*
Y195999D01*
X368501Y196999D02*
X368001Y197499D01*
Y198499D01*
X368501Y198998D01*
X369001D01*
X369500Y198499D01*
Y197999D01*
Y198499D01*
X370000Y198998D01*
X370500D01*
X371000Y198499D01*
Y197499D01*
X370500Y196999D01*
X369001Y238000D02*
X372000D01*
Y239999D01*
Y242998D02*
Y240999D01*
X370001Y242998D01*
X369501D01*
X369001Y242498D01*
Y241499D01*
X369501Y240999D01*
X80000Y207999D02*
Y205000D01*
X81999D01*
X82999D02*
X83999D01*
X83499D01*
Y207999D01*
X82999Y207499D01*
X317001Y214000D02*
Y215000D01*
Y214500D01*
X320000D01*
Y214000D01*
Y215000D01*
X317501Y218498D02*
X317001Y217999D01*
Y216999D01*
X317501Y216499D01*
X319500D01*
X320000Y216999D01*
Y217999D01*
X319500Y218498D01*
X320000Y219498D02*
Y220498D01*
Y219998D01*
X317001D01*
X317501Y219498D01*
X320000Y223997D02*
Y221997D01*
X318001Y223997D01*
X317501D01*
X317001Y223497D01*
Y222497D01*
X317501Y221997D01*
X280000Y83999D02*
X281000D01*
X280500D01*
Y81000D01*
X280000D01*
X281000D01*
X284499Y83499D02*
X283999Y83999D01*
X282999D01*
X282499Y83499D01*
Y81500D01*
X282999Y81000D01*
X283999D01*
X284499Y81500D01*
X285498Y81000D02*
X286498D01*
X285998D01*
Y83999D01*
X285498Y83499D01*
X287997Y81000D02*
X288997D01*
X288497D01*
Y83999D01*
X287997Y83499D01*
X9000Y101999D02*
X10000D01*
X9500D01*
Y99000D01*
X9000D01*
X10000D01*
X13498Y101499D02*
X12999Y101999D01*
X11999D01*
X11499Y101499D01*
Y99500D01*
X11999Y99000D01*
X12999D01*
X13498Y99500D01*
X14498Y99000D02*
X15498D01*
X14998D01*
Y101999D01*
X14498Y101499D01*
X16997D02*
X17497Y101999D01*
X18497D01*
X18997Y101499D01*
Y99500D01*
X18497Y99000D01*
X17497D01*
X16997Y99500D01*
Y101499D01*
X207000Y40999D02*
X208000D01*
X207500D01*
Y38000D01*
X207000D01*
X208000D01*
X211498Y40499D02*
X210999Y40999D01*
X209999D01*
X209499Y40499D01*
Y38500D01*
X209999Y38000D01*
X210999D01*
X211498Y38500D01*
X212498D02*
X212998Y38000D01*
X213998D01*
X214498Y38500D01*
Y40499D01*
X213998Y40999D01*
X212998D01*
X212498Y40499D01*
Y39999D01*
X212998Y39500D01*
X214498D01*
X150000Y233999D02*
X151000D01*
X150500D01*
Y231000D01*
X150000D01*
X151000D01*
X154499Y233499D02*
X153999Y233999D01*
X152999D01*
X152499Y233499D01*
Y231500D01*
X152999Y231000D01*
X153999D01*
X154499Y231500D01*
X155498Y233499D02*
X155998Y233999D01*
X156998D01*
X157498Y233499D01*
Y232999D01*
X156998Y232500D01*
X157498Y232000D01*
Y231500D01*
X156998Y231000D01*
X155998D01*
X155498Y231500D01*
Y232000D01*
X155998Y232500D01*
X155498Y232999D01*
Y233499D01*
X155998Y232500D02*
X156998D01*
X392000Y24999D02*
X393000D01*
X392500D01*
Y22000D01*
X392000D01*
X393000D01*
X396498Y24499D02*
X395999Y24999D01*
X394999D01*
X394499Y24499D01*
Y22500D01*
X394999Y22000D01*
X395999D01*
X396498Y22500D01*
X397498Y24999D02*
X399498D01*
Y24499D01*
X397498Y22500D01*
Y22000D01*
X29000Y270472D02*
X30000D01*
X29500D01*
Y267472D01*
X29000D01*
X30000D01*
X33498Y269972D02*
X32999Y270472D01*
X31999D01*
X31499Y269972D01*
Y267972D01*
X31999Y267472D01*
X32999D01*
X33498Y267972D01*
X36498Y267472D02*
X34498D01*
X36498Y269472D01*
Y269972D01*
X35998Y270472D01*
X34998D01*
X34498Y269972D01*
X37000Y152499D02*
X38000D01*
X37500D01*
Y149500D01*
X37000D01*
X38000D01*
X41499Y151999D02*
X40999Y152499D01*
X39999D01*
X39499Y151999D01*
Y150000D01*
X39999Y149500D01*
X40999D01*
X41499Y150000D01*
X42498Y149500D02*
X43498D01*
X42998D01*
Y152499D01*
X42498Y151999D01*
X311001Y173999D02*
Y172000D01*
X312501D01*
Y173000D01*
Y172000D01*
X314000D01*
X311001Y174999D02*
X314000D01*
Y176499D01*
X313500Y176998D01*
X313000D01*
X312501Y176499D01*
Y174999D01*
Y176499D01*
X312001Y176998D01*
X311501D01*
X311001Y176499D01*
Y174999D01*
X314000Y177998D02*
Y178998D01*
Y178498D01*
X311001D01*
X311501Y177998D01*
X314000Y182497D02*
Y180497D01*
X312001Y182497D01*
X311501D01*
X311001Y181997D01*
Y180997D01*
X311501Y180497D01*
X314501Y41999D02*
Y40000D01*
X316001D01*
Y41000D01*
Y40000D01*
X317500D01*
X314501Y42999D02*
X317500D01*
Y44499D01*
X317000Y44998D01*
X316500D01*
X316001Y44499D01*
Y42999D01*
Y44499D01*
X315501Y44998D01*
X315001D01*
X314501Y44499D01*
Y42999D01*
X317500Y45998D02*
Y46998D01*
Y46498D01*
X314501D01*
X315001Y45998D01*
X317500Y48497D02*
Y49497D01*
Y48997D01*
X314501D01*
X315001Y48497D01*
X259001Y41999D02*
Y40000D01*
X260501D01*
Y41000D01*
Y40000D01*
X262000D01*
X259001Y42999D02*
X262000D01*
Y44499D01*
X261500Y44998D01*
X261000D01*
X260501Y44499D01*
Y42999D01*
Y44499D01*
X260001Y44998D01*
X259501D01*
X259001Y44499D01*
Y42999D01*
X262000Y45998D02*
Y46998D01*
Y46498D01*
X259001D01*
X259501Y45998D01*
Y48497D02*
X259001Y48997D01*
Y49997D01*
X259501Y50497D01*
X261500D01*
X262000Y49997D01*
Y48997D01*
X261500Y48497D01*
X259501D01*
X332999Y93999D02*
X331000D01*
Y92500D01*
X332000D01*
X331000D01*
Y91000D01*
X333999Y93999D02*
Y91000D01*
X335498D01*
X335998Y91500D01*
Y92000D01*
X335498Y92500D01*
X333999D01*
X335498D01*
X335998Y92999D01*
Y93499D01*
X335498Y93999D01*
X333999D01*
X336998Y91500D02*
X337498Y91000D01*
X338498D01*
X338997Y91500D01*
Y93499D01*
X338498Y93999D01*
X337498D01*
X336998Y93499D01*
Y92999D01*
X337498Y92500D01*
X338997D01*
X200999Y92999D02*
X199000D01*
Y91500D01*
X200000D01*
X199000D01*
Y90000D01*
X201999Y92999D02*
Y90000D01*
X203499D01*
X203998Y90500D01*
Y91000D01*
X203499Y91500D01*
X201999D01*
X203499D01*
X203998Y91999D01*
Y92499D01*
X203499Y92999D01*
X201999D01*
X204998Y92499D02*
X205498Y92999D01*
X206498D01*
X206997Y92499D01*
Y91999D01*
X206498Y91500D01*
X206997Y91000D01*
Y90500D01*
X206498Y90000D01*
X205498D01*
X204998Y90500D01*
Y91000D01*
X205498Y91500D01*
X204998Y91999D01*
Y92499D01*
X205498Y91500D02*
X206498D01*
X138999Y246999D02*
X137000D01*
Y245499D01*
X138000D01*
X137000D01*
Y244000D01*
X139999Y246999D02*
Y244000D01*
X141499D01*
X141998Y244500D01*
Y245000D01*
X141499Y245499D01*
X139999D01*
X141499D01*
X141998Y245999D01*
Y246499D01*
X141499Y246999D01*
X139999D01*
X142998D02*
X144997D01*
Y246499D01*
X142998Y244500D01*
Y244000D01*
X212999Y258999D02*
X211000D01*
Y257500D01*
X212000D01*
X211000D01*
Y256000D01*
X213999Y258999D02*
Y256000D01*
X215498D01*
X215998Y256500D01*
Y257000D01*
X215498Y257500D01*
X213999D01*
X215498D01*
X215998Y257999D01*
Y258499D01*
X215498Y258999D01*
X213999D01*
X218997D02*
X217998Y258499D01*
X216998Y257500D01*
Y256500D01*
X217498Y256000D01*
X218498D01*
X218997Y256500D01*
Y257000D01*
X218498Y257500D01*
X216998D01*
X271999Y145999D02*
X270000D01*
Y144500D01*
X271000D01*
X270000D01*
Y143000D01*
X272999Y145999D02*
Y143000D01*
X274499D01*
X274998Y143500D01*
Y144000D01*
X274499Y144500D01*
X272999D01*
X274499D01*
X274998Y144999D01*
Y145499D01*
X274499Y145999D01*
X272999D01*
X277498Y143000D02*
Y145999D01*
X275998Y144500D01*
X277997D01*
X67999Y58999D02*
X66000D01*
Y57499D01*
X67000D01*
X66000D01*
Y56000D01*
X68999D02*
X69999D01*
X69499D01*
Y58999D01*
X68999Y58499D01*
X322000Y35999D02*
Y33000D01*
X323499D01*
X323999Y33500D01*
Y35499D01*
X323499Y35999D01*
X322000D01*
X324999Y35499D02*
X325499Y35999D01*
X326499D01*
X326998Y35499D01*
Y34999D01*
X326499Y34499D01*
X326998Y34000D01*
Y33500D01*
X326499Y33000D01*
X325499D01*
X324999Y33500D01*
Y34000D01*
X325499Y34499D01*
X324999Y34999D01*
Y35499D01*
X325499Y34499D02*
X326499D01*
X295000Y43999D02*
Y41000D01*
X296499D01*
X296999Y41500D01*
Y43499D01*
X296499Y43999D01*
X295000D01*
X297999D02*
X299998D01*
Y43499D01*
X297999Y41500D01*
Y41000D01*
X267000Y35999D02*
Y33000D01*
X268499D01*
X268999Y33500D01*
Y35499D01*
X268499Y35999D01*
X267000D01*
X271998D02*
X270999Y35499D01*
X269999Y34499D01*
Y33500D01*
X270499Y33000D01*
X271498D01*
X271998Y33500D01*
Y34000D01*
X271498Y34499D01*
X269999D01*
X342000Y71999D02*
Y69000D01*
X343499D01*
X343999Y69500D01*
Y71499D01*
X343499Y71999D01*
X342000D01*
X346998D02*
X344999D01*
Y70499D01*
X345999Y70999D01*
X346498D01*
X346998Y70499D01*
Y69500D01*
X346498Y69000D01*
X345499D01*
X344999Y69500D01*
X62000Y225999D02*
Y223000D01*
X63499D01*
X63999Y223500D01*
Y225499D01*
X63499Y225999D01*
X62000D01*
X66499Y223000D02*
Y225999D01*
X64999Y224500D01*
X66998D01*
X62500Y120499D02*
Y117500D01*
X63999D01*
X64499Y118000D01*
Y119999D01*
X63999Y120499D01*
X62500D01*
X65499Y119999D02*
X65999Y120499D01*
X66999D01*
X67498Y119999D01*
Y119499D01*
X66999Y119000D01*
X66499D01*
X66999D01*
X67498Y118500D01*
Y118000D01*
X66999Y117500D01*
X65999D01*
X65499Y118000D01*
X10000Y44999D02*
Y42000D01*
X11500D01*
X11999Y42500D01*
Y44499D01*
X11500Y44999D01*
X10000D01*
X14998Y42000D02*
X12999D01*
X14998Y43999D01*
Y44499D01*
X14499Y44999D01*
X13499D01*
X12999Y44499D01*
X39000Y12999D02*
Y10000D01*
X40499D01*
X40999Y10500D01*
Y12499D01*
X40499Y12999D01*
X39000D01*
X41999Y10000D02*
X42999D01*
X42499D01*
Y12999D01*
X41999Y12499D01*
X351501Y174999D02*
X351001Y174499D01*
Y173500D01*
X351501Y173000D01*
X353500D01*
X354000Y173500D01*
Y174499D01*
X353500Y174999D01*
X351001Y177998D02*
Y175999D01*
X352501D01*
X352001Y176999D01*
Y177499D01*
X352501Y177998D01*
X353500D01*
X354000Y177499D01*
Y176499D01*
X353500Y175999D01*
X351501Y178998D02*
X351001Y179498D01*
Y180498D01*
X351501Y180997D01*
X352001D01*
X352501Y180498D01*
X353000Y180997D01*
X353500D01*
X354000Y180498D01*
Y179498D01*
X353500Y178998D01*
X353000D01*
X352501Y179498D01*
X352001Y178998D01*
X351501D01*
X352501Y179498D02*
Y180498D01*
X331501Y174999D02*
X331001Y174499D01*
Y173500D01*
X331501Y173000D01*
X333500D01*
X334000Y173500D01*
Y174499D01*
X333500Y174999D01*
X331001Y177998D02*
Y175999D01*
X332501D01*
X332001Y176999D01*
Y177499D01*
X332501Y177998D01*
X333500D01*
X334000Y177499D01*
Y176499D01*
X333500Y175999D01*
X331001Y178998D02*
Y180997D01*
X331501D01*
X333500Y178998D01*
X334000D01*
X389501Y189999D02*
X389001Y189499D01*
Y188500D01*
X389501Y188000D01*
X391500D01*
X392000Y188500D01*
Y189499D01*
X391500Y189999D01*
X389001Y192998D02*
Y190999D01*
X390500D01*
X390001Y191999D01*
Y192499D01*
X390500Y192998D01*
X391500D01*
X392000Y192499D01*
Y191499D01*
X391500Y190999D01*
X389001Y195997D02*
X389501Y194998D01*
X390500Y193998D01*
X391500D01*
X392000Y194498D01*
Y195498D01*
X391500Y195997D01*
X391000D01*
X390500Y195498D01*
Y193998D01*
X409501Y189999D02*
X409001Y189499D01*
Y188500D01*
X409501Y188000D01*
X411500D01*
X412000Y188500D01*
Y189499D01*
X411500Y189999D01*
X409001Y192998D02*
Y190999D01*
X410500D01*
X410001Y191999D01*
Y192499D01*
X410500Y192998D01*
X411500D01*
X412000Y192499D01*
Y191499D01*
X411500Y190999D01*
X409001Y195997D02*
Y193998D01*
X410500D01*
X410001Y194998D01*
Y195498D01*
X410500Y195997D01*
X411500D01*
X412000Y195498D01*
Y194498D01*
X411500Y193998D01*
X399501Y189999D02*
X399001Y189499D01*
Y188500D01*
X399501Y188000D01*
X401500D01*
X402000Y188500D01*
Y189499D01*
X401500Y189999D01*
X399001Y192998D02*
Y190999D01*
X400500D01*
X400001Y191999D01*
Y192499D01*
X400500Y192998D01*
X401500D01*
X402000Y192499D01*
Y191499D01*
X401500Y190999D01*
X402000Y195498D02*
X399001D01*
X400500Y193998D01*
Y195997D01*
X378501Y189999D02*
X378001Y189499D01*
Y188500D01*
X378501Y188000D01*
X380500D01*
X381000Y188500D01*
Y189499D01*
X380500Y189999D01*
X378001Y192998D02*
Y190999D01*
X379501D01*
X379001Y191999D01*
Y192499D01*
X379501Y192998D01*
X380500D01*
X381000Y192499D01*
Y191499D01*
X380500Y190999D01*
X378501Y193998D02*
X378001Y194498D01*
Y195498D01*
X378501Y195997D01*
X379001D01*
X379501Y195498D01*
Y194998D01*
Y195498D01*
X380000Y195997D01*
X380500D01*
X381000Y195498D01*
Y194498D01*
X380500Y193998D01*
X408501Y243999D02*
X408001Y243499D01*
Y242500D01*
X408501Y242000D01*
X410500D01*
X411000Y242500D01*
Y243499D01*
X410500Y243999D01*
X408001Y246998D02*
Y244999D01*
X409501D01*
X409001Y245999D01*
Y246498D01*
X409501Y246998D01*
X410500D01*
X411000Y246498D01*
Y245499D01*
X410500Y244999D01*
X411000Y249997D02*
Y247998D01*
X409001Y249997D01*
X408501D01*
X408001Y249498D01*
Y248498D01*
X408501Y247998D01*
X399501Y243999D02*
X399001Y243499D01*
Y242500D01*
X399501Y242000D01*
X401500D01*
X402000Y242500D01*
Y243499D01*
X401500Y243999D01*
X399001Y246998D02*
Y244999D01*
X400500D01*
X400001Y245999D01*
Y246498D01*
X400500Y246998D01*
X401500D01*
X402000Y246498D01*
Y245499D01*
X401500Y244999D01*
X402000Y247998D02*
Y248998D01*
Y248498D01*
X399001D01*
X399501Y247998D01*
X378501Y243999D02*
X378001Y243499D01*
Y242500D01*
X378501Y242000D01*
X380500D01*
X381000Y242500D01*
Y243499D01*
X380500Y243999D01*
X378001Y246998D02*
Y244999D01*
X379501D01*
X379001Y245999D01*
Y246498D01*
X379501Y246998D01*
X380500D01*
X381000Y246498D01*
Y245499D01*
X380500Y244999D01*
X378501Y247998D02*
X378001Y248498D01*
Y249498D01*
X378501Y249997D01*
X380500D01*
X381000Y249498D01*
Y248498D01*
X380500Y247998D01*
X378501D01*
X389501Y243999D02*
X389001Y243499D01*
Y242500D01*
X389501Y242000D01*
X391500D01*
X392000Y242500D01*
Y243499D01*
X391500Y243999D01*
X392000Y246498D02*
X389001D01*
X390500Y244999D01*
Y246998D01*
X391500Y247998D02*
X392000Y248498D01*
Y249498D01*
X391500Y249997D01*
X389501D01*
X389001Y249498D01*
Y248498D01*
X389501Y247998D01*
X390001D01*
X390500Y248498D01*
Y249997D01*
X362999Y269499D02*
X362499Y269999D01*
X361500D01*
X361000Y269499D01*
Y267500D01*
X361500Y267000D01*
X362499D01*
X362999Y267500D01*
X365498Y267000D02*
Y269999D01*
X363999Y268499D01*
X365998D01*
X366998Y269499D02*
X367498Y269999D01*
X368498D01*
X368997Y269499D01*
Y268999D01*
X368498Y268499D01*
X368997Y268000D01*
Y267500D01*
X368498Y267000D01*
X367498D01*
X366998Y267500D01*
Y268000D01*
X367498Y268499D01*
X366998Y268999D01*
Y269499D01*
X367498Y268499D02*
X368498D01*
X339999Y240499D02*
X339499Y240999D01*
X338500D01*
X338000Y240499D01*
Y238500D01*
X338500Y238000D01*
X339499D01*
X339999Y238500D01*
X342498Y238000D02*
Y240999D01*
X340999Y239499D01*
X342998D01*
X343998Y240999D02*
X345997D01*
Y240499D01*
X343998Y238500D01*
Y238000D01*
X344999Y268499D02*
X344499Y268999D01*
X343500D01*
X343000Y268499D01*
Y266500D01*
X343500Y266000D01*
X344499D01*
X344999Y266500D01*
X347498Y266000D02*
Y268999D01*
X345999Y267499D01*
X347998D01*
X350997Y268999D02*
X349998Y268499D01*
X348998Y267499D01*
Y266500D01*
X349498Y266000D01*
X350498D01*
X350997Y266500D01*
Y267000D01*
X350498Y267499D01*
X348998D01*
X293999Y245499D02*
X293499Y245999D01*
X292500D01*
X292000Y245499D01*
Y243500D01*
X292500Y243000D01*
X293499D01*
X293999Y243500D01*
X296498Y243000D02*
Y245999D01*
X294999Y244499D01*
X296998D01*
X299997Y245999D02*
X297998D01*
Y244499D01*
X298998Y244999D01*
X299498D01*
X299997Y244499D01*
Y243500D01*
X299498Y243000D01*
X298498D01*
X297998Y243500D01*
X321501Y174999D02*
X321001Y174499D01*
Y173500D01*
X321501Y173000D01*
X323500D01*
X324000Y173500D01*
Y174499D01*
X323500Y174999D01*
X324000Y177499D02*
X321001D01*
X322500Y175999D01*
Y177998D01*
X324000Y180498D02*
X321001D01*
X322500Y178998D01*
Y180997D01*
X319999Y95499D02*
X319499Y95999D01*
X318500D01*
X318000Y95499D01*
Y93500D01*
X318500Y93000D01*
X319499D01*
X319999Y93500D01*
X322498Y93000D02*
Y95999D01*
X320999Y94499D01*
X322998D01*
X323998Y95499D02*
X324498Y95999D01*
X325498D01*
X325997Y95499D01*
Y94999D01*
X325498Y94499D01*
X324998D01*
X325498D01*
X325997Y94000D01*
Y93500D01*
X325498Y93000D01*
X324498D01*
X323998Y93500D01*
X223999Y73499D02*
X223499Y73999D01*
X222500D01*
X222000Y73499D01*
Y71500D01*
X222500Y71000D01*
X223499D01*
X223999Y71500D01*
X226499Y71000D02*
Y73999D01*
X224999Y72500D01*
X226998D01*
X229997Y71000D02*
X227998D01*
X229997Y72999D01*
Y73499D01*
X229498Y73999D01*
X228498D01*
X227998Y73499D01*
X95999Y219499D02*
X95499Y219999D01*
X94500D01*
X94000Y219499D01*
Y217500D01*
X94500Y217000D01*
X95499D01*
X95999Y217500D01*
X98499Y217000D02*
Y219999D01*
X96999Y218499D01*
X98998D01*
X99998Y219499D02*
X100498Y219999D01*
X101498D01*
X101997Y219499D01*
Y217500D01*
X101498Y217000D01*
X100498D01*
X99998Y217500D01*
Y219499D01*
X124999Y218499D02*
X124499Y218999D01*
X123500D01*
X123000Y218499D01*
Y216500D01*
X123500Y216000D01*
X124499D01*
X124999Y216500D01*
X125999Y218499D02*
X126499Y218999D01*
X127499D01*
X127998Y218499D01*
Y217999D01*
X127499Y217499D01*
X126999D01*
X127499D01*
X127998Y217000D01*
Y216500D01*
X127499Y216000D01*
X126499D01*
X125999Y216500D01*
X128998D02*
X129498Y216000D01*
X130498D01*
X130997Y216500D01*
Y218499D01*
X130498Y218999D01*
X129498D01*
X128998Y218499D01*
Y217999D01*
X129498Y217499D01*
X130997D01*
X72999Y249499D02*
X72500Y249999D01*
X71500D01*
X71000Y249499D01*
Y247500D01*
X71500Y247000D01*
X72500D01*
X72999Y247500D01*
X73999Y249499D02*
X74499Y249999D01*
X75499D01*
X75998Y249499D01*
Y248999D01*
X75499Y248499D01*
X74999D01*
X75499D01*
X75998Y248000D01*
Y247500D01*
X75499Y247000D01*
X74499D01*
X73999Y247500D01*
X76998Y249499D02*
X77498Y249999D01*
X78498D01*
X78997Y249499D01*
Y248999D01*
X78498Y248499D01*
X78997Y248000D01*
Y247500D01*
X78498Y247000D01*
X77498D01*
X76998Y247500D01*
Y248000D01*
X77498Y248499D01*
X76998Y248999D01*
Y249499D01*
X77498Y248499D02*
X78498D01*
X95501Y163999D02*
X95001Y163499D01*
Y162500D01*
X95501Y162000D01*
X97500D01*
X98000Y162500D01*
Y163499D01*
X97500Y163999D01*
X95501Y164999D02*
X95001Y165499D01*
Y166499D01*
X95501Y166998D01*
X96001D01*
X96500Y166499D01*
Y165999D01*
Y166499D01*
X97000Y166998D01*
X97500D01*
X98000Y166499D01*
Y165499D01*
X97500Y164999D01*
X95001Y167998D02*
Y169997D01*
X95501D01*
X97500Y167998D01*
X98000D01*
X95501Y180999D02*
X95001Y180499D01*
Y179500D01*
X95501Y179000D01*
X97500D01*
X98000Y179500D01*
Y180499D01*
X97500Y180999D01*
X95501Y181999D02*
X95001Y182499D01*
Y183499D01*
X95501Y183998D01*
X96001D01*
X96500Y183499D01*
Y182999D01*
Y183499D01*
X97000Y183998D01*
X97500D01*
X98000Y183499D01*
Y182499D01*
X97500Y181999D01*
X95001Y186997D02*
X95501Y185998D01*
X96500Y184998D01*
X97500D01*
X98000Y185498D01*
Y186498D01*
X97500Y186997D01*
X97000D01*
X96500Y186498D01*
Y184998D01*
X156999Y155499D02*
X156500Y155999D01*
X155500D01*
X155000Y155499D01*
Y153500D01*
X155500Y153000D01*
X156500D01*
X156999Y153500D01*
X157999Y155499D02*
X158499Y155999D01*
X159499D01*
X159998Y155499D01*
Y154999D01*
X159499Y154499D01*
X158999D01*
X159499D01*
X159998Y154000D01*
Y153500D01*
X159499Y153000D01*
X158499D01*
X157999Y153500D01*
X162997Y155999D02*
X160998D01*
Y154499D01*
X161998Y154999D01*
X162498D01*
X162997Y154499D01*
Y153500D01*
X162498Y153000D01*
X161498D01*
X160998Y153500D01*
X155999Y257499D02*
X155499Y257999D01*
X154500D01*
X154000Y257499D01*
Y255500D01*
X154500Y255000D01*
X155499D01*
X155999Y255500D01*
X156999Y257499D02*
X157499Y257999D01*
X158499D01*
X158998Y257499D01*
Y256999D01*
X158499Y256500D01*
X157999D01*
X158499D01*
X158998Y256000D01*
Y255500D01*
X158499Y255000D01*
X157499D01*
X156999Y255500D01*
X161498Y255000D02*
Y257999D01*
X159998Y256500D01*
X161997D01*
X207999Y233499D02*
X207500Y233999D01*
X206500D01*
X206000Y233499D01*
Y231500D01*
X206500Y231000D01*
X207500D01*
X207999Y231500D01*
X208999Y233499D02*
X209499Y233999D01*
X210498D01*
X210998Y233499D01*
Y232999D01*
X210498Y232500D01*
X209999D01*
X210498D01*
X210998Y232000D01*
Y231500D01*
X210498Y231000D01*
X209499D01*
X208999Y231500D01*
X211998Y233499D02*
X212498Y233999D01*
X213498D01*
X213997Y233499D01*
Y232999D01*
X213498Y232500D01*
X212998D01*
X213498D01*
X213997Y232000D01*
Y231500D01*
X213498Y231000D01*
X212498D01*
X211998Y231500D01*
X196999Y158499D02*
X196500Y158999D01*
X195500D01*
X195000Y158499D01*
Y156500D01*
X195500Y156000D01*
X196500D01*
X196999Y156500D01*
X197999Y158499D02*
X198499Y158999D01*
X199499D01*
X199998Y158499D01*
Y157999D01*
X199499Y157500D01*
X198999D01*
X199499D01*
X199998Y157000D01*
Y156500D01*
X199499Y156000D01*
X198499D01*
X197999Y156500D01*
X202997Y156000D02*
X200998D01*
X202997Y157999D01*
Y158499D01*
X202498Y158999D01*
X201498D01*
X200998Y158499D01*
X157501Y193999D02*
X157001Y193500D01*
Y192500D01*
X157501Y192000D01*
X159500D01*
X160000Y192500D01*
Y193500D01*
X159500Y193999D01*
X157501Y194999D02*
X157001Y195499D01*
Y196499D01*
X157501Y196998D01*
X158001D01*
X158501Y196499D01*
Y195999D01*
Y196499D01*
X159000Y196998D01*
X159500D01*
X160000Y196499D01*
Y195499D01*
X159500Y194999D01*
X160000Y197998D02*
Y198998D01*
Y198498D01*
X157001D01*
X157501Y197998D01*
X222999Y229499D02*
X222499Y229999D01*
X221500D01*
X221000Y229499D01*
Y227500D01*
X221500Y227000D01*
X222499D01*
X222999Y227500D01*
X223999Y229499D02*
X224499Y229999D01*
X225499D01*
X225998Y229499D01*
Y228999D01*
X225499Y228500D01*
X224999D01*
X225499D01*
X225998Y228000D01*
Y227500D01*
X225499Y227000D01*
X224499D01*
X223999Y227500D01*
X226998Y229499D02*
X227498Y229999D01*
X228498D01*
X228997Y229499D01*
Y227500D01*
X228498Y227000D01*
X227498D01*
X226998Y227500D01*
Y229499D01*
X281999Y167499D02*
X281500Y167999D01*
X280500D01*
X280000Y167499D01*
Y165500D01*
X280500Y165000D01*
X281500D01*
X281999Y165500D01*
X284998Y165000D02*
X282999D01*
X284998Y166999D01*
Y167499D01*
X284499Y167999D01*
X283499D01*
X282999Y167499D01*
X285998D02*
X286498Y167999D01*
X287498D01*
X287997Y167499D01*
Y166999D01*
X287498Y166499D01*
X287997Y166000D01*
Y165500D01*
X287498Y165000D01*
X286498D01*
X285998Y165500D01*
Y166000D01*
X286498Y166499D01*
X285998Y166999D01*
Y167499D01*
X286498Y166499D02*
X287498D01*
X156999Y100499D02*
X156500Y100999D01*
X155500D01*
X155000Y100499D01*
Y98500D01*
X155500Y98000D01*
X156500D01*
X156999Y98500D01*
X159998Y98000D02*
X157999D01*
X159998Y99999D01*
Y100499D01*
X159499Y100999D01*
X158499D01*
X157999Y100499D01*
X162997Y98000D02*
X160998D01*
X162997Y99999D01*
Y100499D01*
X162498Y100999D01*
X161498D01*
X160998Y100499D01*
X168999D02*
X168500Y100999D01*
X167500D01*
X167000Y100499D01*
Y98500D01*
X167500Y98000D01*
X168500D01*
X168999Y98500D01*
X169999Y98000D02*
X170999D01*
X170499D01*
Y100999D01*
X169999Y100499D01*
X172498Y100999D02*
X174498D01*
Y100499D01*
X172498Y98500D01*
Y98000D01*
X126999Y76499D02*
X126499Y76999D01*
X125500D01*
X125000Y76499D01*
Y74500D01*
X125500Y74000D01*
X126499D01*
X126999Y74500D01*
X127999Y74000D02*
X128999D01*
X128499D01*
Y76999D01*
X127999Y76499D01*
X132498Y76999D02*
X131498Y76499D01*
X130498Y75499D01*
Y74500D01*
X130998Y74000D01*
X131998D01*
X132498Y74500D01*
Y75000D01*
X131998Y75499D01*
X130498D01*
X146999Y100499D02*
X146500Y100999D01*
X145500D01*
X145000Y100499D01*
Y98500D01*
X145500Y98000D01*
X146500D01*
X146999Y98500D01*
X147999Y98000D02*
X148999D01*
X148499D01*
Y100999D01*
X147999Y100499D01*
X150498D02*
X150998Y100999D01*
X151998D01*
X152498Y100499D01*
Y99999D01*
X151998Y99499D01*
X151498D01*
X151998D01*
X152498Y99000D01*
Y98500D01*
X151998Y98000D01*
X150998D01*
X150498Y98500D01*
X57999Y269499D02*
X57499Y269999D01*
X56500D01*
X56000Y269499D01*
Y267500D01*
X56500Y267000D01*
X57499D01*
X57999Y267500D01*
X58999Y269999D02*
X60998D01*
Y269499D01*
X58999Y267500D01*
Y267000D01*
X8999Y264499D02*
X8500Y264999D01*
X7500D01*
X7000Y264499D01*
Y262500D01*
X7500Y262000D01*
X8500D01*
X8999Y262500D01*
X11998Y264999D02*
X10999Y264499D01*
X9999Y263499D01*
Y262500D01*
X10499Y262000D01*
X11499D01*
X11998Y262500D01*
Y263000D01*
X11499Y263499D01*
X9999D01*
X11999Y173499D02*
X11500Y173999D01*
X10500D01*
X10000Y173499D01*
Y171500D01*
X10500Y171000D01*
X11500D01*
X11999Y171500D01*
X14998Y173999D02*
X12999D01*
Y172500D01*
X13999Y172999D01*
X14499D01*
X14998Y172500D01*
Y171500D01*
X14499Y171000D01*
X13499D01*
X12999Y171500D01*
X11999Y161499D02*
X11500Y161999D01*
X10500D01*
X10000Y161499D01*
Y159500D01*
X10500Y159000D01*
X11500D01*
X11999Y159500D01*
X14499Y159000D02*
Y161999D01*
X12999Y160500D01*
X14998D01*
X25999Y111499D02*
X25499Y111999D01*
X24500D01*
X24000Y111499D01*
Y109500D01*
X24500Y109000D01*
X25499D01*
X25999Y109500D01*
X26999Y111499D02*
X27499Y111999D01*
X28499D01*
X28998Y111499D01*
Y110999D01*
X28499Y110500D01*
X27999D01*
X28499D01*
X28998Y110000D01*
Y109500D01*
X28499Y109000D01*
X27499D01*
X26999Y109500D01*
X17999Y229499D02*
X17500Y229999D01*
X16500D01*
X16000Y229499D01*
Y227500D01*
X16500Y227000D01*
X17500D01*
X17999Y227500D01*
X20998Y227000D02*
X18999D01*
X20998Y228999D01*
Y229499D01*
X20499Y229999D01*
X19499D01*
X18999Y229499D01*
X34999Y231499D02*
X34499Y231999D01*
X33500D01*
X33000Y231499D01*
Y229500D01*
X33500Y229000D01*
X34499D01*
X34999Y229500D01*
X35999Y229000D02*
X36999D01*
X36499D01*
Y231999D01*
X35999Y231499D01*
X327000Y152000D02*
Y154999D01*
X328500D01*
X328999Y154499D01*
Y153499D01*
X328500Y153000D01*
X327000D01*
X328000D02*
X328999Y152000D01*
X331499D02*
Y154999D01*
X329999Y153499D01*
X331998D01*
X334997Y154999D02*
X332998D01*
Y153499D01*
X333998Y153999D01*
X334498D01*
X334997Y153499D01*
Y152500D01*
X334498Y152000D01*
X333498D01*
X332998Y152500D01*
X340000Y144000D02*
Y146999D01*
X341499D01*
X341999Y146499D01*
Y145500D01*
X341499Y145000D01*
X340000D01*
X341000D02*
X341999Y144000D01*
X344498D02*
Y146999D01*
X342999Y145500D01*
X344998D01*
X347997Y146999D02*
X346998Y146499D01*
X345998Y145500D01*
Y144500D01*
X346498Y144000D01*
X347498D01*
X347997Y144500D01*
Y145000D01*
X347498Y145500D01*
X345998D01*
X250000Y180499D02*
X251000D01*
X250500D01*
Y177500D01*
X250000D01*
X251000D01*
X254499Y179999D02*
X253999Y180499D01*
X252999D01*
X252499Y179999D01*
Y178000D01*
X252999Y177500D01*
X253999D01*
X254499Y178000D01*
X257498Y180499D02*
X256498Y179999D01*
X255498Y178999D01*
Y178000D01*
X255998Y177500D01*
X256998D01*
X257498Y178000D01*
Y178500D01*
X256998Y178999D01*
X255498D01*
X290000Y227000D02*
X291000D01*
X290500D01*
Y229999D01*
X290000Y229499D01*
X199000Y258000D02*
X200000D01*
X199500D01*
Y260999D01*
X199000Y260499D01*
X92000Y140000D02*
Y141000D01*
Y140500D01*
X89001D01*
X89501Y140000D01*
D89*
X315610Y117126D02*
G03*
X315610Y117126I-492J0D01*
G01*
X354374Y164874D02*
G03*
X354374Y164874I-492J0D01*
G01*
X241020Y152913D02*
G03*
X241020Y152913I-492J0D01*
G01*
X380079Y79528D02*
G03*
X380079Y79528I-492J0D01*
G01*
X325453Y206811D02*
G03*
X325453Y206811I-492J0D01*
G01*
X313839Y94449D02*
G03*
X313839Y94449I-492J0D01*
G01*
X197614Y65847D02*
G03*
X197614Y65847I-492J0D01*
G01*
X160543Y225421D02*
G03*
X160543Y225421I-492J0D01*
G01*
X22189Y265189D02*
G03*
X22189Y265189I-492J0D01*
G01*
X48839Y141850D02*
G03*
X48839Y141850I-492J0D01*
G01*
X330709Y30689D02*
G03*
X330709Y30689I-492J0D01*
G01*
X284803Y37716D02*
G03*
X284803Y37716I-492J0D01*
G01*
X275709Y30689D02*
G03*
X275709Y30689I-492J0D01*
G01*
X350905Y72362D02*
G03*
X350905Y72362I-492J0D01*
G01*
X78500Y230602D02*
G03*
X78500Y230602I-492J0D01*
G01*
X71890Y149508D02*
G03*
X71890Y149508I-492J0D01*
G01*
X19803Y47717D02*
G03*
X19803Y47717I-492J0D01*
G01*
X28484Y30398D02*
G03*
X28484Y30398I-492J0D01*
G01*
D90*
X47500Y85000D02*
G03*
X47500Y85000I-5000J0D01*
G01*
D91*
X207063Y61496D02*
G03*
X207063Y61496I-1181J0D01*
G01*
X170189Y220992D02*
G03*
X170189Y220992I-1181J0D01*
G01*
D92*
X67613Y46900D02*
X68400D01*
X67500Y53200D02*
X68500D01*
X217064Y113771D02*
Y120070D01*
X224938Y113771D02*
Y120070D01*
X217064D02*
X224938D01*
X218638Y102747D02*
X223363D01*
X217064Y104716D02*
Y110227D01*
X223363Y102747D02*
X224938Y104716D01*
X217064D02*
X218638Y102747D01*
X224938Y104716D02*
Y110227D01*
X206064Y113771D02*
Y120070D01*
X213938Y113771D02*
Y120070D01*
X206064D02*
X213938D01*
X207638Y102747D02*
X212363D01*
X206064Y104716D02*
Y110227D01*
X212363Y102747D02*
X213938Y104716D01*
X206064D02*
X207638Y102747D01*
X213938Y104716D02*
Y110227D01*
X307047Y127953D02*
Y131102D01*
X310394D01*
X307047Y118898D02*
Y122047D01*
Y118898D02*
X310394D01*
X361953Y150898D02*
Y154047D01*
X358606Y150898D02*
X361953D01*
Y159953D02*
Y163102D01*
X358606D02*
X361953D01*
X233244Y154095D02*
X237181D01*
X233244D02*
Y157244D01*
Y165905D02*
X237181D01*
X233244Y162756D02*
Y165905D01*
X378405Y72244D02*
Y76181D01*
X375256Y72244D02*
X378405D01*
X366595D02*
Y76181D01*
Y72244D02*
X369744D01*
X401062Y86773D02*
Y92284D01*
X407362Y94253D02*
X408936Y92284D01*
X401062D02*
X402637Y94253D01*
X408936Y86773D02*
Y92284D01*
X402637Y94253D02*
X407362D01*
X401062Y76930D02*
X408936D01*
X401062D02*
Y83229D01*
X408936Y76930D02*
Y83229D01*
X72937Y78716D02*
Y84228D01*
X65063Y78716D02*
X66638Y76748D01*
X71362D02*
X72937Y78716D01*
X65063D02*
Y84228D01*
X66638Y76748D02*
X71362D01*
X65063Y94071D02*
X72937D01*
Y87772D02*
Y94071D01*
X65063Y87772D02*
Y94071D01*
X372835Y209606D02*
Y210394D01*
X367165Y209606D02*
Y210394D01*
X367165Y227606D02*
Y228394D01*
X372835Y227606D02*
Y228394D01*
X345630Y209370D02*
Y211043D01*
X343957Y209370D02*
X345630D01*
Y228957D02*
Y230630D01*
X343957D02*
X345630D01*
X324370D02*
X326043D01*
X324370Y228957D02*
Y230630D01*
Y209370D02*
Y211043D01*
Y209370D02*
X326043D01*
X292657Y88543D02*
X312343D01*
X292657Y81457D02*
X312343D01*
Y88543D01*
X292657Y81457D02*
Y88543D01*
X201945Y44567D02*
X220055D01*
X201945Y65433D02*
X220055D01*
Y44567D02*
Y65433D01*
X201945Y44567D02*
Y65433D01*
X165071Y191071D02*
X198929D01*
X165071Y224929D02*
X198929D01*
Y191071D02*
Y224929D01*
X165071Y191071D02*
Y224929D01*
X26323Y238811D02*
X41677D01*
X26323Y265189D02*
X41677D01*
Y238811D02*
Y265189D01*
X26323Y238811D02*
Y265189D01*
X47343Y129055D02*
Y135945D01*
X27657Y129055D02*
Y135945D01*
X319291Y6870D02*
X320374D01*
X319291Y28130D02*
X320374D01*
X329626Y6870D02*
X330709D01*
X329626Y28130D02*
X330709D01*
X319291Y6870D02*
Y28130D01*
X330709Y6870D02*
Y28130D01*
X308130Y26791D02*
Y27874D01*
X286870Y26791D02*
Y27874D01*
X308130Y37126D02*
Y38209D01*
X286870Y37126D02*
Y38209D01*
Y26791D02*
X308130D01*
X286870Y38209D02*
X308130D01*
X264291Y6870D02*
X265374D01*
X264291Y28130D02*
X265374D01*
X274626Y6870D02*
X275709D01*
X274626Y28130D02*
X275709D01*
X264291Y6870D02*
Y28130D01*
X275709Y6870D02*
Y28130D01*
X56551Y242807D02*
Y244874D01*
X75449Y242807D02*
Y244874D01*
X56551Y229126D02*
Y231193D01*
X75449Y229126D02*
Y231193D01*
X56551Y244874D02*
X75449D01*
X56551Y229126D02*
X75449D01*
X57126Y128051D02*
X59193D01*
X57126Y146949D02*
X59193D01*
X70807Y128051D02*
X72874D01*
X70807Y146949D02*
X72874D01*
X57126Y128051D02*
Y146949D01*
X72874Y128051D02*
Y146949D01*
X43130Y36791D02*
Y37874D01*
X21870Y36791D02*
Y37874D01*
X43130Y47126D02*
Y48209D01*
X21870Y47126D02*
Y48209D01*
Y36791D02*
X43130D01*
X21870Y48209D02*
X43130D01*
X49449Y16126D02*
Y18193D01*
X30551Y16126D02*
Y18193D01*
X49449Y29807D02*
Y31874D01*
X30551Y29807D02*
Y31874D01*
Y16126D02*
X49449D01*
X30551Y31874D02*
X49449D01*
D93*
X56122Y88779D02*
Y96653D01*
X8878D02*
X56122D01*
X8878Y81063D02*
Y96653D01*
Y53347D02*
Y69252D01*
Y53347D02*
X56122D01*
Y88779D01*
D94*
X279999Y270998D02*
X278999Y271998D01*
X277000D01*
X276000Y270998D01*
Y267000D01*
X277000Y266000D01*
X278999D01*
X279999Y267000D01*
X281998Y266000D02*
Y271998D01*
X285997Y266000D01*
Y271998D01*
X287996D02*
X291995D01*
Y270998D01*
X287996Y267000D01*
Y266000D01*
X244000Y14998D02*
X247999D01*
X245999D01*
Y9000D01*
X249998Y14998D02*
Y9000D01*
X252997D01*
X253997Y10000D01*
Y10999D01*
X252997Y11999D01*
X249998D01*
X252997D01*
X253997Y12999D01*
Y13998D01*
X252997Y14998D01*
X249998D01*
X259995Y9000D02*
X255996D01*
X259995Y12999D01*
Y13998D01*
X258995Y14998D01*
X256996D01*
X255996Y13998D01*
X392795Y15742D02*
X396794D01*
X394795D01*
Y9744D01*
X398793Y15742D02*
Y9744D01*
X401792D01*
X402792Y10744D01*
Y11743D01*
X401792Y12743D01*
X398793D01*
X401792D01*
X402792Y13743D01*
Y14742D01*
X401792Y15742D01*
X398793D01*
X404791Y9744D02*
X406791D01*
X405791D01*
Y15742D01*
X404791Y14742D01*
X408000Y130998D02*
Y125000D01*
X411999D01*
X417997Y129998D02*
X416997Y130998D01*
X414998D01*
X413998Y129998D01*
Y128999D01*
X414998Y127999D01*
X416997D01*
X417997Y126999D01*
Y126000D01*
X416997Y125000D01*
X414998D01*
X413998Y126000D01*
X419996Y125000D02*
X421995D01*
X420996D01*
Y130998D01*
X419996Y129998D01*
X292999Y197998D02*
X291999Y198998D01*
X290000D01*
X289000Y197998D01*
Y194000D01*
X290000Y193000D01*
X291999D01*
X292999Y194000D01*
X294998Y193000D02*
Y198998D01*
X298997Y193000D01*
Y198998D01*
X304995D02*
X302995Y197998D01*
X300996Y195999D01*
Y194000D01*
X301996Y193000D01*
X303995D01*
X304995Y194000D01*
Y194999D01*
X303995Y195999D01*
X300996D01*
X252999Y133998D02*
X251999Y134998D01*
X250000D01*
X249000Y133998D01*
Y130000D01*
X250000Y129000D01*
X251999D01*
X252999Y130000D01*
X254998Y129000D02*
Y134998D01*
X258997Y129000D01*
Y134998D01*
X260996Y133998D02*
X261996Y134998D01*
X263995D01*
X264995Y133998D01*
Y132999D01*
X263995Y131999D01*
X262996D01*
X263995D01*
X264995Y130999D01*
Y130000D01*
X263995Y129000D01*
X261996D01*
X260996Y130000D01*
X183999Y9998D02*
X182999Y10998D01*
X181000D01*
X180000Y9998D01*
Y6000D01*
X181000Y5000D01*
X182999D01*
X183999Y6000D01*
X185998Y5000D02*
Y10998D01*
X189997Y5000D01*
Y10998D01*
X195995Y5000D02*
X191996D01*
X195995Y8999D01*
Y9998D01*
X194995Y10998D01*
X192996D01*
X191996Y9998D01*
X91999Y47998D02*
X90999Y48998D01*
X89000D01*
X88000Y47998D01*
Y44000D01*
X89000Y43000D01*
X90999D01*
X91999Y44000D01*
X93998Y43000D02*
Y48998D01*
X97997Y43000D01*
Y48998D01*
X99996Y43000D02*
X101996D01*
X100996D01*
Y48998D01*
X99996Y47998D01*
D95*
X209666Y272332D02*
X208999Y272999D01*
X207666D01*
X207000Y272332D01*
Y269666D01*
X207666Y269000D01*
X208999D01*
X209666Y269666D01*
X210999Y269000D02*
Y272999D01*
X213665Y269000D01*
Y272999D01*
X217663D02*
X214997D01*
Y270999D01*
X216330Y271666D01*
X216997D01*
X217663Y270999D01*
Y269666D01*
X216997Y269000D01*
X215664D01*
X214997Y269666D01*
X236668Y248000D02*
X236001Y248666D01*
Y249999D01*
X236668Y250666D01*
X237334D01*
X238001Y249999D01*
Y249333D01*
Y249999D01*
X238667Y250666D01*
X239334D01*
X240000Y249999D01*
Y248666D01*
X239334Y248000D01*
X236001Y251999D02*
X238667D01*
X240000Y253332D01*
X238667Y254664D01*
X236001D01*
X236668Y255997D02*
X236001Y256664D01*
Y257997D01*
X236668Y258663D01*
X237334D01*
X238001Y257997D01*
Y257330D01*
Y257997D01*
X238667Y258663D01*
X239334D01*
X240000Y257997D01*
Y256664D01*
X239334Y255997D01*
X246668Y250666D02*
X246001Y249999D01*
Y248666D01*
X246668Y248000D01*
X249334D01*
X250000Y248666D01*
Y249999D01*
X249334Y250666D01*
X248001D01*
Y249333D01*
X250000Y251999D02*
X246001D01*
X250000Y254664D01*
X246001D01*
Y255997D02*
X250000D01*
Y257997D01*
X249334Y258663D01*
X246668D01*
X246001Y257997D01*
Y255997D01*
X260000Y248000D02*
X256001D01*
Y249999D01*
X256668Y250666D01*
X258001D01*
X258667Y249999D01*
Y248000D01*
Y249333D02*
X260000Y250666D01*
X256001Y251999D02*
X260000Y254664D01*
X256001D02*
X260000Y251999D01*
X266001Y248000D02*
Y250666D01*
Y249333D01*
X270000D01*
X266001Y251999D02*
X270000Y254664D01*
X266001D02*
X270000Y251999D01*
M02*
