G04 Layer_Color=32896*
%FSLAX25Y25*%
%MOIN*%
G70*
G01*
G75*
%ADD48C,0.01000*%
%ADD49C,0.02000*%
%ADD50C,0.00600*%
%ADD89C,0.00984*%
%ADD91C,0.02362*%
%ADD92C,0.00787*%
%ADD93C,0.00394*%
%ADD94C,0.01200*%
D48*
X283072Y192703D02*
G03*
X282839Y135354I6928J-28703D01*
G01*
X297162Y135354D02*
G03*
X297161Y192646I-7162J28646D01*
G01*
X99394Y177000D02*
G03*
X99394Y177000I-394J0D01*
G01*
X278118Y103094D02*
Y114906D01*
X246622D02*
X278118D01*
X246622Y103094D02*
Y114906D01*
Y103094D02*
X278118D01*
X391675Y91418D02*
X408998D01*
X391575Y149018D02*
X408898D01*
X430741Y91423D02*
Y148903D01*
X373654Y91423D02*
Y148903D01*
X178500Y59500D02*
X197500D01*
Y67500D01*
X178500D02*
X197500D01*
X290000Y206000D02*
Y210000D01*
X288000Y208000D02*
X292000D01*
X290000Y121000D02*
Y125000D01*
X96937Y179244D02*
Y184756D01*
X89063Y179244D02*
Y184756D01*
D49*
X410000Y218500D02*
G03*
X400000Y243500I-17500J7500D01*
G01*
X395000Y243500D02*
G03*
X395000Y218500I0J-12500D01*
G01*
X400000D02*
Y243500D01*
X395000Y218500D02*
Y243500D01*
X400000Y231000D02*
X410500D01*
X120000Y255000D02*
Y264997D01*
X115002D01*
X113336Y263331D01*
Y259998D01*
X115002Y258332D01*
X120000D01*
X116668D02*
X113336Y255000D01*
X103339Y264997D02*
X110003D01*
Y259998D01*
X106671D01*
X110003D01*
Y255000D01*
X100006Y264997D02*
X96674D01*
X98340D01*
Y255000D01*
X100006D01*
X96674D01*
X91676Y264997D02*
Y255000D01*
X86677D01*
X85011Y256666D01*
Y263331D01*
X86677Y264997D01*
X91676D01*
X81679Y253334D02*
X75015D01*
X71682Y264997D02*
Y255000D01*
X66684D01*
X65018Y256666D01*
Y263331D01*
X66684Y264997D01*
X71682D01*
X61686Y255000D02*
Y261665D01*
X58353Y264997D01*
X55021Y261665D01*
Y255000D01*
Y259998D01*
X61686D01*
X45024Y263331D02*
X46690Y264997D01*
X50023D01*
X51689Y263331D01*
Y256666D01*
X50023Y255000D01*
X46690D01*
X45024Y256666D01*
X35028Y263331D02*
X36694Y264997D01*
X40026D01*
X41692Y263331D01*
Y261665D01*
X40026Y259998D01*
X36694D01*
X35028Y258332D01*
Y256666D01*
X36694Y255000D01*
X40026D01*
X41692Y256666D01*
X31695Y259998D02*
X25031D01*
X21698Y263331D02*
X20032Y264997D01*
X16700D01*
X15034Y263331D01*
Y256666D01*
X16700Y255000D01*
X20032D01*
X21698Y256666D01*
Y263331D01*
X11702Y255000D02*
X8369D01*
X10035D01*
Y264997D01*
X11702Y263331D01*
X45000Y249997D02*
Y243332D01*
X41668Y240000D01*
X38335Y243332D01*
Y249997D01*
X35003Y240000D02*
X31671D01*
X33337D01*
Y249997D01*
X35003Y248331D01*
X26673Y240000D02*
Y241666D01*
X25006D01*
Y240000D01*
X26673D01*
X18342Y248331D02*
X16676Y249997D01*
X13344D01*
X11677Y248331D01*
Y241666D01*
X13344Y240000D01*
X16676D01*
X18342Y241666D01*
Y248331D01*
D50*
X97800Y203400D02*
Y212600D01*
X82200Y203400D02*
Y212600D01*
X97800D01*
X82200Y203400D02*
X97800D01*
Y213400D02*
Y222600D01*
X82200Y213400D02*
Y222600D01*
X97800D01*
X82200Y213400D02*
X97800D01*
X351539Y97333D02*
X367139D01*
X351539Y106533D02*
X367139D01*
X351539Y97333D02*
Y106533D01*
X367139Y97333D02*
Y106533D01*
X351539Y127333D02*
X367139D01*
X351539Y136533D02*
X367139D01*
X351539Y127333D02*
Y136533D01*
X367139Y127333D02*
Y136533D01*
X351539Y87333D02*
X367139D01*
X351539Y96533D02*
X367139D01*
X351539Y87333D02*
Y96533D01*
X367139Y87333D02*
Y96533D01*
X351539Y137333D02*
X367139D01*
X351539Y146533D02*
X367139D01*
X351539Y137333D02*
Y146533D01*
X367139Y137333D02*
Y146533D01*
X180200Y98100D02*
X195800D01*
X180200Y88900D02*
X195800D01*
Y98100D01*
X180200Y88900D02*
Y98100D01*
X216200Y44100D02*
X231800D01*
X216200Y34900D02*
X231800D01*
Y44100D01*
X216200Y34900D02*
Y44100D01*
X145400Y22200D02*
Y37800D01*
X154600Y22200D02*
Y37800D01*
X145400D02*
X154600D01*
X145400Y22200D02*
X154600D01*
X135400D02*
Y37800D01*
X144600Y22200D02*
Y37800D01*
X135400D02*
X144600D01*
X135400Y22200D02*
X144600D01*
X289700Y112100D02*
X305300D01*
X289700Y102900D02*
X305300D01*
Y112100D01*
X289700Y102900D02*
Y112100D01*
Y102100D02*
X305300D01*
X289700Y92900D02*
X305300D01*
Y102100D01*
X289700Y92900D02*
Y102100D01*
Y82900D02*
X305300D01*
X289700Y92100D02*
X305300D01*
X289700Y82900D02*
Y92100D01*
X305300Y82900D02*
Y92100D01*
X289700Y72900D02*
X305300D01*
X289700Y82100D02*
X305300D01*
X289700Y72900D02*
Y82100D01*
X305300Y72900D02*
Y82100D01*
X254900Y30700D02*
Y46300D01*
X264100Y30700D02*
Y46300D01*
X254900D02*
X264100D01*
X254900Y30700D02*
X264100D01*
X289700Y62900D02*
X305300D01*
X289700Y72100D02*
X305300D01*
X289700Y62900D02*
Y72100D01*
X305300Y62900D02*
Y72100D01*
X264900Y30700D02*
Y46300D01*
X274100Y30700D02*
Y46300D01*
X264900D02*
X274100D01*
X264900Y30700D02*
X274100D01*
X289700Y52900D02*
X305300D01*
X289700Y62100D02*
X305300D01*
X289700Y52900D02*
Y62100D01*
X305300Y52900D02*
Y62100D01*
X274900Y30700D02*
Y46300D01*
X284100Y30700D02*
Y46300D01*
X274900D02*
X284100D01*
X274900Y30700D02*
X284100D01*
X289700Y42900D02*
X305300D01*
X289700Y52100D02*
X305300D01*
X289700Y42900D02*
Y52100D01*
X305300Y42900D02*
Y52100D01*
X289700Y32900D02*
X305300D01*
X289700Y42100D02*
X305300D01*
X289700Y32900D02*
Y42100D01*
X305300Y32900D02*
Y42100D01*
X179700Y68900D02*
X196300D01*
X179700Y78100D02*
X196300D01*
X179700Y68900D02*
Y78100D01*
X196300Y68900D02*
Y78100D01*
X237400Y32800D02*
X246600D01*
X237400Y16200D02*
X246600D01*
X237400D02*
Y32800D01*
X246600Y16200D02*
Y32800D01*
X359739Y125233D02*
X368939D01*
X359739Y108633D02*
X368939D01*
X359739D02*
Y125233D01*
X368939Y108633D02*
Y125233D01*
X237300Y242400D02*
Y251600D01*
X220700Y242400D02*
Y251600D01*
X237300D01*
X220700Y242400D02*
X237300D01*
Y218400D02*
Y227600D01*
X220700Y218400D02*
Y227600D01*
X237300D01*
X220700Y218400D02*
X237300D01*
X256700Y199400D02*
Y208600D01*
X273300Y199400D02*
Y208600D01*
X256700Y199400D02*
X273300D01*
X256700Y208600D02*
X273300D01*
X107700Y231400D02*
Y240600D01*
X124300Y231400D02*
Y240600D01*
X107700Y231400D02*
X124300D01*
X107700Y240600D02*
X124300D01*
X196300Y78900D02*
Y88100D01*
X179700Y78900D02*
Y88100D01*
X196300D01*
X179700Y78900D02*
X196300D01*
X87700Y51700D02*
Y62300D01*
X110300Y51700D02*
Y62300D01*
X87700Y51700D02*
X110300D01*
X87700Y62300D02*
X110300D01*
X196400Y103700D02*
X205600D01*
X196400Y120300D02*
X205600D01*
Y103700D02*
Y120300D01*
X196400Y103700D02*
Y120300D01*
X247700Y119400D02*
Y128600D01*
X264300Y119400D02*
Y128600D01*
X247700Y119400D02*
X264300D01*
X247700Y128600D02*
X264300D01*
X282300Y119400D02*
Y128600D01*
X265700Y119400D02*
Y128600D01*
X282300D01*
X265700Y119400D02*
X282300D01*
X196300Y48900D02*
Y58100D01*
X179700Y48900D02*
Y58100D01*
X196300D01*
X179700Y48900D02*
X196300D01*
Y38900D02*
Y48100D01*
X179700Y38900D02*
Y48100D01*
X196300D01*
X179700Y38900D02*
X196300D01*
X217400Y32800D02*
X226600D01*
X217400Y16200D02*
X226600D01*
X217400D02*
Y32800D01*
X226600Y16200D02*
Y32800D01*
X227400D02*
X236600D01*
X227400Y16200D02*
X236600D01*
X227400D02*
Y32800D01*
X236600Y16200D02*
Y32800D01*
X82700Y158400D02*
Y167600D01*
X99300Y158400D02*
Y167600D01*
X82700Y158400D02*
X99300D01*
X82700Y167600D02*
X99300D01*
X190000Y235999D02*
X188001Y233000D01*
Y235999D02*
X190000Y233000D01*
X185002D02*
X187001D01*
X185002Y234999D01*
Y235499D01*
X185501Y235999D01*
X186501D01*
X187001Y235499D01*
X284000Y110999D02*
X282001Y108000D01*
Y110999D02*
X284000Y108000D01*
X281001D02*
X280001D01*
X280501D01*
Y110999D01*
X281001Y110499D01*
X288499Y220999D02*
X288999Y220499D01*
Y219500D01*
X288499Y219000D01*
X287999D01*
X287499Y219500D01*
Y220499D01*
X287000Y220999D01*
X286500D01*
X286000Y220499D01*
Y219500D01*
X286500Y219000D01*
X288999Y221999D02*
X286000D01*
Y223499D01*
X286500Y223998D01*
X287000D01*
X287499Y223499D01*
Y221999D01*
Y223499D01*
X287999Y223998D01*
X288499D01*
X288999Y223499D01*
Y221999D01*
X286000Y226997D02*
Y224998D01*
X287999Y226997D01*
X288499D01*
X288999Y226498D01*
Y225498D01*
X288499Y224998D01*
X281001Y208499D02*
X281501Y208999D01*
X282500D01*
X283000Y208499D01*
Y207999D01*
X282500Y207500D01*
X281501D01*
X281001Y207000D01*
Y206500D01*
X281501Y206000D01*
X282500D01*
X283000Y206500D01*
X280001Y208999D02*
Y206000D01*
X278502D01*
X278002Y206500D01*
Y207000D01*
X278502Y207500D01*
X280001D01*
X278502D01*
X278002Y207999D01*
Y208499D01*
X278502Y208999D01*
X280001D01*
X277002Y206000D02*
X276002D01*
X276502D01*
Y208999D01*
X277002Y208499D01*
X96000Y198000D02*
Y200999D01*
X94500D01*
X94001Y200499D01*
Y199499D01*
X94500Y199000D01*
X96000D01*
X95000D02*
X94001Y198000D01*
X91002Y200999D02*
X93001D01*
Y199499D01*
X92001Y199999D01*
X91501D01*
X91002Y199499D01*
Y198500D01*
X91501Y198000D01*
X92501D01*
X93001Y198500D01*
X88003Y200999D02*
X89002Y200499D01*
X90002Y199499D01*
Y198500D01*
X89502Y198000D01*
X88502D01*
X88003Y198500D01*
Y199000D01*
X88502Y199499D01*
X90002D01*
X94000Y225000D02*
Y227999D01*
X92501D01*
X92001Y227499D01*
Y226500D01*
X92501Y226000D01*
X94000D01*
X93000D02*
X92001Y225000D01*
X89002Y227999D02*
X91001D01*
Y226500D01*
X90001Y226999D01*
X89501D01*
X89002Y226500D01*
Y225500D01*
X89501Y225000D01*
X90501D01*
X91001Y225500D01*
X86003Y227999D02*
X88002D01*
Y226500D01*
X87002Y226999D01*
X86502D01*
X86003Y226500D01*
Y225500D01*
X86502Y225000D01*
X87502D01*
X88002Y225500D01*
X349000Y101000D02*
Y103999D01*
X347500D01*
X347001Y103499D01*
Y102499D01*
X347500Y102000D01*
X349000D01*
X348000D02*
X347001Y101000D01*
X344501D02*
Y103999D01*
X346001Y102499D01*
X344002D01*
X343002Y103499D02*
X342502Y103999D01*
X341502D01*
X341003Y103499D01*
Y101500D01*
X341502Y101000D01*
X342502D01*
X343002Y101500D01*
Y103499D01*
X348000Y130000D02*
Y132999D01*
X346500D01*
X346001Y132499D01*
Y131500D01*
X346500Y131000D01*
X348000D01*
X347000D02*
X346001Y130000D01*
X345001Y132499D02*
X344501Y132999D01*
X343501D01*
X343002Y132499D01*
Y131999D01*
X343501Y131500D01*
X344001D01*
X343501D01*
X343002Y131000D01*
Y130500D01*
X343501Y130000D01*
X344501D01*
X345001Y130500D01*
X342002D02*
X341502Y130000D01*
X340502D01*
X340003Y130500D01*
Y132499D01*
X340502Y132999D01*
X341502D01*
X342002Y132499D01*
Y131999D01*
X341502Y131500D01*
X340003D01*
X349000Y90000D02*
Y92999D01*
X347500D01*
X347001Y92499D01*
Y91500D01*
X347500Y91000D01*
X349000D01*
X348000D02*
X347001Y90000D01*
X346001Y92499D02*
X345501Y92999D01*
X344501D01*
X344002Y92499D01*
Y91999D01*
X344501Y91500D01*
X345001D01*
X344501D01*
X344002Y91000D01*
Y90500D01*
X344501Y90000D01*
X345501D01*
X346001Y90500D01*
X343002Y92499D02*
X342502Y92999D01*
X341502D01*
X341003Y92499D01*
Y91999D01*
X341502Y91500D01*
X341003Y91000D01*
Y90500D01*
X341502Y90000D01*
X342502D01*
X343002Y90500D01*
Y91000D01*
X342502Y91500D01*
X343002Y91999D01*
Y92499D01*
X342502Y91500D02*
X341502D01*
X349000Y142000D02*
Y144999D01*
X347500D01*
X347001Y144499D01*
Y143500D01*
X347500Y143000D01*
X349000D01*
X348000D02*
X347001Y142000D01*
X346001Y144499D02*
X345501Y144999D01*
X344501D01*
X344002Y144499D01*
Y143999D01*
X344501Y143500D01*
X345001D01*
X344501D01*
X344002Y143000D01*
Y142500D01*
X344501Y142000D01*
X345501D01*
X346001Y142500D01*
X343002Y144999D02*
X341003D01*
Y144499D01*
X343002Y142500D01*
Y142000D01*
X175000Y91000D02*
Y93999D01*
X173501D01*
X173001Y93499D01*
Y92500D01*
X173501Y92000D01*
X175000D01*
X174000D02*
X173001Y91000D01*
X170002D02*
X172001D01*
X170002Y92999D01*
Y93499D01*
X170501Y93999D01*
X171501D01*
X172001Y93499D01*
X169002Y91500D02*
X168502Y91000D01*
X167502D01*
X167003Y91500D01*
Y93499D01*
X167502Y93999D01*
X168502D01*
X169002Y93499D01*
Y92999D01*
X168502Y92500D01*
X167003D01*
X214000Y38000D02*
Y40999D01*
X212501D01*
X212001Y40499D01*
Y39500D01*
X212501Y39000D01*
X214000D01*
X213000D02*
X212001Y38000D01*
X209002D02*
X211001D01*
X209002Y39999D01*
Y40499D01*
X209502Y40999D01*
X210501D01*
X211001Y40499D01*
X206003Y40999D02*
X207002Y40499D01*
X208002Y39500D01*
Y38500D01*
X207502Y38000D01*
X206502D01*
X206003Y38500D01*
Y39000D01*
X206502Y39500D01*
X208002D01*
X154000Y17000D02*
Y19999D01*
X152500D01*
X152001Y19499D01*
Y18499D01*
X152500Y18000D01*
X154000D01*
X153000D02*
X152001Y17000D01*
X149002D02*
X151001D01*
X149002Y18999D01*
Y19499D01*
X149501Y19999D01*
X150501D01*
X151001Y19499D01*
X146003Y19999D02*
X148002D01*
Y18499D01*
X147002Y18999D01*
X146502D01*
X146003Y18499D01*
Y17500D01*
X146502Y17000D01*
X147502D01*
X148002Y17500D01*
X144000Y17000D02*
Y19999D01*
X142500D01*
X142001Y19499D01*
Y18499D01*
X142500Y18000D01*
X144000D01*
X143000D02*
X142001Y17000D01*
X139002D02*
X141001D01*
X139002Y18999D01*
Y19499D01*
X139501Y19999D01*
X140501D01*
X141001Y19499D01*
X136502Y17000D02*
Y19999D01*
X138002Y18499D01*
X136003D01*
X316000Y106000D02*
Y108999D01*
X314500D01*
X314001Y108499D01*
Y107500D01*
X314500Y107000D01*
X316000D01*
X315000D02*
X314001Y106000D01*
X313001D02*
X312001D01*
X312501D01*
Y108999D01*
X313001Y108499D01*
X310502D02*
X310002Y108999D01*
X309002D01*
X308502Y108499D01*
Y107999D01*
X309002Y107500D01*
X308502Y107000D01*
Y106500D01*
X309002Y106000D01*
X310002D01*
X310502Y106500D01*
Y107000D01*
X310002Y107500D01*
X310502Y107999D01*
Y108499D01*
X310002Y107500D02*
X309002D01*
X316000Y96000D02*
Y98999D01*
X314500D01*
X314001Y98499D01*
Y97500D01*
X314500Y97000D01*
X316000D01*
X315000D02*
X314001Y96000D01*
X313001D02*
X312001D01*
X312501D01*
Y98999D01*
X313001Y98499D01*
X310502Y98999D02*
X308502D01*
Y98499D01*
X310502Y96500D01*
Y96000D01*
X316000Y86000D02*
Y88999D01*
X314500D01*
X314001Y88499D01*
Y87499D01*
X314500Y87000D01*
X316000D01*
X315000D02*
X314001Y86000D01*
X313001D02*
X312001D01*
X312501D01*
Y88999D01*
X313001Y88499D01*
X310502D02*
X310002Y88999D01*
X309002D01*
X308502Y88499D01*
Y87999D01*
X309002Y87499D01*
X309502D01*
X309002D01*
X308502Y87000D01*
Y86500D01*
X309002Y86000D01*
X310002D01*
X310502Y86500D01*
X316000Y76000D02*
Y78999D01*
X314500D01*
X314001Y78499D01*
Y77500D01*
X314500Y77000D01*
X316000D01*
X315000D02*
X314001Y76000D01*
X313001D02*
X312001D01*
X312501D01*
Y78999D01*
X313001Y78499D01*
X308502Y76000D02*
X310502D01*
X308502Y77999D01*
Y78499D01*
X309002Y78999D01*
X310002D01*
X310502Y78499D01*
X262000Y25000D02*
Y27999D01*
X260501D01*
X260001Y27499D01*
Y26500D01*
X260501Y26000D01*
X262000D01*
X261000D02*
X260001Y25000D01*
X259001D02*
X258001D01*
X258501D01*
Y27999D01*
X259001Y27499D01*
X256502Y25000D02*
X255502D01*
X256002D01*
Y27999D01*
X256502Y27499D01*
X316000Y66000D02*
Y68999D01*
X314500D01*
X314001Y68499D01*
Y67500D01*
X314500Y67000D01*
X316000D01*
X315000D02*
X314001Y66000D01*
X313001D02*
X312001D01*
X312501D01*
Y68999D01*
X313001Y68499D01*
X310502D02*
X310002Y68999D01*
X309002D01*
X308502Y68499D01*
Y66500D01*
X309002Y66000D01*
X310002D01*
X310502Y66500D01*
Y68499D01*
X272000Y25000D02*
Y27999D01*
X270500D01*
X270001Y27499D01*
Y26500D01*
X270500Y26000D01*
X272000D01*
X271000D02*
X270001Y25000D01*
X269001Y25500D02*
X268501Y25000D01*
X267501D01*
X267002Y25500D01*
Y27499D01*
X267501Y27999D01*
X268501D01*
X269001Y27499D01*
Y26999D01*
X268501Y26500D01*
X267002D01*
X316000Y56000D02*
Y58999D01*
X314500D01*
X314001Y58499D01*
Y57499D01*
X314500Y57000D01*
X316000D01*
X315000D02*
X314001Y56000D01*
X313001Y58499D02*
X312501Y58999D01*
X311502D01*
X311002Y58499D01*
Y57999D01*
X311502Y57499D01*
X311002Y57000D01*
Y56500D01*
X311502Y56000D01*
X312501D01*
X313001Y56500D01*
Y57000D01*
X312501Y57499D01*
X313001Y57999D01*
Y58499D01*
X312501Y57499D02*
X311502D01*
X282000Y25000D02*
Y27999D01*
X280501D01*
X280001Y27499D01*
Y26500D01*
X280501Y26000D01*
X282000D01*
X281000D02*
X280001Y25000D01*
X279001Y27999D02*
X277002D01*
Y27499D01*
X279001Y25500D01*
Y25000D01*
X316000Y46000D02*
Y48999D01*
X314500D01*
X314001Y48499D01*
Y47499D01*
X314500Y47000D01*
X316000D01*
X315000D02*
X314001Y46000D01*
X311002Y48999D02*
X312001Y48499D01*
X313001Y47499D01*
Y46500D01*
X312501Y46000D01*
X311502D01*
X311002Y46500D01*
Y47000D01*
X311502Y47499D01*
X313001D01*
X316000Y36000D02*
Y38999D01*
X314500D01*
X314001Y38499D01*
Y37499D01*
X314500Y37000D01*
X316000D01*
X315000D02*
X314001Y36000D01*
X311002Y38999D02*
X313001D01*
Y37499D01*
X312001Y37999D01*
X311502D01*
X311002Y37499D01*
Y36500D01*
X311502Y36000D01*
X312501D01*
X313001Y36500D01*
X281000Y244999D02*
X280000D01*
X280500D01*
Y242000D01*
X281000D01*
X280000D01*
X276501Y244499D02*
X277001Y244999D01*
X278001D01*
X278501Y244499D01*
Y242500D01*
X278001Y242000D01*
X277001D01*
X276501Y242500D01*
X273502Y244999D02*
X275502D01*
Y243499D01*
X274502Y243999D01*
X274002D01*
X273502Y243499D01*
Y242500D01*
X274002Y242000D01*
X275002D01*
X275502Y242500D01*
X120000Y202999D02*
X119000D01*
X119500D01*
Y200000D01*
X120000D01*
X119000D01*
X115501Y202499D02*
X116001Y202999D01*
X117001D01*
X117501Y202499D01*
Y200500D01*
X117001Y200000D01*
X116001D01*
X115501Y200500D01*
X113002Y200000D02*
Y202999D01*
X114502Y201500D01*
X112502D01*
X262000Y55999D02*
X261000D01*
X261500D01*
Y53000D01*
X262000D01*
X261000D01*
X257502Y55499D02*
X258001Y55999D01*
X259001D01*
X259501Y55499D01*
Y53500D01*
X259001Y53000D01*
X258001D01*
X257502Y53500D01*
X256502Y55499D02*
X256002Y55999D01*
X255002D01*
X254502Y55499D01*
Y54999D01*
X255002Y54500D01*
X255502D01*
X255002D01*
X254502Y54000D01*
Y53500D01*
X255002Y53000D01*
X256002D01*
X256502Y53500D01*
X341001Y115999D02*
X343000D01*
Y114499D01*
X342000D01*
X343000D01*
Y113000D01*
X340001Y115999D02*
Y113000D01*
X338502D01*
X338002Y113500D01*
Y114000D01*
X338502Y114499D01*
X340001D01*
X338502D01*
X338002Y114999D01*
Y115499D01*
X338502Y115999D01*
X340001D01*
X335003D02*
X337002D01*
Y114499D01*
X336002Y114999D01*
X335502D01*
X335003Y114499D01*
Y113500D01*
X335502Y113000D01*
X336502D01*
X337002Y113500D01*
X246001Y214999D02*
X248000D01*
Y213499D01*
X247000D01*
X248000D01*
Y212000D01*
X245001Y214999D02*
Y212000D01*
X243501D01*
X243002Y212500D01*
Y213000D01*
X243501Y213499D01*
X245001D01*
X243501D01*
X243002Y213999D01*
Y214499D01*
X243501Y214999D01*
X245001D01*
X242002Y214499D02*
X241502Y214999D01*
X240502D01*
X240003Y214499D01*
Y213999D01*
X240502Y213499D01*
X241002D01*
X240502D01*
X240003Y213000D01*
Y212500D01*
X240502Y212000D01*
X241502D01*
X242002Y212500D01*
X103001Y245999D02*
X105000D01*
Y244499D01*
X104000D01*
X105000D01*
Y243000D01*
X102001Y245999D02*
Y243000D01*
X100501D01*
X100002Y243500D01*
Y244000D01*
X100501Y244499D01*
X102001D01*
X100501D01*
X100002Y244999D01*
Y245499D01*
X100501Y245999D01*
X102001D01*
X97003Y243000D02*
X99002D01*
X97003Y244999D01*
Y245499D01*
X97502Y245999D01*
X98502D01*
X99002Y245499D01*
X273001Y11999D02*
X275000D01*
Y10499D01*
X274000D01*
X275000D01*
Y9000D01*
X272001Y11999D02*
Y9000D01*
X270501D01*
X270002Y9500D01*
Y10000D01*
X270501Y10499D01*
X272001D01*
X270501D01*
X270002Y10999D01*
Y11499D01*
X270501Y11999D01*
X272001D01*
X269002Y9000D02*
X268002D01*
X268502D01*
Y11999D01*
X269002Y11499D01*
X173001Y74499D02*
X173501Y74999D01*
X174500D01*
X175000Y74499D01*
Y72500D01*
X174500Y72000D01*
X173501D01*
X173001Y72500D01*
X170002Y74999D02*
X172001D01*
Y73500D01*
X171001Y73999D01*
X170501D01*
X170002Y73500D01*
Y72500D01*
X170501Y72000D01*
X171501D01*
X172001Y72500D01*
X169002D02*
X168502Y72000D01*
X167502D01*
X167003Y72500D01*
Y74499D01*
X167502Y74999D01*
X168502D01*
X169002Y74499D01*
Y73999D01*
X168502Y73500D01*
X167003D01*
X243001Y13499D02*
X243500Y13999D01*
X244500D01*
X245000Y13499D01*
Y11500D01*
X244500Y11000D01*
X243500D01*
X243001Y11500D01*
X240501Y11000D02*
Y13999D01*
X242001Y12500D01*
X240002D01*
X239002Y11000D02*
X238002D01*
X238502D01*
Y13999D01*
X239002Y13499D01*
X351001Y123499D02*
X351501Y123999D01*
X352500D01*
X353000Y123499D01*
Y121500D01*
X352500Y121000D01*
X351501D01*
X351001Y121500D01*
X348002Y121000D02*
X350001D01*
X348002Y122999D01*
Y123499D01*
X348501Y123999D01*
X349501D01*
X350001Y123499D01*
X347002Y121500D02*
X346502Y121000D01*
X345502D01*
X345003Y121500D01*
Y123499D01*
X345502Y123999D01*
X346502D01*
X347002Y123499D01*
Y122999D01*
X346502Y122500D01*
X345003D01*
X241999Y244501D02*
X241499Y244001D01*
X240500D01*
X240000Y244501D01*
Y246500D01*
X240500Y247000D01*
X241499D01*
X241999Y246500D01*
X244998Y247000D02*
X242999D01*
X244998Y245001D01*
Y244501D01*
X244498Y244001D01*
X243499D01*
X242999Y244501D01*
X245998Y244001D02*
X247997D01*
Y244501D01*
X245998Y246500D01*
Y247000D01*
X241999Y220501D02*
X241499Y220001D01*
X240500D01*
X240000Y220501D01*
Y222500D01*
X240500Y223000D01*
X241499D01*
X241999Y222500D01*
X244998Y223000D02*
X242999D01*
X244998Y221001D01*
Y220501D01*
X244498Y220001D01*
X243499D01*
X242999Y220501D01*
X247997Y220001D02*
X246998Y220501D01*
X245998Y221500D01*
Y222500D01*
X246498Y223000D01*
X247498D01*
X247997Y222500D01*
Y222000D01*
X247498Y221500D01*
X245998D01*
X257001Y196499D02*
X257501Y196999D01*
X258500D01*
X259000Y196499D01*
Y194500D01*
X258500Y194000D01*
X257501D01*
X257001Y194500D01*
X254002Y194000D02*
X256001D01*
X254002Y195999D01*
Y196499D01*
X254502Y196999D01*
X255501D01*
X256001Y196499D01*
X251003Y196999D02*
X253002D01*
Y195500D01*
X252002Y195999D01*
X251502D01*
X251003Y195500D01*
Y194500D01*
X251502Y194000D01*
X252502D01*
X253002Y194500D01*
X120001Y245499D02*
X120501Y245999D01*
X121500D01*
X122000Y245499D01*
Y243500D01*
X121500Y243000D01*
X120501D01*
X120001Y243500D01*
X117002Y243000D02*
X119001D01*
X117002Y244999D01*
Y245499D01*
X117501Y245999D01*
X118501D01*
X119001Y245499D01*
X114502Y243000D02*
Y245999D01*
X116002Y244499D01*
X114003D01*
X175001Y84499D02*
X175501Y84999D01*
X176500D01*
X177000Y84499D01*
Y82500D01*
X176500Y82000D01*
X175501D01*
X175001Y82500D01*
X172002Y82000D02*
X174001D01*
X172002Y83999D01*
Y84499D01*
X172501Y84999D01*
X173501D01*
X174001Y84499D01*
X171002D02*
X170502Y84999D01*
X169502D01*
X169003Y84499D01*
Y83999D01*
X169502Y83499D01*
X170002D01*
X169502D01*
X169003Y83000D01*
Y82500D01*
X169502Y82000D01*
X170502D01*
X171002Y82500D01*
X173001Y64499D02*
X173501Y64999D01*
X174500D01*
X175000Y64499D01*
Y62500D01*
X174500Y62000D01*
X173501D01*
X173001Y62500D01*
X170002Y62000D02*
X172001D01*
X170002Y63999D01*
Y64499D01*
X170501Y64999D01*
X171501D01*
X172001Y64499D01*
X169002Y62000D02*
X168002D01*
X168502D01*
Y64999D01*
X169002Y64499D01*
X101001Y67499D02*
X101500Y67999D01*
X102500D01*
X103000Y67499D01*
Y65500D01*
X102500Y65000D01*
X101500D01*
X101001Y65500D01*
X98002Y65000D02*
X100001D01*
X98002Y66999D01*
Y67499D01*
X98501Y67999D01*
X99501D01*
X100001Y67499D01*
X97002D02*
X96502Y67999D01*
X95502D01*
X95003Y67499D01*
Y65500D01*
X95502Y65000D01*
X96502D01*
X97002Y65500D01*
Y67499D01*
X203001Y125499D02*
X203501Y125999D01*
X204500D01*
X205000Y125499D01*
Y123500D01*
X204500Y123000D01*
X203501D01*
X203001Y123500D01*
X202001Y123000D02*
X201001D01*
X201501D01*
Y125999D01*
X202001Y125499D01*
X199502Y123500D02*
X199002Y123000D01*
X198002D01*
X197502Y123500D01*
Y125499D01*
X198002Y125999D01*
X199002D01*
X199502Y125499D01*
Y124999D01*
X199002Y124499D01*
X197502D01*
X213001Y124499D02*
X213500Y124999D01*
X214500D01*
X215000Y124499D01*
Y122500D01*
X214500Y122000D01*
X213500D01*
X213001Y122500D01*
X212001Y122000D02*
X211001D01*
X211501D01*
Y124999D01*
X212001Y124499D01*
X209502D02*
X209002Y124999D01*
X208002D01*
X207502Y124499D01*
Y123999D01*
X208002Y123500D01*
X207502Y123000D01*
Y122500D01*
X208002Y122000D01*
X209002D01*
X209502Y122500D01*
Y123000D01*
X209002Y123500D01*
X209502Y123999D01*
Y124499D01*
X209002Y123500D02*
X208002D01*
X257001Y133499D02*
X257501Y133999D01*
X258500D01*
X259000Y133499D01*
Y131500D01*
X258500Y131000D01*
X257501D01*
X257001Y131500D01*
X256001Y131000D02*
X255001D01*
X255501D01*
Y133999D01*
X256001Y133499D01*
X251502Y133999D02*
X253502D01*
Y132500D01*
X252502Y132999D01*
X252002D01*
X251502Y132500D01*
Y131500D01*
X252002Y131000D01*
X253002D01*
X253502Y131500D01*
X275001Y133499D02*
X275500Y133999D01*
X276500D01*
X277000Y133499D01*
Y131500D01*
X276500Y131000D01*
X275500D01*
X275001Y131500D01*
X274001Y131000D02*
X273001D01*
X273501D01*
Y133999D01*
X274001Y133499D01*
X270002Y131000D02*
Y133999D01*
X271502Y132500D01*
X269502D01*
X173001Y54499D02*
X173501Y54999D01*
X174500D01*
X175000Y54499D01*
Y52500D01*
X174500Y52000D01*
X173501D01*
X173001Y52500D01*
X172001Y52000D02*
X171001D01*
X171501D01*
Y54999D01*
X172001Y54499D01*
X167502Y52000D02*
X169502D01*
X167502Y53999D01*
Y54499D01*
X168002Y54999D01*
X169002D01*
X169502Y54499D01*
X189001Y35499D02*
X189500Y35999D01*
X190500D01*
X191000Y35499D01*
Y33500D01*
X190500Y33000D01*
X189500D01*
X189001Y33500D01*
X188001Y33000D02*
X187001D01*
X187501D01*
Y35999D01*
X188001Y35499D01*
X185502Y33000D02*
X184502D01*
X185002D01*
Y35999D01*
X185502Y35499D01*
X224001Y13499D02*
X224500Y13999D01*
X225500D01*
X226000Y13499D01*
Y11500D01*
X225500Y11000D01*
X224500D01*
X224001Y11500D01*
X223001Y11000D02*
X222001D01*
X222501D01*
Y13999D01*
X223001Y13499D01*
X220502D02*
X220002Y13999D01*
X219002D01*
X218502Y13499D01*
Y11500D01*
X219002Y11000D01*
X220002D01*
X220502Y11500D01*
Y13499D01*
X233001D02*
X233501Y13999D01*
X234500D01*
X235000Y13499D01*
Y11500D01*
X234500Y11000D01*
X233501D01*
X233001Y11500D01*
X232001D02*
X231501Y11000D01*
X230502D01*
X230002Y11500D01*
Y13499D01*
X230502Y13999D01*
X231501D01*
X232001Y13499D01*
Y12999D01*
X231501Y12500D01*
X230002D01*
X259001Y6499D02*
X259501Y6999D01*
X260500D01*
X261000Y6499D01*
Y4500D01*
X260500Y4000D01*
X259501D01*
X259001Y4500D01*
X258001Y6499D02*
X257501Y6999D01*
X256502D01*
X256002Y6499D01*
Y5999D01*
X256502Y5500D01*
X256002Y5000D01*
Y4500D01*
X256502Y4000D01*
X257501D01*
X258001Y4500D01*
Y5000D01*
X257501Y5500D01*
X258001Y5999D01*
Y6499D01*
X257501Y5500D02*
X256502D01*
X78001Y164499D02*
X78500Y164999D01*
X79500D01*
X80000Y164499D01*
Y162500D01*
X79500Y162000D01*
X78500D01*
X78001Y162500D01*
X75002Y164999D02*
X76001Y164499D01*
X77001Y163499D01*
Y162500D01*
X76501Y162000D01*
X75501D01*
X75002Y162500D01*
Y163000D01*
X75501Y163499D01*
X77001D01*
X74002Y164499D02*
X73502Y164999D01*
X72502D01*
X72003Y164499D01*
Y162500D01*
X72502Y162000D01*
X73502D01*
X74002Y162500D01*
Y164499D01*
X83001Y150999D02*
X85000D01*
Y149499D01*
X84000D01*
X85000D01*
Y148000D01*
X82001Y150999D02*
Y148000D01*
X80501D01*
X80002Y148500D01*
Y149000D01*
X80501Y149499D01*
X82001D01*
X80501D01*
X80002Y149999D01*
Y150499D01*
X80501Y150999D01*
X82001D01*
X79002Y148000D02*
X78002D01*
X78502D01*
Y150999D01*
X79002Y150499D01*
X76503D02*
X76003Y150999D01*
X75003D01*
X74503Y150499D01*
Y149999D01*
X75003Y149499D01*
X75503D01*
X75003D01*
X74503Y149000D01*
Y148500D01*
X75003Y148000D01*
X76003D01*
X76503Y148500D01*
X110000Y182999D02*
X109000D01*
X109500D01*
Y180000D01*
X110000D01*
X109000D01*
X105501Y182499D02*
X106001Y182999D01*
X107001D01*
X107501Y182499D01*
Y180500D01*
X107001Y180000D01*
X106001D01*
X105501Y180500D01*
X104502Y180000D02*
X103502D01*
X104002D01*
Y182999D01*
X104502Y182499D01*
X102003D02*
X101503Y182999D01*
X100503D01*
X100003Y182499D01*
Y181999D01*
X100503Y181500D01*
X101003D01*
X100503D01*
X100003Y181000D01*
Y180500D01*
X100503Y180000D01*
X101503D01*
X102003Y180500D01*
D89*
X260043Y218154D02*
G03*
X260043Y218154I-492J0D01*
G01*
X124941Y227847D02*
G03*
X124941Y227847I-492J0D01*
G01*
X251075Y56965D02*
G03*
X251075Y56965I-492J0D01*
G01*
D91*
X246449Y65232D02*
G03*
X246449Y65232I-1181J0D01*
G01*
D92*
X265457Y219158D02*
Y238843D01*
X272543Y219158D02*
Y238843D01*
X265457Y219158D02*
X272543D01*
X265457Y238843D02*
X272543D01*
X111457Y207157D02*
X118543D01*
X111457Y226842D02*
X118543D01*
X111457Y207157D02*
Y226842D01*
X118543Y207157D02*
Y226842D01*
X224795Y61295D02*
Y85705D01*
X249205Y61295D02*
Y85705D01*
X224795D02*
X249205D01*
X224795Y61295D02*
X249205D01*
D93*
X214445Y106095D02*
G03*
X214445Y106095I-197J0D01*
G01*
X254949Y21905D02*
G03*
X254949Y21905I-197J0D01*
G01*
D94*
X419001Y170998D02*
X420001Y171998D01*
X422000D01*
X423000Y170998D01*
Y167000D01*
X422000Y166000D01*
X420001D01*
X419001Y167000D01*
X417002Y166000D02*
Y171998D01*
X413003Y166000D01*
Y171998D01*
X408005Y166000D02*
Y171998D01*
X411004Y168999D01*
X407005D01*
X339000Y169998D02*
Y164000D01*
X336001D01*
X335001Y165000D01*
Y165999D01*
X336001Y166999D01*
X339000D01*
X336001D01*
X335001Y167999D01*
Y168998D01*
X336001Y169998D01*
X339000D01*
X333002D02*
X329003D01*
X331003D01*
Y164000D01*
X327004D02*
X325005D01*
X326004D01*
Y169998D01*
X327004Y168998D01*
M02*
