M48
;Layer_Color=9474304
;FILE_FORMAT=2:5
INCH,LZ
;TYPE=PLATED
T1F00S00C0.00787
T2F00S00C0.01181
T3F00S00C0.02800
T4F00S00C0.03150
T5F00S00C0.03543
T6F00S00C0.03937
T8F00S00C0.04331
T9F00S00C0.04724
T10F00S00C0.04803
T11F00S00C0.05118
T12F00S00C0.05512
T13F00S00C0.07205
T14F00S00C0.12500
T15F00S00C0.13583
%
T01
X0033169Y0130335
X00375
X0041831
Y0134665
X00375
X0033169
X0103Y0195
Y02
X0124Y0201
X0184Y0249
X0330669Y0224331
X0335
X0339331
Y022
Y0215669
X0335
Y022
X0330669
Y0215669
T02
X0287Y0094
X032Y01
X0348Y0097
Y0076
X0397Y0089
X0426Y0035
X0284Y0091
X0247Y0083
X0246Y008
X0242
X0238Y0083
X024Y0072
Y0068
X0236Y0069
Y0066
X0224Y0044
X0195Y0015
X0187Y008775
X0178Y0095
X0183Y0103
X0139Y01
X0235Y0104
Y0108
X0109Y01
X0105Y0101
X008Y0092
X0115Y011
Y0116
X0124Y0197
X0085Y0237
X0135Y025
X0139Y0252
X0149Y0248
Y0262
X0172Y0258
X0178Y024
X0181Y0239
X0199Y0243
X0202Y0231
X0196Y0221
X0187
X0215Y0219
Y0215
X0224Y021
X0228Y0213
X0227Y0205
X0231
X0235
X0239
X0243
X0259Y0186
X0279Y0183
X0252Y0153
X025Y015
X02475Y0145
X024554Y0139304
X0235Y0118
Y0113
X019
Y0109
X0187Y0116
X0171Y0122
X0164Y0121615
X0167Y0153
X0175Y0155
Y0151
X0173Y0159
X0168Y0165
X0153Y0171
X0158Y0178
X016Y0185
X0153Y0188
X0147Y0184
X0142Y0181
X014Y019
X0189Y0175
X0192Y0178
X021Y0184
X0213Y0186
X0216Y0188
X0219Y019
X0218Y0168
X0215Y0165
X0218Y0159
X0216Y0156
X0213Y0153
X0201Y0138378
X0186Y0154
X0188Y0157
X0217Y0243
X0211Y0262
X0243Y0245
X0252Y0234
X0269Y0246
X0282Y0262
X0302Y0187
X03Y0183
X0297Y018
X0298Y0176
X0305Y017
X031Y0166
X0323Y0125
X0341Y0122
X0356
X0349Y0137
X0345Y0139
X037Y0146
X0375Y0125
X0406Y0113
X035Y0203
X0338Y0205
X0355Y0219
X0351Y0226
X0214Y0267
T03
X0205Y002
X00495Y00425
X0052Y0133
X0047Y0158
X0055Y018
X0075
X0025Y0192
X0036Y0203
X0045Y0235
X012Y0155
X013
X018Y02
Y021
X0313Y0265
X04
X041
Y0255
X04
X0375Y019
Y018
X0365
Y017
Y019
T04
X0380039Y0157
X0409961
T05
X0090551Y013189
X0100551
X0110551
X0120551
X0130551
X0140551
X0150551
X0160551
X0170551
X0180551
X0190551
X0200551
X0210551
X0220551
X0230551
X0240551
X0238Y0269
X0248
X0258
X0268
X0199Y0268
X0189
X0179
X0169
X0159
X0149
T06
X0345Y0037
X0355
Y0057
X0345
X0385
Y0037
X0121Y0164787
Y0184
X0253Y0109
X0272213
X029Y0150221
X0298001Y0209099
X0298Y0219
X0308
X0308001Y0209099
X0308Y0229
X0298
X0313287Y02525
X03325
T08
X0136594Y0052252
X0146595
X0156595
X0151594Y0062252
X0141595
X0131595
X0161594
X0126594Y0052252
T09
X029Y00125
X0305
X0349843
X0364843
X0379842
T10
X0160177Y0007961
X0170177
X0128012
X0118012
T11
X029Y0179748
T12
X0022815Y0065315
X0032658Y0075157
X00425Y0085
X0022815
X0012972Y0075157
X00425Y0065315
T13
X0174587Y003926
X0113602
T14
X042Y0015
X0015
X0066Y0212
X042Y026
T15
X0166595Y0027252
X0121595
M30
