G04 Layer_Physical_Order=2*
G04 Layer_Color=16711680*
%FSLAX25Y25*%
%MOIN*%
G70*
G01*
G75*
%ADD11R,0.05000X0.06500*%
%ADD12R,0.06500X0.05000*%
%ADD37R,0.07284X0.04921*%
%ADD38R,0.04921X0.07284*%
%ADD48C,0.01000*%
%ADD49C,0.02000*%
%ADD50C,0.00600*%
%ADD51C,0.07874*%
%ADD52C,0.03937*%
%ADD53C,0.05118*%
%ADD54C,0.05906*%
%ADD55R,0.05906X0.05906*%
%ADD56C,0.12500*%
%ADD57C,0.08858*%
%ADD58R,0.08858X0.08858*%
%ADD59C,0.06299*%
%ADD60R,0.06299X0.06299*%
%ADD61C,0.07087*%
%ADD62C,0.13583*%
%ADD63C,0.07165*%
%ADD64C,0.06693*%
%ADD65C,0.09567*%
%ADD66O,0.18000X0.08000*%
%ADD67O,0.08000X0.18000*%
%ADD68C,0.05000*%
%ADD69C,0.01969*%
%ADD70R,0.11811X0.03937*%
%ADD71R,0.31496X0.11811*%
%ADD72P,0.03677X4X270.0*%
G04:AMPARAMS|DCode=73|XSize=15.75mil|YSize=30mil|CornerRadius=0mil|HoleSize=0mil|Usage=FLASHONLY|Rotation=135.000|XOffset=0mil|YOffset=0mil|HoleType=Round|Shape=Octagon|*
%AMOCTAGOND73*
4,1,8,-0.00782,-0.01339,-0.01339,-0.00782,-0.01339,-0.00226,0.00226,0.01339,0.00782,0.01339,0.01339,0.00782,0.01339,0.00226,-0.00226,-0.01339,-0.00782,-0.01339,0.0*
%
%ADD73OCTAGOND73*%

G04:AMPARAMS|DCode=74|XSize=15mil|YSize=30mil|CornerRadius=0mil|HoleSize=0mil|Usage=FLASHONLY|Rotation=225.000|XOffset=0mil|YOffset=0mil|HoleType=Round|Shape=Octagon|*
%AMOCTAGOND74*
4,1,8,0.01326,-0.00796,0.00796,-0.01326,0.00265,-0.01326,-0.01326,0.00265,-0.01326,0.00796,-0.00796,0.01326,-0.00265,0.01326,0.01326,-0.00265,0.01326,-0.00796,0.0*
%
%ADD74OCTAGOND74*%

G04:AMPARAMS|DCode=75|XSize=15mil|YSize=30mil|CornerRadius=0mil|HoleSize=0mil|Usage=FLASHONLY|Rotation=135.000|XOffset=0mil|YOffset=0mil|HoleType=Round|Shape=Octagon|*
%AMOCTAGOND75*
4,1,8,-0.00796,-0.01326,-0.01326,-0.00796,-0.01326,-0.00265,0.00265,0.01326,0.00796,0.01326,0.01326,0.00796,0.01326,0.00265,-0.00265,-0.01326,-0.00796,-0.01326,0.0*
%
%ADD75OCTAGOND75*%

%ADD76P,0.03677X4X360.0*%
G04:AMPARAMS|DCode=77|XSize=15.75mil|YSize=30mil|CornerRadius=0mil|HoleSize=0mil|Usage=FLASHONLY|Rotation=225.000|XOffset=0mil|YOffset=0mil|HoleType=Round|Shape=Octagon|*
%AMOCTAGOND77*
4,1,8,0.01339,-0.00782,0.00782,-0.01339,0.00226,-0.01339,-0.01339,0.00226,-0.01339,0.00782,-0.00782,0.01339,-0.00226,0.01339,0.01339,-0.00226,0.01339,-0.00782,0.0*
%
%ADD77OCTAGOND77*%

%ADD78O,0.08661X0.02362*%
%ADD79R,0.05512X0.01181*%
%ADD80R,0.01181X0.05512*%
%ADD81R,0.07874X0.05709*%
%ADD82R,0.05906X0.03150*%
%ADD83R,0.06299X0.04921*%
%ADD84R,0.06000X0.08000*%
%ADD85R,0.04134X0.05118*%
%ADD86R,0.10236X0.13937*%
%ADD87R,0.10236X0.14410*%
%ADD88R,0.01575X0.05118*%
G36*
X428000Y5000D02*
X272672D01*
X272481Y5462D01*
X276454Y9436D01*
X276454Y9436D01*
X276764Y9899D01*
X276872Y10445D01*
Y13958D01*
X278306D01*
Y18842D01*
X281036Y21573D01*
X303000D01*
X303000Y21573D01*
X303546Y21681D01*
X304009Y21991D01*
X315009Y32991D01*
X315009Y32991D01*
X315319Y33454D01*
X315427Y34000D01*
X315427Y34000D01*
Y54409D01*
X329591Y68573D01*
X342000D01*
X342000Y68573D01*
X342546Y68681D01*
X343009Y68991D01*
X349009Y74991D01*
X349319Y75454D01*
X349427Y76000D01*
X349319Y76546D01*
X349009Y77009D01*
X348546Y77319D01*
X348000Y77427D01*
X347454Y77319D01*
X346991Y77009D01*
X341409Y71427D01*
X329000D01*
X328454Y71319D01*
X327991Y71009D01*
X327991Y71009D01*
X312991Y56009D01*
X312681Y55546D01*
X312573Y55000D01*
X312573Y55000D01*
Y34591D01*
X302409Y24427D01*
X280445D01*
X280445Y24427D01*
X279899Y24319D01*
X279435Y24009D01*
X279435Y24009D01*
X277468Y22042D01*
X272584D01*
Y13958D01*
X274018D01*
Y11036D01*
X269409Y6427D01*
X205591D01*
X196009Y16009D01*
X195546Y16319D01*
X195000Y16427D01*
X194454Y16319D01*
X193991Y16009D01*
X193681Y15546D01*
X193573Y15000D01*
X193681Y14454D01*
X193991Y13991D01*
X202519Y5462D01*
X202328Y5000D01*
X173556D01*
X173309Y5500D01*
X173656Y5952D01*
X174057Y6921D01*
X174194Y7961D01*
X174057Y9000D01*
X173656Y9969D01*
X173581Y10067D01*
X187649Y24135D01*
X187848Y24432D01*
X187918Y24783D01*
Y37620D01*
X190148Y39850D01*
X191582D01*
Y37500D01*
X191652Y37149D01*
X191851Y36851D01*
X200351Y28351D01*
X200649Y28152D01*
X201000Y28082D01*
X218350D01*
Y26100D01*
X225650D01*
Y28082D01*
X228350D01*
Y26100D01*
X235650D01*
Y28082D01*
X238350D01*
Y26100D01*
X245650D01*
Y28161D01*
X248281D01*
X255533Y20909D01*
Y16781D01*
X260467D01*
Y19082D01*
X265694D01*
Y13958D01*
X271416D01*
Y22042D01*
X265694D01*
Y20918D01*
X261128D01*
X260937Y21380D01*
X266640Y27082D01*
X302000D01*
X302351Y27152D01*
X302649Y27351D01*
X309649Y34351D01*
X309848Y34649D01*
X309918Y35000D01*
Y80000D01*
X309848Y80351D01*
X309649Y80649D01*
X304400Y85898D01*
Y91150D01*
X302418D01*
Y93850D01*
X304400D01*
Y101150D01*
X302418D01*
Y103850D01*
X304400D01*
Y111150D01*
X298600D01*
Y103850D01*
X300582D01*
Y101150D01*
X298600D01*
Y93850D01*
X300582D01*
Y91150D01*
X298600D01*
Y83850D01*
X303852D01*
X308082Y79620D01*
Y35380D01*
X301620Y28918D01*
X266260D01*
X265909Y28848D01*
X265611Y28649D01*
X259661Y22699D01*
X258918D01*
Y31600D01*
X263150D01*
Y33582D01*
X265850D01*
Y31600D01*
X273150D01*
Y33582D01*
X275850D01*
Y31600D01*
X283150D01*
Y37400D01*
X275850D01*
Y35418D01*
X273150D01*
Y37400D01*
X265850D01*
Y35418D01*
X263150D01*
Y37400D01*
X255850D01*
Y31600D01*
X257082D01*
Y22699D01*
X256339D01*
X249310Y29728D01*
X249013Y29926D01*
X248661Y29996D01*
X245650D01*
Y31900D01*
X242839D01*
Y53209D01*
X243390D01*
Y56965D01*
X244390D01*
Y53209D01*
X245480D01*
Y53809D01*
X248817D01*
Y60120D01*
X248744D01*
Y64173D01*
X248675Y64524D01*
X248476Y64822D01*
X241392Y71905D01*
X241411Y72000D01*
X241304Y72540D01*
X240998Y72998D01*
X240540Y73304D01*
X240000Y73411D01*
X239460Y73304D01*
X239002Y72998D01*
X238696Y72540D01*
X238589Y72000D01*
X238696Y71460D01*
X239002Y71002D01*
X239460Y70696D01*
X240000Y70589D01*
X240095Y70608D01*
X246909Y63793D01*
Y63078D01*
X246794Y62995D01*
X246409Y62889D01*
X241392Y67905D01*
X241411Y68000D01*
X241304Y68540D01*
X240998Y68998D01*
X240540Y69304D01*
X240000Y69411D01*
X239460Y69304D01*
X239002Y68998D01*
X238696Y68540D01*
X238658Y68347D01*
X238115Y68183D01*
X237392Y68905D01*
X237411Y69000D01*
X237304Y69540D01*
X236998Y69998D01*
X236540Y70304D01*
X236000Y70411D01*
X235460Y70304D01*
X235002Y69998D01*
X234696Y69540D01*
X234589Y69000D01*
X234696Y68460D01*
X235002Y68002D01*
X235338Y67778D01*
X235369Y67656D01*
Y67344D01*
X235338Y67222D01*
X235002Y66998D01*
X234696Y66540D01*
X234589Y66000D01*
X234696Y65460D01*
X235002Y65002D01*
X235460Y64696D01*
X236000Y64589D01*
X236095Y64608D01*
X237067Y63636D01*
Y60120D01*
X233669D01*
Y60720D01*
X232579D01*
Y56965D01*
Y53209D01*
X233130D01*
Y31900D01*
X228350D01*
Y29918D01*
X225650D01*
Y31900D01*
X218398D01*
X213918Y36380D01*
Y42620D01*
X218380Y47082D01*
X225000D01*
X225351Y47152D01*
X225649Y47351D01*
X228693Y50395D01*
X229077Y50288D01*
X229193Y50206D01*
Y43150D01*
X226364D01*
X226077Y43500D01*
X224500D01*
Y42076D01*
X224600Y42096D01*
X225100Y41793D01*
Y35850D01*
X230900D01*
Y41172D01*
X230958Y41259D01*
X231028Y41610D01*
Y53209D01*
X231579D01*
Y56965D01*
Y60720D01*
X230488D01*
Y60120D01*
X225183D01*
Y53809D01*
X227224D01*
Y51522D01*
X224620Y48918D01*
X218000D01*
X217649Y48848D01*
X217351Y48649D01*
X212351Y43649D01*
X212152Y43351D01*
X212082Y43000D01*
Y36000D01*
X212152Y35649D01*
X212351Y35351D01*
X217323Y30380D01*
X217131Y29918D01*
X201380D01*
X193418Y37880D01*
Y39850D01*
X195400D01*
Y45102D01*
X215990Y65693D01*
X216709D01*
Y65142D01*
X220464D01*
X224220D01*
Y66232D01*
X223621D01*
Y66988D01*
X224220D01*
Y68079D01*
X220464D01*
X216709D01*
Y67528D01*
X215610D01*
X215317Y67470D01*
X215259Y67458D01*
X214961Y67259D01*
X194852Y47150D01*
X193418D01*
Y49850D01*
X195400D01*
Y53102D01*
X211927Y69630D01*
X216709D01*
Y69079D01*
X220464D01*
X224220D01*
Y70169D01*
X223621D01*
Y72894D01*
X224220D01*
Y73984D01*
X220464D01*
X216709D01*
Y72894D01*
X217309D01*
Y71465D01*
X211547D01*
X211196Y71395D01*
X210898Y71196D01*
X195862Y56160D01*
X195400Y56351D01*
Y57150D01*
X190148D01*
X188918Y58380D01*
Y68620D01*
X190148Y69850D01*
X195400D01*
Y74102D01*
X198801Y77504D01*
X207517D01*
X207599Y77388D01*
X207706Y77004D01*
X197336Y66634D01*
X196963Y66361D01*
Y66361D01*
X196963Y66361D01*
X189864D01*
Y60639D01*
X196963D01*
Y63665D01*
X208833Y75535D01*
X216709D01*
Y74984D01*
X220464D01*
X224220D01*
Y76075D01*
X223621D01*
Y81368D01*
Y85317D01*
X217309D01*
Y83276D01*
X203522D01*
X194900Y91898D01*
Y97082D01*
X220620D01*
X225183Y92520D01*
Y86879D01*
X232457D01*
Y86279D01*
X233547D01*
Y90035D01*
Y93791D01*
X232996D01*
Y96661D01*
X232927Y97013D01*
X232728Y97310D01*
X221129Y108909D01*
X220831Y109108D01*
X220480Y109177D01*
X213467D01*
Y111219D01*
X208533D01*
Y108418D01*
X204650D01*
Y110400D01*
X197350D01*
Y105148D01*
X196120Y103918D01*
X184052D01*
X183998Y103998D01*
X183540Y104304D01*
X183000Y104411D01*
X182460Y104304D01*
X182002Y103998D01*
X181948Y103918D01*
X142000D01*
X141649Y103848D01*
X141351Y103649D01*
X139095Y101392D01*
X139000Y101411D01*
X138460Y101304D01*
X138002Y100998D01*
X137948Y100918D01*
X110052D01*
X109998Y100998D01*
X109540Y101304D01*
X109000Y101411D01*
X108460Y101304D01*
X108002Y100998D01*
X107696Y100540D01*
X107589Y100000D01*
X107607Y99905D01*
X100620Y92918D01*
X81052D01*
X80998Y92998D01*
X80540Y93304D01*
X80000Y93411D01*
X79460Y93304D01*
X79002Y92998D01*
X78696Y92540D01*
X78589Y92000D01*
X78696Y91460D01*
X79002Y91002D01*
X79460Y90696D01*
X80000Y90589D01*
X80540Y90696D01*
X80998Y91002D01*
X81052Y91082D01*
X101000D01*
X101351Y91152D01*
X101649Y91351D01*
X108905Y98607D01*
X109000Y98589D01*
X109540Y98696D01*
X109998Y99002D01*
X110052Y99082D01*
X137948D01*
X138002Y99002D01*
X138460Y98696D01*
X139000Y98589D01*
X139540Y98696D01*
X139998Y99002D01*
X140304Y99460D01*
X140411Y100000D01*
X140392Y100095D01*
X142380Y102082D01*
X181948D01*
X182002Y102002D01*
X182460Y101696D01*
X183000Y101589D01*
X183540Y101696D01*
X183998Y102002D01*
X184052Y102082D01*
X196500D01*
X196851Y102152D01*
X197149Y102351D01*
X199398Y104600D01*
X204650D01*
Y106582D01*
X208533D01*
Y105301D01*
X213467D01*
Y107342D01*
X220100D01*
X231161Y96281D01*
Y94826D01*
X231046Y94743D01*
X230661Y94637D01*
X224649Y100649D01*
X224351Y100848D01*
X224000Y100918D01*
X176000D01*
X175649Y100848D01*
X175351Y100649D01*
X169351Y94649D01*
X169152Y94351D01*
X169082Y94000D01*
Y54380D01*
X158620Y43918D01*
X149000D01*
X148649Y43848D01*
X148351Y43649D01*
X141602Y36900D01*
X136350D01*
Y31100D01*
X143650D01*
Y36352D01*
X149380Y42082D01*
X159000D01*
X159351Y42152D01*
X159649Y42351D01*
X170582Y53285D01*
X170851Y53234D01*
X171082Y53100D01*
Y51380D01*
X154620Y34918D01*
X153650D01*
Y36900D01*
X146350D01*
Y31100D01*
X153650D01*
Y33082D01*
X155000D01*
X155351Y33152D01*
X155649Y33351D01*
X172649Y50351D01*
X172848Y50649D01*
X172918Y51000D01*
Y92620D01*
X177380Y97082D01*
X180500D01*
Y94000D01*
X184000D01*
X187500D01*
Y97082D01*
X189100D01*
Y89850D01*
X194352D01*
X202395Y81807D01*
X202288Y81423D01*
X202206Y81307D01*
X195990D01*
X195400Y81898D01*
Y87150D01*
X189600D01*
Y79850D01*
X194852D01*
X194961Y79741D01*
X195259Y79542D01*
X195610Y79472D01*
X197485D01*
X197568Y79357D01*
X197674Y78972D01*
X195720Y77017D01*
X195400Y77150D01*
Y77150D01*
X190148D01*
X188649Y78649D01*
X188351Y78848D01*
X188000Y78918D01*
X187362D01*
X187000Y79250D01*
Y83000D01*
X183500D01*
X180000D01*
Y79951D01*
X179538Y79760D01*
X177918Y81380D01*
Y93521D01*
X178000Y93589D01*
X178540Y93696D01*
X178998Y94002D01*
X179304Y94460D01*
X179411Y95000D01*
X179304Y95540D01*
X178998Y95998D01*
X178540Y96304D01*
X178000Y96411D01*
X177460Y96304D01*
X177002Y95998D01*
X176696Y95540D01*
X176589Y95000D01*
X176608Y94905D01*
X176351Y94649D01*
X176152Y94351D01*
X176082Y94000D01*
Y81000D01*
X176152Y80649D01*
X176351Y80351D01*
X179351Y77351D01*
X179649Y77152D01*
X180000Y77082D01*
Y74000D01*
X183500D01*
Y73500D01*
X184000D01*
Y69250D01*
X186622D01*
X187040Y69023D01*
X187082Y68784D01*
Y67317D01*
X186736Y66961D01*
X186582Y66961D01*
X183087D01*
Y63500D01*
Y60039D01*
X186582D01*
X186736Y60039D01*
X187082Y59683D01*
Y58216D01*
X187040Y57977D01*
X186622Y57750D01*
X184000D01*
Y54000D01*
X187000D01*
Y56995D01*
X187500Y57202D01*
X189600Y55102D01*
Y49850D01*
X191582D01*
Y47150D01*
X189600D01*
Y41898D01*
X187462Y39760D01*
X187000Y39951D01*
Y43000D01*
X184000D01*
Y39250D01*
X186299D01*
X186490Y38788D01*
X186351Y38649D01*
X186152Y38351D01*
X186082Y38000D01*
Y25164D01*
X172283Y11365D01*
X172186Y11440D01*
X171217Y11841D01*
X170177Y11978D01*
X169138Y11841D01*
X168169Y11440D01*
X167337Y10801D01*
X166698Y9969D01*
X166297Y9000D01*
X166160Y7961D01*
X166297Y6921D01*
X166698Y5952D01*
X167045Y5500D01*
X166799Y5000D01*
X163556D01*
X163309Y5500D01*
X163656Y5952D01*
X164057Y6921D01*
X164194Y7961D01*
X164057Y9000D01*
X163656Y9969D01*
X163018Y10801D01*
X162186Y11440D01*
X161217Y11841D01*
X160177Y11978D01*
X159137Y11841D01*
X158169Y11440D01*
X158071Y11365D01*
X150918Y18518D01*
Y23100D01*
X153650D01*
Y28900D01*
X146350D01*
Y23100D01*
X149082D01*
Y18138D01*
X149152Y17787D01*
X149351Y17489D01*
X156773Y10067D01*
X156698Y9969D01*
X156297Y9000D01*
X156160Y7961D01*
X156297Y6921D01*
X156698Y5952D01*
X157045Y5500D01*
X156799Y5000D01*
X131390D01*
X131144Y5500D01*
X131491Y5952D01*
X131892Y6921D01*
X132029Y7961D01*
X131892Y9000D01*
X131491Y9969D01*
X131416Y10067D01*
X140649Y19300D01*
X140848Y19598D01*
X140918Y19949D01*
Y23100D01*
X143650D01*
Y28900D01*
X136350D01*
Y23100D01*
X139082D01*
Y20329D01*
X130118Y11365D01*
X130020Y11440D01*
X129051Y11841D01*
X128012Y11978D01*
X126972Y11841D01*
X126003Y11440D01*
X125171Y10801D01*
X124533Y9969D01*
X124132Y9000D01*
X123995Y7961D01*
X124132Y6921D01*
X124533Y5952D01*
X124880Y5500D01*
X124633Y5000D01*
X121390D01*
X121144Y5500D01*
X121491Y5952D01*
X121892Y6921D01*
X122029Y7961D01*
X121892Y9000D01*
X121491Y9969D01*
X120852Y10801D01*
X120020Y11440D01*
X119052Y11841D01*
X118012Y11978D01*
X116972Y11841D01*
X116003Y11440D01*
X115171Y10801D01*
X114533Y9969D01*
X114132Y9000D01*
X113995Y7961D01*
X114132Y6921D01*
X114533Y5952D01*
X114880Y5500D01*
X114633Y5000D01*
X5000D01*
Y270000D01*
X145727D01*
X145992Y269500D01*
X145733Y268875D01*
X145618Y268000D01*
X145733Y267125D01*
X146071Y266309D01*
X146609Y265609D01*
X147309Y265071D01*
X148082Y264751D01*
Y263427D01*
X110000D01*
X110000Y263427D01*
X109454Y263319D01*
X108991Y263009D01*
X108991Y263009D01*
X83991Y238009D01*
X83681Y237546D01*
X83573Y237000D01*
X83594Y236892D01*
X79351Y232649D01*
X79152Y232351D01*
X79082Y232000D01*
Y150000D01*
X79152Y149649D01*
X79351Y149351D01*
X83796Y144906D01*
X84094Y144707D01*
X84445Y144638D01*
X86958D01*
Y142694D01*
X95042D01*
Y148416D01*
X86958D01*
Y146473D01*
X84825D01*
X80918Y150380D01*
Y231620D01*
X84640Y235342D01*
X84991Y234991D01*
X84991Y234991D01*
X85454Y234681D01*
X86000Y234573D01*
X93695D01*
Y231958D01*
X99416D01*
Y240042D01*
X93695D01*
Y237427D01*
X88099D01*
X87908Y237889D01*
X110591Y260573D01*
X128582D01*
Y255500D01*
X128652Y255149D01*
X128851Y254851D01*
X133607Y250095D01*
X133589Y250000D01*
X133696Y249460D01*
X134002Y249002D01*
X134460Y248696D01*
X135000Y248589D01*
X135540Y248696D01*
X135998Y249002D01*
X136304Y249460D01*
X136411Y250000D01*
X136304Y250540D01*
X135998Y250998D01*
X135540Y251304D01*
X135000Y251411D01*
X134905Y251393D01*
X130418Y255880D01*
Y260573D01*
X210000D01*
X210500Y260672D01*
X211000Y260573D01*
X234000D01*
X234000Y260573D01*
X234000Y260573D01*
X291993D01*
X313573Y238993D01*
Y219000D01*
X313573Y219000D01*
X313681Y218454D01*
X313991Y217991D01*
X323991Y207991D01*
X323991Y207991D01*
X324454Y207681D01*
X325000Y207573D01*
X325000Y207573D01*
X339409D01*
X342573Y204409D01*
Y196591D01*
X334409Y188427D01*
X302000D01*
X302000Y188427D01*
X301454Y188319D01*
X300991Y188009D01*
X300681Y187546D01*
X300573Y187000D01*
X300681Y186454D01*
X300991Y185991D01*
X343573Y143409D01*
Y139000D01*
X343681Y138454D01*
X343991Y137991D01*
X344454Y137681D01*
X345000Y137573D01*
X345546Y137681D01*
X346009Y137991D01*
X346319Y138454D01*
X346427Y139000D01*
Y144000D01*
X346319Y144546D01*
X346009Y145009D01*
X346009Y145009D01*
X305908Y185111D01*
X306099Y185573D01*
X335000D01*
X335000Y185573D01*
X335546Y185681D01*
X336009Y185991D01*
X345009Y194991D01*
X345009Y194991D01*
X345319Y195454D01*
X345427Y196000D01*
X345427Y196000D01*
Y205000D01*
X345319Y205546D01*
X345009Y206009D01*
X345009Y206009D01*
X341009Y210009D01*
X340546Y210319D01*
X340000Y210427D01*
X340000Y210427D01*
X325591D01*
X316427Y219591D01*
Y239584D01*
X316427Y239584D01*
X316319Y240130D01*
X316009Y240594D01*
X316009Y240594D01*
X293594Y263009D01*
X293130Y263319D01*
X292584Y263427D01*
X292584Y263427D01*
X238099D01*
X237908Y263889D01*
X239009Y264991D01*
X239009Y264991D01*
X239319Y265454D01*
X239357Y265647D01*
X241353D01*
Y270000D01*
X243766D01*
X244095Y269624D01*
X244079Y269500D01*
X251921D01*
X251905Y269624D01*
X252234Y270000D01*
X254272D01*
X254684Y269500D01*
X254618Y269000D01*
X254734Y268125D01*
X255071Y267309D01*
X255609Y266609D01*
X256309Y266071D01*
X257125Y265734D01*
X258000Y265618D01*
X258875Y265734D01*
X259691Y266071D01*
X260391Y266609D01*
X260929Y267309D01*
X261266Y268125D01*
X261382Y269000D01*
X261316Y269500D01*
X261728Y270000D01*
X264272D01*
X264684Y269500D01*
X264618Y269000D01*
X264734Y268125D01*
X265071Y267309D01*
X265609Y266609D01*
X266309Y266071D01*
X267125Y265734D01*
X268000Y265618D01*
X268875Y265734D01*
X269691Y266071D01*
X270391Y266609D01*
X270929Y267309D01*
X271266Y268125D01*
X271382Y269000D01*
X271316Y269500D01*
X271728Y270000D01*
X428000D01*
Y5000D01*
D02*
G37*
G36*
X234647Y265647D02*
X234975D01*
X235167Y265185D01*
X233409Y263427D01*
X214378D01*
X214187Y263889D01*
X214649Y264351D01*
X214848Y264649D01*
X214918Y265000D01*
Y265948D01*
X214998Y266002D01*
X215304Y266460D01*
X215411Y267000D01*
X215304Y267540D01*
X214998Y267998D01*
X214540Y268304D01*
X214000Y268411D01*
X213460Y268304D01*
X213002Y267998D01*
X212696Y267540D01*
X212589Y267000D01*
X212696Y266460D01*
X213002Y266002D01*
X213082Y265948D01*
Y265380D01*
X211130Y263427D01*
X211000D01*
X210500Y263328D01*
X210000Y263427D01*
X149918D01*
Y264751D01*
X150691Y265071D01*
X151391Y265609D01*
X151929Y266309D01*
X152267Y267125D01*
X152382Y268000D01*
X152267Y268875D01*
X152008Y269500D01*
X152273Y270000D01*
X155009D01*
X155343Y269500D01*
X155149Y269032D01*
X155079Y268500D01*
X159000D01*
X162921D01*
X162851Y269032D01*
X162657Y269500D01*
X162991Y270000D01*
X165727D01*
X165992Y269500D01*
X165734Y268875D01*
X165618Y268000D01*
X165734Y267125D01*
X166071Y266309D01*
X166609Y265609D01*
X167309Y265071D01*
X168125Y264734D01*
X169000Y264618D01*
X169875Y264734D01*
X170691Y265071D01*
X171391Y265609D01*
X171929Y266309D01*
X172266Y267125D01*
X172382Y268000D01*
X172266Y268875D01*
X172008Y269500D01*
X172273Y270000D01*
X175727D01*
X175992Y269500D01*
X175733Y268875D01*
X175618Y268000D01*
X175733Y267125D01*
X176071Y266309D01*
X176609Y265609D01*
X177309Y265071D01*
X178125Y264734D01*
X179000Y264618D01*
X179875Y264734D01*
X180691Y265071D01*
X181391Y265609D01*
X181929Y266309D01*
X182266Y267125D01*
X182382Y268000D01*
X182266Y268875D01*
X182008Y269500D01*
X182273Y270000D01*
X185727D01*
X185992Y269500D01*
X185733Y268875D01*
X185618Y268000D01*
X185733Y267125D01*
X186071Y266309D01*
X186609Y265609D01*
X187309Y265071D01*
X188125Y264734D01*
X189000Y264618D01*
X189875Y264734D01*
X190691Y265071D01*
X191391Y265609D01*
X191929Y266309D01*
X192266Y267125D01*
X192382Y268000D01*
X192266Y268875D01*
X192008Y269500D01*
X192273Y270000D01*
X195647D01*
Y264647D01*
X202353D01*
Y270000D01*
X234647D01*
Y265647D01*
D02*
G37*
G36*
X241004Y31900D02*
X238350D01*
Y29918D01*
X235650D01*
Y31900D01*
X234965D01*
Y53809D01*
X241004D01*
Y31900D01*
D02*
G37*
%LPC*%
G36*
X410500Y268464D02*
Y265500D01*
X413464D01*
X413410Y265914D01*
X413057Y266765D01*
X412496Y267496D01*
X411765Y268057D01*
X410914Y268410D01*
X410500Y268464D01*
D02*
G37*
G36*
X409500D02*
X409086Y268410D01*
X408235Y268057D01*
X407504Y267496D01*
X406943Y266765D01*
X406590Y265914D01*
X406536Y265500D01*
X409500D01*
Y268464D01*
D02*
G37*
G36*
X400500D02*
Y265500D01*
X403464D01*
X403410Y265914D01*
X403057Y266765D01*
X402496Y267496D01*
X401765Y268057D01*
X400914Y268410D01*
X400500Y268464D01*
D02*
G37*
G36*
X399500D02*
X399086Y268410D01*
X398235Y268057D01*
X397504Y267496D01*
X396943Y266765D01*
X396590Y265914D01*
X396536Y265500D01*
X399500D01*
Y268464D01*
D02*
G37*
G36*
X313500D02*
Y265500D01*
X316464D01*
X316410Y265914D01*
X316057Y266765D01*
X315496Y267496D01*
X314765Y268057D01*
X313914Y268410D01*
X313500Y268464D01*
D02*
G37*
G36*
X312500D02*
X312086Y268410D01*
X311235Y268057D01*
X310504Y267496D01*
X309943Y266765D01*
X309590Y265914D01*
X309536Y265500D01*
X312500D01*
Y268464D01*
D02*
G37*
G36*
X251921Y268500D02*
X248500D01*
Y265079D01*
X249032Y265149D01*
X249993Y265547D01*
X250819Y266181D01*
X251453Y267007D01*
X251851Y267968D01*
X251921Y268500D01*
D02*
G37*
G36*
X247500D02*
X244079D01*
X244149Y267968D01*
X244547Y267007D01*
X245181Y266181D01*
X246007Y265547D01*
X246968Y265149D01*
X247500Y265079D01*
Y268500D01*
D02*
G37*
G36*
X413464Y264500D02*
X410500D01*
Y261536D01*
X410914Y261590D01*
X411765Y261943D01*
X412496Y262504D01*
X413057Y263235D01*
X413410Y264086D01*
X413464Y264500D01*
D02*
G37*
G36*
X409500D02*
X406536D01*
X406590Y264086D01*
X406943Y263235D01*
X407504Y262504D01*
X408235Y261943D01*
X409086Y261590D01*
X409500Y261536D01*
Y264500D01*
D02*
G37*
G36*
X403464D02*
X400500D01*
Y261536D01*
X400914Y261590D01*
X401765Y261943D01*
X402496Y262504D01*
X403057Y263235D01*
X403410Y264086D01*
X403464Y264500D01*
D02*
G37*
G36*
X399500D02*
X396536D01*
X396590Y264086D01*
X396943Y263235D01*
X397504Y262504D01*
X398235Y261943D01*
X399086Y261590D01*
X399500Y261536D01*
Y264500D01*
D02*
G37*
G36*
X316464D02*
X313500D01*
Y261536D01*
X313914Y261590D01*
X314765Y261943D01*
X315496Y262504D01*
X316057Y263235D01*
X316410Y264086D01*
X316464Y264500D01*
D02*
G37*
G36*
X312500D02*
X309536D01*
X309590Y264086D01*
X309943Y263235D01*
X310504Y262504D01*
X311235Y261943D01*
X312086Y261590D01*
X312500Y261536D01*
Y264500D01*
D02*
G37*
G36*
X172000Y259411D02*
X171460Y259304D01*
X171002Y258998D01*
X170948Y258918D01*
X145000D01*
X144649Y258848D01*
X144351Y258649D01*
X139095Y253393D01*
X139000Y253411D01*
X138460Y253304D01*
X138002Y252998D01*
X137696Y252540D01*
X137589Y252000D01*
X137696Y251460D01*
X138002Y251002D01*
X138460Y250696D01*
X139000Y250589D01*
X139540Y250696D01*
X139998Y251002D01*
X140304Y251460D01*
X140411Y252000D01*
X140392Y252095D01*
X145380Y257082D01*
X170948D01*
X171002Y257002D01*
X171460Y256696D01*
X172000Y256589D01*
X172540Y256696D01*
X172998Y257002D01*
X173304Y257460D01*
X173411Y258000D01*
X173304Y258540D01*
X172998Y258998D01*
X172540Y259304D01*
X172000Y259411D01*
D02*
G37*
G36*
X410500Y258464D02*
Y255500D01*
X413464D01*
X413410Y255914D01*
X413057Y256765D01*
X412496Y257496D01*
X411765Y258057D01*
X410914Y258410D01*
X410500Y258464D01*
D02*
G37*
G36*
X409500D02*
X409086Y258410D01*
X408235Y258057D01*
X407504Y257496D01*
X406943Y256765D01*
X406590Y255914D01*
X406536Y255500D01*
X409500D01*
Y258464D01*
D02*
G37*
G36*
X400500D02*
Y255500D01*
X403464D01*
X403410Y255914D01*
X403057Y256765D01*
X402496Y257496D01*
X401765Y258057D01*
X400914Y258410D01*
X400500Y258464D01*
D02*
G37*
G36*
X399500D02*
X399086Y258410D01*
X398235Y258057D01*
X397504Y257496D01*
X396943Y256765D01*
X396590Y255914D01*
X396536Y255500D01*
X399500D01*
Y258464D01*
D02*
G37*
G36*
X420000Y266682D02*
X418696Y266554D01*
X417443Y266174D01*
X416288Y265556D01*
X415275Y264725D01*
X414444Y263712D01*
X413827Y262557D01*
X413446Y261304D01*
X413318Y260000D01*
X413446Y258696D01*
X413827Y257443D01*
X414444Y256288D01*
X415275Y255275D01*
X416288Y254444D01*
X417443Y253826D01*
X418696Y253446D01*
X420000Y253318D01*
X421304Y253446D01*
X422557Y253826D01*
X423712Y254444D01*
X424725Y255275D01*
X425556Y256288D01*
X426173Y257443D01*
X426554Y258696D01*
X426682Y260000D01*
X426554Y261304D01*
X426173Y262557D01*
X425556Y263712D01*
X424725Y264725D01*
X423712Y265556D01*
X422557Y266174D01*
X421304Y266554D01*
X420000Y266682D01*
D02*
G37*
G36*
X413464Y254500D02*
X410500D01*
Y251536D01*
X410914Y251590D01*
X411765Y251943D01*
X412496Y252504D01*
X413057Y253235D01*
X413410Y254086D01*
X413464Y254500D01*
D02*
G37*
G36*
X409500D02*
X406536D01*
X406590Y254086D01*
X406943Y253235D01*
X407504Y252504D01*
X408235Y251943D01*
X409086Y251590D01*
X409500Y251536D01*
Y254500D01*
D02*
G37*
G36*
X403464D02*
X400500D01*
Y251536D01*
X400914Y251590D01*
X401765Y251943D01*
X402496Y252504D01*
X403057Y253235D01*
X403410Y254086D01*
X403464Y254500D01*
D02*
G37*
G36*
X399500D02*
X396536D01*
X396590Y254086D01*
X396943Y253235D01*
X397504Y252504D01*
X398235Y251943D01*
X399086Y251590D01*
X399500Y251536D01*
Y254500D01*
D02*
G37*
G36*
X332500Y256874D02*
X331368Y256725D01*
X330313Y256288D01*
X329407Y255593D01*
X328712Y254687D01*
X328275Y253632D01*
X328126Y252500D01*
X328275Y251368D01*
X328712Y250313D01*
X329407Y249407D01*
X330313Y248712D01*
X331368Y248275D01*
X332500Y248126D01*
X333632Y248275D01*
X334687Y248712D01*
X335593Y249407D01*
X336288Y250313D01*
X336725Y251368D01*
X336874Y252500D01*
X336725Y253632D01*
X336288Y254687D01*
X335593Y255593D01*
X334687Y256288D01*
X333632Y256725D01*
X332500Y256874D01*
D02*
G37*
G36*
X313287D02*
X312155Y256725D01*
X311100Y256288D01*
X310194Y255593D01*
X309499Y254687D01*
X309062Y253632D01*
X308913Y252500D01*
X309062Y251368D01*
X309499Y250313D01*
X310194Y249407D01*
X311100Y248712D01*
X312155Y248275D01*
X313287Y248126D01*
X314420Y248275D01*
X315475Y248712D01*
X316381Y249407D01*
X317076Y250313D01*
X317513Y251368D01*
X317662Y252500D01*
X317513Y253632D01*
X317076Y254687D01*
X316381Y255593D01*
X315475Y256288D01*
X314420Y256725D01*
X313287Y256874D01*
D02*
G37*
G36*
X280000Y255918D02*
X197000D01*
X196649Y255848D01*
X196351Y255649D01*
X182380Y241677D01*
X181918Y241869D01*
Y243000D01*
X181848Y243351D01*
X181649Y243649D01*
X171715Y253582D01*
X171766Y253851D01*
X171900Y254082D01*
X177620D01*
X182607Y249095D01*
X182589Y249000D01*
X182696Y248460D01*
X183002Y248002D01*
X183460Y247696D01*
X184000Y247589D01*
X184540Y247696D01*
X184998Y248002D01*
X185304Y248460D01*
X185411Y249000D01*
X185304Y249540D01*
X184998Y249998D01*
X184540Y250304D01*
X184000Y250411D01*
X183905Y250393D01*
X178649Y255649D01*
X178351Y255848D01*
X178000Y255918D01*
X146000D01*
X145649Y255848D01*
X145351Y255649D01*
X133351Y243649D01*
X133152Y243351D01*
X133082Y243000D01*
Y211380D01*
X130059Y208357D01*
X129653Y208649D01*
X129723Y209000D01*
X124949D01*
Y207276D01*
X127598D01*
X128449Y207445D01*
X128742Y207039D01*
X124095Y202393D01*
X124000Y202411D01*
X123460Y202304D01*
X123002Y201998D01*
X122696Y201540D01*
X122589Y201000D01*
X122696Y200460D01*
X123002Y200002D01*
X123460Y199696D01*
X124000Y199589D01*
X124540Y199696D01*
X124998Y200002D01*
X125304Y200460D01*
X125411Y201000D01*
X125392Y201095D01*
X134649Y210351D01*
X134848Y210649D01*
X134918Y211000D01*
Y242620D01*
X135620Y243323D01*
X136082Y243131D01*
Y209380D01*
X124820Y198117D01*
X124540Y198304D01*
X124000Y198411D01*
X123460Y198304D01*
X123002Y197998D01*
X122948Y197918D01*
X121380D01*
X113918Y205380D01*
Y212000D01*
X113848Y212351D01*
X113649Y212649D01*
X111149Y215149D01*
X110851Y215348D01*
X110500Y215418D01*
X109989D01*
X109841Y215640D01*
X109318Y215989D01*
X108701Y216112D01*
X102402D01*
X101785Y215989D01*
X101262Y215640D01*
X101113Y215418D01*
X97880D01*
X96900Y216398D01*
Y221650D01*
X91655D01*
X91448Y222150D01*
X92880Y223582D01*
X101113D01*
X101262Y223360D01*
X101785Y223011D01*
X102402Y222888D01*
X108701D01*
X109318Y223011D01*
X109841Y223360D01*
X110190Y223883D01*
X110313Y224500D01*
X110190Y225117D01*
X109841Y225640D01*
X109318Y225989D01*
X109091Y226034D01*
X108926Y226577D01*
X112149Y229800D01*
X112348Y230098D01*
X112418Y230449D01*
Y232350D01*
X114400D01*
Y239650D01*
X108600D01*
Y236918D01*
X106306D01*
Y240042D01*
X100584D01*
Y231958D01*
X106306D01*
Y235082D01*
X108600D01*
Y232350D01*
X110582D01*
Y230829D01*
X105866Y226112D01*
X102402D01*
X101785Y225989D01*
X101262Y225640D01*
X101113Y225418D01*
X92500D01*
X92149Y225348D01*
X91851Y225149D01*
X88352Y221650D01*
X83100D01*
Y214350D01*
X85082D01*
Y211650D01*
X83100D01*
Y204350D01*
X88900D01*
Y211650D01*
X86918D01*
Y214350D01*
X88900D01*
Y219602D01*
X90600Y221302D01*
X91100Y221095D01*
Y214350D01*
X96352D01*
X96851Y213851D01*
X97149Y213652D01*
X97500Y213582D01*
X101113D01*
X101262Y213360D01*
X101785Y213011D01*
X102402Y212888D01*
X108701D01*
X109318Y213011D01*
X109841Y213360D01*
X110402Y213300D01*
X112082Y211620D01*
Y205000D01*
X112089Y204967D01*
X111628Y204721D01*
X108926Y207423D01*
X109091Y207965D01*
X109318Y208011D01*
X109841Y208360D01*
X110190Y208883D01*
X110313Y209500D01*
X110190Y210117D01*
X109841Y210640D01*
X109318Y210989D01*
X108701Y211112D01*
X102402D01*
X101785Y210989D01*
X101262Y210640D01*
X101113Y210418D01*
X96900D01*
Y211650D01*
X91100D01*
Y204350D01*
X94641D01*
Y191369D01*
X94187Y191258D01*
X93872Y191258D01*
X92128D01*
X91813Y191258D01*
X91313Y191258D01*
X89253D01*
Y185340D01*
X89523D01*
Y184559D01*
X89593Y184208D01*
X89792Y183910D01*
X92351Y181351D01*
X92649Y181152D01*
X93000Y181082D01*
X101000D01*
X101351Y181152D01*
X101649Y181351D01*
X103649Y183351D01*
X103848Y183649D01*
X103918Y184000D01*
Y193948D01*
X103998Y194002D01*
X104304Y194460D01*
X104411Y195000D01*
X104304Y195540D01*
X103998Y195998D01*
X103540Y196304D01*
X103000Y196411D01*
X102460Y196304D01*
X102002Y195998D01*
X101696Y195540D01*
X101589Y195000D01*
X101696Y194460D01*
X102002Y194002D01*
X102082Y193948D01*
Y184380D01*
X100620Y182918D01*
X99900D01*
X99766Y183149D01*
X99715Y183418D01*
X100649Y184351D01*
X100848Y184649D01*
X100918Y185000D01*
Y196620D01*
X102905Y198608D01*
X103000Y198589D01*
X103540Y198696D01*
X103998Y199002D01*
X104304Y199460D01*
X104411Y200000D01*
X104304Y200540D01*
X103998Y200998D01*
X103540Y201304D01*
X103000Y201411D01*
X102460Y201304D01*
X102002Y200998D01*
X101696Y200540D01*
X101589Y200000D01*
X101608Y199905D01*
X99351Y197649D01*
X99152Y197351D01*
X99082Y197000D01*
Y185380D01*
X98620Y184918D01*
X96934D01*
X96746Y185340D01*
X96746Y185418D01*
Y191258D01*
X96477D01*
Y204350D01*
X96900D01*
Y208582D01*
X101113D01*
X101262Y208360D01*
X101785Y208011D01*
X102402Y207888D01*
X105866D01*
X119402Y194351D01*
X119700Y194152D01*
X120051Y194082D01*
X126000D01*
X126351Y194152D01*
X126649Y194351D01*
X141649Y209351D01*
X141848Y209649D01*
X141918Y210000D01*
Y243620D01*
X148380Y250082D01*
X166620D01*
X176608Y240095D01*
X176589Y240000D01*
X176696Y239460D01*
X177002Y239002D01*
X177082Y238948D01*
Y237000D01*
X177152Y236649D01*
X177351Y236351D01*
X178351Y235351D01*
X178649Y235152D01*
X179000Y235082D01*
X182000D01*
X182351Y235152D01*
X182649Y235351D01*
X198380Y251082D01*
X221000D01*
Y247500D01*
X224500D01*
X228000D01*
Y251082D01*
X230437D01*
X230600Y250650D01*
X230600Y250582D01*
Y243350D01*
X232582D01*
Y241374D01*
X232474Y241243D01*
X229695D01*
Y236506D01*
X241197D01*
X251851Y225851D01*
X252149Y225652D01*
X252500Y225582D01*
X255113D01*
X255262Y225360D01*
X255785Y225011D01*
X256402Y224888D01*
X262701D01*
X263318Y225011D01*
X263841Y225360D01*
X264190Y225883D01*
X264313Y226500D01*
X264190Y227117D01*
X263841Y227640D01*
X263318Y227989D01*
X262701Y228112D01*
X256402D01*
X255785Y227989D01*
X255262Y227640D01*
X255113Y227418D01*
X252880D01*
X242305Y237992D01*
Y241243D01*
X234929D01*
X234418Y241754D01*
Y243350D01*
X236400D01*
Y250582D01*
X236400Y250650D01*
X236563Y251082D01*
X274620D01*
X277531Y248171D01*
Y238112D01*
X275299D01*
X274682Y237989D01*
X274159Y237640D01*
X273810Y237117D01*
X273687Y236500D01*
X273810Y235883D01*
X274159Y235360D01*
X274682Y235011D01*
X275299Y234888D01*
X281598D01*
X282215Y235011D01*
X282738Y235360D01*
X283088Y235883D01*
X283210Y236500D01*
X283088Y237117D01*
X282738Y237640D01*
X282215Y237989D01*
X281598Y238112D01*
X279366D01*
Y248551D01*
X279297Y248902D01*
X279098Y249200D01*
X275649Y252649D01*
X275351Y252848D01*
X275000Y252918D01*
X198000D01*
X197649Y252848D01*
X197351Y252649D01*
X181620Y236918D01*
X179380D01*
X178918Y237380D01*
Y238727D01*
X179103Y238877D01*
X179653Y238677D01*
X179696Y238460D01*
X180002Y238002D01*
X180460Y237696D01*
X181000Y237589D01*
X181540Y237696D01*
X181998Y238002D01*
X182304Y238460D01*
X182411Y239000D01*
X182393Y239095D01*
X197380Y254082D01*
X279620D01*
X286082Y247620D01*
Y233380D01*
X285120Y232418D01*
X282887D01*
X282738Y232640D01*
X282215Y232989D01*
X281598Y233112D01*
X275299D01*
X274682Y232989D01*
X274159Y232640D01*
X273810Y232117D01*
X273687Y231500D01*
X273810Y230883D01*
X274159Y230360D01*
X274682Y230011D01*
X275299Y229888D01*
X281598D01*
X282215Y230011D01*
X282738Y230360D01*
X282887Y230582D01*
X285500D01*
X285851Y230652D01*
X286149Y230851D01*
X287649Y232351D01*
X287848Y232649D01*
X287918Y233000D01*
Y248000D01*
X287848Y248351D01*
X287649Y248649D01*
X280649Y255649D01*
X280351Y255848D01*
X280000Y255918D01*
D02*
G37*
G36*
X242500Y246924D02*
X242226Y246869D01*
X241569Y246431D01*
X241131Y245774D01*
X241076Y245500D01*
X242500D01*
Y246924D01*
D02*
G37*
G36*
Y244500D02*
X241076D01*
X241131Y244226D01*
X241569Y243569D01*
X242226Y243131D01*
X242500Y243076D01*
Y244500D01*
D02*
G37*
G36*
X262701Y238724D02*
X260051D01*
Y237000D01*
X264825D01*
X264755Y237351D01*
X264273Y238072D01*
X263552Y238555D01*
X262701Y238724D01*
D02*
G37*
G36*
X243500Y246924D02*
Y245000D01*
Y243076D01*
X243774Y243131D01*
X244431Y243569D01*
X244773Y244082D01*
X247620D01*
X254349Y237354D01*
X254347Y237351D01*
X254277Y237000D01*
X259051D01*
Y238724D01*
X256402D01*
X255711Y238586D01*
X248649Y245649D01*
X248351Y245848D01*
X248000Y245918D01*
X244773D01*
X244431Y246431D01*
X243774Y246869D01*
X243500Y246924D01*
D02*
G37*
G36*
X124000Y240250D02*
X121000D01*
Y236500D01*
X124000D01*
Y240250D01*
D02*
G37*
G36*
X120000D02*
X117000D01*
Y236500D01*
X120000D01*
Y240250D01*
D02*
G37*
G36*
X45500Y238464D02*
Y235500D01*
X48464D01*
X48410Y235914D01*
X48057Y236765D01*
X47496Y237496D01*
X46765Y238057D01*
X45914Y238410D01*
X45500Y238464D01*
D02*
G37*
G36*
X44500D02*
X44086Y238410D01*
X43235Y238057D01*
X42504Y237496D01*
X41943Y236765D01*
X41590Y235914D01*
X41536Y235500D01*
X44500D01*
Y238464D01*
D02*
G37*
G36*
X149000Y249411D02*
X148460Y249304D01*
X148002Y248998D01*
X147696Y248540D01*
X147589Y248000D01*
X147696Y247460D01*
X148002Y247002D01*
X148082Y246948D01*
Y226000D01*
X148152Y225649D01*
X148351Y225351D01*
X152082Y221620D01*
Y189052D01*
X152002Y188998D01*
X151696Y188540D01*
X151589Y188000D01*
X151696Y187460D01*
X151998Y187008D01*
Y171992D01*
X151696Y171540D01*
X151589Y171000D01*
X151696Y170460D01*
X151998Y170008D01*
Y157084D01*
X152068Y156733D01*
X152267Y156435D01*
X172351Y136351D01*
X172649Y136152D01*
X173000Y136082D01*
X173351Y136152D01*
X173649Y136351D01*
X174759Y137461D01*
X199948D01*
X200002Y137381D01*
X200460Y137074D01*
X201000Y136967D01*
X201540Y137074D01*
X201998Y137381D01*
X202304Y137838D01*
X202411Y138378D01*
X202360Y138635D01*
X202821Y138881D01*
X205082Y136620D01*
Y130000D01*
X205152Y129649D01*
X205351Y129351D01*
X231351Y103351D01*
X231649Y103152D01*
X232000Y103082D01*
X233948D01*
X234002Y103002D01*
X234460Y102696D01*
X235000Y102589D01*
X235540Y102696D01*
X235998Y103002D01*
X236304Y103460D01*
X236411Y104000D01*
X236304Y104540D01*
X235998Y104998D01*
X235540Y105304D01*
X235000Y105411D01*
X234460Y105304D01*
X234002Y104998D01*
X233948Y104918D01*
X232380D01*
X208890Y128408D01*
X209173Y128832D01*
X209676Y128623D01*
X210551Y128508D01*
X211426Y128623D01*
X212242Y128961D01*
X212942Y129499D01*
X213480Y130199D01*
X213818Y131015D01*
X213933Y131890D01*
X213818Y132765D01*
X213480Y133581D01*
X212942Y134281D01*
X212242Y134818D01*
X211426Y135156D01*
X210551Y135271D01*
X209676Y135156D01*
X208860Y134818D01*
X208160Y134281D01*
X207623Y133581D01*
X207418Y133086D01*
X206918Y133185D01*
Y137000D01*
X206848Y137351D01*
X206649Y137649D01*
X202715Y141582D01*
X202766Y141851D01*
X202900Y142082D01*
X210620D01*
X215082Y137620D01*
Y127000D01*
X215152Y126649D01*
X215351Y126351D01*
X233608Y108095D01*
X233589Y108000D01*
X233696Y107460D01*
X234002Y107002D01*
X234460Y106696D01*
X235000Y106589D01*
X235540Y106696D01*
X235998Y107002D01*
X236304Y107460D01*
X236411Y108000D01*
X236304Y108540D01*
X235998Y108998D01*
X235540Y109304D01*
X235000Y109411D01*
X234905Y109392D01*
X216918Y127380D01*
Y130594D01*
X217418Y130694D01*
X217623Y130199D01*
X218160Y129499D01*
X218860Y128961D01*
X219676Y128623D01*
X220551Y128508D01*
X221426Y128623D01*
X222242Y128961D01*
X222942Y129499D01*
X223480Y130199D01*
X223818Y131015D01*
X223933Y131890D01*
X223818Y132765D01*
X223480Y133581D01*
X222942Y134281D01*
X222242Y134818D01*
X221426Y135156D01*
X220551Y135271D01*
X219676Y135156D01*
X218860Y134818D01*
X218160Y134281D01*
X217623Y133581D01*
X217418Y133086D01*
X216918Y133185D01*
Y138000D01*
X216848Y138351D01*
X216649Y138649D01*
X211715Y143582D01*
X211766Y143851D01*
X211900Y144082D01*
X217620D01*
X225082Y136620D01*
Y122000D01*
X225152Y121649D01*
X225351Y121351D01*
X233608Y113095D01*
X233589Y113000D01*
X233696Y112460D01*
X234002Y112002D01*
X234460Y111696D01*
X235000Y111589D01*
X235540Y111696D01*
X235998Y112002D01*
X236304Y112460D01*
X236411Y113000D01*
X236304Y113540D01*
X235998Y113998D01*
X235540Y114304D01*
X235000Y114411D01*
X234905Y114392D01*
X226918Y122380D01*
Y130594D01*
X227418Y130694D01*
X227623Y130199D01*
X228160Y129499D01*
X228860Y128961D01*
X229676Y128623D01*
X230551Y128508D01*
X231426Y128623D01*
X232242Y128961D01*
X232942Y129499D01*
X233480Y130199D01*
X233582Y130447D01*
X234082Y130347D01*
Y119052D01*
X234002Y118998D01*
X233696Y118540D01*
X233589Y118000D01*
X233696Y117460D01*
X234002Y117002D01*
X234460Y116696D01*
X235000Y116589D01*
X235540Y116696D01*
X235998Y117002D01*
X236304Y117460D01*
X236411Y118000D01*
X236304Y118540D01*
X235998Y118998D01*
X235918Y119052D01*
Y135000D01*
X235848Y135351D01*
X235649Y135649D01*
X223715Y147582D01*
X223766Y147851D01*
X223900Y148082D01*
X243120D01*
X246108Y145095D01*
X246089Y145000D01*
X246196Y144460D01*
X246502Y144002D01*
X246960Y143696D01*
X247500Y143589D01*
X248040Y143696D01*
X248498Y144002D01*
X248804Y144460D01*
X248911Y145000D01*
X248804Y145540D01*
X248498Y145998D01*
X248040Y146304D01*
X247500Y146411D01*
X247405Y146393D01*
X244615Y149182D01*
X244823Y149682D01*
X248652D01*
X248696Y149460D01*
X249002Y149002D01*
X249460Y148696D01*
X250000Y148589D01*
X250540Y148696D01*
X250998Y149002D01*
X251304Y149460D01*
X251411Y150000D01*
X251304Y150540D01*
X250998Y150998D01*
X250540Y151304D01*
X250000Y151411D01*
X249850Y151382D01*
X249751Y151448D01*
X249400Y151518D01*
X214715D01*
X214455Y152018D01*
X214499Y152080D01*
X214505Y152082D01*
X250948D01*
X251002Y152002D01*
X251460Y151696D01*
X252000Y151589D01*
X252540Y151696D01*
X252998Y152002D01*
X253304Y152460D01*
X253411Y153000D01*
X253304Y153540D01*
X252998Y153998D01*
X252540Y154304D01*
X252000Y154411D01*
X251460Y154304D01*
X251002Y153998D01*
X250948Y153918D01*
X214052D01*
X213998Y153998D01*
X213540Y154304D01*
X213000Y154411D01*
X212460Y154304D01*
X212002Y153998D01*
X211696Y153540D01*
X211589Y153000D01*
X211696Y152460D01*
X211992Y152018D01*
X211973Y151923D01*
X211827Y151518D01*
X194780D01*
X189392Y156905D01*
X189411Y157000D01*
X189304Y157540D01*
X188998Y157998D01*
X188540Y158304D01*
X188000Y158411D01*
X187460Y158304D01*
X187002Y157998D01*
X186696Y157540D01*
X186589Y157000D01*
X186696Y156460D01*
X187002Y156002D01*
X187460Y155696D01*
X188000Y155589D01*
X188095Y155607D01*
X193285Y150418D01*
X193078Y149918D01*
X191380D01*
X187392Y153905D01*
X187411Y154000D01*
X187304Y154540D01*
X186998Y154998D01*
X186540Y155304D01*
X186000Y155411D01*
X185460Y155304D01*
X185002Y154998D01*
X184696Y154540D01*
X184589Y154000D01*
X184696Y153460D01*
X185002Y153002D01*
X185460Y152696D01*
X186000Y152589D01*
X186095Y152608D01*
X190285Y148418D01*
X190234Y148149D01*
X190100Y147918D01*
X179380D01*
X176612Y150686D01*
Y151314D01*
X186380Y161082D01*
X312620D01*
X349351Y124351D01*
X349649Y124152D01*
X350000Y124082D01*
X356405D01*
X356757Y124152D01*
X357054Y124351D01*
X360986Y128283D01*
X366239D01*
Y131015D01*
X372687D01*
X380394Y123308D01*
X380692Y123109D01*
X381043Y123039D01*
X390545D01*
Y122101D01*
X390545Y121982D01*
Y121601D01*
X390545Y121482D01*
Y120544D01*
X382126D01*
X381775Y120474D01*
X381477Y120275D01*
X374553Y113351D01*
X367989D01*
Y115333D01*
X360689D01*
Y113351D01*
X358144D01*
Y118475D01*
X356918D01*
Y120948D01*
X356998Y121002D01*
X357304Y121460D01*
X357411Y122000D01*
X357304Y122540D01*
X356998Y122998D01*
X356540Y123304D01*
X356000Y123411D01*
X355460Y123304D01*
X355002Y122998D01*
X354696Y122540D01*
X354589Y122000D01*
X354696Y121460D01*
X355002Y121002D01*
X355082Y120948D01*
Y118475D01*
X352423D01*
Y110391D01*
X358144D01*
Y111515D01*
X360689D01*
Y109533D01*
X367989D01*
Y111515D01*
X374933D01*
X375284Y111585D01*
X375582Y111784D01*
X382506Y118708D01*
X390545D01*
Y117770D01*
X390545Y117651D01*
Y117270D01*
X390545Y117151D01*
Y116213D01*
X382795D01*
X382444Y116143D01*
X382146Y115944D01*
X369053Y102851D01*
X366239D01*
Y105583D01*
X360986D01*
X358420Y108149D01*
X358123Y108348D01*
X357772Y108418D01*
X342880D01*
X335918Y115380D01*
Y135000D01*
X335848Y135351D01*
X335649Y135649D01*
X311649Y159649D01*
X311351Y159848D01*
X311000Y159918D01*
X219052D01*
X218998Y159998D01*
X218540Y160304D01*
X218000Y160411D01*
X217460Y160304D01*
X217002Y159998D01*
X216696Y159540D01*
X216589Y159000D01*
X216696Y158460D01*
X217002Y158002D01*
X217460Y157696D01*
X218000Y157589D01*
X218540Y157696D01*
X218998Y158002D01*
X219052Y158082D01*
X310620D01*
X334082Y134620D01*
Y115000D01*
X334152Y114649D01*
X334351Y114351D01*
X341851Y106851D01*
X342149Y106652D01*
X342500Y106582D01*
X357392D01*
X357891Y106083D01*
X357684Y105583D01*
X352439D01*
Y98283D01*
X354421D01*
Y95583D01*
X352439D01*
Y94512D01*
X351977Y94321D01*
X349393Y96905D01*
X349411Y97000D01*
X349304Y97540D01*
X348998Y97998D01*
X348540Y98304D01*
X348000Y98411D01*
X347460Y98304D01*
X347002Y97998D01*
X346696Y97540D01*
X346589Y97000D01*
X346696Y96460D01*
X347002Y96002D01*
X347460Y95696D01*
X348000Y95589D01*
X348095Y95608D01*
X352418Y91284D01*
X352439Y91271D01*
Y88283D01*
X357684D01*
X357891Y87783D01*
X357025Y86918D01*
X346880D01*
X333418Y100380D01*
Y132500D01*
X333348Y132851D01*
X333149Y133149D01*
X309649Y156649D01*
X309351Y156848D01*
X309000Y156918D01*
X217052D01*
X216998Y156998D01*
X216540Y157304D01*
X216000Y157411D01*
X215460Y157304D01*
X215002Y156998D01*
X214696Y156540D01*
X214589Y156000D01*
X214696Y155460D01*
X215002Y155002D01*
X215460Y154696D01*
X216000Y154589D01*
X216540Y154696D01*
X216998Y155002D01*
X217052Y155082D01*
X308620D01*
X331582Y132120D01*
Y100000D01*
X331652Y99649D01*
X331851Y99351D01*
X345851Y85351D01*
X346149Y85152D01*
X346500Y85082D01*
X357405D01*
X357757Y85152D01*
X358054Y85351D01*
X360986Y88283D01*
X366239D01*
Y91015D01*
X366933D01*
X367284Y91085D01*
X367582Y91284D01*
X382014Y105716D01*
X390545D01*
Y104778D01*
X390545Y104659D01*
Y104278D01*
X390545Y104159D01*
Y100328D01*
X397250D01*
Y104159D01*
X397250Y104278D01*
Y104659D01*
X397250Y104778D01*
Y108390D01*
X397850D01*
Y110465D01*
X393898D01*
X389945D01*
Y108390D01*
X390545D01*
Y107552D01*
X381634D01*
X381283Y107482D01*
X380985Y107283D01*
X366739Y93036D01*
X366239Y93243D01*
Y95583D01*
X360439D01*
Y90331D01*
X358739Y88631D01*
X358239Y88838D01*
Y95583D01*
X356256D01*
Y98283D01*
X358239D01*
Y105028D01*
X358739Y105235D01*
X360439Y103535D01*
Y98283D01*
X366239D01*
Y101015D01*
X369433D01*
X369784Y101085D01*
X370082Y101284D01*
X383175Y114378D01*
X390545D01*
Y113539D01*
X389945D01*
Y111465D01*
X393898D01*
X397850D01*
Y113539D01*
X397250D01*
Y117151D01*
X397250Y117270D01*
Y117651D01*
X397250Y117770D01*
Y121482D01*
X397250Y121601D01*
Y121982D01*
X397250Y122101D01*
Y125813D01*
X397250Y125932D01*
Y126313D01*
X397250Y126432D01*
Y130143D01*
X397250Y130262D01*
Y130643D01*
X397250Y130762D01*
Y134593D01*
X390545D01*
Y130762D01*
X390545Y130643D01*
Y130262D01*
X390545Y130143D01*
Y129205D01*
X387093D01*
X373716Y142582D01*
X373418Y142781D01*
X373067Y142851D01*
X366239D01*
Y143535D01*
X367786Y145082D01*
X368948D01*
X369002Y145002D01*
X369460Y144696D01*
X370000Y144589D01*
X370540Y144696D01*
X370998Y145002D01*
X371304Y145460D01*
X371411Y146000D01*
X371304Y146540D01*
X370998Y146998D01*
X370540Y147304D01*
X370000Y147411D01*
X369460Y147304D01*
X369002Y146998D01*
X368948Y146918D01*
X367406D01*
X367054Y146848D01*
X366757Y146649D01*
X365691Y145583D01*
X360439D01*
Y138283D01*
X366239D01*
Y141015D01*
X372687D01*
X386064Y127638D01*
X386361Y127440D01*
X386713Y127370D01*
X390545D01*
Y126432D01*
X390545Y126313D01*
Y125932D01*
X390545Y125813D01*
Y124874D01*
X381423D01*
X373716Y132582D01*
X373418Y132781D01*
X373067Y132851D01*
X366239D01*
Y135583D01*
X360439D01*
Y130331D01*
X358739Y128631D01*
X358239Y128838D01*
Y135583D01*
X356256D01*
Y138283D01*
X358239D01*
Y145583D01*
X352439D01*
Y140331D01*
X350096Y137988D01*
X349998Y137998D01*
X349540Y138304D01*
X349000Y138411D01*
X348460Y138304D01*
X348002Y137998D01*
X347696Y137540D01*
X347589Y137000D01*
X347696Y136460D01*
X348002Y136002D01*
X348460Y135696D01*
X349000Y135589D01*
X349540Y135696D01*
X349998Y136002D01*
X350052Y136082D01*
X350406D01*
X350757Y136152D01*
X351054Y136351D01*
X352986Y138283D01*
X354421D01*
Y135583D01*
X352439D01*
Y128283D01*
X357684D01*
X357891Y127783D01*
X356025Y125918D01*
X350380D01*
X313649Y162649D01*
X313351Y162848D01*
X313000Y162918D01*
X186000D01*
X185649Y162848D01*
X185351Y162649D01*
X175095Y152392D01*
X175000Y152411D01*
X174460Y152304D01*
X174002Y151998D01*
X173696Y151540D01*
X173589Y151000D01*
X173696Y150460D01*
X174002Y150002D01*
X174460Y149696D01*
X175000Y149589D01*
X175095Y149608D01*
X178285Y146418D01*
X178234Y146149D01*
X178100Y145918D01*
X177380D01*
X172918Y150380D01*
Y151620D01*
X174905Y153607D01*
X175000Y153589D01*
X175540Y153696D01*
X175998Y154002D01*
X176304Y154460D01*
X176411Y155000D01*
X176392Y155095D01*
X185380Y164082D01*
X213948D01*
X214002Y164002D01*
X214460Y163696D01*
X215000Y163589D01*
X215540Y163696D01*
X215998Y164002D01*
X216304Y164460D01*
X216411Y165000D01*
X216304Y165540D01*
X215998Y165998D01*
X215540Y166304D01*
X215000Y166411D01*
X214460Y166304D01*
X214002Y165998D01*
X213948Y165918D01*
X185000D01*
X184649Y165848D01*
X184351Y165649D01*
X175095Y156393D01*
X175000Y156411D01*
X174460Y156304D01*
X174002Y155998D01*
X173696Y155540D01*
X173589Y155000D01*
X173608Y154905D01*
X171418Y152715D01*
X171149Y152766D01*
X170918Y152900D01*
Y155620D01*
X172905Y157607D01*
X173000Y157589D01*
X173540Y157696D01*
X173998Y158002D01*
X174304Y158460D01*
X174411Y159000D01*
X174392Y159095D01*
X182380Y167082D01*
X216948D01*
X217002Y167002D01*
X217460Y166696D01*
X218000Y166589D01*
X218540Y166696D01*
X218998Y167002D01*
X219304Y167460D01*
X219411Y168000D01*
X219304Y168540D01*
X218998Y168998D01*
X218540Y169304D01*
X218000Y169411D01*
X217460Y169304D01*
X217002Y168998D01*
X216948Y168918D01*
X182000D01*
X181649Y168848D01*
X181351Y168649D01*
X173095Y160392D01*
X173000Y160411D01*
X172460Y160304D01*
X172002Y159998D01*
X171696Y159540D01*
X171589Y159000D01*
X171607Y158905D01*
X169351Y156649D01*
X169152Y156351D01*
X169082Y156000D01*
Y148000D01*
X169152Y147649D01*
X169351Y147351D01*
X174285Y142418D01*
X174234Y142149D01*
X174100Y141918D01*
X173380D01*
X167918Y147380D01*
Y151948D01*
X167998Y152002D01*
X168304Y152460D01*
X168411Y153000D01*
X168304Y153540D01*
X167998Y153998D01*
X167540Y154304D01*
X167000Y154411D01*
X166460Y154304D01*
X166002Y153998D01*
X165696Y153540D01*
X165589Y153000D01*
X165696Y152460D01*
X166002Y152002D01*
X166082Y151948D01*
Y147000D01*
X166152Y146649D01*
X166351Y146351D01*
X172351Y140351D01*
X172649Y140152D01*
X173000Y140082D01*
X200111D01*
X200258Y139623D01*
X200061Y139416D01*
X200002Y139376D01*
X199950Y139299D01*
X199948Y139296D01*
X174378D01*
X174027Y139226D01*
X173730Y139027D01*
X173000Y138298D01*
X153833Y157464D01*
Y169892D01*
X153998Y170002D01*
X154304Y170460D01*
X154411Y171000D01*
X154304Y171540D01*
X153998Y171998D01*
X153833Y172108D01*
Y186892D01*
X153998Y187002D01*
X154304Y187460D01*
X154411Y188000D01*
X154304Y188540D01*
X153998Y188998D01*
X153918Y189052D01*
Y222000D01*
X153848Y222351D01*
X153649Y222649D01*
X149918Y226380D01*
Y246948D01*
X149998Y247002D01*
X150052Y247082D01*
X160620D01*
X175351Y232351D01*
X175649Y232152D01*
X176000Y232082D01*
X183000D01*
X183351Y232152D01*
X183649Y232351D01*
X191231Y239933D01*
X191693Y239742D01*
Y235437D01*
X208441D01*
X225189D01*
Y240911D01*
X225348Y241149D01*
X225418Y241500D01*
Y242750D01*
X228000D01*
Y246500D01*
X224500D01*
X221000D01*
Y242750D01*
X223582D01*
Y241880D01*
X223545Y241843D01*
X218493D01*
X218226Y242342D01*
X218304Y242460D01*
X218411Y243000D01*
X218304Y243540D01*
X217998Y243998D01*
X217540Y244304D01*
X217000Y244411D01*
X216460Y244304D01*
X216002Y243998D01*
X215948Y243918D01*
X200052D01*
X199998Y243998D01*
X199540Y244304D01*
X199000Y244411D01*
X198460Y244304D01*
X198002Y243998D01*
X197948Y243918D01*
X193000D01*
X192649Y243848D01*
X192351Y243649D01*
X182620Y233918D01*
X176380D01*
X161649Y248649D01*
X161351Y248848D01*
X161000Y248918D01*
X150052D01*
X149998Y248998D01*
X149540Y249304D01*
X149000Y249411D01*
D02*
G37*
G36*
X264825Y236000D02*
X260051D01*
Y234276D01*
X262701D01*
X263552Y234445D01*
X264273Y234928D01*
X264755Y235649D01*
X264825Y236000D01*
D02*
G37*
G36*
X259051D02*
X254277D01*
X254347Y235649D01*
X254829Y234928D01*
X255551Y234445D01*
X256402Y234276D01*
X259051D01*
Y236000D01*
D02*
G37*
G36*
X120000Y235500D02*
X117000D01*
Y231750D01*
X120000D01*
Y235500D01*
D02*
G37*
G36*
X48464Y234500D02*
X45500D01*
Y231536D01*
X45914Y231590D01*
X46765Y231943D01*
X47496Y232504D01*
X48057Y233235D01*
X48410Y234086D01*
X48464Y234500D01*
D02*
G37*
G36*
X44500D02*
X41536D01*
X41590Y234086D01*
X41943Y233235D01*
X42504Y232504D01*
X43235Y231943D01*
X44086Y231590D01*
X44500Y231536D01*
Y234500D01*
D02*
G37*
G36*
X252000Y235411D02*
X251460Y235304D01*
X251002Y234998D01*
X250696Y234540D01*
X250589Y234000D01*
X250696Y233460D01*
X251002Y233002D01*
X251460Y232696D01*
X252000Y232589D01*
X252095Y232608D01*
X253851Y230851D01*
X254149Y230652D01*
X254500Y230582D01*
X255113D01*
X255262Y230360D01*
X255785Y230011D01*
X256402Y229888D01*
X262701D01*
X263318Y230011D01*
X263841Y230360D01*
X264190Y230883D01*
X264313Y231500D01*
X264190Y232117D01*
X263841Y232640D01*
X263318Y232989D01*
X262701Y233112D01*
X256402D01*
X255785Y232989D01*
X255262Y232640D01*
X254682Y232616D01*
X253393Y233905D01*
X253411Y234000D01*
X253304Y234540D01*
X252998Y234998D01*
X252540Y235304D01*
X252000Y235411D01*
D02*
G37*
G36*
X207941Y234437D02*
X191693D01*
Y228031D01*
X207941D01*
Y234437D01*
D02*
G37*
G36*
X301353Y232353D02*
X294647D01*
Y225647D01*
X301353D01*
Y232353D01*
D02*
G37*
G36*
X308000Y232382D02*
X307125Y232266D01*
X306309Y231929D01*
X305609Y231391D01*
X305071Y230691D01*
X304734Y229875D01*
X304618Y229000D01*
X304734Y228125D01*
X305071Y227309D01*
X305609Y226609D01*
X306309Y226071D01*
X307125Y225734D01*
X308000Y225618D01*
X308875Y225734D01*
X309691Y226071D01*
X310391Y226609D01*
X310929Y227309D01*
X311266Y228125D01*
X311382Y229000D01*
X311266Y229875D01*
X310929Y230691D01*
X310391Y231391D01*
X309691Y231929D01*
X308875Y232266D01*
X308000Y232382D01*
D02*
G37*
G36*
X124000Y235500D02*
X121000D01*
Y231750D01*
X123452D01*
X123531Y231671D01*
Y226724D01*
X121299D01*
X120448Y226555D01*
X119727Y226073D01*
X119245Y225351D01*
X119175Y225000D01*
X124449D01*
X129723D01*
X129653Y225351D01*
X129171Y226073D01*
X128449Y226555D01*
X127598Y226724D01*
X125366D01*
Y232051D01*
X125297Y232402D01*
X125098Y232700D01*
X124000Y233798D01*
Y235500D01*
D02*
G37*
G36*
X281598Y228112D02*
X275299D01*
X274682Y227989D01*
X274159Y227640D01*
X273810Y227117D01*
X273687Y226500D01*
X273810Y225883D01*
X274159Y225360D01*
X274682Y225011D01*
X275299Y224888D01*
X281598D01*
X282215Y225011D01*
X282738Y225360D01*
X283088Y225883D01*
X283210Y226500D01*
X283088Y227117D01*
X282738Y227640D01*
X282215Y227989D01*
X281598Y228112D01*
D02*
G37*
G36*
X339831Y226254D02*
Y224831D01*
X341254D01*
X341200Y225105D01*
X340761Y225761D01*
X340105Y226200D01*
X339831Y226254D01*
D02*
G37*
G36*
X330169D02*
X329895Y226200D01*
X329239Y225761D01*
X328800Y225105D01*
X328746Y224831D01*
X330169D01*
Y226254D01*
D02*
G37*
G36*
X351000Y227411D02*
X350460Y227304D01*
X350002Y226998D01*
X349812Y226714D01*
X345000D01*
X344727Y226659D01*
X344495Y226505D01*
X341750Y223759D01*
X341616Y223831D01*
X339331D01*
Y224331D01*
X338831D01*
Y226254D01*
X338557Y226200D01*
X337900Y225761D01*
X337462Y225105D01*
X337420Y224897D01*
X336911D01*
X336869Y225105D01*
X336431Y225761D01*
X335774Y226200D01*
X335500Y226254D01*
Y224331D01*
X334500D01*
Y226254D01*
X334226Y226200D01*
X333569Y225761D01*
X333131Y225105D01*
X333090Y224897D01*
X332580D01*
X332538Y225105D01*
X332100Y225761D01*
X331444Y226200D01*
X331169Y226254D01*
Y224331D01*
X330669D01*
Y223831D01*
X328746D01*
X328800Y223556D01*
X329239Y222900D01*
X329895Y222462D01*
X330103Y222420D01*
Y221911D01*
X329895Y221869D01*
X329239Y221431D01*
X328800Y220774D01*
X328746Y220500D01*
X330669D01*
Y219500D01*
X328746D01*
X328800Y219226D01*
X329239Y218569D01*
X329895Y218131D01*
X330103Y218090D01*
Y217580D01*
X329895Y217538D01*
X329239Y217100D01*
X328800Y216443D01*
X328746Y216169D01*
X330669D01*
Y215669D01*
X331169D01*
Y213746D01*
X331444Y213800D01*
X332100Y214239D01*
X332538Y214895D01*
X332580Y215103D01*
X333090D01*
X333131Y214895D01*
X333569Y214239D01*
X334226Y213800D01*
X334500Y213746D01*
Y215669D01*
X335500D01*
Y213746D01*
X335774Y213800D01*
X336431Y214239D01*
X336869Y214895D01*
X336911Y215103D01*
X337420D01*
X337462Y214895D01*
X337900Y214239D01*
X338557Y213800D01*
X338831Y213746D01*
Y215669D01*
X339831D01*
Y213746D01*
X340105Y213800D01*
X340761Y214239D01*
X340786Y214276D01*
X341286Y214124D01*
Y211000D01*
X341341Y210727D01*
X341495Y210495D01*
X348655Y203335D01*
X348589Y203000D01*
X348696Y202460D01*
X349002Y202002D01*
X349460Y201696D01*
X350000Y201589D01*
X350540Y201696D01*
X350998Y202002D01*
X351304Y202460D01*
X351411Y203000D01*
X351304Y203540D01*
X350998Y203998D01*
X350540Y204304D01*
X350000Y204411D01*
X349665Y204345D01*
X342714Y211296D01*
Y216704D01*
X344296Y218286D01*
X353812D01*
X354002Y218002D01*
X354460Y217696D01*
X355000Y217589D01*
X355540Y217696D01*
X355998Y218002D01*
X356304Y218460D01*
X356411Y219000D01*
X356304Y219540D01*
X355998Y219998D01*
X355540Y220304D01*
X355000Y220411D01*
X354460Y220304D01*
X354002Y219998D01*
X353812Y219714D01*
X344000D01*
X343727Y219659D01*
X343495Y219505D01*
X343176Y219185D01*
X342714Y219376D01*
Y222704D01*
X345296Y225286D01*
X349812D01*
X350002Y225002D01*
X350460Y224696D01*
X351000Y224589D01*
X351540Y224696D01*
X351998Y225002D01*
X352304Y225460D01*
X352411Y226000D01*
X352304Y226540D01*
X351998Y226998D01*
X351540Y227304D01*
X351000Y227411D01*
D02*
G37*
G36*
X225189Y234437D02*
X208941D01*
Y228031D01*
X223582D01*
Y227250D01*
X221000D01*
Y223500D01*
X224500D01*
X228000D01*
Y227250D01*
X225418D01*
Y228500D01*
X225348Y228851D01*
X225189Y229089D01*
Y234437D01*
D02*
G37*
G36*
X129723Y224000D02*
X124449D01*
X119175D01*
X119245Y223649D01*
X119727Y222927D01*
X120448Y222445D01*
X121299Y222276D01*
X123531D01*
Y221724D01*
X121299D01*
X120448Y221555D01*
X119727Y221073D01*
X119289Y220418D01*
X110711D01*
X110273Y221073D01*
X109552Y221555D01*
X108701Y221724D01*
X106051D01*
Y219500D01*
Y217276D01*
X108701D01*
X109552Y217445D01*
X110273Y217928D01*
X110711Y218582D01*
X119289D01*
X119727Y217928D01*
X120448Y217445D01*
X121299Y217276D01*
X123531D01*
Y216724D01*
X121299D01*
X120448Y216555D01*
X119727Y216073D01*
X119245Y215351D01*
X119175Y215000D01*
X124449D01*
X129723D01*
X129653Y215351D01*
X129171Y216073D01*
X128449Y216555D01*
X127598Y216724D01*
X125366D01*
Y217276D01*
X127598D01*
X128449Y217445D01*
X129171Y217928D01*
X129653Y218649D01*
X129723Y219000D01*
X124449D01*
Y220000D01*
X129723D01*
X129653Y220351D01*
X129171Y221073D01*
X128449Y221555D01*
X127598Y221724D01*
X125366D01*
Y222276D01*
X127598D01*
X128449Y222445D01*
X129171Y222927D01*
X129653Y223649D01*
X129723Y224000D01*
D02*
G37*
G36*
X105051Y221724D02*
X102402D01*
X101550Y221555D01*
X100829Y221073D01*
X100347Y220351D01*
X100277Y220000D01*
X105051D01*
Y221724D01*
D02*
G37*
G36*
X242305Y233368D02*
X229695D01*
Y228631D01*
X232474D01*
X232582Y228500D01*
Y226650D01*
X230600D01*
Y219350D01*
X236400D01*
Y226650D01*
X234418D01*
Y228120D01*
X234929Y228631D01*
X238071D01*
X245851Y220851D01*
X246149Y220652D01*
X246500Y220582D01*
X255113D01*
X255262Y220360D01*
X255785Y220011D01*
X256402Y219888D01*
X262701D01*
X263318Y220011D01*
X263841Y220360D01*
X264190Y220883D01*
X264313Y221500D01*
X264190Y222117D01*
X263841Y222640D01*
X263318Y222989D01*
X262701Y223112D01*
X256402D01*
X255785Y222989D01*
X255262Y222640D01*
X255113Y222418D01*
X246880D01*
X241128Y228170D01*
X241319Y228631D01*
X242305D01*
Y233368D01*
D02*
G37*
G36*
X228000Y222500D02*
X225000D01*
Y218750D01*
X228000D01*
Y222500D01*
D02*
G37*
G36*
X224000D02*
X221000D01*
Y218750D01*
X224000D01*
Y222500D01*
D02*
G37*
G36*
X105051Y219000D02*
X100277D01*
X100347Y218649D01*
X100829Y217928D01*
X101550Y217445D01*
X102402Y217276D01*
X105051D01*
Y219000D01*
D02*
G37*
G36*
X269000Y247411D02*
X268460Y247304D01*
X268002Y246998D01*
X267696Y246540D01*
X267589Y246000D01*
X267696Y245460D01*
X268002Y245002D01*
X268082Y244948D01*
Y221380D01*
X263212Y216510D01*
X262750Y216701D01*
Y217042D01*
X257029D01*
Y208958D01*
X262750D01*
Y213453D01*
X269649Y220351D01*
X269848Y220649D01*
X269918Y221000D01*
Y244948D01*
X269998Y245002D01*
X270304Y245460D01*
X270411Y246000D01*
X270304Y246540D01*
X269998Y246998D01*
X269540Y247304D01*
X269000Y247411D01*
D02*
G37*
G36*
X308000Y222382D02*
X307125Y222266D01*
X306309Y221929D01*
X305609Y221391D01*
X305071Y220691D01*
X304734Y219875D01*
X304618Y219000D01*
X304734Y218125D01*
X305071Y217309D01*
X305609Y216609D01*
X306309Y216071D01*
X307125Y215734D01*
X308000Y215618D01*
X308875Y215734D01*
X309691Y216071D01*
X310391Y216609D01*
X310929Y217309D01*
X311266Y218125D01*
X311382Y219000D01*
X311266Y219875D01*
X310929Y220691D01*
X310391Y221391D01*
X309691Y221929D01*
X308875Y222266D01*
X308000Y222382D01*
D02*
G37*
G36*
X298000D02*
X297125Y222266D01*
X296309Y221929D01*
X295609Y221391D01*
X295071Y220691D01*
X294734Y219875D01*
X294618Y219000D01*
X294734Y218125D01*
X295071Y217309D01*
X295609Y216609D01*
X296309Y216071D01*
X297125Y215734D01*
X298000Y215618D01*
X298875Y215734D01*
X299691Y216071D01*
X300391Y216609D01*
X300929Y217309D01*
X301266Y218125D01*
X301382Y219000D01*
X301266Y219875D01*
X300929Y220691D01*
X300391Y221391D01*
X299691Y221929D01*
X298875Y222266D01*
X298000Y222382D01*
D02*
G37*
G36*
X330169Y215169D02*
X328746D01*
X328800Y214895D01*
X329239Y214239D01*
X329895Y213800D01*
X330169Y213746D01*
Y215169D01*
D02*
G37*
G36*
X180500Y213464D02*
Y210500D01*
X183464D01*
X183410Y210914D01*
X183057Y211765D01*
X182496Y212496D01*
X181765Y213057D01*
X180914Y213410D01*
X180500Y213464D01*
D02*
G37*
G36*
X179500D02*
X179086Y213410D01*
X178235Y213057D01*
X177504Y212496D01*
X176943Y211765D01*
X176590Y210914D01*
X176536Y210500D01*
X179500D01*
Y213464D01*
D02*
G37*
G36*
X129723Y214000D02*
X124449D01*
X119175D01*
X119245Y213649D01*
X119727Y212928D01*
X120448Y212445D01*
X121299Y212276D01*
X123531D01*
Y211724D01*
X121299D01*
X120448Y211555D01*
X119727Y211072D01*
X119245Y210351D01*
X119175Y210000D01*
X124449D01*
X129723D01*
X129653Y210351D01*
X129171Y211072D01*
X128449Y211555D01*
X127598Y211724D01*
X125366D01*
Y212276D01*
X127598D01*
X128449Y212445D01*
X129171Y212928D01*
X129653Y213649D01*
X129723Y214000D01*
D02*
G37*
G36*
X123949Y209000D02*
X119175D01*
X119245Y208649D01*
X119727Y207927D01*
X120448Y207445D01*
X121299Y207276D01*
X123949D01*
Y209000D01*
D02*
G37*
G36*
X183464Y209500D02*
X180500D01*
Y206536D01*
X180914Y206590D01*
X181765Y206943D01*
X182496Y207504D01*
X183057Y208235D01*
X183410Y209086D01*
X183464Y209500D01*
D02*
G37*
G36*
X179500D02*
X176536D01*
X176590Y209086D01*
X176943Y208235D01*
X177504Y207504D01*
X178235Y206943D01*
X179086Y206590D01*
X179500Y206536D01*
Y209500D01*
D02*
G37*
G36*
X298001Y212481D02*
X297126Y212366D01*
X296310Y212028D01*
X295610Y211490D01*
X295072Y210790D01*
X294735Y209974D01*
X294619Y209099D01*
X294735Y208224D01*
X295072Y207408D01*
X295610Y206708D01*
X296310Y206171D01*
X297126Y205833D01*
X298001Y205717D01*
X298876Y205833D01*
X299692Y206171D01*
X300392Y206708D01*
X300930Y207408D01*
X301267Y208224D01*
X301383Y209099D01*
X301267Y209974D01*
X300930Y210790D01*
X300392Y211490D01*
X299692Y212028D01*
X298876Y212366D01*
X298001Y212481D01*
D02*
G37*
G36*
X66000Y218682D02*
X64696Y218554D01*
X63443Y218174D01*
X62288Y217556D01*
X61275Y216725D01*
X60444Y215712D01*
X59826Y214557D01*
X59446Y213304D01*
X59318Y212000D01*
X59446Y210696D01*
X59826Y209443D01*
X60444Y208288D01*
X61275Y207275D01*
X62288Y206444D01*
X63443Y205826D01*
X64696Y205446D01*
X66000Y205318D01*
X67304Y205446D01*
X68557Y205826D01*
X69712Y206444D01*
X70725Y207275D01*
X71556Y208288D01*
X72174Y209443D01*
X72554Y210696D01*
X72682Y212000D01*
X72554Y213304D01*
X72174Y214557D01*
X71556Y215712D01*
X70725Y216725D01*
X69712Y217556D01*
X68557Y218174D01*
X67304Y218554D01*
X66000Y218682D01*
D02*
G37*
G36*
X270000Y208250D02*
Y204500D01*
X273000D01*
Y208250D01*
X270000D01*
D02*
G37*
G36*
X308001Y212481D02*
X307126Y212366D01*
X306310Y212028D01*
X305610Y211490D01*
X305072Y210790D01*
X304734Y209974D01*
X304619Y209099D01*
X304734Y208224D01*
X305072Y207408D01*
X305610Y206708D01*
X306310Y206171D01*
X307126Y205833D01*
X308001Y205717D01*
X308876Y205833D01*
X309692Y206171D01*
X309821Y206270D01*
X311596Y204495D01*
X311827Y204341D01*
X312100Y204286D01*
X336812D01*
X337002Y204002D01*
X337460Y203696D01*
X338000Y203589D01*
X338540Y203696D01*
X338998Y204002D01*
X339304Y204460D01*
X339411Y205000D01*
X339304Y205540D01*
X338998Y205998D01*
X338540Y206304D01*
X338000Y206411D01*
X337460Y206304D01*
X337002Y205998D01*
X336812Y205714D01*
X312396D01*
X310830Y207279D01*
X310930Y207408D01*
X311267Y208224D01*
X311383Y209099D01*
X311267Y209974D01*
X310930Y210790D01*
X310392Y211490D01*
X309692Y212028D01*
X308876Y212366D01*
X308001Y212481D01*
D02*
G37*
G36*
X224000Y211411D02*
X223460Y211304D01*
X223002Y210998D01*
X222696Y210540D01*
X222589Y210000D01*
X222696Y209460D01*
X223002Y209002D01*
X223460Y208696D01*
X224000Y208589D01*
X224540Y208696D01*
X224998Y209002D01*
X225052Y209082D01*
X237620D01*
X241607Y205095D01*
X241589Y205000D01*
X241696Y204460D01*
X242002Y204002D01*
X242460Y203696D01*
X243000Y203589D01*
X243540Y203696D01*
X243998Y204002D01*
X244304Y204460D01*
X244411Y205000D01*
X244304Y205540D01*
X243998Y205998D01*
X243540Y206304D01*
X243000Y206411D01*
X242905Y206393D01*
X238649Y210649D01*
X238351Y210848D01*
X238000Y210918D01*
X225052D01*
X224998Y210998D01*
X224540Y211304D01*
X224000Y211411D01*
D02*
G37*
G36*
X36500Y206464D02*
Y203500D01*
X39464D01*
X39410Y203914D01*
X39057Y204765D01*
X38496Y205496D01*
X37765Y206057D01*
X36914Y206410D01*
X36500Y206464D01*
D02*
G37*
G36*
X35500D02*
X35086Y206410D01*
X34235Y206057D01*
X33504Y205496D01*
X32943Y204765D01*
X32590Y203914D01*
X32536Y203500D01*
X35500D01*
Y206464D01*
D02*
G37*
G36*
X180500Y203464D02*
Y200500D01*
X183464D01*
X183410Y200914D01*
X183057Y201765D01*
X182496Y202496D01*
X181765Y203057D01*
X180914Y203410D01*
X180500Y203464D01*
D02*
G37*
G36*
X179500D02*
X179086Y203410D01*
X178235Y203057D01*
X177504Y202496D01*
X176943Y201765D01*
X176590Y200914D01*
X176536Y200500D01*
X179500D01*
Y203464D01*
D02*
G37*
G36*
X273000Y203500D02*
X270000D01*
Y199750D01*
X273000D01*
Y203500D01*
D02*
G37*
G36*
X269000D02*
X266000D01*
Y199750D01*
X269000D01*
Y203500D01*
D02*
G37*
G36*
X39464Y202500D02*
X36500D01*
Y199536D01*
X36914Y199590D01*
X37765Y199943D01*
X38496Y200504D01*
X39057Y201235D01*
X39410Y202086D01*
X39464Y202500D01*
D02*
G37*
G36*
X35500D02*
X32536D01*
X32590Y202086D01*
X32730Y201749D01*
X26251Y195270D01*
X25914Y195410D01*
X25500Y195464D01*
Y192500D01*
X28464D01*
X28410Y192914D01*
X28270Y193251D01*
X34749Y199730D01*
X35086Y199590D01*
X35500Y199536D01*
Y202500D01*
D02*
G37*
G36*
X183464Y199500D02*
X180500D01*
Y196536D01*
X180914Y196590D01*
X181765Y196943D01*
X182496Y197504D01*
X183057Y198235D01*
X183410Y199086D01*
X183464Y199500D01*
D02*
G37*
G36*
X179500D02*
X176536D01*
X176590Y199086D01*
X176943Y198235D01*
X177504Y197504D01*
X178235Y196943D01*
X179086Y196590D01*
X179500Y196536D01*
Y199500D01*
D02*
G37*
G36*
X24500Y195464D02*
X24086Y195410D01*
X23235Y195057D01*
X22504Y194496D01*
X21943Y193765D01*
X21590Y192914D01*
X21536Y192500D01*
X24500D01*
Y195464D01*
D02*
G37*
G36*
X375500Y193464D02*
Y190500D01*
X378464D01*
X378410Y190914D01*
X378057Y191765D01*
X377496Y192496D01*
X376765Y193057D01*
X375914Y193410D01*
X375500Y193464D01*
D02*
G37*
G36*
X374500D02*
X374086Y193410D01*
X373235Y193057D01*
X372504Y192496D01*
X371943Y191765D01*
X371590Y190914D01*
X371536Y190500D01*
X374500D01*
Y193464D01*
D02*
G37*
G36*
X365500D02*
Y190500D01*
X368464D01*
X368410Y190914D01*
X368057Y191765D01*
X367496Y192496D01*
X366765Y193057D01*
X365914Y193410D01*
X365500Y193464D01*
D02*
G37*
G36*
X364500D02*
X364086Y193410D01*
X363235Y193057D01*
X362504Y192496D01*
X361943Y191765D01*
X361590Y190914D01*
X361536Y190500D01*
X364500D01*
Y193464D01*
D02*
G37*
G36*
X140500Y191924D02*
Y190500D01*
X141924D01*
X141869Y190774D01*
X141431Y191431D01*
X140774Y191869D01*
X140500Y191924D01*
D02*
G37*
G36*
X139500D02*
X139226Y191869D01*
X138569Y191431D01*
X138131Y190774D01*
X138076Y190500D01*
X139500D01*
Y191924D01*
D02*
G37*
G36*
X281598Y223112D02*
X275299D01*
X274682Y222989D01*
X274159Y222640D01*
X273810Y222117D01*
X273687Y221500D01*
X273810Y220883D01*
X274159Y220360D01*
X274682Y220011D01*
X274909Y219966D01*
X275037Y219720D01*
X275097Y219418D01*
X274952Y219202D01*
X274882Y218851D01*
Y216450D01*
X274863D01*
X274362Y215949D01*
X273950Y215737D01*
X273137Y216550D01*
X272324D01*
X270450Y214676D01*
Y214348D01*
X268020Y211918D01*
X267000D01*
X266649Y211848D01*
X266351Y211649D01*
X262352Y207650D01*
X257600D01*
Y205405D01*
X257100Y205198D01*
X253918Y208380D01*
Y208958D01*
X255861D01*
Y217042D01*
X250139D01*
Y208958D01*
X252082D01*
Y208000D01*
X252152Y207649D01*
X252351Y207351D01*
X256351Y203351D01*
X256649Y203152D01*
X257000Y203082D01*
X257600D01*
Y200350D01*
X263400D01*
Y206102D01*
X265500Y208202D01*
X266000Y207995D01*
X266000Y207856D01*
Y204500D01*
X269000D01*
Y208250D01*
X266399D01*
X266255Y208250D01*
X266048Y208750D01*
X267380Y210082D01*
X268400D01*
X268751Y210152D01*
X269049Y210351D01*
X271209Y212511D01*
X272284Y211437D01*
X273124D01*
X273963Y212276D01*
X274368Y212045D01*
X274863Y211550D01*
X275676D01*
X277550Y213424D01*
Y213846D01*
X277704Y214000D01*
X277550Y214154D01*
Y214576D01*
X276718Y215409D01*
Y218471D01*
X278134Y219888D01*
X279814D01*
X284712Y214991D01*
X284437Y214716D01*
Y213876D01*
X285276Y213037D01*
X285045Y212632D01*
X284550Y212137D01*
Y211324D01*
X286424Y209450D01*
X286846D01*
X287000Y209296D01*
X287154Y209450D01*
X287576D01*
X287764Y209638D01*
X289082Y208320D01*
Y203770D01*
X284482D01*
Y189523D01*
X283982Y189316D01*
X279649Y193649D01*
X279351Y193848D01*
X279000Y193918D01*
X253380D01*
X249918Y197380D01*
Y206000D01*
X249848Y206351D01*
X249649Y206649D01*
X238649Y217649D01*
X238351Y217848D01*
X238000Y217918D01*
X217380D01*
X216392Y218905D01*
X216411Y219000D01*
X216304Y219540D01*
X215998Y219998D01*
X215540Y220304D01*
X215000Y220411D01*
X214460Y220304D01*
X214002Y219998D01*
X213696Y219540D01*
X213589Y219000D01*
X213696Y218460D01*
X214002Y218002D01*
X214460Y217696D01*
X215000Y217589D01*
X215095Y217607D01*
X215819Y216883D01*
X215678Y216318D01*
X215569Y216284D01*
X215540Y216304D01*
X215000Y216411D01*
X214460Y216304D01*
X214002Y215998D01*
X213696Y215540D01*
X213589Y215000D01*
X213696Y214460D01*
X213781Y214333D01*
X213513Y213833D01*
X204464D01*
X197392Y220905D01*
X197411Y221000D01*
X197304Y221540D01*
X196998Y221998D01*
X196540Y222304D01*
X196000Y222411D01*
X195460Y222304D01*
X195002Y221998D01*
X194696Y221540D01*
X194589Y221000D01*
X194696Y220460D01*
X195002Y220002D01*
X195460Y219696D01*
X196000Y219589D01*
X196095Y219607D01*
X203435Y212267D01*
X203733Y212068D01*
X204084Y211998D01*
X215863D01*
X216214Y212068D01*
X216236Y212082D01*
X226948D01*
X227002Y212002D01*
X227460Y211696D01*
X228000Y211589D01*
X228540Y211696D01*
X228998Y212002D01*
X229304Y212460D01*
X229411Y213000D01*
X229304Y213540D01*
X229219Y213667D01*
X229487Y214167D01*
X236536D01*
X245082Y205620D01*
Y196000D01*
X245152Y195649D01*
X245351Y195351D01*
X250351Y190351D01*
X250649Y190152D01*
X251000Y190082D01*
X252100D01*
X252234Y189851D01*
X252285Y189582D01*
X244620Y181918D01*
X203380D01*
X187918Y197380D01*
Y219948D01*
X187998Y220002D01*
X188304Y220460D01*
X188411Y221000D01*
X188304Y221540D01*
X187998Y221998D01*
X187540Y222304D01*
X187000Y222411D01*
X186460Y222304D01*
X186002Y221998D01*
X185696Y221540D01*
X185589Y221000D01*
X185696Y220460D01*
X186002Y220002D01*
X186082Y219948D01*
Y197000D01*
X186152Y196649D01*
X186351Y196351D01*
X202351Y180351D01*
X202649Y180152D01*
X203000Y180082D01*
X245000D01*
X245351Y180152D01*
X245649Y180351D01*
X253380Y188082D01*
X276620D01*
X281082Y183620D01*
Y180000D01*
X281152Y179649D01*
X281351Y179351D01*
X286351Y174351D01*
X286378Y174333D01*
X286226Y173833D01*
X275774D01*
X275622Y174333D01*
X275649Y174351D01*
X279649Y178351D01*
X279848Y178649D01*
X279918Y179000D01*
Y181948D01*
X279998Y182002D01*
X280304Y182460D01*
X280411Y183000D01*
X280304Y183540D01*
X279998Y183998D01*
X279540Y184304D01*
X279000Y184411D01*
X278460Y184304D01*
X278002Y183998D01*
X277696Y183540D01*
X277589Y183000D01*
X277696Y182460D01*
X278002Y182002D01*
X278082Y181948D01*
Y179380D01*
X274620Y175918D01*
X190052D01*
X189998Y175998D01*
X189540Y176304D01*
X189000Y176411D01*
X188460Y176304D01*
X188002Y175998D01*
X187696Y175540D01*
X187589Y175000D01*
X187696Y174460D01*
X187781Y174333D01*
X187513Y173833D01*
X172464D01*
X161392Y184905D01*
X161411Y185000D01*
X161304Y185540D01*
X160998Y185998D01*
X160540Y186304D01*
X160000Y186411D01*
X159460Y186304D01*
X159002Y185998D01*
X158696Y185540D01*
X158589Y185000D01*
X158696Y184460D01*
X159002Y184002D01*
X159460Y183696D01*
X160000Y183589D01*
X160095Y183607D01*
X171285Y172418D01*
X171078Y171918D01*
X162380D01*
X158918Y175380D01*
Y176948D01*
X158998Y177002D01*
X159304Y177460D01*
X159411Y178000D01*
X159304Y178540D01*
X158998Y178998D01*
X158540Y179304D01*
X158000Y179411D01*
X157460Y179304D01*
X157002Y178998D01*
X156696Y178540D01*
X156589Y178000D01*
X156696Y177460D01*
X157002Y177002D01*
X157082Y176948D01*
Y175000D01*
X157152Y174649D01*
X157351Y174351D01*
X161351Y170351D01*
X161649Y170152D01*
X162000Y170082D01*
X287620D01*
X292351Y165351D01*
X292649Y165152D01*
X293000Y165082D01*
X308948D01*
X309002Y165002D01*
X309460Y164696D01*
X310000Y164589D01*
X310540Y164696D01*
X310998Y165002D01*
X311304Y165460D01*
X311411Y166000D01*
X311304Y166540D01*
X310998Y166998D01*
X310540Y167304D01*
X310000Y167411D01*
X309460Y167304D01*
X309002Y166998D01*
X308948Y166918D01*
X293380D01*
X288800Y171498D01*
X289007Y171998D01*
X302536D01*
X303815Y170719D01*
X303696Y170540D01*
X303589Y170000D01*
X303696Y169460D01*
X304002Y169002D01*
X304460Y168696D01*
X305000Y168589D01*
X305540Y168696D01*
X305998Y169002D01*
X306304Y169460D01*
X306411Y170000D01*
X306304Y170540D01*
X305998Y170998D01*
X305867Y171085D01*
X305848Y171183D01*
X305649Y171480D01*
X303565Y173565D01*
X303267Y173764D01*
X302916Y173833D01*
X297928D01*
X297759Y174327D01*
X297987Y174574D01*
X298009Y174590D01*
X298540Y174696D01*
X298998Y175002D01*
X299304Y175460D01*
X299411Y176000D01*
X299304Y176540D01*
X298998Y176998D01*
X298540Y177304D01*
X298000Y177411D01*
X297460Y177304D01*
X297002Y176998D01*
X296696Y176540D01*
X296589Y176000D01*
X296521Y175918D01*
X287380D01*
X282918Y180380D01*
Y184000D01*
X282898Y184097D01*
X283332Y184340D01*
X283359Y184346D01*
X283649Y184152D01*
X284000Y184082D01*
X291620D01*
X295607Y180095D01*
X295589Y180000D01*
X295696Y179460D01*
X296002Y179002D01*
X296460Y178696D01*
X297000Y178589D01*
X297540Y178696D01*
X297998Y179002D01*
X298304Y179460D01*
X298411Y180000D01*
X298304Y180540D01*
X297998Y180998D01*
X297540Y181304D01*
X297000Y181411D01*
X296905Y181393D01*
X292715Y185582D01*
X292766Y185851D01*
X292900Y186082D01*
X293620D01*
X297351Y182351D01*
X297649Y182152D01*
X298000Y182082D01*
X298948D01*
X299002Y182002D01*
X299460Y181696D01*
X300000Y181589D01*
X300540Y181696D01*
X300998Y182002D01*
X301304Y182460D01*
X301411Y183000D01*
X301304Y183540D01*
X300998Y183998D01*
X300540Y184304D01*
X300000Y184411D01*
X299460Y184304D01*
X299002Y183998D01*
X298948Y183918D01*
X298380D01*
X294649Y187649D01*
X294351Y187848D01*
X294000Y187918D01*
X285380D01*
X284765Y188533D01*
X284972Y189033D01*
X295518D01*
Y203770D01*
X290918D01*
Y208700D01*
X290848Y209051D01*
X290649Y209349D01*
X289062Y210936D01*
X289450Y211324D01*
Y212137D01*
X288949Y212638D01*
X288737Y213050D01*
X289550Y213863D01*
Y214676D01*
X287676Y216550D01*
X287137D01*
X287124Y216563D01*
X286284D01*
X286009Y216288D01*
X282537Y219761D01*
X282586Y220258D01*
X282738Y220360D01*
X283088Y220883D01*
X283210Y221500D01*
X283088Y222117D01*
X282738Y222640D01*
X282215Y222989D01*
X281598Y223112D01*
D02*
G37*
G36*
X24500Y191500D02*
X21536D01*
X21590Y191086D01*
X21943Y190235D01*
X22504Y189504D01*
X23235Y188943D01*
X24086Y188590D01*
X24500Y188536D01*
Y191500D01*
D02*
G37*
G36*
X239000Y206411D02*
X238460Y206304D01*
X238002Y205998D01*
X237696Y205540D01*
X237589Y205000D01*
X237696Y204460D01*
X238002Y204002D01*
X238082Y203948D01*
Y200380D01*
X226020Y188318D01*
X220019D01*
X219851Y188808D01*
X220102Y189082D01*
X224000D01*
X224351Y189152D01*
X224649Y189351D01*
X235649Y200351D01*
X235848Y200649D01*
X235918Y201000D01*
Y203948D01*
X235998Y204002D01*
X236304Y204460D01*
X236411Y205000D01*
X236304Y205540D01*
X235998Y205998D01*
X235540Y206304D01*
X235000Y206411D01*
X234460Y206304D01*
X234002Y205998D01*
X233696Y205540D01*
X233589Y205000D01*
X233696Y204460D01*
X234002Y204002D01*
X234082Y203948D01*
Y201380D01*
X223620Y190918D01*
X220052D01*
X219998Y190998D01*
X219540Y191304D01*
X219000Y191411D01*
X218460Y191304D01*
X218002Y190998D01*
X217696Y190540D01*
X217589Y190000D01*
X217696Y189460D01*
X218002Y189002D01*
X218278Y188818D01*
X218126Y188318D01*
X217348D01*
X217304Y188540D01*
X216998Y188998D01*
X216540Y189304D01*
X216347Y189342D01*
X216183Y189885D01*
X230181Y203883D01*
X230460Y203696D01*
X231000Y203589D01*
X231540Y203696D01*
X231998Y204002D01*
X232304Y204460D01*
X232411Y205000D01*
X232304Y205540D01*
X231998Y205998D01*
X231540Y206304D01*
X231000Y206411D01*
X230460Y206304D01*
X230002Y205998D01*
X229940Y205906D01*
X229649Y205848D01*
X229351Y205649D01*
X228885Y205183D01*
X228342Y205347D01*
X228304Y205540D01*
X227998Y205998D01*
X227540Y206304D01*
X227000Y206411D01*
X226460Y206304D01*
X226002Y205998D01*
X225948Y205918D01*
X224000D01*
X223649Y205848D01*
X223351Y205649D01*
X209351Y191649D01*
X209152Y191351D01*
X209082Y191000D01*
Y185052D01*
X209002Y184998D01*
X208696Y184540D01*
X208589Y184000D01*
X208696Y183460D01*
X209002Y183002D01*
X209460Y182696D01*
X210000Y182589D01*
X210540Y182696D01*
X210998Y183002D01*
X211304Y183460D01*
X211411Y184000D01*
X211304Y184540D01*
X210998Y184998D01*
X210918Y185052D01*
Y190620D01*
X224380Y204082D01*
X225948D01*
X226002Y204002D01*
X226460Y203696D01*
X226653Y203658D01*
X226817Y203115D01*
X212351Y188649D01*
X212152Y188351D01*
X212082Y188000D01*
Y187052D01*
X212002Y186998D01*
X211696Y186540D01*
X211589Y186000D01*
X211696Y185460D01*
X212002Y185002D01*
X212460Y184696D01*
X213000Y184589D01*
X213540Y184696D01*
X213998Y185002D01*
X214304Y185460D01*
X214411Y186000D01*
X214304Y186540D01*
X213998Y186998D01*
X214059Y187495D01*
X214173Y187586D01*
X214629Y187476D01*
X214720Y187424D01*
X215002Y187002D01*
X215460Y186696D01*
X216000Y186589D01*
X216150Y186618D01*
X216249Y186552D01*
X216600Y186482D01*
X226400D01*
X226751Y186552D01*
X227049Y186751D01*
X239649Y199351D01*
X239848Y199649D01*
X239918Y200000D01*
Y203948D01*
X239998Y204002D01*
X240304Y204460D01*
X240411Y205000D01*
X240304Y205540D01*
X239998Y205998D01*
X239540Y206304D01*
X239000Y206411D01*
D02*
G37*
G36*
X141924Y189500D02*
X140500D01*
Y188076D01*
X140774Y188131D01*
X141431Y188569D01*
X141869Y189226D01*
X141924Y189500D01*
D02*
G37*
G36*
X139500D02*
X138076D01*
X138131Y189226D01*
X138569Y188569D01*
X139226Y188131D01*
X139500Y188076D01*
Y189500D01*
D02*
G37*
G36*
X378464D02*
X375500D01*
Y186536D01*
X375914Y186590D01*
X376765Y186943D01*
X377496Y187504D01*
X378057Y188235D01*
X378410Y189086D01*
X378464Y189500D01*
D02*
G37*
G36*
X374500D02*
X371536D01*
X371590Y189086D01*
X371943Y188235D01*
X372504Y187504D01*
X373235Y186943D01*
X374086Y186590D01*
X374500Y186536D01*
Y189500D01*
D02*
G37*
G36*
X368464D02*
X365500D01*
Y186536D01*
X365914Y186590D01*
X366765Y186943D01*
X367496Y187504D01*
X368057Y188235D01*
X368410Y189086D01*
X368464Y189500D01*
D02*
G37*
G36*
X364500D02*
X361536D01*
X361590Y189086D01*
X361943Y188235D01*
X362504Y187504D01*
X363235Y186943D01*
X364086Y186590D01*
X364500Y186536D01*
Y189500D01*
D02*
G37*
G36*
X259000Y187411D02*
X258460Y187304D01*
X258002Y186998D01*
X257696Y186540D01*
X257589Y186000D01*
X257608Y185905D01*
X250536Y178833D01*
X193108D01*
X192998Y178998D01*
X192540Y179304D01*
X192000Y179411D01*
X191460Y179304D01*
X191002Y178998D01*
X190696Y178540D01*
X190589Y178000D01*
X190696Y177460D01*
X191002Y177002D01*
X191460Y176696D01*
X192000Y176589D01*
X192540Y176696D01*
X192992Y176998D01*
X250916D01*
X251267Y177068D01*
X251565Y177267D01*
X258905Y184608D01*
X259000Y184589D01*
X259540Y184696D01*
X259998Y185002D01*
X260304Y185460D01*
X260411Y186000D01*
X260304Y186540D01*
X259998Y186998D01*
X259540Y187304D01*
X259000Y187411D01*
D02*
G37*
G36*
X375500Y183464D02*
Y180500D01*
X378464D01*
X378410Y180914D01*
X378057Y181765D01*
X377496Y182496D01*
X376765Y183057D01*
X375914Y183410D01*
X375500Y183464D01*
D02*
G37*
G36*
X374500D02*
X374086Y183410D01*
X373235Y183057D01*
X372504Y182496D01*
X371943Y181765D01*
X371590Y180914D01*
X371536Y180500D01*
X374500D01*
Y183464D01*
D02*
G37*
G36*
X365500D02*
Y180500D01*
X368464D01*
X368410Y180914D01*
X368057Y181765D01*
X367496Y182496D01*
X366765Y183057D01*
X365914Y183410D01*
X365500Y183464D01*
D02*
G37*
G36*
X364500D02*
X364086Y183410D01*
X363235Y183057D01*
X362504Y182496D01*
X361943Y181765D01*
X361590Y180914D01*
X361536Y180500D01*
X364500D01*
Y183464D01*
D02*
G37*
G36*
X75500D02*
Y180500D01*
X78464D01*
X78410Y180914D01*
X78057Y181765D01*
X77496Y182496D01*
X76765Y183057D01*
X75914Y183410D01*
X75500Y183464D01*
D02*
G37*
G36*
X74500D02*
X74086Y183410D01*
X73235Y183057D01*
X72504Y182496D01*
X71943Y181765D01*
X71590Y180914D01*
X71536Y180500D01*
X74500D01*
Y183464D01*
D02*
G37*
G36*
X55500D02*
Y180500D01*
X58464D01*
X58410Y180914D01*
X58057Y181765D01*
X57496Y182496D01*
X56765Y183057D01*
X55914Y183410D01*
X55500Y183464D01*
D02*
G37*
G36*
X54500D02*
X54086Y183410D01*
X53235Y183057D01*
X52504Y182496D01*
X51943Y181765D01*
X51590Y180914D01*
X51536Y180500D01*
X54500D01*
Y183464D01*
D02*
G37*
G36*
X121000Y188374D02*
X119868Y188225D01*
X118813Y187788D01*
X117907Y187093D01*
X117212Y186187D01*
X116775Y185132D01*
X116626Y184000D01*
X116775Y182868D01*
X117212Y181813D01*
X117907Y180907D01*
X118813Y180212D01*
X119868Y179775D01*
X121000Y179626D01*
X122132Y179775D01*
X123187Y180212D01*
X124093Y180907D01*
X124788Y181813D01*
X125225Y182868D01*
X125374Y184000D01*
X125225Y185132D01*
X124788Y186187D01*
X124093Y187093D01*
X123187Y187788D01*
X122132Y188225D01*
X121000Y188374D01*
D02*
G37*
G36*
X290000Y182733D02*
X289228Y182631D01*
X288508Y182333D01*
X287890Y181858D01*
X287415Y181240D01*
X287117Y180520D01*
X287015Y179748D01*
X287117Y178976D01*
X287415Y178256D01*
X287890Y177638D01*
X288508Y177163D01*
X289228Y176865D01*
X290000Y176763D01*
X290773Y176865D01*
X291492Y177163D01*
X292110Y177638D01*
X292585Y178256D01*
X292883Y178976D01*
X292985Y179748D01*
X292883Y180520D01*
X292585Y181240D01*
X292110Y181858D01*
X291492Y182333D01*
X290773Y182631D01*
X290000Y182733D01*
D02*
G37*
G36*
X378464Y179500D02*
X375500D01*
Y176536D01*
X375914Y176590D01*
X376765Y176943D01*
X377496Y177504D01*
X378057Y178235D01*
X378410Y179086D01*
X378464Y179500D01*
D02*
G37*
G36*
X374500D02*
X371536D01*
X371590Y179086D01*
X371943Y178235D01*
X372504Y177504D01*
X373235Y176943D01*
X374086Y176590D01*
X374500Y176536D01*
Y179500D01*
D02*
G37*
G36*
X368464D02*
X365500D01*
Y176536D01*
X365914Y176590D01*
X366765Y176943D01*
X367496Y177504D01*
X368057Y178235D01*
X368410Y179086D01*
X368464Y179500D01*
D02*
G37*
G36*
X364500D02*
X361536D01*
X361590Y179086D01*
X361943Y178235D01*
X362504Y177504D01*
X363235Y176943D01*
X364086Y176590D01*
X364500Y176536D01*
Y179500D01*
D02*
G37*
G36*
X78464D02*
X75500D01*
Y176536D01*
X75914Y176590D01*
X76765Y176943D01*
X77496Y177504D01*
X78057Y178235D01*
X78410Y179086D01*
X78464Y179500D01*
D02*
G37*
G36*
X74500D02*
X71536D01*
X71590Y179086D01*
X71943Y178235D01*
X72504Y177504D01*
X73235Y176943D01*
X74086Y176590D01*
X74500Y176536D01*
Y179500D01*
D02*
G37*
G36*
X58464D02*
X55500D01*
Y176536D01*
X55914Y176590D01*
X56765Y176943D01*
X57496Y177504D01*
X58057Y178235D01*
X58410Y179086D01*
X58464Y179500D01*
D02*
G37*
G36*
X54500D02*
X51536D01*
X51590Y179086D01*
X51943Y178235D01*
X52504Y177504D01*
X53235Y176943D01*
X54086Y176590D01*
X54500Y176536D01*
Y179500D01*
D02*
G37*
G36*
X89941Y179260D02*
X88653D01*
Y176201D01*
X89941D01*
Y179260D01*
D02*
G37*
G36*
X94787D02*
X93500D01*
Y175701D01*
X92500D01*
Y179260D01*
X90941D01*
Y175701D01*
Y172142D01*
X92082D01*
Y169880D01*
X89452Y167250D01*
X87000D01*
Y163500D01*
X90000D01*
Y165202D01*
X93649Y168851D01*
X93848Y169149D01*
X93918Y169500D01*
Y172142D01*
X94582D01*
Y166650D01*
X92600D01*
Y159350D01*
X94582D01*
Y157325D01*
X92563Y155306D01*
X86958D01*
Y149584D01*
X95042D01*
Y155189D01*
X96149Y156296D01*
X96348Y156594D01*
X96418Y156945D01*
Y159350D01*
X98400D01*
Y166650D01*
X96418D01*
Y172742D01*
X96746D01*
Y178660D01*
X94787D01*
Y179260D01*
D02*
G37*
G36*
X89941Y175201D02*
X88653D01*
Y172142D01*
X89941D01*
Y175201D01*
D02*
G37*
G36*
X365500Y173464D02*
Y170500D01*
X368464D01*
X368410Y170914D01*
X368057Y171765D01*
X367496Y172496D01*
X366765Y173057D01*
X365914Y173410D01*
X365500Y173464D01*
D02*
G37*
G36*
X364500D02*
X364086Y173410D01*
X363235Y173057D01*
X362504Y172496D01*
X361943Y171765D01*
X361590Y170914D01*
X361536Y170500D01*
X364500D01*
Y173464D01*
D02*
G37*
G36*
X368464Y169500D02*
X365500D01*
Y166536D01*
X365914Y166590D01*
X366765Y166943D01*
X367496Y167504D01*
X368057Y168235D01*
X368410Y169086D01*
X368464Y169500D01*
D02*
G37*
G36*
X364500D02*
X361536D01*
X361590Y169086D01*
X361943Y168235D01*
X362504Y167504D01*
X363235Y166943D01*
X364086Y166590D01*
X364500Y166536D01*
Y169500D01*
D02*
G37*
G36*
X168500Y166924D02*
Y165500D01*
X169924D01*
X169869Y165774D01*
X169431Y166431D01*
X168774Y166869D01*
X168500Y166924D01*
D02*
G37*
G36*
X167500D02*
X167226Y166869D01*
X166569Y166431D01*
X166131Y165774D01*
X166076Y165500D01*
X167500D01*
Y166924D01*
D02*
G37*
G36*
X86000Y167250D02*
X83000D01*
Y163500D01*
X86000D01*
Y167250D01*
D02*
G37*
G36*
X169924Y164500D02*
X168500D01*
Y163076D01*
X168774Y163131D01*
X169431Y163569D01*
X169869Y164226D01*
X169924Y164500D01*
D02*
G37*
G36*
X167500D02*
X166076D01*
X166131Y164226D01*
X166569Y163569D01*
X167226Y163131D01*
X167500Y163076D01*
Y164500D01*
D02*
G37*
G36*
X121000Y169162D02*
X119868Y169013D01*
X118813Y168576D01*
X117907Y167881D01*
X117212Y166975D01*
X116775Y165920D01*
X116626Y164787D01*
X116775Y163655D01*
X117212Y162600D01*
X117907Y161694D01*
X118813Y160999D01*
X119868Y160562D01*
X121000Y160413D01*
X122132Y160562D01*
X123187Y160999D01*
X124093Y161694D01*
X124788Y162600D01*
X125225Y163655D01*
X125374Y164787D01*
X125225Y165920D01*
X124788Y166975D01*
X124093Y167881D01*
X123187Y168576D01*
X122132Y169013D01*
X121000Y169162D01*
D02*
G37*
G36*
X90000Y162500D02*
X87000D01*
Y158750D01*
X90000D01*
Y162500D01*
D02*
G37*
G36*
X86000D02*
X83000D01*
Y158750D01*
X86000D01*
Y162500D01*
D02*
G37*
G36*
X28464Y191500D02*
X25500D01*
Y188536D01*
X25914Y188590D01*
X26251Y188730D01*
X45573Y169409D01*
Y161197D01*
X45235Y161057D01*
X44504Y160496D01*
X43943Y159765D01*
X43590Y158914D01*
X43536Y158500D01*
X50464D01*
X50410Y158914D01*
X50057Y159765D01*
X49496Y160496D01*
X48765Y161057D01*
X48427Y161197D01*
Y170000D01*
X48427Y170000D01*
X48319Y170546D01*
X48009Y171009D01*
X48009Y171009D01*
X28270Y190749D01*
X28410Y191086D01*
X28464Y191500D01*
D02*
G37*
G36*
X130500Y158464D02*
Y155500D01*
X133464D01*
X133410Y155914D01*
X133057Y156765D01*
X132496Y157496D01*
X131765Y158057D01*
X130914Y158410D01*
X130500Y158464D01*
D02*
G37*
G36*
X129500D02*
X129086Y158410D01*
X128235Y158057D01*
X127504Y157496D01*
X126943Y156765D01*
X126590Y155914D01*
X126536Y155500D01*
X129500D01*
Y158464D01*
D02*
G37*
G36*
X120500D02*
Y155500D01*
X123464D01*
X123410Y155914D01*
X123057Y156765D01*
X122496Y157496D01*
X121765Y158057D01*
X120914Y158410D01*
X120500Y158464D01*
D02*
G37*
G36*
X119500D02*
X119086Y158410D01*
X118235Y158057D01*
X117504Y157496D01*
X116943Y156765D01*
X116590Y155914D01*
X116536Y155500D01*
X119500D01*
Y158464D01*
D02*
G37*
G36*
X413510Y160550D02*
X406411D01*
Y153450D01*
X413510D01*
Y160550D01*
D02*
G37*
G36*
X380039Y160580D02*
X379113Y160458D01*
X378249Y160101D01*
X377508Y159532D01*
X376939Y158790D01*
X376581Y157927D01*
X376459Y157000D01*
X376581Y156073D01*
X376939Y155210D01*
X377508Y154468D01*
X378249Y153899D01*
X379113Y153542D01*
X380039Y153420D01*
X380966Y153542D01*
X381830Y153899D01*
X382571Y154468D01*
X383140Y155210D01*
X383498Y156073D01*
X383620Y157000D01*
X383498Y157927D01*
X383140Y158790D01*
X382571Y159532D01*
X381830Y160101D01*
X380966Y160458D01*
X380039Y160580D01*
D02*
G37*
G36*
X133464Y154500D02*
X130500D01*
Y151536D01*
X130914Y151590D01*
X131765Y151943D01*
X132496Y152504D01*
X133057Y153235D01*
X133410Y154086D01*
X133464Y154500D01*
D02*
G37*
G36*
X129500D02*
X126536D01*
X126590Y154086D01*
X126943Y153235D01*
X127504Y152504D01*
X128235Y151943D01*
X129086Y151590D01*
X129500Y151536D01*
Y154500D01*
D02*
G37*
G36*
X123464D02*
X120500D01*
Y151536D01*
X120914Y151590D01*
X121765Y151943D01*
X122496Y152504D01*
X123057Y153235D01*
X123410Y154086D01*
X123464Y154500D01*
D02*
G37*
G36*
X119500D02*
X116536D01*
X116590Y154086D01*
X116943Y153235D01*
X117504Y152504D01*
X118235Y151943D01*
X119086Y151590D01*
X119500Y151536D01*
Y154500D01*
D02*
G37*
G36*
X290000Y152635D02*
X289076Y152452D01*
X288292Y151928D01*
X287769Y151145D01*
X287585Y150221D01*
X287769Y149296D01*
X288292Y148513D01*
X289076Y147989D01*
X290000Y147806D01*
X290924Y147989D01*
X291708Y148513D01*
X292231Y149296D01*
X292415Y150221D01*
X292231Y151145D01*
X291708Y151928D01*
X290924Y152452D01*
X290000Y152635D01*
D02*
G37*
G36*
X421276Y150921D02*
X416839D01*
Y147567D01*
X421276D01*
Y150921D01*
D02*
G37*
G36*
X388598D02*
X384161D01*
Y147567D01*
X388598D01*
Y150921D01*
D02*
G37*
G36*
X415839D02*
X411402D01*
Y147567D01*
X415839D01*
Y150921D01*
D02*
G37*
G36*
X383161D02*
X378724D01*
Y147567D01*
X383161D01*
Y150921D01*
D02*
G37*
G36*
X421276Y146567D02*
X416839D01*
Y143213D01*
X421276D01*
Y146567D01*
D02*
G37*
G36*
X415839D02*
X411402D01*
Y143213D01*
X415839D01*
Y146567D01*
D02*
G37*
G36*
X388598D02*
X384161D01*
Y143213D01*
X388598D01*
Y146567D01*
D02*
G37*
G36*
X383161D02*
X378724D01*
Y143213D01*
X383161D01*
Y146567D01*
D02*
G37*
G36*
X41331Y136589D02*
X41056Y136535D01*
X40400Y136096D01*
X39962Y135440D01*
X39920Y135232D01*
X39410D01*
X39369Y135440D01*
X38931Y136096D01*
X38274Y136535D01*
X38000Y136589D01*
Y134665D01*
X37000D01*
Y136589D01*
X36726Y136535D01*
X36069Y136096D01*
X35631Y135440D01*
X35590Y135232D01*
X35080D01*
X35038Y135440D01*
X34600Y136096D01*
X33944Y136535D01*
X33669Y136589D01*
Y134665D01*
X33169D01*
Y134165D01*
X31246D01*
X31300Y133891D01*
X31739Y133235D01*
X32395Y132796D01*
X32603Y132755D01*
Y132245D01*
X32395Y132204D01*
X31739Y131765D01*
X31300Y131109D01*
X31246Y130835D01*
X33169D01*
Y130335D01*
X33669D01*
Y128411D01*
X33944Y128465D01*
X34600Y128904D01*
X35038Y129560D01*
X35080Y129768D01*
X35590D01*
X35631Y129560D01*
X36069Y128904D01*
X36726Y128465D01*
X37000Y128411D01*
Y130335D01*
X38000D01*
Y128411D01*
X38274Y128465D01*
X38931Y128904D01*
X39369Y129560D01*
X39410Y129768D01*
X39920D01*
X39962Y129560D01*
X40400Y128904D01*
X41056Y128465D01*
X41331Y128411D01*
Y130335D01*
X41831D01*
Y130835D01*
X43754D01*
X43700Y131109D01*
X43261Y131765D01*
X42605Y132204D01*
X42397Y132245D01*
Y132755D01*
X42605Y132796D01*
X43261Y133235D01*
X43700Y133891D01*
X43754Y134165D01*
X41831D01*
Y134665D01*
X41331D01*
Y136589D01*
D02*
G37*
G36*
X42331D02*
Y135165D01*
X43754D01*
X43700Y135440D01*
X43261Y136096D01*
X42605Y136535D01*
X42331Y136589D01*
D02*
G37*
G36*
X32669D02*
X32395Y136535D01*
X31739Y136096D01*
X31300Y135440D01*
X31246Y135165D01*
X32669D01*
Y136589D01*
D02*
G37*
G36*
X296118Y142402D02*
X290500D01*
Y134697D01*
X296118D01*
Y142402D01*
D02*
G37*
G36*
X289500D02*
X283882D01*
Y134697D01*
X289500D01*
Y142402D01*
D02*
G37*
G36*
X52500Y136464D02*
Y133500D01*
X55464D01*
X55410Y133914D01*
X55057Y134765D01*
X54496Y135496D01*
X53765Y136057D01*
X52914Y136410D01*
X52500Y136464D01*
D02*
G37*
G36*
X50464Y157500D02*
X43536D01*
X43590Y157086D01*
X43943Y156235D01*
X44504Y155504D01*
X45235Y154943D01*
X45573Y154803D01*
Y137000D01*
X45573Y137000D01*
X45681Y136454D01*
X45991Y135991D01*
X48481Y133500D01*
X51500D01*
Y136464D01*
X51086Y136410D01*
X50235Y136057D01*
X50080Y135939D01*
X48427Y137591D01*
Y154803D01*
X48765Y154943D01*
X49496Y155504D01*
X50057Y156235D01*
X50410Y157086D01*
X50464Y157500D01*
D02*
G37*
G36*
X147000Y185411D02*
X146460Y185304D01*
X146002Y184998D01*
X145696Y184540D01*
X145589Y184000D01*
X145696Y183460D01*
X146002Y183002D01*
X146082Y182948D01*
Y154000D01*
X146152Y153649D01*
X146351Y153351D01*
X164082Y135620D01*
Y133432D01*
X163582Y133333D01*
X163480Y133581D01*
X162942Y134281D01*
X162242Y134818D01*
X161426Y135156D01*
X160551Y135271D01*
X159676Y135156D01*
X158860Y134818D01*
X158160Y134281D01*
X157623Y133581D01*
X157285Y132765D01*
X157169Y131890D01*
X157285Y131015D01*
X157623Y130199D01*
X158160Y129499D01*
X158860Y128961D01*
X159676Y128623D01*
X160551Y128508D01*
X161426Y128623D01*
X162242Y128961D01*
X162942Y129499D01*
X163480Y130199D01*
X163582Y130447D01*
X164082Y130347D01*
Y128000D01*
X164152Y127649D01*
X164351Y127351D01*
X169607Y122095D01*
X169589Y122000D01*
X169696Y121460D01*
X170002Y121002D01*
X170460Y120696D01*
X171000Y120589D01*
X171540Y120696D01*
X171998Y121002D01*
X172304Y121460D01*
X172411Y122000D01*
X172304Y122540D01*
X171998Y122998D01*
X171540Y123304D01*
X171000Y123411D01*
X170905Y123392D01*
X165918Y128380D01*
Y136000D01*
X165848Y136351D01*
X165649Y136649D01*
X147918Y154380D01*
Y182948D01*
X147998Y183002D01*
X148304Y183460D01*
X148411Y184000D01*
X148304Y184540D01*
X147998Y184998D01*
X147540Y185304D01*
X147000Y185411D01*
D02*
G37*
G36*
X142000Y182411D02*
X141460Y182304D01*
X141002Y181998D01*
X140696Y181540D01*
X140589Y181000D01*
X140696Y180460D01*
X141002Y180002D01*
X141082Y179948D01*
Y150000D01*
X141152Y149649D01*
X141351Y149351D01*
X154082Y136620D01*
Y133432D01*
X153582Y133333D01*
X153480Y133581D01*
X152942Y134281D01*
X152242Y134818D01*
X151426Y135156D01*
X150551Y135271D01*
X149676Y135156D01*
X148860Y134818D01*
X148160Y134281D01*
X147623Y133581D01*
X147285Y132765D01*
X147169Y131890D01*
X147285Y131015D01*
X147623Y130199D01*
X148160Y129499D01*
X148860Y128961D01*
X149676Y128623D01*
X150551Y128508D01*
X151426Y128623D01*
X152242Y128961D01*
X152942Y129499D01*
X153480Y130199D01*
X153582Y130447D01*
X154082Y130347D01*
Y129000D01*
X154152Y128649D01*
X154351Y128351D01*
X161736Y120966D01*
X162033Y120767D01*
X162385Y120698D01*
X162948D01*
X163002Y120617D01*
X163460Y120311D01*
X164000Y120204D01*
X164540Y120311D01*
X164998Y120617D01*
X165304Y121075D01*
X165411Y121615D01*
X165304Y122155D01*
X164998Y122613D01*
X164540Y122919D01*
X164000Y123027D01*
X163460Y122919D01*
X163002Y122613D01*
X162525Y122773D01*
X155918Y129380D01*
Y137000D01*
X155848Y137351D01*
X155649Y137649D01*
X142918Y150380D01*
Y179948D01*
X142998Y180002D01*
X143304Y180460D01*
X143411Y181000D01*
X143304Y181540D01*
X142998Y181998D01*
X142540Y182304D01*
X142000Y182411D01*
D02*
G37*
G36*
X131051Y135811D02*
Y132390D01*
X134472D01*
X134402Y132922D01*
X134004Y133883D01*
X133370Y134709D01*
X132545Y135343D01*
X131583Y135741D01*
X131051Y135811D01*
D02*
G37*
G36*
X130051D02*
X129519Y135741D01*
X128558Y135343D01*
X127732Y134709D01*
X127099Y133883D01*
X126700Y132922D01*
X126630Y132390D01*
X130051D01*
Y135811D01*
D02*
G37*
G36*
X94504Y135843D02*
X91051D01*
Y132390D01*
X94504D01*
Y135843D01*
D02*
G37*
G36*
X90051D02*
X86598D01*
Y132390D01*
X90051D01*
Y135843D01*
D02*
G37*
G36*
X55464Y132500D02*
X52500D01*
Y129536D01*
X52914Y129590D01*
X53765Y129943D01*
X54496Y130504D01*
X55057Y131235D01*
X55410Y132086D01*
X55464Y132500D01*
D02*
G37*
G36*
X51500D02*
X48536D01*
X48590Y132086D01*
X48943Y131235D01*
X49504Y130504D01*
X50235Y129943D01*
X51086Y129590D01*
X51500Y129536D01*
Y132500D01*
D02*
G37*
G36*
X240551Y135271D02*
X239676Y135156D01*
X238860Y134818D01*
X238160Y134281D01*
X237623Y133581D01*
X237285Y132765D01*
X237170Y131890D01*
X237285Y131015D01*
X237623Y130199D01*
X238160Y129499D01*
X238860Y128961D01*
X239676Y128623D01*
X240551Y128508D01*
X241426Y128623D01*
X242242Y128961D01*
X242942Y129499D01*
X243480Y130199D01*
X243818Y131015D01*
X243933Y131890D01*
X243818Y132765D01*
X243480Y133581D01*
X242942Y134281D01*
X242242Y134818D01*
X241426Y135156D01*
X240551Y135271D01*
D02*
G37*
G36*
X200551D02*
X199676Y135156D01*
X198860Y134818D01*
X198160Y134281D01*
X197623Y133581D01*
X197285Y132765D01*
X197169Y131890D01*
X197285Y131015D01*
X197623Y130199D01*
X198160Y129499D01*
X198860Y128961D01*
X199676Y128623D01*
X200551Y128508D01*
X201426Y128623D01*
X202242Y128961D01*
X202942Y129499D01*
X203480Y130199D01*
X203818Y131015D01*
X203933Y131890D01*
X203818Y132765D01*
X203480Y133581D01*
X202942Y134281D01*
X202242Y134818D01*
X201426Y135156D01*
X200551Y135271D01*
D02*
G37*
G36*
X190551D02*
X189676Y135156D01*
X188860Y134818D01*
X188160Y134281D01*
X187623Y133581D01*
X187285Y132765D01*
X187170Y131890D01*
X187285Y131015D01*
X187623Y130199D01*
X188160Y129499D01*
X188860Y128961D01*
X189676Y128623D01*
X190551Y128508D01*
X191426Y128623D01*
X192242Y128961D01*
X192942Y129499D01*
X193480Y130199D01*
X193818Y131015D01*
X193933Y131890D01*
X193818Y132765D01*
X193480Y133581D01*
X192942Y134281D01*
X192242Y134818D01*
X191426Y135156D01*
X190551Y135271D01*
D02*
G37*
G36*
X180551D02*
X179676Y135156D01*
X178860Y134818D01*
X178160Y134281D01*
X177623Y133581D01*
X177285Y132765D01*
X177170Y131890D01*
X177285Y131015D01*
X177623Y130199D01*
X178160Y129499D01*
X178860Y128961D01*
X179676Y128623D01*
X180551Y128508D01*
X181426Y128623D01*
X182242Y128961D01*
X182942Y129499D01*
X183480Y130199D01*
X183818Y131015D01*
X183933Y131890D01*
X183818Y132765D01*
X183480Y133581D01*
X182942Y134281D01*
X182242Y134818D01*
X181426Y135156D01*
X180551Y135271D01*
D02*
G37*
G36*
X170551D02*
X169676Y135156D01*
X168860Y134818D01*
X168160Y134281D01*
X167623Y133581D01*
X167285Y132765D01*
X167169Y131890D01*
X167285Y131015D01*
X167623Y130199D01*
X168160Y129499D01*
X168860Y128961D01*
X169676Y128623D01*
X170551Y128508D01*
X171426Y128623D01*
X172242Y128961D01*
X172942Y129499D01*
X173480Y130199D01*
X173818Y131015D01*
X173933Y131890D01*
X173818Y132765D01*
X173480Y133581D01*
X172942Y134281D01*
X172242Y134818D01*
X171426Y135156D01*
X170551Y135271D01*
D02*
G37*
G36*
X140551D02*
X139676Y135156D01*
X138860Y134818D01*
X138160Y134281D01*
X137623Y133581D01*
X137285Y132765D01*
X137170Y131890D01*
X137285Y131015D01*
X137623Y130199D01*
X138160Y129499D01*
X138860Y128961D01*
X139676Y128623D01*
X140551Y128508D01*
X141426Y128623D01*
X142242Y128961D01*
X142942Y129499D01*
X143480Y130199D01*
X143818Y131015D01*
X143933Y131890D01*
X143818Y132765D01*
X143480Y133581D01*
X142942Y134281D01*
X142242Y134818D01*
X141426Y135156D01*
X140551Y135271D01*
D02*
G37*
G36*
X120551D02*
X119676Y135156D01*
X118860Y134818D01*
X118160Y134281D01*
X117623Y133581D01*
X117285Y132765D01*
X117169Y131890D01*
X117285Y131015D01*
X117623Y130199D01*
X118160Y129499D01*
X118860Y128961D01*
X119676Y128623D01*
X120551Y128508D01*
X121426Y128623D01*
X122242Y128961D01*
X122942Y129499D01*
X123480Y130199D01*
X123818Y131015D01*
X123933Y131890D01*
X123818Y132765D01*
X123480Y133581D01*
X122942Y134281D01*
X122242Y134818D01*
X121426Y135156D01*
X120551Y135271D01*
D02*
G37*
G36*
X110551D02*
X109676Y135156D01*
X108860Y134818D01*
X108160Y134281D01*
X107623Y133581D01*
X107285Y132765D01*
X107169Y131890D01*
X107285Y131015D01*
X107623Y130199D01*
X108160Y129499D01*
X108860Y128961D01*
X109676Y128623D01*
X110551Y128508D01*
X111426Y128623D01*
X112242Y128961D01*
X112942Y129499D01*
X113480Y130199D01*
X113818Y131015D01*
X113933Y131890D01*
X113818Y132765D01*
X113480Y133581D01*
X112942Y134281D01*
X112242Y134818D01*
X111426Y135156D01*
X110551Y135271D01*
D02*
G37*
G36*
X100551D02*
X99676Y135156D01*
X98860Y134818D01*
X98160Y134281D01*
X97623Y133581D01*
X97285Y132765D01*
X97170Y131890D01*
X97285Y131015D01*
X97623Y130199D01*
X98160Y129499D01*
X98860Y128961D01*
X99676Y128623D01*
X100551Y128508D01*
X101426Y128623D01*
X102242Y128961D01*
X102942Y129499D01*
X103480Y130199D01*
X103818Y131015D01*
X103933Y131890D01*
X103818Y132765D01*
X103480Y133581D01*
X102942Y134281D01*
X102242Y134818D01*
X101426Y135156D01*
X100551Y135271D01*
D02*
G37*
G36*
X43754Y129835D02*
X42331D01*
Y128411D01*
X42605Y128465D01*
X43261Y128904D01*
X43700Y129560D01*
X43754Y129835D01*
D02*
G37*
G36*
X32669D02*
X31246D01*
X31300Y129560D01*
X31739Y128904D01*
X32395Y128465D01*
X32669Y128411D01*
Y129835D01*
D02*
G37*
G36*
X134472Y131390D02*
X131051D01*
Y127969D01*
X131583Y128039D01*
X132545Y128437D01*
X133370Y129071D01*
X134004Y129896D01*
X134402Y130858D01*
X134472Y131390D01*
D02*
G37*
G36*
X130051D02*
X126630D01*
X126700Y130858D01*
X127099Y129896D01*
X127732Y129071D01*
X128558Y128437D01*
X129519Y128039D01*
X130051Y127969D01*
Y131390D01*
D02*
G37*
G36*
X94504D02*
X91051D01*
Y127937D01*
X94504D01*
Y131390D01*
D02*
G37*
G36*
X90051D02*
X86598D01*
Y127937D01*
X90051D01*
Y131390D01*
D02*
G37*
G36*
X296118Y133697D02*
X290500D01*
Y125992D01*
X296118D01*
Y133697D01*
D02*
G37*
G36*
X289500D02*
X283882D01*
Y125992D01*
X289500D01*
Y133697D01*
D02*
G37*
G36*
X375500Y126924D02*
Y125500D01*
X376924D01*
X376869Y125774D01*
X376431Y126431D01*
X375774Y126869D01*
X375500Y126924D01*
D02*
G37*
G36*
X374500D02*
X374226Y126869D01*
X373569Y126431D01*
X373131Y125774D01*
X373076Y125500D01*
X374500D01*
Y126924D01*
D02*
G37*
G36*
X255000Y128250D02*
X252000D01*
Y124500D01*
X255000D01*
Y128250D01*
D02*
G37*
G36*
X251000D02*
X248000D01*
Y124500D01*
X251000D01*
Y128250D01*
D02*
G37*
G36*
X282000D02*
X279000D01*
Y124500D01*
X282000D01*
Y128250D01*
D02*
G37*
G36*
X278000D02*
X275000D01*
Y124500D01*
X278000D01*
Y128250D01*
D02*
G37*
G36*
X376924Y124500D02*
X375500D01*
Y123076D01*
X375774Y123131D01*
X376431Y123569D01*
X376869Y124226D01*
X376924Y124500D01*
D02*
G37*
G36*
X368589Y124933D02*
X364839D01*
Y121433D01*
Y117933D01*
X368589D01*
Y120515D01*
X371433D01*
X371784Y120585D01*
X372082Y120784D01*
X374395Y123097D01*
X374500Y123076D01*
Y124500D01*
X373076D01*
X373097Y124395D01*
X371053Y122351D01*
X368589D01*
Y124933D01*
D02*
G37*
G36*
X363839D02*
X360089D01*
Y121933D01*
X363839D01*
Y124933D01*
D02*
G37*
G36*
X282000Y123500D02*
X279000D01*
Y119750D01*
X282000D01*
Y123500D01*
D02*
G37*
G36*
X278000D02*
X275000D01*
Y119750D01*
X278000D01*
Y123500D01*
D02*
G37*
G36*
X255000Y123500D02*
X252000D01*
Y119750D01*
X255000D01*
Y123500D01*
D02*
G37*
G36*
X251000D02*
X248000D01*
Y119750D01*
X251000D01*
Y123500D01*
D02*
G37*
G36*
X363839Y120933D02*
X360089D01*
Y117933D01*
X363839D01*
Y120933D01*
D02*
G37*
G36*
X205250Y120000D02*
X201500D01*
Y117000D01*
X205250D01*
Y120000D01*
D02*
G37*
G36*
X200500D02*
X196750D01*
Y117000D01*
X200500D01*
Y120000D01*
D02*
G37*
G36*
X187000Y117411D02*
X186460Y117304D01*
X186002Y116998D01*
X185948Y116918D01*
X116052D01*
X115998Y116998D01*
X115540Y117304D01*
X115000Y117411D01*
X114460Y117304D01*
X114002Y116998D01*
X113696Y116540D01*
X113589Y116000D01*
X113696Y115460D01*
X114002Y115002D01*
X114460Y114696D01*
X115000Y114589D01*
X115540Y114696D01*
X115998Y115002D01*
X116052Y115082D01*
X185948D01*
X186002Y115002D01*
X186460Y114696D01*
X187000Y114589D01*
X187540Y114696D01*
X187998Y115002D01*
X188304Y115460D01*
X188411Y116000D01*
X188304Y116540D01*
X187998Y116998D01*
X187540Y117304D01*
X187000Y117411D01*
D02*
G37*
G36*
X214067Y119299D02*
X211500D01*
Y116240D01*
X214067D01*
Y119299D01*
D02*
G37*
G36*
X210500D02*
X207933D01*
Y116240D01*
X210500D01*
Y119299D01*
D02*
G37*
G36*
X205250Y116000D02*
X201500D01*
Y113000D01*
X205250D01*
Y116000D01*
D02*
G37*
G36*
X200500D02*
X196750D01*
Y113000D01*
X200500D01*
Y116000D01*
D02*
G37*
G36*
X214067Y115240D02*
X211500D01*
Y112181D01*
X214067D01*
Y115240D01*
D02*
G37*
G36*
X210500D02*
X207933D01*
Y112181D01*
X210500D01*
Y115240D01*
D02*
G37*
G36*
X190000Y114411D02*
X189460Y114304D01*
X189002Y113998D01*
X188948Y113918D01*
X118000D01*
X117649Y113848D01*
X117351Y113649D01*
X115095Y111392D01*
X115000Y111411D01*
X114460Y111304D01*
X114002Y110998D01*
X113696Y110540D01*
X113589Y110000D01*
X113696Y109460D01*
X114002Y109002D01*
X114460Y108696D01*
X115000Y108589D01*
X115540Y108696D01*
X115998Y109002D01*
X116304Y109460D01*
X116411Y110000D01*
X116393Y110095D01*
X118380Y112082D01*
X188948D01*
X189002Y112002D01*
X189460Y111696D01*
X190000Y111589D01*
X190540Y111696D01*
X190998Y112002D01*
X191304Y112460D01*
X191411Y113000D01*
X191304Y113540D01*
X190998Y113998D01*
X190540Y114304D01*
X190000Y114411D01*
D02*
G37*
G36*
X341000Y123427D02*
X340454Y123319D01*
X339991Y123009D01*
X339681Y122546D01*
X339573Y122000D01*
Y121827D01*
X339573Y121827D01*
X339681Y121281D01*
X339991Y120817D01*
X345533Y115275D01*
Y110391D01*
X351254D01*
Y118475D01*
X346371D01*
X342324Y122522D01*
X342319Y122546D01*
X342009Y123009D01*
X341546Y123319D01*
X341000Y123427D01*
D02*
G37*
G36*
X190000Y110411D02*
X189460Y110304D01*
X189002Y109998D01*
X188696Y109540D01*
X188589Y109000D01*
X188608Y108905D01*
X187620Y107918D01*
X111000D01*
X110649Y107848D01*
X110351Y107649D01*
X105095Y102392D01*
X105000Y102411D01*
X104460Y102304D01*
X104002Y101998D01*
X103696Y101540D01*
X103589Y101000D01*
X103696Y100460D01*
X104002Y100002D01*
X104460Y99696D01*
X105000Y99589D01*
X105540Y99696D01*
X105998Y100002D01*
X106304Y100460D01*
X106411Y101000D01*
X106393Y101095D01*
X111380Y106082D01*
X188000D01*
X188351Y106152D01*
X188649Y106351D01*
X189905Y107607D01*
X190000Y107589D01*
X190540Y107696D01*
X190998Y108002D01*
X191304Y108460D01*
X191411Y109000D01*
X191304Y109540D01*
X190998Y109998D01*
X190540Y110304D01*
X190000Y110411D01*
D02*
G37*
G36*
X272400Y127650D02*
X266600D01*
Y120350D01*
X268582D01*
Y111713D01*
X268633Y111459D01*
X268424Y111187D01*
X267987Y110132D01*
X267838Y109000D01*
X267987Y107868D01*
X268424Y106813D01*
X268556Y106641D01*
X266832Y104918D01*
X255625D01*
X255456Y105418D01*
X256093Y105907D01*
X256788Y106813D01*
X257225Y107868D01*
X257374Y109000D01*
X257225Y110132D01*
X256788Y111187D01*
X256657Y111359D01*
X261149Y115851D01*
X261348Y116149D01*
X261418Y116500D01*
Y120350D01*
X263400D01*
Y127650D01*
X257600D01*
Y120350D01*
X259582D01*
Y116880D01*
X255359Y112657D01*
X255187Y112788D01*
X254132Y113225D01*
X253000Y113374D01*
X251868Y113225D01*
X250813Y112788D01*
X249907Y112093D01*
X249212Y111187D01*
X248775Y110132D01*
X248746Y109918D01*
X245000D01*
X244649Y109848D01*
X244351Y109649D01*
X235367Y100665D01*
X235168Y100367D01*
X235098Y100016D01*
Y93791D01*
X234547D01*
Y90035D01*
Y86279D01*
X235638D01*
Y86879D01*
X239035D01*
Y85333D01*
X238095Y84392D01*
X238000Y84411D01*
X237460Y84304D01*
X237002Y83998D01*
X236696Y83540D01*
X236589Y83000D01*
X236696Y82460D01*
X237002Y82002D01*
X237460Y81696D01*
X238000Y81589D01*
X238540Y81696D01*
X238998Y82002D01*
X239304Y82460D01*
X239411Y83000D01*
X239392Y83095D01*
X240582Y84285D01*
X240665Y84280D01*
X241082Y84123D01*
Y81052D01*
X241002Y80998D01*
X240696Y80540D01*
X240589Y80000D01*
X240696Y79460D01*
X241002Y79002D01*
X241460Y78696D01*
X242000Y78589D01*
X242540Y78696D01*
X242998Y79002D01*
X243304Y79460D01*
X243411Y80000D01*
X243304Y80540D01*
X243222Y80663D01*
X243248Y80747D01*
X243812Y80890D01*
X244607Y80095D01*
X244589Y80000D01*
X244696Y79460D01*
X245002Y79002D01*
X245460Y78696D01*
X246000Y78589D01*
X246540Y78696D01*
X246998Y79002D01*
X247304Y79460D01*
X247411Y80000D01*
X247304Y80540D01*
X246998Y80998D01*
X246825Y81114D01*
X246987Y81553D01*
X247011Y81591D01*
X247540Y81696D01*
X247998Y82002D01*
X248304Y82460D01*
X248411Y83000D01*
X248304Y83540D01*
X247998Y83998D01*
X247540Y84304D01*
X247000Y84411D01*
X246776Y84862D01*
Y86879D01*
X248817D01*
Y93191D01*
X248744D01*
Y94447D01*
X250880Y96582D01*
X290600D01*
Y95898D01*
X289620Y94918D01*
X288052D01*
X287998Y94998D01*
X287540Y95304D01*
X287000Y95411D01*
X286460Y95304D01*
X286002Y94998D01*
X285696Y94540D01*
X285589Y94000D01*
X285696Y93460D01*
X286002Y93002D01*
X286460Y92696D01*
X287000Y92589D01*
X287540Y92696D01*
X287998Y93002D01*
X288052Y93082D01*
X290000D01*
X290351Y93152D01*
X290649Y93351D01*
X291148Y93850D01*
X296400D01*
Y101150D01*
X290600D01*
Y98418D01*
X250500D01*
X250149Y98348D01*
X249851Y98149D01*
X247178Y95476D01*
X246979Y95178D01*
X246909Y94827D01*
Y93191D01*
X240870D01*
Y94573D01*
X246380Y100082D01*
X287000D01*
X287351Y100152D01*
X287649Y100351D01*
X291148Y103850D01*
X296400D01*
Y111150D01*
X290600D01*
Y105898D01*
X286620Y101918D01*
X246000D01*
X245649Y101848D01*
X245351Y101649D01*
X239402Y95700D01*
X239017Y95806D01*
X238902Y95889D01*
Y96604D01*
X245343Y103045D01*
X255086D01*
X255272Y103082D01*
X267213D01*
X267564Y103152D01*
X267862Y103351D01*
X269854Y105343D01*
X270025Y105212D01*
X271080Y104775D01*
X272213Y104626D01*
X273345Y104775D01*
X274400Y105212D01*
X275306Y105907D01*
X276001Y106813D01*
X276438Y107868D01*
X276587Y109000D01*
X276438Y110132D01*
X276001Y111187D01*
X275306Y112093D01*
X274400Y112788D01*
X273345Y113225D01*
X272213Y113374D01*
X271080Y113225D01*
X270833Y113123D01*
X270418Y113401D01*
Y120350D01*
X272400D01*
Y127650D01*
D02*
G37*
G36*
X323000Y126411D02*
X322460Y126304D01*
X322002Y125998D01*
X321696Y125540D01*
X321589Y125000D01*
X321696Y124460D01*
X322002Y124002D01*
X322082Y123948D01*
Y103380D01*
X320095Y101392D01*
X320000Y101411D01*
X319460Y101304D01*
X319002Y100998D01*
X318696Y100540D01*
X318589Y100000D01*
X318696Y99460D01*
X319002Y99002D01*
X319460Y98696D01*
X320000Y98589D01*
X320540Y98696D01*
X320998Y99002D01*
X321304Y99460D01*
X321411Y100000D01*
X321392Y100095D01*
X323649Y102351D01*
X323848Y102649D01*
X323918Y103000D01*
Y123948D01*
X323998Y124002D01*
X324304Y124460D01*
X324411Y125000D01*
X324304Y125540D01*
X323998Y125998D01*
X323540Y126304D01*
X323000Y126411D01*
D02*
G37*
G36*
X421276Y96787D02*
X416839D01*
Y93433D01*
X421276D01*
Y96787D01*
D02*
G37*
G36*
X388598D02*
X384161D01*
Y93433D01*
X388598D01*
Y96787D01*
D02*
G37*
G36*
X415839D02*
X411402D01*
Y93433D01*
X415839D01*
Y96787D01*
D02*
G37*
G36*
X383161D02*
X378724D01*
Y93433D01*
X383161D01*
Y96787D01*
D02*
G37*
G36*
X406000Y114411D02*
X405460Y114304D01*
X405002Y113998D01*
X404696Y113540D01*
X404589Y113000D01*
X404696Y112460D01*
X405002Y112002D01*
X405082Y111948D01*
Y98380D01*
X397095Y90393D01*
X397000Y90411D01*
X396460Y90304D01*
X396002Y89998D01*
X395696Y89540D01*
X395589Y89000D01*
X395696Y88460D01*
X396002Y88002D01*
X396460Y87696D01*
X397000Y87589D01*
X397540Y87696D01*
X397998Y88002D01*
X398304Y88460D01*
X398411Y89000D01*
X398393Y89095D01*
X406649Y97351D01*
X406848Y97649D01*
X406918Y98000D01*
Y111948D01*
X406998Y112002D01*
X407304Y112460D01*
X407411Y113000D01*
X407304Y113540D01*
X406998Y113998D01*
X406540Y114304D01*
X406000Y114411D01*
D02*
G37*
G36*
X183500Y93000D02*
X180500D01*
Y89250D01*
X183500D01*
Y93000D01*
D02*
G37*
G36*
X421276Y92433D02*
X416839D01*
Y89079D01*
X421276D01*
Y92433D01*
D02*
G37*
G36*
X415839D02*
X411402D01*
Y89079D01*
X415839D01*
Y92433D01*
D02*
G37*
G36*
X388598D02*
X384161D01*
Y89079D01*
X388598D01*
Y92433D01*
D02*
G37*
G36*
X383161D02*
X378724D01*
Y89079D01*
X383161D01*
Y92433D01*
D02*
G37*
G36*
X43000Y89517D02*
Y85500D01*
X47017D01*
X46926Y86186D01*
X46469Y87291D01*
X45740Y88240D01*
X44791Y88969D01*
X43686Y89426D01*
X43000Y89517D01*
D02*
G37*
G36*
X42000D02*
X41314Y89426D01*
X40209Y88969D01*
X39260Y88240D01*
X38531Y87291D01*
X38074Y86186D01*
X37983Y85500D01*
X42000D01*
Y89517D01*
D02*
G37*
G36*
X284000Y92411D02*
X283460Y92304D01*
X283002Y91998D01*
X282696Y91540D01*
X282589Y91000D01*
X282696Y90460D01*
X283002Y90002D01*
X283460Y89696D01*
X284000Y89589D01*
X284095Y89608D01*
X286851Y86851D01*
X287149Y86652D01*
X287500Y86582D01*
X290600D01*
Y85898D01*
X289947Y85244D01*
X256691D01*
Y85317D01*
X250379D01*
Y83336D01*
Y79399D01*
Y75462D01*
Y71525D01*
Y67588D01*
Y64264D01*
X249780D01*
Y63173D01*
X253535D01*
X257291D01*
Y64264D01*
X256691D01*
Y67661D01*
X260041D01*
X264082Y63620D01*
Y48380D01*
X261102Y45400D01*
X255850D01*
Y39600D01*
X263150D01*
Y44852D01*
X265649Y47351D01*
X265848Y47649D01*
X265918Y48000D01*
Y64000D01*
X265848Y64351D01*
X265649Y64649D01*
X261168Y69130D01*
X261275Y69514D01*
X261357Y69630D01*
X264073D01*
X268582Y65120D01*
Y45400D01*
X265850D01*
Y39600D01*
X273150D01*
Y45400D01*
X270418D01*
Y65500D01*
X270348Y65851D01*
X270149Y66149D01*
X265200Y71098D01*
X265306Y71483D01*
X265389Y71598D01*
X267104D01*
X278582Y60120D01*
Y45400D01*
X275850D01*
Y39600D01*
X283150D01*
Y45400D01*
X280418D01*
Y60500D01*
X280348Y60851D01*
X280149Y61149D01*
X268231Y73067D01*
X268338Y73451D01*
X268420Y73567D01*
X269136D01*
X284082Y58620D01*
Y46000D01*
X284152Y45649D01*
X284351Y45351D01*
X290600Y39102D01*
Y33850D01*
X296400D01*
Y41150D01*
X291148D01*
X285918Y46380D01*
Y53100D01*
X286149Y53234D01*
X286418Y53285D01*
X290600Y49102D01*
Y43850D01*
X296400D01*
Y51150D01*
X291148D01*
X287918Y54380D01*
Y60000D01*
X287848Y60351D01*
X287649Y60649D01*
X271294Y77004D01*
X271401Y77388D01*
X271483Y77504D01*
X272199D01*
X290600Y59102D01*
Y53850D01*
X296400D01*
Y61150D01*
X291148D01*
X273326Y78972D01*
X273432Y79357D01*
X273515Y79472D01*
X280230D01*
X290600Y69102D01*
Y63850D01*
X296400D01*
Y71150D01*
X291148D01*
X281357Y80941D01*
X281464Y81325D01*
X281546Y81441D01*
X288262D01*
X290600Y79102D01*
Y73850D01*
X296400D01*
Y81150D01*
X291148D01*
X289389Y82909D01*
X289495Y83294D01*
X289578Y83409D01*
X290327D01*
X290678Y83479D01*
X290976Y83678D01*
X291148Y83850D01*
X296400D01*
Y91150D01*
X290600D01*
Y88418D01*
X287880D01*
X285392Y90905D01*
X285411Y91000D01*
X285304Y91540D01*
X284998Y91998D01*
X284540Y92304D01*
X284000Y92411D01*
D02*
G37*
G36*
X187500Y93000D02*
X184500D01*
Y89250D01*
X185014D01*
X185282Y88750D01*
X185131Y88524D01*
X184977Y87750D01*
X184000D01*
Y84000D01*
X187000D01*
Y85727D01*
X187774Y85881D01*
X188431Y86319D01*
X188869Y86976D01*
X188924Y87250D01*
X187000D01*
Y88250D01*
X188924D01*
X188869Y88524D01*
X188431Y89181D01*
X187774Y89619D01*
X187500Y89674D01*
Y93000D01*
D02*
G37*
G36*
X183000Y87750D02*
X180000D01*
Y84000D01*
X183000D01*
Y87750D01*
D02*
G37*
G36*
X22815Y88977D02*
X21786Y88842D01*
X20826Y88445D01*
X20003Y87812D01*
X19371Y86989D01*
X18973Y86029D01*
X18838Y85000D01*
X18973Y83971D01*
X19371Y83011D01*
X20003Y82188D01*
X20826Y81555D01*
X21786Y81158D01*
X22815Y81023D01*
X23844Y81158D01*
X24804Y81555D01*
X25627Y82188D01*
X26259Y83011D01*
X26657Y83971D01*
X26792Y85000D01*
X26657Y86029D01*
X26259Y86989D01*
X25627Y87812D01*
X24804Y88445D01*
X23844Y88842D01*
X22815Y88977D01*
D02*
G37*
G36*
X47017Y84500D02*
X43000D01*
Y80483D01*
X43686Y80574D01*
X44791Y81031D01*
X45740Y81760D01*
X46469Y82709D01*
X46926Y83814D01*
X47017Y84500D01*
D02*
G37*
G36*
X42000D02*
X37983D01*
X38074Y83814D01*
X38531Y82709D01*
X39260Y81760D01*
X40209Y81031D01*
X41314Y80574D01*
X42000Y80483D01*
Y84500D01*
D02*
G37*
G36*
X305000Y81750D02*
X302000D01*
Y78000D01*
X305000D01*
Y81750D01*
D02*
G37*
G36*
X301000D02*
X298000D01*
Y78000D01*
X301000D01*
Y81750D01*
D02*
G37*
G36*
X33158Y79674D02*
Y75657D01*
X37174D01*
X37084Y76344D01*
X36626Y77449D01*
X35898Y78398D01*
X34949Y79126D01*
X33843Y79584D01*
X33158Y79674D01*
D02*
G37*
G36*
X32157D02*
X31471Y79584D01*
X30366Y79126D01*
X29417Y78398D01*
X28689Y77449D01*
X28231Y76344D01*
X28141Y75657D01*
X32157D01*
Y79674D01*
D02*
G37*
G36*
X13472D02*
Y75657D01*
X17489D01*
X17399Y76344D01*
X16941Y77449D01*
X16213Y78398D01*
X15264Y79126D01*
X14159Y79584D01*
X13472Y79674D01*
D02*
G37*
G36*
X12472D02*
X11786Y79584D01*
X10681Y79126D01*
X9732Y78398D01*
X9004Y77449D01*
X8546Y76344D01*
X8456Y75657D01*
X12472D01*
Y79674D01*
D02*
G37*
G36*
X305000Y77000D02*
X302000D01*
Y73250D01*
X305000D01*
Y77000D01*
D02*
G37*
G36*
X301000D02*
X298000D01*
Y73250D01*
X301000D01*
Y77000D01*
D02*
G37*
G36*
X37174Y74657D02*
X33158D01*
Y70641D01*
X33843Y70731D01*
X34949Y71189D01*
X35898Y71917D01*
X36626Y72866D01*
X37084Y73971D01*
X37174Y74657D01*
D02*
G37*
G36*
X32157D02*
X28141D01*
X28231Y73971D01*
X28689Y72866D01*
X29417Y71917D01*
X30366Y71189D01*
X31471Y70731D01*
X32157Y70641D01*
Y74657D01*
D02*
G37*
G36*
X17489D02*
X13472D01*
Y70641D01*
X14159Y70731D01*
X15264Y71189D01*
X16213Y71917D01*
X16941Y72866D01*
X17399Y73971D01*
X17489Y74657D01*
D02*
G37*
G36*
X12472D02*
X8456D01*
X8546Y73971D01*
X9004Y72866D01*
X9732Y71917D01*
X10681Y71189D01*
X11786Y70731D01*
X12472Y70641D01*
Y74657D01*
D02*
G37*
G36*
X183000Y73000D02*
X180000D01*
Y69250D01*
X183000D01*
Y73000D01*
D02*
G37*
G36*
X305000Y71750D02*
X302000D01*
Y68000D01*
X305000D01*
Y71750D01*
D02*
G37*
G36*
X301000D02*
X298000D01*
Y68000D01*
X301000D01*
Y71750D01*
D02*
G37*
G36*
X182087Y66961D02*
X178437D01*
Y64000D01*
X182087D01*
Y66961D01*
D02*
G37*
G36*
X305000Y67000D02*
X302000D01*
Y63250D01*
X305000D01*
Y67000D01*
D02*
G37*
G36*
X301000D02*
X298000D01*
Y63250D01*
X301000D01*
Y67000D01*
D02*
G37*
G36*
X224220Y64142D02*
X220464D01*
X216709D01*
Y63051D01*
X217309D01*
Y61683D01*
X223621D01*
Y63051D01*
X224220D01*
Y64142D01*
D02*
G37*
G36*
X42500Y69292D02*
X41471Y69157D01*
X40511Y68759D01*
X39688Y68127D01*
X39055Y67304D01*
X38658Y66344D01*
X38523Y65315D01*
X38658Y64286D01*
X39055Y63326D01*
X39688Y62503D01*
X40511Y61870D01*
X41471Y61473D01*
X42500Y61338D01*
X43529Y61473D01*
X44489Y61870D01*
X45312Y62503D01*
X45944Y63326D01*
X46342Y64286D01*
X46477Y65315D01*
X46342Y66344D01*
X45944Y67304D01*
X45312Y68127D01*
X44489Y68759D01*
X43529Y69157D01*
X42500Y69292D01*
D02*
G37*
G36*
X22815D02*
X21786Y69157D01*
X20826Y68759D01*
X20003Y68127D01*
X19371Y67304D01*
X18973Y66344D01*
X18838Y65315D01*
X18973Y64286D01*
X19371Y63326D01*
X20003Y62503D01*
X20826Y61870D01*
X21786Y61473D01*
X22815Y61338D01*
X23844Y61473D01*
X24804Y61870D01*
X25627Y62503D01*
X26259Y63326D01*
X26657Y64286D01*
X26792Y65315D01*
X26657Y66344D01*
X26259Y67304D01*
X25627Y68127D01*
X24804Y68759D01*
X23844Y69157D01*
X22815Y69292D01*
D02*
G37*
G36*
X257291Y62173D02*
X254035D01*
Y61083D01*
X257291D01*
Y62173D01*
D02*
G37*
G36*
X253035D02*
X249780D01*
Y61083D01*
X253035D01*
Y62173D01*
D02*
G37*
G36*
X182087Y63000D02*
X178437D01*
Y60039D01*
X182087D01*
Y63000D01*
D02*
G37*
G36*
X161594Y66031D02*
X160617Y65902D01*
X159705Y65525D01*
X158923Y64924D01*
X158322Y64141D01*
X157945Y63230D01*
X157816Y62252D01*
X157945Y61274D01*
X158322Y60363D01*
X158923Y59580D01*
X159705Y58979D01*
X160617Y58602D01*
X161594Y58473D01*
X162573Y58602D01*
X163484Y58979D01*
X164267Y59580D01*
X164867Y60363D01*
X165244Y61274D01*
X165373Y62252D01*
X165244Y63230D01*
X164867Y64141D01*
X164267Y64924D01*
X163484Y65525D01*
X162573Y65902D01*
X161594Y66031D01*
D02*
G37*
G36*
X151594D02*
X150617Y65902D01*
X149705Y65525D01*
X148923Y64924D01*
X148322Y64141D01*
X147944Y63230D01*
X147816Y62252D01*
X147944Y61274D01*
X148322Y60363D01*
X148923Y59580D01*
X149705Y58979D01*
X150617Y58602D01*
X151594Y58473D01*
X152573Y58602D01*
X153484Y58979D01*
X154267Y59580D01*
X154867Y60363D01*
X155245Y61274D01*
X155373Y62252D01*
X155245Y63230D01*
X154867Y64141D01*
X154267Y64924D01*
X153484Y65525D01*
X152573Y65902D01*
X151594Y66031D01*
D02*
G37*
G36*
X141595D02*
X140617Y65902D01*
X139705Y65525D01*
X138923Y64924D01*
X138322Y64141D01*
X137944Y63230D01*
X137816Y62252D01*
X137944Y61274D01*
X138322Y60363D01*
X138923Y59580D01*
X139705Y58979D01*
X140617Y58602D01*
X141595Y58473D01*
X142572Y58602D01*
X143484Y58979D01*
X144266Y59580D01*
X144867Y60363D01*
X145245Y61274D01*
X145373Y62252D01*
X145245Y63230D01*
X144867Y64141D01*
X144266Y64924D01*
X143484Y65525D01*
X142572Y65902D01*
X141595Y66031D01*
D02*
G37*
G36*
X131595D02*
X130616Y65902D01*
X129705Y65525D01*
X128922Y64924D01*
X128322Y64141D01*
X127945Y63230D01*
X127816Y62252D01*
X127945Y61274D01*
X128322Y60363D01*
X128922Y59580D01*
X129705Y58979D01*
X130616Y58602D01*
X131595Y58473D01*
X132572Y58602D01*
X133484Y58979D01*
X134266Y59580D01*
X134867Y60363D01*
X135245Y61274D01*
X135373Y62252D01*
X135245Y63230D01*
X134867Y64141D01*
X134266Y64924D01*
X133484Y65525D01*
X132572Y65902D01*
X131595Y66031D01*
D02*
G37*
G36*
X305000Y61750D02*
X302000D01*
Y58000D01*
X305000D01*
Y61750D01*
D02*
G37*
G36*
X301000D02*
X298000D01*
Y58000D01*
X301000D01*
Y61750D01*
D02*
G37*
G36*
X96000Y62000D02*
X92500D01*
Y57500D01*
X96000D01*
Y62000D01*
D02*
G37*
G36*
X91500D02*
X88000D01*
Y57500D01*
X91500D01*
Y62000D01*
D02*
G37*
G36*
X183000Y57750D02*
X180000D01*
Y54000D01*
X183000D01*
Y57750D01*
D02*
G37*
G36*
X345000Y60382D02*
X344125Y60266D01*
X343309Y59929D01*
X342609Y59391D01*
X342071Y58691D01*
X341734Y57875D01*
X341618Y57000D01*
X341734Y56125D01*
X341843Y55861D01*
X335991Y50009D01*
X335681Y49546D01*
X335573Y49000D01*
X335573Y49000D01*
Y25343D01*
X335573Y25343D01*
X335681Y24796D01*
X335991Y24333D01*
X345555Y14769D01*
X345138Y13761D01*
X344972Y12500D01*
X345138Y11239D01*
X345624Y10065D01*
X346398Y9056D01*
X347407Y8282D01*
X348582Y7795D01*
X349843Y7629D01*
X351103Y7795D01*
X352278Y8282D01*
X353287Y9056D01*
X354061Y10065D01*
X354547Y11239D01*
X354713Y12500D01*
X354547Y13761D01*
X354061Y14935D01*
X353287Y15944D01*
X352278Y16718D01*
X351103Y17205D01*
X349843Y17371D01*
X348582Y17205D01*
X347574Y16787D01*
X338427Y25934D01*
Y48409D01*
X343861Y53843D01*
X344125Y53734D01*
X345000Y53618D01*
X345875Y53734D01*
X346691Y54071D01*
X347391Y54609D01*
X347929Y55309D01*
X348266Y56125D01*
X348382Y57000D01*
X348266Y57875D01*
X347929Y58691D01*
X347391Y59391D01*
X346691Y59929D01*
X345875Y60266D01*
X345000Y60382D01*
D02*
G37*
G36*
X305000Y57000D02*
X302000D01*
Y53250D01*
X305000D01*
Y57000D01*
D02*
G37*
G36*
X301000D02*
X298000D01*
Y53250D01*
X301000D01*
Y57000D01*
D02*
G37*
G36*
X96000Y56500D02*
X92500D01*
Y52000D01*
X96000D01*
Y56500D01*
D02*
G37*
G36*
X91500D02*
X88000D01*
Y52000D01*
X91500D01*
Y56500D01*
D02*
G37*
G36*
X187000Y53000D02*
X184000D01*
Y49250D01*
X187000D01*
Y53000D01*
D02*
G37*
G36*
X183000D02*
X180000D01*
Y49250D01*
X183000D01*
Y53000D01*
D02*
G37*
G36*
X156595Y56031D02*
X155616Y55902D01*
X154705Y55524D01*
X153922Y54924D01*
X153322Y54141D01*
X152945Y53230D01*
X152816Y52252D01*
X152945Y51274D01*
X153322Y50363D01*
X153922Y49580D01*
X154705Y48979D01*
X155616Y48602D01*
X156595Y48473D01*
X157572Y48602D01*
X158484Y48979D01*
X159266Y49580D01*
X159867Y50363D01*
X160245Y51274D01*
X160373Y52252D01*
X160245Y53230D01*
X159867Y54141D01*
X159266Y54924D01*
X158484Y55524D01*
X157572Y55902D01*
X156595Y56031D01*
D02*
G37*
G36*
X146595D02*
X145616Y55902D01*
X144705Y55524D01*
X143922Y54924D01*
X143322Y54141D01*
X142945Y53230D01*
X142816Y52252D01*
X142945Y51274D01*
X143322Y50363D01*
X143922Y49580D01*
X144705Y48979D01*
X145616Y48602D01*
X146595Y48473D01*
X147573Y48602D01*
X148484Y48979D01*
X149267Y49580D01*
X149867Y50363D01*
X150244Y51274D01*
X150373Y52252D01*
X150244Y53230D01*
X149867Y54141D01*
X149267Y54924D01*
X148484Y55524D01*
X147573Y55902D01*
X146595Y56031D01*
D02*
G37*
G36*
X136594D02*
X135617Y55902D01*
X134705Y55524D01*
X133923Y54924D01*
X133322Y54141D01*
X132945Y53230D01*
X132816Y52252D01*
X132945Y51274D01*
X133322Y50363D01*
X133923Y49580D01*
X134705Y48979D01*
X135617Y48602D01*
X136594Y48473D01*
X137573Y48602D01*
X138484Y48979D01*
X139267Y49580D01*
X139867Y50363D01*
X140244Y51274D01*
X140373Y52252D01*
X140244Y53230D01*
X139867Y54141D01*
X139267Y54924D01*
X138484Y55524D01*
X137573Y55902D01*
X136594Y56031D01*
D02*
G37*
G36*
X126594D02*
X125617Y55902D01*
X124705Y55524D01*
X123923Y54924D01*
X123322Y54141D01*
X122944Y53230D01*
X122816Y52252D01*
X122944Y51274D01*
X123322Y50363D01*
X123923Y49580D01*
X124705Y48979D01*
X125617Y48602D01*
X126594Y48473D01*
X127573Y48602D01*
X128484Y48979D01*
X129267Y49580D01*
X129867Y50363D01*
X130245Y51274D01*
X130373Y52252D01*
X130245Y53230D01*
X129867Y54141D01*
X129267Y54924D01*
X128484Y55524D01*
X127573Y55902D01*
X126594Y56031D01*
D02*
G37*
G36*
X305000Y51750D02*
X302000D01*
Y48000D01*
X305000D01*
Y51750D01*
D02*
G37*
G36*
X301000D02*
X298000D01*
Y48000D01*
X301000D01*
Y51750D01*
D02*
G37*
G36*
X224500Y45924D02*
Y44500D01*
X225924D01*
X225869Y44774D01*
X225431Y45431D01*
X224774Y45869D01*
X224500Y45924D01*
D02*
G37*
G36*
X187000Y47750D02*
X184000D01*
Y44000D01*
X187000D01*
Y47750D01*
D02*
G37*
G36*
X183000D02*
X180000D01*
Y44000D01*
X183000D01*
Y47750D01*
D02*
G37*
G36*
X305000Y47000D02*
X302000D01*
Y43250D01*
X305000D01*
Y47000D01*
D02*
G37*
G36*
X301000D02*
X298000D01*
Y43250D01*
X301000D01*
Y47000D01*
D02*
G37*
G36*
X223500Y45924D02*
X223226Y45869D01*
X222569Y45431D01*
X222131Y44774D01*
X221977Y44000D01*
X221772Y43750D01*
X220500D01*
Y40000D01*
X223500D01*
Y41567D01*
Y41682D01*
Y44000D01*
Y45924D01*
D02*
G37*
G36*
X219500Y43750D02*
X216500D01*
Y40000D01*
X219500D01*
Y43750D01*
D02*
G37*
G36*
X305000Y41750D02*
X302000D01*
Y38000D01*
X305000D01*
Y41750D01*
D02*
G37*
G36*
X301000D02*
X298000D01*
Y38000D01*
X301000D01*
Y41750D01*
D02*
G37*
G36*
X223500Y39000D02*
X220500D01*
Y35250D01*
X223500D01*
Y39000D01*
D02*
G37*
G36*
X219500D02*
X216500D01*
Y35250D01*
X219500D01*
Y39000D01*
D02*
G37*
G36*
X174587Y44488D02*
X173233Y44310D01*
X171973Y43788D01*
X170890Y42957D01*
X170059Y41874D01*
X169537Y40613D01*
X169358Y39260D01*
X169537Y37907D01*
X170059Y36646D01*
X170890Y35563D01*
X171973Y34732D01*
X173233Y34210D01*
X174587Y34032D01*
X175940Y34210D01*
X177201Y34732D01*
X178284Y35563D01*
X179114Y36646D01*
X179637Y37907D01*
X179761Y38849D01*
X180000Y39250D01*
X180296Y39250D01*
X183000D01*
Y43000D01*
X180000D01*
Y41042D01*
X179500Y40943D01*
X179114Y41874D01*
X178284Y42957D01*
X177201Y43788D01*
X175940Y44310D01*
X174587Y44488D01*
D02*
G37*
G36*
X109400Y61400D02*
X102600D01*
Y52600D01*
X105082D01*
Y46862D01*
X105152Y46511D01*
X105351Y46213D01*
X109342Y42222D01*
X109075Y41874D01*
X108552Y40613D01*
X108374Y39260D01*
X108552Y37907D01*
X109075Y36646D01*
X109906Y35563D01*
X110988Y34732D01*
X112249Y34210D01*
X113602Y34032D01*
X114955Y34210D01*
X116217Y34732D01*
X117299Y35563D01*
X118130Y36646D01*
X118652Y37907D01*
X118831Y39260D01*
X118652Y40613D01*
X118130Y41874D01*
X117299Y42957D01*
X116217Y43788D01*
X114955Y44310D01*
X113602Y44488D01*
X112249Y44310D01*
X110988Y43788D01*
X110640Y43520D01*
X106918Y47242D01*
Y52600D01*
X109400D01*
Y61400D01*
D02*
G37*
G36*
X355000Y40382D02*
X354125Y40266D01*
X353309Y39929D01*
X352609Y39391D01*
X352071Y38691D01*
X351734Y37875D01*
X351618Y37000D01*
X351734Y36125D01*
X352071Y35309D01*
X352609Y34609D01*
X353309Y34071D01*
X354125Y33734D01*
X355000Y33618D01*
X355875Y33734D01*
X356691Y34071D01*
X357391Y34609D01*
X357929Y35309D01*
X358266Y36125D01*
X358382Y37000D01*
X358266Y37875D01*
X357929Y38691D01*
X357391Y39391D01*
X356691Y39929D01*
X355875Y40266D01*
X355000Y40382D01*
D02*
G37*
G36*
X302000Y145918D02*
X259000D01*
X258649Y145848D01*
X258351Y145649D01*
X252924Y140222D01*
X246592D01*
X246538Y140302D01*
X246080Y140608D01*
X245540Y140715D01*
X245000Y140608D01*
X244542Y140302D01*
X244236Y139844D01*
X244129Y139304D01*
X244236Y138764D01*
X244542Y138306D01*
X245000Y138000D01*
X245540Y137893D01*
X246080Y138000D01*
X246538Y138306D01*
X246592Y138386D01*
X253304D01*
X253655Y138456D01*
X253953Y138655D01*
X259380Y144082D01*
X301620D01*
X309082Y136620D01*
Y96000D01*
X309152Y95649D01*
X309351Y95351D01*
X323351Y81351D01*
X323649Y81152D01*
X324000Y81082D01*
X347620D01*
X354082Y74620D01*
Y60249D01*
X353309Y59929D01*
X352609Y59391D01*
X352071Y58691D01*
X351734Y57875D01*
X351618Y57000D01*
X351734Y56125D01*
X352071Y55309D01*
X352609Y54609D01*
X353309Y54071D01*
X354125Y53734D01*
X355000Y53618D01*
X355875Y53734D01*
X356691Y54071D01*
X357391Y54609D01*
X357929Y55309D01*
X358266Y56125D01*
X358382Y57000D01*
X358266Y57875D01*
X357946Y58649D01*
X364380Y65082D01*
X399620D01*
X425082Y39620D01*
Y36052D01*
X425002Y35998D01*
X424696Y35540D01*
X424589Y35000D01*
X424696Y34460D01*
X425002Y34002D01*
X425460Y33696D01*
X426000Y33589D01*
X426540Y33696D01*
X426998Y34002D01*
X427304Y34460D01*
X427411Y35000D01*
X427304Y35540D01*
X426998Y35998D01*
X426918Y36052D01*
Y40000D01*
X426848Y40351D01*
X426649Y40649D01*
X400649Y66649D01*
X400351Y66848D01*
X400000Y66918D01*
X364000D01*
X363649Y66848D01*
X363351Y66649D01*
X356648Y59946D01*
X355918Y60249D01*
Y75000D01*
X355848Y75351D01*
X355649Y75649D01*
X348649Y82649D01*
X348351Y82848D01*
X348000Y82918D01*
X324380D01*
X310918Y96380D01*
Y137000D01*
X310848Y137351D01*
X310649Y137649D01*
X302649Y145649D01*
X302351Y145848D01*
X302000Y145918D01*
D02*
G37*
G36*
X305000Y37000D02*
X302000D01*
Y33250D01*
X305000D01*
Y37000D01*
D02*
G37*
G36*
X301000D02*
X298000D01*
Y33250D01*
X301000D01*
Y37000D01*
D02*
G37*
G36*
X78622Y41840D02*
X68622D01*
X67473Y41688D01*
X66403Y41245D01*
X65484Y40540D01*
X64779Y39621D01*
X64335Y38550D01*
X64184Y37402D01*
X64335Y36253D01*
X64779Y35183D01*
X65484Y34264D01*
X66403Y33558D01*
X67473Y33115D01*
X68622Y32964D01*
X78622D01*
X79771Y33115D01*
X80841Y33558D01*
X81760Y34264D01*
X82465Y35183D01*
X82909Y36253D01*
X83060Y37402D01*
X82909Y38550D01*
X82465Y39621D01*
X81760Y40540D01*
X80841Y41245D01*
X79771Y41688D01*
X78622Y41840D01*
D02*
G37*
G36*
X246250Y23500D02*
X242500D01*
Y20500D01*
X246250D01*
Y23500D01*
D02*
G37*
G36*
X241500D02*
X237750D01*
Y20500D01*
X241500D01*
Y23500D01*
D02*
G37*
G36*
X236250D02*
X232500D01*
Y20500D01*
X236250D01*
Y23500D01*
D02*
G37*
G36*
X231500D02*
X227750D01*
Y20500D01*
X231500D01*
Y23500D01*
D02*
G37*
G36*
X226250D02*
X222500D01*
Y20500D01*
X226250D01*
Y23500D01*
D02*
G37*
G36*
X221500D02*
X217750D01*
Y20500D01*
X221500D01*
Y23500D01*
D02*
G37*
G36*
X205500Y23464D02*
Y20500D01*
X208464D01*
X208410Y20914D01*
X208057Y21765D01*
X207496Y22496D01*
X206765Y23057D01*
X205914Y23410D01*
X205500Y23464D01*
D02*
G37*
G36*
X204500D02*
X204086Y23410D01*
X203235Y23057D01*
X202504Y22496D01*
X201943Y21765D01*
X201590Y20914D01*
X201536Y20500D01*
X204500D01*
Y23464D01*
D02*
G37*
G36*
X166595Y34478D02*
X165185Y34339D01*
X163829Y33928D01*
X162580Y33260D01*
X161485Y32362D01*
X160586Y31267D01*
X159918Y30017D01*
X159507Y28662D01*
X159368Y27252D01*
X159507Y25842D01*
X159918Y24487D01*
X160586Y23237D01*
X161485Y22142D01*
X162580Y21244D01*
X163829Y20576D01*
X165185Y20165D01*
X166595Y20026D01*
X168004Y20165D01*
X169360Y20576D01*
X170609Y21244D01*
X171704Y22142D01*
X172603Y23237D01*
X173271Y24487D01*
X173682Y25842D01*
X173821Y27252D01*
X173682Y28662D01*
X173271Y30017D01*
X172603Y31267D01*
X171704Y32362D01*
X170609Y33260D01*
X169360Y33928D01*
X168004Y34339D01*
X166595Y34478D01*
D02*
G37*
G36*
X121595D02*
X120185Y34339D01*
X118829Y33928D01*
X117580Y33260D01*
X116485Y32362D01*
X115586Y31267D01*
X114918Y30017D01*
X114507Y28662D01*
X114368Y27252D01*
X114507Y25842D01*
X114918Y24487D01*
X115586Y23237D01*
X116485Y22142D01*
X117580Y21244D01*
X118829Y20576D01*
X120185Y20165D01*
X121595Y20026D01*
X123004Y20165D01*
X124360Y20576D01*
X125609Y21244D01*
X126704Y22142D01*
X127603Y23237D01*
X128271Y24487D01*
X128682Y25842D01*
X128821Y27252D01*
X128682Y28662D01*
X128271Y30017D01*
X127603Y31267D01*
X126704Y32362D01*
X125609Y33260D01*
X124360Y33928D01*
X123004Y34339D01*
X121595Y34478D01*
D02*
G37*
G36*
X385000Y60382D02*
X384125Y60266D01*
X383309Y59929D01*
X382609Y59391D01*
X382071Y58691D01*
X381734Y57875D01*
X381618Y57000D01*
X381734Y56125D01*
X382071Y55309D01*
X382609Y54609D01*
X383309Y54071D01*
X383573Y53962D01*
Y40038D01*
X383309Y39929D01*
X382609Y39391D01*
X382071Y38691D01*
X381734Y37875D01*
X381618Y37000D01*
X381734Y36125D01*
X382071Y35309D01*
X382609Y34609D01*
X383309Y34071D01*
X383573Y33962D01*
Y18249D01*
X382111Y16787D01*
X381103Y17205D01*
X379842Y17371D01*
X378582Y17205D01*
X377407Y16718D01*
X376398Y15944D01*
X375624Y14935D01*
X375138Y13761D01*
X374972Y12500D01*
X375138Y11239D01*
X375624Y10065D01*
X376398Y9056D01*
X376669Y8848D01*
X376741Y8741D01*
X377204Y8431D01*
X377215Y8429D01*
X377407Y8282D01*
X378582Y7795D01*
X379842Y7629D01*
X381103Y7795D01*
X382278Y8282D01*
X383287Y9056D01*
X384061Y10065D01*
X384547Y11239D01*
X384713Y12500D01*
X384547Y13761D01*
X384130Y14769D01*
X386009Y16648D01*
X386009Y16648D01*
X386319Y17111D01*
X386427Y17658D01*
X386427Y17658D01*
Y33962D01*
X386691Y34071D01*
X387391Y34609D01*
X387929Y35309D01*
X388266Y36125D01*
X388382Y37000D01*
X388266Y37875D01*
X387929Y38691D01*
X387391Y39391D01*
X386691Y39929D01*
X386427Y40038D01*
Y53962D01*
X386691Y54071D01*
X387391Y54609D01*
X387929Y55309D01*
X388266Y56125D01*
X388382Y57000D01*
X388266Y57875D01*
X387929Y58691D01*
X387391Y59391D01*
X386691Y59929D01*
X385875Y60266D01*
X385000Y60382D01*
D02*
G37*
G36*
X208464Y19500D02*
X205500D01*
Y16536D01*
X205914Y16590D01*
X206765Y16943D01*
X207496Y17504D01*
X208057Y18235D01*
X208410Y19086D01*
X208464Y19500D01*
D02*
G37*
G36*
X204500D02*
X201536D01*
X201590Y19086D01*
X201943Y18235D01*
X202504Y17504D01*
X203235Y16943D01*
X204086Y16590D01*
X204500Y16536D01*
Y19500D01*
D02*
G37*
G36*
X246250D02*
X242500D01*
Y16500D01*
X246250D01*
Y19500D01*
D02*
G37*
G36*
X241500D02*
X237750D01*
Y16500D01*
X241500D01*
Y19500D01*
D02*
G37*
G36*
X236250D02*
X232500D01*
Y16500D01*
X236250D01*
Y19500D01*
D02*
G37*
G36*
X231500D02*
X227750D01*
Y16500D01*
X231500D01*
Y19500D01*
D02*
G37*
G36*
X226250D02*
X222500D01*
Y16500D01*
X226250D01*
Y19500D01*
D02*
G37*
G36*
X221500D02*
X217750D01*
Y16500D01*
X221500D01*
Y19500D01*
D02*
G37*
G36*
X92126Y34241D02*
X90977Y34090D01*
X89907Y33647D01*
X88988Y32941D01*
X88283Y32022D01*
X87839Y30952D01*
X87688Y29803D01*
Y19803D01*
X87839Y18654D01*
X88283Y17584D01*
X88988Y16665D01*
X89907Y15960D01*
X90977Y15516D01*
X92126Y15365D01*
X93275Y15516D01*
X94345Y15960D01*
X95264Y16665D01*
X95969Y17584D01*
X96413Y18654D01*
X96564Y19803D01*
Y29803D01*
X96413Y30952D01*
X95969Y32022D01*
X95264Y32941D01*
X94345Y33647D01*
X93275Y34090D01*
X92126Y34241D01*
D02*
G37*
G36*
X261067Y15819D02*
X258500D01*
Y12760D01*
X261067D01*
Y15819D01*
D02*
G37*
G36*
X257500D02*
X254933D01*
Y12760D01*
X257500D01*
Y15819D01*
D02*
G37*
G36*
X261067Y11760D02*
X258500D01*
Y8701D01*
X261067D01*
Y11760D01*
D02*
G37*
G36*
X257500D02*
X254933D01*
Y8701D01*
X257500D01*
Y11760D01*
D02*
G37*
G36*
X420000Y21682D02*
X418696Y21554D01*
X417443Y21173D01*
X416288Y20556D01*
X415275Y19725D01*
X414444Y18712D01*
X413827Y17557D01*
X413446Y16304D01*
X413318Y15000D01*
X413446Y13696D01*
X413827Y12443D01*
X414444Y11288D01*
X415275Y10275D01*
X416288Y9444D01*
X417443Y8827D01*
X418696Y8446D01*
X420000Y8318D01*
X421304Y8446D01*
X422557Y8827D01*
X423712Y9444D01*
X424725Y10275D01*
X425556Y11288D01*
X426173Y12443D01*
X426554Y13696D01*
X426682Y15000D01*
X426554Y16304D01*
X426173Y17557D01*
X425556Y18712D01*
X424725Y19725D01*
X423712Y20556D01*
X422557Y21173D01*
X421304Y21554D01*
X420000Y21682D01*
D02*
G37*
G36*
X15000D02*
X13696Y21554D01*
X12443Y21173D01*
X11288Y20556D01*
X10275Y19725D01*
X9444Y18712D01*
X8827Y17557D01*
X8446Y16304D01*
X8318Y15000D01*
X8446Y13696D01*
X8827Y12443D01*
X9444Y11288D01*
X10275Y10275D01*
X11288Y9444D01*
X12443Y8827D01*
X13696Y8446D01*
X15000Y8318D01*
X16304Y8446D01*
X17557Y8827D01*
X18712Y9444D01*
X19725Y10275D01*
X20556Y11288D01*
X21173Y12443D01*
X21554Y13696D01*
X21682Y15000D01*
X21554Y16304D01*
X21173Y17557D01*
X20556Y18712D01*
X19725Y19725D01*
X18712Y20556D01*
X17557Y21173D01*
X16304Y21554D01*
X15000Y21682D01*
D02*
G37*
G36*
X49500Y45425D02*
X48743Y45325D01*
X48037Y45033D01*
X47432Y44568D01*
X46967Y43962D01*
X46675Y43257D01*
X46575Y42500D01*
X46675Y41743D01*
X46967Y41037D01*
X47432Y40432D01*
X48037Y39967D01*
X48073Y39952D01*
Y36327D01*
X48073Y36327D01*
X48181Y35781D01*
X48491Y35317D01*
X67044Y16764D01*
X66947Y16273D01*
X66403Y16048D01*
X65484Y15343D01*
X64779Y14424D01*
X64335Y13353D01*
X64184Y12205D01*
X64335Y11056D01*
X64779Y9986D01*
X65484Y9067D01*
X66403Y8361D01*
X67473Y7918D01*
X68622Y7767D01*
X78622D01*
X79771Y7918D01*
X80841Y8361D01*
X81760Y9067D01*
X82465Y9986D01*
X82909Y11056D01*
X83060Y12205D01*
X82909Y13353D01*
X82465Y14424D01*
X81760Y15343D01*
X80841Y16048D01*
X79771Y16491D01*
X78622Y16643D01*
X71203D01*
X50927Y36918D01*
Y39952D01*
X50963Y39967D01*
X51568Y40432D01*
X52033Y41037D01*
X52325Y41743D01*
X52425Y42500D01*
X52325Y43257D01*
X52033Y43962D01*
X51568Y44568D01*
X50963Y45033D01*
X50257Y45325D01*
X49500Y45425D01*
D02*
G37*
G36*
X294829Y17329D02*
X285171D01*
Y7671D01*
X294829D01*
Y17329D01*
D02*
G37*
G36*
X345000Y40382D02*
X344125Y40266D01*
X343309Y39929D01*
X342609Y39391D01*
X342071Y38691D01*
X341734Y37875D01*
X341618Y37000D01*
X341734Y36125D01*
X342071Y35309D01*
X342609Y34609D01*
X343309Y34071D01*
X343573Y33962D01*
Y32343D01*
X343573Y32342D01*
X343681Y31796D01*
X343991Y31333D01*
X360555Y14769D01*
X360138Y13761D01*
X359972Y12500D01*
X360138Y11239D01*
X360624Y10065D01*
X361398Y9056D01*
X362407Y8282D01*
X363582Y7795D01*
X364843Y7629D01*
X366103Y7795D01*
X367278Y8282D01*
X368287Y9056D01*
X369061Y10065D01*
X369547Y11239D01*
X369713Y12500D01*
X369547Y13761D01*
X369061Y14935D01*
X368287Y15944D01*
X367278Y16718D01*
X366103Y17205D01*
X364843Y17371D01*
X363582Y17205D01*
X362574Y16787D01*
X346427Y32934D01*
Y33962D01*
X346691Y34071D01*
X347391Y34609D01*
X347929Y35309D01*
X348266Y36125D01*
X348382Y37000D01*
X348266Y37875D01*
X347929Y38691D01*
X347391Y39391D01*
X346691Y39929D01*
X345875Y40266D01*
X345000Y40382D01*
D02*
G37*
G36*
X305000Y17371D02*
X303739Y17205D01*
X302565Y16718D01*
X301556Y15944D01*
X300782Y14935D01*
X300295Y13761D01*
X300129Y12500D01*
X300295Y11239D01*
X300782Y10065D01*
X301556Y9056D01*
X302565Y8282D01*
X303739Y7795D01*
X305000Y7629D01*
X306261Y7795D01*
X307435Y8282D01*
X308444Y9056D01*
X309218Y10065D01*
X309705Y11239D01*
X309871Y12500D01*
X309705Y13761D01*
X309218Y14935D01*
X308444Y15944D01*
X307435Y16718D01*
X306261Y17205D01*
X305000Y17371D01*
D02*
G37*
%LPD*%
G36*
X180082Y242620D02*
Y240273D01*
X179897Y240124D01*
X179347Y240323D01*
X179304Y240540D01*
X178998Y240998D01*
X178540Y241304D01*
X178000Y241411D01*
X177905Y241392D01*
X167715Y251582D01*
X167766Y251851D01*
X167900Y252082D01*
X170620D01*
X180082Y242620D01*
D02*
G37*
G36*
X147234Y251851D02*
X147285Y251582D01*
X140351Y244649D01*
X140152Y244351D01*
X140082Y244000D01*
Y210380D01*
X138359Y208657D01*
X137898Y208903D01*
X137918Y209000D01*
Y243620D01*
X146380Y252082D01*
X147100D01*
X147234Y251851D01*
D02*
G37*
G36*
X234082Y134620D02*
Y133432D01*
X233582Y133333D01*
X233480Y133581D01*
X232942Y134281D01*
X232242Y134818D01*
X231426Y135156D01*
X230551Y135271D01*
X229676Y135156D01*
X228860Y134818D01*
X228160Y134281D01*
X227623Y133581D01*
X227418Y133086D01*
X226918Y133185D01*
Y137000D01*
X226848Y137351D01*
X226649Y137649D01*
X218715Y145582D01*
X218766Y145851D01*
X218900Y146082D01*
X222620D01*
X234082Y134620D01*
D02*
G37*
G36*
X248775Y107868D02*
X249212Y106813D01*
X249907Y105907D01*
X250592Y105381D01*
X250423Y104881D01*
X244963D01*
X244612Y104811D01*
X244314Y104612D01*
X237433Y97731D01*
X237049Y97838D01*
X236933Y97920D01*
Y99636D01*
X245380Y108082D01*
X248746D01*
X248775Y107868D01*
D02*
G37*
%LPC*%
G36*
X158500Y267500D02*
X155079D01*
X155149Y266968D01*
X155547Y266007D01*
X156181Y265181D01*
X157007Y264547D01*
X157968Y264149D01*
X158500Y264079D01*
Y267500D01*
D02*
G37*
G36*
X162921D02*
X159500D01*
Y264079D01*
X160032Y264149D01*
X160993Y264547D01*
X161819Y265181D01*
X162453Y266007D01*
X162851Y266968D01*
X162921Y267500D01*
D02*
G37*
%LPD*%
D11*
X86000Y208000D02*
D03*
X94000D02*
D03*
X86000Y218000D02*
D03*
X94000D02*
D03*
X363339Y101933D02*
D03*
X355339D02*
D03*
X363339Y131933D02*
D03*
X355339D02*
D03*
X363339Y91933D02*
D03*
X355339D02*
D03*
X363339Y141933D02*
D03*
X355339D02*
D03*
X184000Y93500D02*
D03*
X192000D02*
D03*
X220000Y39500D02*
D03*
X228000D02*
D03*
X293500Y107500D02*
D03*
X301500D02*
D03*
X293500Y97500D02*
D03*
X301500D02*
D03*
Y87500D02*
D03*
X293500D02*
D03*
X301500Y77500D02*
D03*
X293500D02*
D03*
X301500Y67500D02*
D03*
X293500D02*
D03*
X301500Y57500D02*
D03*
X293500D02*
D03*
X301500Y47500D02*
D03*
X293500D02*
D03*
X301500Y37500D02*
D03*
X293500D02*
D03*
X192500Y73500D02*
D03*
X183500D02*
D03*
X224500Y247000D02*
D03*
X233500D02*
D03*
X224500Y223000D02*
D03*
X233500D02*
D03*
X269500Y204000D02*
D03*
X260500D02*
D03*
X120500Y236000D02*
D03*
X111500D02*
D03*
X183500Y83500D02*
D03*
X192500D02*
D03*
X260500Y124000D02*
D03*
X251500D02*
D03*
X269500D02*
D03*
X278500D02*
D03*
X183500Y53500D02*
D03*
X192500D02*
D03*
X183500Y43500D02*
D03*
X192500D02*
D03*
X95500Y163000D02*
D03*
X86500D02*
D03*
D12*
X150000Y26000D02*
D03*
Y34000D02*
D03*
X140000Y26000D02*
D03*
Y34000D02*
D03*
X259500Y34500D02*
D03*
Y42500D02*
D03*
X269500Y34500D02*
D03*
Y42500D02*
D03*
X279500Y34500D02*
D03*
Y42500D02*
D03*
X242000Y20000D02*
D03*
Y29000D02*
D03*
X364339Y112433D02*
D03*
Y121433D02*
D03*
X201000Y116500D02*
D03*
Y107500D02*
D03*
X222000Y20000D02*
D03*
Y29000D02*
D03*
X232000Y20000D02*
D03*
Y29000D02*
D03*
D37*
X91000Y152445D02*
D03*
Y145555D02*
D03*
D38*
X355283Y114433D02*
D03*
X348394D02*
D03*
X253000Y213000D02*
D03*
X259890D02*
D03*
X103445Y236000D02*
D03*
X96555D02*
D03*
X275445Y18000D02*
D03*
X268555D02*
D03*
D48*
X233500Y228500D02*
X236000Y231000D01*
X233500Y223000D02*
Y228500D01*
X237000Y231000D02*
X246500Y221500D01*
X259551D01*
X233500Y241374D02*
X236000Y238874D01*
X233500Y241374D02*
Y247000D01*
X236000Y238874D02*
X240126D01*
X252500Y226500D01*
X259551D01*
X162385Y121615D02*
X164000D01*
X155000Y129000D02*
X162385Y121615D01*
X174378Y138378D02*
X201000D01*
X173000Y137000D02*
X174378Y138378D01*
X202000Y141000D02*
X206000Y137000D01*
X173000Y141000D02*
X202000D01*
X206000Y130000D02*
Y137000D01*
X167000Y147000D02*
X173000Y141000D01*
X211000Y143000D02*
X216000Y138000D01*
X175000Y143000D02*
X211000D01*
X170000Y148000D02*
X175000Y143000D01*
X177000Y145000D02*
X218000D01*
X172000Y150000D02*
X177000Y145000D01*
X179000Y147000D02*
X223000D01*
X175000Y151000D02*
X179000Y147000D01*
X218000Y145000D02*
X226000Y137000D01*
X223000Y147000D02*
X235000Y135000D01*
X194400Y150600D02*
X249400D01*
X250000Y150000D01*
X188000Y157000D02*
X194400Y150600D01*
X243500Y149000D02*
X247500Y145000D01*
X191000Y149000D02*
X243500D01*
X186000Y154000D02*
X191000Y149000D01*
X348000Y82000D02*
X355000Y75000D01*
Y57000D02*
Y75000D01*
X364000Y66000D02*
X400000D01*
X356000Y58000D02*
X364000Y66000D01*
X170177Y7961D02*
X187000Y24783D01*
X170000Y54000D02*
Y94000D01*
X159000Y43000D02*
X170000Y54000D01*
X149000Y43000D02*
X159000D01*
X172000Y51000D02*
Y93000D01*
X155000Y34000D02*
X172000Y51000D01*
X150000Y34000D02*
X155000D01*
X106000Y46862D02*
Y57000D01*
Y46862D02*
X113602Y39260D01*
X128012Y7961D02*
X140000Y19949D01*
Y26000D01*
Y34000D02*
X149000Y43000D01*
X150000Y18138D02*
X160177Y7961D01*
X150000Y18138D02*
Y26000D01*
X155000Y129000D02*
Y137000D01*
X142000Y150000D02*
X155000Y137000D01*
X142000Y150000D02*
Y181000D01*
X165000Y128000D02*
X171000Y122000D01*
X165000Y128000D02*
Y136000D01*
X147000Y154000D02*
X165000Y136000D01*
X147000Y154000D02*
Y184000D01*
X152916Y157084D02*
Y187916D01*
X215000Y219000D02*
X217000Y217000D01*
X280000Y255000D02*
X287000Y248000D01*
X275000Y252000D02*
X278449Y248551D01*
Y236500D02*
Y248551D01*
X279000Y179000D02*
Y183000D01*
X275000Y175000D02*
X279000Y179000D01*
X189000Y175000D02*
X275000D01*
X426000Y35000D02*
Y40000D01*
X400000Y66000D02*
X426000Y40000D01*
X323000Y103000D02*
Y125000D01*
X320000Y100000D02*
X323000Y103000D01*
X259000Y145000D02*
X302000D01*
X310000Y137000D01*
Y96000D02*
Y137000D01*
Y96000D02*
X324000Y82000D01*
X235000Y118000D02*
Y135000D01*
X226000Y122000D02*
X235000Y113000D01*
X226000Y122000D02*
Y137000D01*
X216000Y127000D02*
X235000Y108000D01*
X216000Y127000D02*
Y138000D01*
X206000Y130000D02*
X232000Y104000D01*
X235000D01*
X217937Y234937D02*
X218063D01*
X208441D02*
X217937D01*
X218063D02*
X224500Y228500D01*
Y223000D02*
Y228500D01*
Y241500D02*
Y247000D01*
X217937Y234937D02*
X224500Y241500D01*
X298000Y183000D02*
X300000D01*
X249000Y197000D02*
X253000Y193000D01*
X246000Y196000D02*
Y206000D01*
X363339Y141933D02*
X367406Y146000D01*
X370000D01*
X332500Y100000D02*
Y132500D01*
X172000Y152000D02*
X175000Y155000D01*
X172000Y150000D02*
Y152000D01*
X335000Y115000D02*
Y135000D01*
Y115000D02*
X342500Y107500D01*
X357772D01*
X363339Y101933D01*
X355283Y114433D02*
X357283Y112433D01*
X364339D01*
X350000Y125000D02*
X356405D01*
X363339Y131933D01*
X381634Y106634D02*
X393898D01*
X366933Y91933D02*
X381634Y106634D01*
X363339Y91933D02*
X366933D01*
X382795Y115295D02*
X393898D01*
X369433Y101933D02*
X382795Y115295D01*
X363339Y101933D02*
X369433D01*
X382126Y119626D02*
X393898D01*
X374933Y112433D02*
X382126Y119626D01*
X364339Y112433D02*
X374933D01*
X381043Y123957D02*
X393898D01*
X373067Y131933D02*
X381043Y123957D01*
X363339Y131933D02*
X373067D01*
X386713Y128287D02*
X393898D01*
X373067Y141933D02*
X386713Y128287D01*
X363339Y141933D02*
X373067D01*
X106000Y57000D02*
X106008Y56992D01*
X220480Y108260D02*
X232079Y96661D01*
X290000Y94000D02*
X293500Y97500D01*
X287000Y94000D02*
X290000D01*
X287500Y87500D02*
X293500D01*
X284000Y91000D02*
X287500Y87500D01*
X253000Y109000D02*
X260500Y116500D01*
X239953Y84953D02*
Y90035D01*
X238000Y83000D02*
X239953Y84953D01*
X242000Y80000D02*
Y89957D01*
X241921Y90035D02*
X242000Y89957D01*
X243890Y82110D02*
Y90035D01*
X167000Y147000D02*
Y153000D01*
X232079Y90035D02*
Y96661D01*
X170000Y148000D02*
Y156000D01*
X173000Y159000D01*
X243890Y82110D02*
X246000Y80000D01*
X245858Y84142D02*
Y90035D01*
Y84142D02*
X247000Y83000D01*
X247827Y90035D02*
Y94827D01*
X250500Y97500D01*
X293500D01*
X287000Y101000D02*
X293500Y107500D01*
X246000Y101000D02*
X287000D01*
X239953Y94953D02*
X246000Y101000D01*
X239953Y90035D02*
Y94953D01*
X267213Y104000D02*
X272213Y109000D01*
X255123Y104000D02*
X267213D01*
X255086Y103963D02*
X255123Y104000D01*
X244963Y103963D02*
X255086D01*
X237984Y96984D02*
X244963Y103963D01*
X237984Y90035D02*
Y96984D01*
X245000Y109000D02*
X253000D01*
X236016Y100016D02*
X245000Y109000D01*
X236016Y90035D02*
Y100016D01*
X269500Y111713D02*
Y124000D01*
Y111713D02*
X272213Y109000D01*
X260500Y116500D02*
Y124000D01*
X118000Y113000D02*
X190000D01*
X115000Y110000D02*
X118000Y113000D01*
X228000Y39500D02*
X230110Y41610D01*
Y56965D01*
X236000Y66000D02*
X237984Y64016D01*
Y56965D02*
Y64016D01*
X236000Y69000D02*
X239953Y65047D01*
Y56965D02*
Y65047D01*
X240000Y68000D02*
X245858Y62142D01*
Y56965D02*
Y62142D01*
X240000Y72000D02*
X247827Y64173D01*
Y56965D02*
Y64173D01*
X198421Y78421D02*
X220465D01*
X193500Y73500D02*
X198421Y78421D01*
X192500Y73500D02*
X193500D01*
X208453Y76453D02*
X220465D01*
X195500Y63500D02*
X208453Y76453D01*
X193413Y63500D02*
X195500D01*
X211547Y70547D02*
X220465D01*
X194500Y53500D02*
X211547Y70547D01*
X192500Y53500D02*
X194500D01*
X259500Y42500D02*
X265000Y48000D01*
Y64000D01*
X260421Y68579D02*
X265000Y64000D01*
X253535Y68579D02*
X260421D01*
X269500Y42500D02*
Y65500D01*
X264453Y70547D02*
X269500Y65500D01*
X253535Y70547D02*
X264453D01*
X279500Y42500D02*
Y60500D01*
X267484Y72516D02*
X279500Y60500D01*
X253535Y72516D02*
X267484D01*
X285000Y46000D02*
X293500Y37500D01*
X285000Y46000D02*
Y59000D01*
X269516Y74484D02*
X285000Y59000D01*
X253535Y74484D02*
X269516D01*
X287000Y54000D02*
X293500Y47500D01*
X287000Y54000D02*
Y60000D01*
X270547Y76453D02*
X287000Y60000D01*
X253535Y76453D02*
X270547D01*
X272579Y78421D02*
X293500Y57500D01*
X253535Y78421D02*
X272579D01*
X280610Y80390D02*
X293500Y67500D01*
X253535Y80390D02*
X280610D01*
X288642Y82358D02*
X293500Y77500D01*
X253535Y82358D02*
X288642D01*
X290327Y84327D02*
X293500Y87500D01*
X253535Y84327D02*
X290327D01*
X192000Y93500D02*
X203142Y82358D01*
X220465D01*
X192500Y83500D02*
X195610Y80390D01*
X220465D01*
X192500Y43500D02*
X215610Y66610D01*
X220465D01*
X225000Y48000D02*
X228142Y51142D01*
Y56965D01*
X232000Y29000D02*
X234047Y31047D01*
Y56965D01*
X241921Y29079D02*
Y56965D01*
X254500Y231500D02*
X259551D01*
X252000Y234000D02*
X254500Y231500D01*
X178000Y237000D02*
Y240000D01*
Y237000D02*
X179000Y236000D01*
X182000D01*
X198000Y252000D02*
X275000D01*
X182000Y236000D02*
X198000Y252000D01*
X278449Y231500D02*
X285500D01*
X287000Y233000D01*
Y248000D01*
X197000Y255000D02*
X280000D01*
X181000Y239000D02*
X197000Y255000D01*
X238000Y210000D02*
X243000Y205000D01*
X224000Y210000D02*
X238000D01*
X239000Y200000D02*
Y205000D01*
X235000Y201000D02*
Y205000D01*
X149000Y262000D02*
Y268000D01*
X183000Y233000D02*
X193000Y243000D01*
X199000D01*
X213000Y153000D02*
X252000D01*
X309000Y156000D02*
X332500Y132500D01*
X216000Y156000D02*
X309000D01*
X311000Y159000D02*
X335000Y135000D01*
X218000Y159000D02*
X311000D01*
X175000Y151000D02*
X186000Y162000D01*
X313000D02*
X350000Y125000D01*
X186000Y162000D02*
X313000D01*
X185000Y165000D02*
X215000D01*
X175000Y155000D02*
X185000Y165000D01*
X173000Y159000D02*
X182000Y168000D01*
X217168D01*
X250916Y177916D02*
X259000Y186000D01*
X192000Y178000D02*
X192084Y177916D01*
X250916D01*
X160000Y185000D02*
X172084Y172916D01*
X152916Y157084D02*
X173000Y137000D01*
X152916Y187916D02*
X153000Y188000D01*
X158000Y175000D02*
X162000Y171000D01*
X158000Y175000D02*
Y178000D01*
X199000Y243000D02*
X217000D01*
X211000Y262000D02*
X214000Y265000D01*
Y267000D01*
X153000Y188000D02*
Y222000D01*
X172000Y93000D02*
X177000Y98000D01*
X221000D01*
X226173Y92827D01*
Y90035D02*
Y92827D01*
X170000Y94000D02*
X176000Y100000D01*
X224000D01*
X230110Y93890D01*
Y90035D02*
Y93890D01*
X355339Y131933D02*
Y141933D01*
X350406Y137000D02*
X355339Y141933D01*
X349000Y137000D02*
X350406D01*
X356000Y115150D02*
Y122000D01*
X355283Y114433D02*
X356000Y115150D01*
X355339Y91933D02*
Y101933D01*
X353067Y91933D02*
X355339D01*
X348000Y97000D02*
X353067Y91933D01*
X232000Y29000D02*
X242000D01*
X222000D02*
X232000D01*
X213000Y36000D02*
X220000Y29000D01*
X213000Y36000D02*
Y43000D01*
X218000Y48000D01*
X225000D01*
X192500Y37500D02*
Y43500D01*
Y37500D02*
X201000Y29000D01*
X220000D01*
X222000D01*
X192500Y43500D02*
Y53500D01*
X188000Y58000D02*
X192500Y53500D01*
X188000Y58000D02*
Y69000D01*
X192500Y73500D01*
X105000Y101000D02*
X111000Y107000D01*
X188000D01*
X190000Y109000D01*
X115000Y116000D02*
X187000D01*
X188000Y78000D02*
X192500Y73500D01*
X180000Y78000D02*
X188000D01*
X177000Y81000D02*
X180000Y78000D01*
X177000Y81000D02*
Y94000D01*
X178000Y95000D01*
X258260Y20000D02*
X266260Y28000D01*
X302000D01*
X309000Y35000D01*
Y80000D01*
X301500Y87500D02*
X309000Y80000D01*
X258000Y19740D02*
X258260Y20000D01*
X301500Y87500D02*
Y97500D01*
Y107500D01*
X248661Y29079D02*
X258000Y19740D01*
Y33000D01*
X259500Y34500D01*
X269500D01*
X279500D01*
X187000Y38000D02*
X192500Y43500D01*
X187000Y24783D02*
Y38000D01*
X139000Y100000D02*
X142000Y103000D01*
X183000D01*
X109000Y100000D02*
X139000D01*
X80000Y92000D02*
X101000D01*
X109000Y100000D01*
X332500D02*
X346500Y86000D01*
X357405D01*
X363339Y91933D01*
X290000Y196402D02*
Y208700D01*
X279500Y221500D02*
X286200Y214800D01*
X278449Y221500D02*
X279500D01*
X287000Y211700D02*
X290000Y208700D01*
X267000Y211000D02*
X268400D01*
X275800Y214700D02*
Y218851D01*
X278449Y221500D01*
X261000Y205000D02*
X267000Y211000D01*
X215000Y215000D02*
X215084Y215084D01*
X236916D01*
X246000Y206000D01*
X215948Y213000D02*
X228000D01*
X215863Y212916D02*
X215948Y213000D01*
X204084Y212916D02*
X215863D01*
X196000Y221000D02*
X204084Y212916D01*
X253000Y193000D02*
X279000D01*
X397000Y89000D02*
X406000Y98000D01*
Y113000D01*
X162000Y171000D02*
X288000D01*
X293000Y166000D01*
X310000D01*
X172084Y172916D02*
X302916D01*
X305000Y170832D01*
Y170000D02*
Y170832D01*
X279000Y193000D02*
X285000Y187000D01*
X294000D01*
X298000Y183000D01*
X284000Y185000D02*
X292000D01*
X297000Y180000D01*
Y175000D02*
X298000Y176000D01*
X287000Y175000D02*
X297000D01*
X282000Y180000D02*
X287000Y175000D01*
X282000Y180000D02*
Y184000D01*
X246000Y196000D02*
X251000Y191000D01*
X278000D01*
X284000Y185000D01*
X277000Y189000D02*
X282000Y184000D01*
X253000Y189000D02*
X277000D01*
X245000Y181000D02*
X253000Y189000D01*
X216000Y188000D02*
X216600Y187400D01*
X210000Y184000D02*
Y191000D01*
X224000Y205000D01*
X227000D01*
X213000Y186000D02*
Y188000D01*
X230000Y205000D01*
X231000D01*
X224000Y190000D02*
X235000Y201000D01*
X219000Y190000D02*
X224000D01*
X226400Y187400D02*
X239000Y200000D01*
X216600Y187400D02*
X226400D01*
X203000Y181000D02*
X245000D01*
X187000Y197000D02*
X203000Y181000D01*
X187000Y197000D02*
Y221000D01*
X103445Y236000D02*
X111500D01*
X120500D02*
X124449Y232051D01*
Y224500D02*
Y232051D01*
Y219500D02*
Y224500D01*
Y214500D02*
Y219500D01*
Y209500D02*
Y214500D01*
X111500Y230449D02*
Y236000D01*
X105551Y224500D02*
X111500Y230449D01*
X105551Y219500D02*
X124449D01*
X97500Y214500D02*
X105551D01*
X94000Y218000D02*
X97500Y214500D01*
X95500Y209500D02*
X105551D01*
X94000Y208000D02*
X95500Y209500D01*
X86000Y208000D02*
Y218000D01*
X92500Y224500D01*
X105551D01*
X161000Y248000D02*
X176000Y233000D01*
X183000D01*
X149000Y226000D02*
X153000Y222000D01*
X149000Y226000D02*
Y248000D01*
X161000D01*
X129500Y255500D02*
X135000Y250000D01*
X129500Y255500D02*
Y262000D01*
X139000Y252000D02*
X145000Y258000D01*
X172000D01*
X167000Y251000D02*
X178000Y240000D01*
X148000Y251000D02*
X167000D01*
X141000Y244000D02*
X148000Y251000D01*
X181000Y239000D02*
Y243000D01*
X171000Y253000D02*
X181000Y243000D01*
X146000Y253000D02*
X171000D01*
X324000Y82000D02*
X348000D01*
X183000Y103000D02*
X196500D01*
X201000Y107500D01*
X210240D01*
X211000Y108260D01*
X220480D01*
X241921Y29079D02*
X248661D01*
X258260Y20000D02*
X268555D01*
X364339Y121433D02*
X371433D01*
X375000Y125000D01*
X257000Y204000D02*
X260500D01*
X253000Y208000D02*
X257000Y204000D01*
X253000Y208000D02*
Y213000D01*
X268400Y211000D02*
X272200Y214800D01*
X259890Y213000D02*
X261000D01*
X269000Y221000D01*
X256500Y236500D02*
X259551D01*
X183500Y83500D02*
Y84250D01*
X187000Y87750D01*
X217000Y217000D02*
X238000D01*
X249000Y206000D01*
Y197000D02*
Y206000D01*
X95559Y188299D02*
Y206441D01*
X94000Y208000D02*
X95559Y206441D01*
X137000Y244000D02*
X146000Y253000D01*
X141000Y210000D02*
Y244000D01*
X137000Y209000D02*
Y244000D01*
X90441Y184559D02*
Y188299D01*
X95500Y163000D02*
Y175642D01*
X86500Y163000D02*
X93000Y169500D01*
Y175701D01*
X90441D02*
X93000D01*
X178000Y255000D02*
X184000Y249000D01*
X146000Y255000D02*
X178000D01*
X134000Y243000D02*
X146000Y255000D01*
X134000Y211000D02*
Y243000D01*
X124000Y201000D02*
X134000Y211000D01*
X105551Y209500D02*
X120051Y195000D01*
X126000D01*
X141000Y210000D01*
X124000Y197000D02*
X125000D01*
X137000Y209000D01*
X110500Y214500D02*
X113000Y212000D01*
Y205000D02*
Y212000D01*
Y205000D02*
X121000Y197000D01*
X124000D01*
X105551Y214500D02*
X110500D01*
X90441Y184559D02*
X93000Y182000D01*
X101000D01*
X103000Y184000D01*
Y195000D01*
X93000Y185000D02*
Y188299D01*
Y185000D02*
X94000Y184000D01*
X99000D01*
X100000Y185000D01*
Y197000D01*
X103000Y200000D01*
X91000Y152445D02*
X95500Y156945D01*
Y163000D01*
X84445Y145555D02*
X91000D01*
X80000Y150000D02*
X84445Y145555D01*
X80000Y150000D02*
Y232000D01*
X85000Y237000D01*
X245540Y139304D02*
X253304D01*
X259000Y145000D01*
X269000Y221000D02*
Y246000D01*
X243000Y245000D02*
X248000D01*
X256500Y236500D01*
D49*
X337000Y49000D02*
X345000Y57000D01*
X337000Y25343D02*
Y49000D01*
Y25343D02*
X349843Y12500D01*
X345000Y32342D02*
Y37000D01*
Y32342D02*
X364843Y12500D01*
X377750Y9750D02*
X382500Y14500D01*
X379842Y12500D02*
X385000Y17658D01*
Y37000D01*
Y57000D01*
X364500Y12500D02*
X364843D01*
X211000Y262000D02*
X234000D01*
X238000Y266000D01*
Y269000D01*
X49500Y36327D02*
Y42500D01*
Y36327D02*
X73622Y12205D01*
X292584Y262000D02*
X315000Y239584D01*
X85000Y237000D02*
X110000Y262000D01*
X340000Y209000D02*
X344000Y205000D01*
X325000Y209000D02*
X340000D01*
X315000Y219000D02*
X325000Y209000D01*
X315000Y219000D02*
Y239584D01*
X47000Y137000D02*
Y158000D01*
X25000Y192000D02*
X47000Y170000D01*
Y158000D02*
Y170000D01*
X25000Y192000D02*
X36000Y203000D01*
X149000Y262000D02*
X210000D01*
X302000Y187000D02*
X335000D01*
X344000Y196000D01*
Y205000D01*
X302000Y187000D02*
X345000Y144000D01*
Y139000D02*
Y144000D01*
X341000Y121827D02*
Y122000D01*
Y121827D02*
X348394Y114433D01*
X280445Y23000D02*
X303000D01*
X314000Y34000D01*
X275445Y18000D02*
X280445Y23000D01*
X275445Y10445D02*
Y18000D01*
X270000Y5000D02*
X275445Y10445D01*
X205000Y5000D02*
X270000D01*
X195000Y15000D02*
X205000Y5000D01*
X85000Y237000D02*
X86000Y236000D01*
X96555D01*
X110000Y262000D02*
X129500D01*
X149000D01*
X342000Y70000D02*
X348000Y76000D01*
X314000Y34000D02*
Y55000D01*
X329000Y70000D01*
X342000D01*
X47000Y137000D02*
X51000Y133000D01*
X234000Y262000D02*
X282000D01*
X292584D01*
D50*
X308001Y209099D02*
X312100Y205000D01*
X338000D01*
X342000Y211000D02*
X350000Y203000D01*
X342000Y211000D02*
Y217000D01*
X344000Y219000D01*
X355000D01*
X342000Y217000D02*
Y223000D01*
X345000Y226000D01*
X351000D01*
D51*
X253000Y109000D02*
D03*
X272213D02*
D03*
X313287Y252500D02*
D03*
X332500D02*
D03*
X121000Y164787D02*
D03*
Y184000D02*
D03*
D52*
X290000Y150221D02*
D03*
D53*
Y179748D02*
D03*
D54*
X268000Y269000D02*
D03*
X258000D02*
D03*
X248000D02*
D03*
X385000Y37000D02*
D03*
X355000D02*
D03*
X345000D02*
D03*
Y57000D02*
D03*
X355000D02*
D03*
X385000D02*
D03*
X308000Y219000D02*
D03*
X298000D02*
D03*
X308000Y229000D02*
D03*
X298001Y209099D02*
D03*
X308001D02*
D03*
X159000Y268000D02*
D03*
X189000D02*
D03*
X179000D02*
D03*
X169000D02*
D03*
X149000D02*
D03*
X240551Y131890D02*
D03*
X180551D02*
D03*
X170551D02*
D03*
X160551D02*
D03*
X130551D02*
D03*
X100551D02*
D03*
X110551D02*
D03*
X120551D02*
D03*
X140551D02*
D03*
X150551D02*
D03*
X190551D02*
D03*
X200551D02*
D03*
X210551D02*
D03*
X220551D02*
D03*
X230551D02*
D03*
D55*
X238000Y269000D02*
D03*
X298000Y229000D02*
D03*
X199000Y268000D02*
D03*
X90551Y131890D02*
D03*
D56*
X66000Y212000D02*
D03*
X420000Y15000D02*
D03*
Y260000D02*
D03*
X15000Y15000D02*
D03*
D57*
X305000Y12500D02*
D03*
X379842D02*
D03*
X364843D02*
D03*
X349843D02*
D03*
D58*
X290000D02*
D03*
D59*
X380039Y157000D02*
D03*
D60*
X409961D02*
D03*
D61*
X32658Y75157D02*
D03*
X42500Y85000D02*
D03*
X22815D02*
D03*
Y65315D02*
D03*
X42500D02*
D03*
X12972Y75157D02*
D03*
D62*
X166595Y27252D02*
D03*
X121595D02*
D03*
D63*
X170177Y7961D02*
D03*
X160177D02*
D03*
X128012D02*
D03*
X118012D02*
D03*
D64*
X126594Y52252D02*
D03*
X131595Y62252D02*
D03*
X136594Y52252D02*
D03*
X141595Y62252D02*
D03*
X146595Y52252D02*
D03*
X151594Y62252D02*
D03*
X156595Y52252D02*
D03*
X161594Y62252D02*
D03*
D65*
X113602Y39260D02*
D03*
X174587D02*
D03*
D66*
X73622Y37402D02*
D03*
Y12205D02*
D03*
D67*
X92126Y24803D02*
D03*
D68*
X45000Y235000D02*
D03*
X75000Y180000D02*
D03*
X55000D02*
D03*
X180000Y200000D02*
D03*
Y210000D02*
D03*
X205000Y20000D02*
D03*
X130000Y155000D02*
D03*
X120000D02*
D03*
X410000Y255000D02*
D03*
Y265000D02*
D03*
X400000Y255000D02*
D03*
Y265000D02*
D03*
X375000Y180000D02*
D03*
Y190000D02*
D03*
X365000Y170000D02*
D03*
Y180000D02*
D03*
Y190000D02*
D03*
X313000Y265000D02*
D03*
X49500Y42500D02*
D03*
X47000Y158000D02*
D03*
X25000Y192000D02*
D03*
X36000Y203000D02*
D03*
X52000Y133000D02*
D03*
D69*
X224000Y44000D02*
D03*
X339331Y224331D02*
D03*
Y220000D02*
D03*
Y215669D02*
D03*
X335000Y224331D02*
D03*
Y220000D02*
D03*
Y215669D02*
D03*
X330669Y224331D02*
D03*
Y220000D02*
D03*
Y215669D02*
D03*
X41831Y134665D02*
D03*
Y130335D02*
D03*
X37500Y134665D02*
D03*
Y130335D02*
D03*
X33169Y134665D02*
D03*
Y130335D02*
D03*
X164000Y121615D02*
D03*
X201000Y138378D02*
D03*
X142000Y181000D02*
D03*
X171000Y122000D02*
D03*
X147000Y184000D02*
D03*
X168000Y165000D02*
D03*
X140000Y190000D02*
D03*
X153000Y171000D02*
D03*
X202000Y231000D02*
D03*
X426000Y35000D02*
D03*
X320000Y100000D02*
D03*
X235000Y118000D02*
D03*
Y113000D02*
D03*
Y108000D02*
D03*
Y104000D02*
D03*
X348000Y76000D02*
D03*
X300000Y183000D02*
D03*
X279000D02*
D03*
X215000Y219000D02*
D03*
X370000Y146000D02*
D03*
X297000Y180000D02*
D03*
X215000Y215000D02*
D03*
X259000Y186000D02*
D03*
X189000Y175000D02*
D03*
X192000Y178000D02*
D03*
X188000Y157000D02*
D03*
X247500Y145000D02*
D03*
X250000Y150000D02*
D03*
X287000Y94000D02*
D03*
X284000Y91000D02*
D03*
X186000Y154000D02*
D03*
X238000Y83000D02*
D03*
X167000Y153000D02*
D03*
X242000Y80000D02*
D03*
X173000Y159000D02*
D03*
X246000Y80000D02*
D03*
X175000Y155000D02*
D03*
X247000Y83000D02*
D03*
X175000Y151000D02*
D03*
X115000Y110000D02*
D03*
Y116000D02*
D03*
X236000Y66000D02*
D03*
Y69000D02*
D03*
X105000Y101000D02*
D03*
X190000Y109000D02*
D03*
X240000Y68000D02*
D03*
X190000Y113000D02*
D03*
X240000Y72000D02*
D03*
X252000Y234000D02*
D03*
X178000Y240000D02*
D03*
X181000Y239000D02*
D03*
X172000Y258000D02*
D03*
X139000Y252000D02*
D03*
X243000Y205000D02*
D03*
X224000Y210000D02*
D03*
X239000Y205000D02*
D03*
X227000D02*
D03*
X231000D02*
D03*
X235000D02*
D03*
X302000Y187000D02*
D03*
X85000Y237000D02*
D03*
X338000Y205000D02*
D03*
X351000Y226000D02*
D03*
X350000Y203000D02*
D03*
X355000Y219000D02*
D03*
X135000Y250000D02*
D03*
X149000Y262000D02*
D03*
X214000Y267000D02*
D03*
X211000Y262000D02*
D03*
X199000Y243000D02*
D03*
X153000Y188000D02*
D03*
X213000Y153000D02*
D03*
X252000D02*
D03*
X216000Y156000D02*
D03*
X218000Y159000D02*
D03*
X215000Y165000D02*
D03*
X218000Y168000D02*
D03*
X323000Y125000D02*
D03*
X160000Y185000D02*
D03*
X158000Y178000D02*
D03*
X217000Y243000D02*
D03*
X149000Y248000D02*
D03*
X345000Y139000D02*
D03*
X341000Y122000D02*
D03*
X349000Y137000D02*
D03*
X356000Y122000D02*
D03*
X348000Y97000D02*
D03*
X187000Y116000D02*
D03*
X178000Y95000D02*
D03*
X183000Y103000D02*
D03*
X195000Y15000D02*
D03*
X139000Y100000D02*
D03*
X109000D02*
D03*
X80000Y92000D02*
D03*
X228000Y213000D02*
D03*
X196000Y221000D02*
D03*
X397000Y89000D02*
D03*
X406000Y113000D02*
D03*
X310000Y166000D02*
D03*
X305000Y170000D02*
D03*
X298000Y176000D02*
D03*
X219000Y190000D02*
D03*
X216000Y188000D02*
D03*
X213000Y186000D02*
D03*
X210000Y184000D02*
D03*
X187000Y221000D02*
D03*
X375000Y125000D02*
D03*
X282000Y262000D02*
D03*
X187000Y87750D02*
D03*
X184000Y249000D02*
D03*
X124000Y197000D02*
D03*
Y201000D02*
D03*
X103000Y195000D02*
D03*
Y200000D02*
D03*
X245540Y139304D02*
D03*
X269000Y246000D02*
D03*
X243000Y245000D02*
D03*
D70*
X236000Y231000D02*
D03*
Y238874D02*
D03*
D71*
X208441Y234937D02*
D03*
D72*
X287000Y211700D02*
D03*
D73*
X286200Y214800D02*
D03*
D74*
X287800D02*
D03*
X286300Y211200D02*
D03*
X275800Y214700D02*
D03*
D75*
X287700Y211200D02*
D03*
X272200Y214800D02*
D03*
X275800Y213300D02*
D03*
D76*
X275300Y214000D02*
D03*
D77*
X272200Y213200D02*
D03*
D78*
X259551Y221500D02*
D03*
Y226500D02*
D03*
Y231500D02*
D03*
Y236500D02*
D03*
X278449Y221500D02*
D03*
Y226500D02*
D03*
Y231500D02*
D03*
Y236500D02*
D03*
X105551Y209500D02*
D03*
Y214500D02*
D03*
Y219500D02*
D03*
Y224500D02*
D03*
X124449Y209500D02*
D03*
Y214500D02*
D03*
Y219500D02*
D03*
Y224500D02*
D03*
D79*
X253535Y62673D02*
D03*
Y64642D02*
D03*
Y66610D02*
D03*
Y68579D02*
D03*
Y70547D02*
D03*
Y72516D02*
D03*
Y74484D02*
D03*
Y76453D02*
D03*
Y78421D02*
D03*
Y80390D02*
D03*
Y82358D02*
D03*
Y84327D02*
D03*
X220465D02*
D03*
Y82358D02*
D03*
Y80390D02*
D03*
Y78421D02*
D03*
Y76453D02*
D03*
Y74484D02*
D03*
Y72516D02*
D03*
Y70547D02*
D03*
Y68579D02*
D03*
Y66610D02*
D03*
Y64642D02*
D03*
Y62673D02*
D03*
D80*
X247827Y90035D02*
D03*
X245858D02*
D03*
X243890D02*
D03*
X241921D02*
D03*
X239953D02*
D03*
X237984D02*
D03*
X236016D02*
D03*
X234047D02*
D03*
X232079D02*
D03*
X230110D02*
D03*
X228142D02*
D03*
X226173D02*
D03*
Y56965D02*
D03*
X228142D02*
D03*
X230110D02*
D03*
X232079D02*
D03*
X234047D02*
D03*
X236016D02*
D03*
X237984D02*
D03*
X239953D02*
D03*
X241921D02*
D03*
X243890D02*
D03*
X245858D02*
D03*
X247827D02*
D03*
D81*
X416339Y92933D02*
D03*
X383661D02*
D03*
Y147067D02*
D03*
X416339D02*
D03*
D82*
X393898Y102303D02*
D03*
Y106634D02*
D03*
Y110965D02*
D03*
Y115295D02*
D03*
Y119626D02*
D03*
Y123957D02*
D03*
Y128287D02*
D03*
Y132618D02*
D03*
D83*
X182587Y63500D02*
D03*
X193413D02*
D03*
D84*
X106000Y57000D02*
D03*
X92000D02*
D03*
D85*
X211000Y108260D02*
D03*
Y115740D02*
D03*
X258000Y19740D02*
D03*
Y12260D02*
D03*
D86*
X290000Y196402D02*
D03*
D87*
Y134197D02*
D03*
D88*
X95559Y175701D02*
D03*
X93000D02*
D03*
X90441D02*
D03*
Y188299D02*
D03*
X93000D02*
D03*
X95559D02*
D03*
M02*
