G04 Layer_Physical_Order=1*
G04 Layer_Color=255*
%FSLAX25Y25*%
%MOIN*%
G70*
G01*
G75*
%ADD10R,0.03937X0.06299*%
%ADD11R,0.05000X0.06500*%
%ADD12R,0.06500X0.05000*%
%ADD13R,0.04724X0.04724*%
%ADD14R,0.03937X0.11811*%
%ADD15R,0.11811X0.31496*%
%ADD16R,0.04724X0.04724*%
%ADD17R,0.06299X0.05906*%
%ADD18R,0.05512X0.03937*%
%ADD19R,0.05906X0.04724*%
%ADD20R,0.03543X0.02362*%
%ADD21R,0.02362X0.03543*%
%ADD22R,0.07874X0.11811*%
%ADD23R,0.06457X0.03937*%
%ADD24R,0.12598X0.09843*%
%ADD25R,0.12205X0.12205*%
%ADD26R,0.03543X0.00945*%
%ADD27R,0.00945X0.03543*%
%ADD28O,0.02362X0.08661*%
%ADD29R,0.06496X0.02362*%
%ADD30R,0.00984X0.06890*%
%ADD31R,0.06890X0.00984*%
%ADD32R,0.05906X0.07284*%
%ADD33R,0.08465X0.12795*%
%ADD34R,0.08465X0.03740*%
%ADD35R,0.02362X0.08661*%
%ADD36R,0.12598X0.07677*%
%ADD37R,0.07284X0.04921*%
%ADD38R,0.04921X0.07284*%
%ADD39R,0.06457X0.09449*%
%ADD40R,0.09449X0.06457*%
%ADD41R,0.02323X0.01772*%
%ADD42R,0.09843X0.08465*%
%ADD43R,0.08465X0.09843*%
%ADD44R,0.04921X0.06299*%
%ADD45R,0.08858X0.06299*%
%ADD46R,0.05906X0.09449*%
%ADD47R,0.02362X0.01575*%
%ADD48C,0.01000*%
%ADD49C,0.02000*%
%ADD50C,0.00600*%
%ADD51C,0.07874*%
%ADD52C,0.03937*%
%ADD53C,0.05118*%
%ADD54C,0.05906*%
%ADD55R,0.05906X0.05906*%
%ADD56C,0.12500*%
%ADD57C,0.08858*%
%ADD58R,0.08858X0.08858*%
%ADD59C,0.06299*%
%ADD60R,0.06299X0.06299*%
%ADD61C,0.07087*%
%ADD62C,0.13583*%
%ADD63C,0.07165*%
%ADD64C,0.06693*%
%ADD65C,0.09567*%
%ADD66O,0.18000X0.08000*%
%ADD67O,0.08000X0.18000*%
%ADD68C,0.05000*%
%ADD69C,0.01969*%
G36*
X254684Y269500D02*
X254618Y269000D01*
X254734Y268125D01*
X255071Y267309D01*
X255609Y266609D01*
X256309Y266071D01*
X257082Y265751D01*
Y253380D01*
X217536Y213833D01*
X216487D01*
X216219Y214333D01*
X216304Y214460D01*
X216411Y215000D01*
X216304Y215540D01*
X215998Y215998D01*
X215540Y216304D01*
X215000Y216411D01*
X214460Y216304D01*
X214177Y216115D01*
X214131Y216127D01*
X213979Y216681D01*
X214905Y217607D01*
X215000Y217589D01*
X215540Y217696D01*
X215998Y218002D01*
X216304Y218460D01*
X216411Y219000D01*
X216304Y219540D01*
X215998Y219998D01*
X215540Y220304D01*
X215000Y220411D01*
X214460Y220304D01*
X214002Y219998D01*
X213696Y219540D01*
X213589Y219000D01*
X213608Y218905D01*
X212478Y217776D01*
X210763D01*
X210680Y217891D01*
X210574Y218276D01*
X214649Y222351D01*
X214848Y222649D01*
X214918Y223000D01*
Y253000D01*
X214848Y253351D01*
X214649Y253649D01*
X202353Y265945D01*
Y270000D01*
X219958D01*
Y268362D01*
X214445D01*
X214345Y268343D01*
X214000Y268411D01*
X213460Y268304D01*
X213002Y267998D01*
X212696Y267540D01*
X212589Y267000D01*
X212696Y266460D01*
X213002Y266002D01*
X213460Y265696D01*
X214000Y265589D01*
X214540Y265696D01*
X214998Y266002D01*
X215304Y266460D01*
X215317Y266527D01*
X219958D01*
Y264584D01*
X228042D01*
Y270000D01*
X234647D01*
Y265647D01*
X241353D01*
Y270000D01*
X243766D01*
X244095Y269624D01*
X244079Y269500D01*
X251921D01*
X251905Y269624D01*
X252234Y270000D01*
X254272D01*
X254684Y269500D01*
D02*
G37*
G36*
X334100Y263850D02*
X336286D01*
Y257296D01*
X335022Y256031D01*
X334687Y256288D01*
X333632Y256725D01*
X332500Y256874D01*
X331368Y256725D01*
X330313Y256288D01*
X329407Y255593D01*
X328712Y254687D01*
X328275Y253632D01*
X328126Y252500D01*
X328275Y251368D01*
X328712Y250313D01*
X329407Y249407D01*
X330313Y248712D01*
X331368Y248275D01*
X332500Y248126D01*
X332926Y248182D01*
X333302Y247852D01*
Y232968D01*
X333032Y232812D01*
X332761Y232968D01*
Y233740D01*
X332707Y234013D01*
X332552Y234245D01*
X316819Y249978D01*
X317076Y250313D01*
X317513Y251368D01*
X317662Y252500D01*
X317513Y253632D01*
X317076Y254687D01*
X316381Y255593D01*
X315475Y256288D01*
X314420Y256725D01*
X313287Y256874D01*
X312155Y256725D01*
X311100Y256288D01*
X310194Y255593D01*
X309499Y254687D01*
X309062Y253632D01*
X309007Y253214D01*
X299650D01*
Y255400D01*
X292350D01*
Y249600D01*
X299650D01*
Y251786D01*
X309007D01*
X309062Y251368D01*
X309499Y250313D01*
X310194Y249407D01*
X311100Y248712D01*
X312155Y248275D01*
X313287Y248126D01*
X314420Y248275D01*
X315475Y248712D01*
X315809Y248969D01*
X331333Y233444D01*
Y232758D01*
X330907Y232386D01*
X330583Y232426D01*
X327505Y235505D01*
X327273Y235659D01*
X327000Y235714D01*
X305000D01*
X304727Y235659D01*
X304495Y235505D01*
X301343Y232353D01*
X294647D01*
Y229918D01*
X247000D01*
X246903Y229898D01*
X246657Y230359D01*
X249380Y233082D01*
X250948D01*
X251002Y233002D01*
X251460Y232696D01*
X252000Y232589D01*
X252540Y232696D01*
X252998Y233002D01*
X253304Y233460D01*
X253411Y234000D01*
X253304Y234540D01*
X252998Y234998D01*
X252540Y235304D01*
X252000Y235411D01*
X251460Y235304D01*
X251002Y234998D01*
X250948Y234918D01*
X249000D01*
X248649Y234848D01*
X248351Y234649D01*
X228095Y214392D01*
X228000Y214411D01*
X227460Y214304D01*
X227002Y213998D01*
X226696Y213540D01*
X226589Y213000D01*
X226696Y212460D01*
X227002Y212002D01*
X227460Y211696D01*
X227653Y211658D01*
X227817Y211115D01*
X224636Y207933D01*
X224284D01*
X224260Y207949D01*
X224023Y208433D01*
X224170Y208622D01*
X224540Y208696D01*
X224998Y209002D01*
X225304Y209460D01*
X225411Y210000D01*
X225304Y210540D01*
X224998Y210998D01*
X224540Y211304D01*
X224000Y211411D01*
X223460Y211304D01*
X223002Y210998D01*
X222696Y210540D01*
X222589Y210000D01*
X222098Y209902D01*
X220889D01*
X220806Y210017D01*
X220700Y210402D01*
X268649Y258351D01*
X268848Y258649D01*
X268918Y259000D01*
Y265751D01*
X269691Y266071D01*
X270391Y266609D01*
X270929Y267309D01*
X271266Y268125D01*
X271382Y269000D01*
X271316Y269500D01*
X271728Y270000D01*
X324500D01*
Y268000D01*
X328000D01*
X331500D01*
Y270000D01*
X334100D01*
Y263850D01*
D02*
G37*
G36*
X195647Y264647D02*
X201055D01*
X213082Y252620D01*
Y244423D01*
X212582Y244215D01*
X211250Y245548D01*
Y248000D01*
X207500D01*
Y245000D01*
X209202D01*
X211482Y242720D01*
Y224043D01*
X209152Y221713D01*
X208394D01*
Y222287D01*
X207794D01*
Y223656D01*
X206792D01*
X206601Y224118D01*
X207649Y225166D01*
X207848Y225464D01*
X207918Y225815D01*
Y236600D01*
X210650D01*
Y242400D01*
X205398D01*
X204149Y243649D01*
X203851Y243848D01*
X203500Y243918D01*
X200052D01*
X199998Y243998D01*
X199540Y244304D01*
X199000Y244411D01*
X198460Y244304D01*
X198181Y244118D01*
X197681Y244350D01*
Y260236D01*
X197612Y260587D01*
X197413Y260885D01*
X191946Y266352D01*
X192266Y267125D01*
X192382Y268000D01*
X192266Y268875D01*
X192008Y269500D01*
X192273Y270000D01*
X195647D01*
Y264647D01*
D02*
G37*
G36*
X428000Y5000D02*
X329228D01*
Y9126D01*
X320772D01*
Y5000D01*
X274228D01*
Y9126D01*
X265772D01*
Y5000D01*
X173556D01*
X173309Y5500D01*
X173656Y5952D01*
X174057Y6921D01*
X174194Y7961D01*
X174057Y9000D01*
X173656Y9969D01*
X173018Y10801D01*
X172186Y11440D01*
X171217Y11841D01*
X170177Y11978D01*
X169138Y11841D01*
X168169Y11440D01*
X168071Y11365D01*
X161787Y17649D01*
X161489Y17848D01*
X161138Y17918D01*
X125000D01*
X124649Y17848D01*
X124351Y17649D01*
X118602Y11900D01*
X118012Y11978D01*
X116972Y11841D01*
X116003Y11440D01*
X115171Y10801D01*
X114533Y9969D01*
X114132Y9000D01*
X113995Y7961D01*
X114132Y6921D01*
X114533Y5952D01*
X114880Y5500D01*
X114633Y5000D01*
X5000D01*
Y254026D01*
X5500Y254280D01*
X5750Y254104D01*
Y252000D01*
X9500D01*
Y255500D01*
Y259000D01*
X5750D01*
Y256896D01*
X5500Y256720D01*
X5000Y256974D01*
Y270000D01*
X77056D01*
X77323Y269500D01*
X77256Y269400D01*
X72350D01*
Y263600D01*
X79650D01*
Y268852D01*
X80798Y270000D01*
X111017D01*
X113962Y267055D01*
Y262238D01*
X120668D01*
Y265082D01*
X126100D01*
Y262350D01*
X131900D01*
Y269650D01*
X132255Y270000D01*
X133745D01*
X134100Y269650D01*
Y262350D01*
X139900D01*
Y265082D01*
X147000D01*
X147234Y265129D01*
X147309Y265071D01*
X148125Y264734D01*
X149000Y264618D01*
X149875Y264734D01*
X150691Y265071D01*
X151391Y265609D01*
X151929Y266309D01*
X152267Y267125D01*
X152382Y268000D01*
X152267Y268875D01*
X152008Y269500D01*
X152273Y270000D01*
X155009D01*
X155343Y269500D01*
X155149Y269032D01*
X155079Y268500D01*
X159000D01*
X162921D01*
X162851Y269032D01*
X162657Y269500D01*
X162991Y270000D01*
X165702D01*
X166054Y269649D01*
X165734Y268875D01*
X165618Y268000D01*
X165734Y267125D01*
X166071Y266309D01*
X166609Y265609D01*
X167309Y265071D01*
X168082Y264751D01*
Y261000D01*
X168152Y260649D01*
X168351Y260351D01*
X170607Y258095D01*
X170589Y258000D01*
X170696Y257460D01*
X171002Y257002D01*
X171460Y256696D01*
X172000Y256589D01*
X172540Y256696D01*
X172998Y257002D01*
X173304Y257460D01*
X173411Y258000D01*
X173304Y258540D01*
X172998Y258998D01*
X172540Y259304D01*
X172000Y259411D01*
X171905Y259392D01*
X169918Y261380D01*
Y264751D01*
X170691Y265071D01*
X171391Y265609D01*
X171929Y266309D01*
X172266Y267125D01*
X172382Y268000D01*
X172266Y268875D01*
X172008Y269500D01*
X172273Y270000D01*
X175727D01*
X175992Y269500D01*
X175733Y268875D01*
X175618Y268000D01*
X175733Y267125D01*
X176071Y266309D01*
X176609Y265609D01*
X177309Y265071D01*
X178125Y264734D01*
X179000Y264618D01*
X179875Y264734D01*
X180649Y265054D01*
X186082Y259620D01*
Y237380D01*
X184304Y235602D01*
X184105Y235304D01*
X184035Y234953D01*
Y234228D01*
X183876Y233794D01*
X183535Y233794D01*
X182092Y233794D01*
X181933Y234228D01*
Y234636D01*
X184649Y237351D01*
X184848Y237649D01*
X184918Y238000D01*
Y247948D01*
X184998Y248002D01*
X185304Y248460D01*
X185411Y249000D01*
X185304Y249540D01*
X184998Y249998D01*
X184540Y250304D01*
X184000Y250411D01*
X183688Y250349D01*
X183318Y250661D01*
X183250Y250733D01*
X183250Y250749D01*
Y253500D01*
X179500D01*
Y250500D01*
X182807D01*
X182853Y250500D01*
X182872Y250437D01*
X182998Y249991D01*
X182696Y249540D01*
X182625Y249181D01*
X182589Y249000D01*
X182507Y248900D01*
X182220Y248900D01*
X175350D01*
Y243648D01*
X174559Y242857D01*
X174175Y242964D01*
X174059Y243046D01*
Y250121D01*
X173989Y250472D01*
X173791Y250770D01*
X166912Y257649D01*
X166614Y257848D01*
X166263Y257918D01*
X100000D01*
X99649Y257848D01*
X99351Y257649D01*
X89351Y247649D01*
X89152Y247351D01*
X89082Y247000D01*
Y215000D01*
X89152Y214649D01*
X89351Y214351D01*
X95482Y208220D01*
Y151337D01*
X95552Y150986D01*
X95751Y150688D01*
X100088Y146351D01*
X100386Y146152D01*
X100737Y146082D01*
X114620D01*
X119633Y141069D01*
Y135139D01*
X118860Y134818D01*
X118160Y134281D01*
X117623Y133581D01*
X117418Y133086D01*
X116918Y133185D01*
Y135000D01*
X116848Y135351D01*
X116649Y135649D01*
X113649Y138649D01*
X113351Y138848D01*
X113000Y138918D01*
X106661D01*
X106310Y138848D01*
X106013Y138649D01*
X102200Y134836D01*
X101426Y135156D01*
X100551Y135271D01*
X99676Y135156D01*
X99413Y135047D01*
X91427Y143032D01*
Y204000D01*
X91427Y204000D01*
X91319Y204546D01*
X91009Y205009D01*
X91009Y205009D01*
X73005Y223013D01*
X72542Y223323D01*
X71996Y223431D01*
X71996Y223431D01*
X41441D01*
X41441Y223431D01*
X41441Y223431D01*
X40829D01*
Y225553D01*
X31171D01*
Y221927D01*
X23650D01*
Y223400D01*
X19119D01*
X11427Y231091D01*
Y242401D01*
X11889Y242592D01*
X12546Y241936D01*
X12546Y241935D01*
X13009Y241626D01*
X13555Y241517D01*
X13555Y241517D01*
X17950D01*
Y240675D01*
X27215D01*
Y245215D01*
X17950D01*
Y244372D01*
X14146D01*
X13650Y244869D01*
Y249400D01*
X6350D01*
Y243600D01*
X8573D01*
Y230500D01*
X8573Y230500D01*
X8681Y229954D01*
X8991Y229491D01*
X16350Y222131D01*
Y217600D01*
X23650D01*
Y219073D01*
X31171D01*
Y218454D01*
X40829D01*
Y219890D01*
X41329Y220097D01*
X58301Y203125D01*
Y199872D01*
X38495D01*
X38325Y200372D01*
X38496Y200504D01*
X39057Y201235D01*
X39410Y202086D01*
X39464Y202500D01*
X32536D01*
X32590Y202086D01*
X32943Y201235D01*
X33504Y200504D01*
X33675Y200372D01*
X33505Y199872D01*
X20945D01*
X20399Y199764D01*
X19936Y199454D01*
X19936Y199454D01*
X11491Y191009D01*
X11181Y190546D01*
X11073Y190000D01*
X11073Y190000D01*
Y151900D01*
X8850D01*
Y146100D01*
X16150D01*
Y151900D01*
X13927D01*
Y189409D01*
X21536Y197018D01*
X58301D01*
Y193124D01*
X71699D01*
Y203766D01*
X61697D01*
X45349Y220115D01*
X45540Y220577D01*
X71405D01*
X88573Y203409D01*
Y142441D01*
X88573Y142441D01*
X88681Y141895D01*
X88991Y141432D01*
X94080Y136343D01*
X93873Y135843D01*
X91051D01*
Y132390D01*
X94504D01*
Y135211D01*
X95004Y135418D01*
X97394Y133028D01*
X97285Y132765D01*
X97170Y131890D01*
X97285Y131015D01*
X97623Y130199D01*
X98142Y129523D01*
X84680Y116061D01*
X81175D01*
Y110537D01*
X86699D01*
Y114043D01*
X101258Y128601D01*
X101426Y128623D01*
X102242Y128961D01*
X102942Y129499D01*
X103480Y130199D01*
X103818Y131015D01*
X103933Y131890D01*
X103818Y132765D01*
X103497Y133538D01*
X107042Y137082D01*
X112620D01*
X115082Y134620D01*
Y128000D01*
X115152Y127649D01*
X115351Y127351D01*
X118351Y124351D01*
X118649Y124152D01*
X119000Y124082D01*
X223661D01*
X224013Y124152D01*
X224310Y124351D01*
X228903Y128944D01*
X229676Y128623D01*
X230551Y128508D01*
X231426Y128623D01*
X232242Y128961D01*
X232942Y129499D01*
X233480Y130199D01*
X233818Y131015D01*
X233933Y131890D01*
X233818Y132765D01*
X233497Y133538D01*
X238346Y138386D01*
X244488D01*
X244542Y138306D01*
X245000Y138000D01*
X245540Y137893D01*
X246080Y138000D01*
X246538Y138306D01*
X246844Y138764D01*
X246908Y139087D01*
X247428Y139274D01*
X248082Y138620D01*
Y135380D01*
X245510Y132807D01*
X243800D01*
X243480Y133581D01*
X242942Y134281D01*
X242242Y134818D01*
X241426Y135156D01*
X240551Y135271D01*
X239676Y135156D01*
X238860Y134818D01*
X238160Y134281D01*
X237623Y133581D01*
X237285Y132765D01*
X237170Y131890D01*
X237285Y131015D01*
X237623Y130199D01*
X238160Y129499D01*
X238860Y128961D01*
X239676Y128623D01*
X240551Y128508D01*
X241426Y128623D01*
X242242Y128961D01*
X242942Y129499D01*
X243480Y130199D01*
X243800Y130972D01*
X245890D01*
X246241Y131042D01*
X246539Y131241D01*
X249649Y134351D01*
X249848Y134649D01*
X249918Y135000D01*
Y139000D01*
X249848Y139351D01*
X249649Y139649D01*
X243649Y145649D01*
X243351Y145848D01*
X243000Y145918D01*
X242900D01*
Y148650D01*
X237100D01*
Y141350D01*
X242900D01*
Y143149D01*
X243362Y143340D01*
X245510Y141192D01*
X245323Y140672D01*
X245000Y140608D01*
X244542Y140302D01*
X244488Y140222D01*
X237965D01*
X237614Y140152D01*
X237316Y139953D01*
X232200Y134836D01*
X231426Y135156D01*
X230551Y135271D01*
X229676Y135156D01*
X228860Y134818D01*
X228160Y134281D01*
X227623Y133581D01*
X227285Y132765D01*
X227169Y131890D01*
X227285Y131015D01*
X227605Y130241D01*
X223281Y125918D01*
X119380D01*
X116918Y128380D01*
Y130594D01*
X117418Y130694D01*
X117623Y130199D01*
X118160Y129499D01*
X118860Y128961D01*
X119676Y128623D01*
X120551Y128508D01*
X121426Y128623D01*
X122242Y128961D01*
X122942Y129499D01*
X123480Y130199D01*
X123818Y131015D01*
X123933Y131890D01*
X123818Y132765D01*
X123480Y133581D01*
X122942Y134281D01*
X122242Y134818D01*
X121469Y135139D01*
Y141449D01*
X121399Y141800D01*
X121200Y142098D01*
X115715Y147582D01*
X115766Y147851D01*
X115900Y148082D01*
X134620D01*
X139634Y143069D01*
Y135139D01*
X138860Y134818D01*
X138160Y134281D01*
X137623Y133581D01*
X137285Y132765D01*
X137170Y131890D01*
X137285Y131015D01*
X137623Y130199D01*
X138160Y129499D01*
X138860Y128961D01*
X139676Y128623D01*
X140551Y128508D01*
X141426Y128623D01*
X142242Y128961D01*
X142942Y129499D01*
X143480Y130199D01*
X143818Y131015D01*
X143933Y131890D01*
X143818Y132765D01*
X143480Y133581D01*
X142942Y134281D01*
X142242Y134818D01*
X141469Y135139D01*
Y143449D01*
X141399Y143800D01*
X141200Y144098D01*
X135649Y149649D01*
X135351Y149848D01*
X135000Y149918D01*
X101380D01*
X98918Y152380D01*
Y210000D01*
X98848Y210351D01*
X98649Y210649D01*
X92918Y216380D01*
Y245620D01*
X101380Y254082D01*
X106095D01*
Y238059D01*
X119905D01*
Y254082D01*
X165620D01*
X166990Y252712D01*
X166799Y252250D01*
X165000D01*
Y248000D01*
Y243750D01*
X167452D01*
X168287Y242915D01*
Y237200D01*
X168172Y237117D01*
X167787Y237011D01*
X161510Y243288D01*
X161701Y243750D01*
X164000D01*
Y247500D01*
X161000D01*
Y244451D01*
X160538Y244260D01*
X158400Y246398D01*
Y251650D01*
X152600D01*
Y248918D01*
X150052D01*
X149998Y248998D01*
X149540Y249304D01*
X149000Y249411D01*
X148460Y249304D01*
X148002Y248998D01*
X147696Y248540D01*
X147589Y248000D01*
X147696Y247460D01*
X148002Y247002D01*
X148460Y246696D01*
X149000Y246589D01*
X149540Y246696D01*
X149998Y247002D01*
X150052Y247082D01*
X152600D01*
Y244350D01*
X157852D01*
X166319Y235884D01*
Y229949D01*
X166344Y229821D01*
Y226104D01*
X167713D01*
Y225504D01*
X168705D01*
Y229949D01*
X169705D01*
Y225504D01*
X170697D01*
Y226104D01*
X172065D01*
Y226104D01*
X172250D01*
X172250Y226104D01*
X174034Y226104D01*
X174534Y226104D01*
X176002Y226104D01*
X176502Y226104D01*
X177971Y226104D01*
X178471Y226104D01*
X179939Y226104D01*
X180439Y226104D01*
X181908Y226104D01*
X182408Y226104D01*
X183876Y226104D01*
X184376Y226104D01*
X185845Y226104D01*
X186004Y225670D01*
Y221999D01*
X186002Y221998D01*
X185696Y221540D01*
X185589Y221000D01*
X185696Y220460D01*
X186002Y220002D01*
X186460Y219696D01*
X187000Y219589D01*
X187540Y219696D01*
X187998Y220002D01*
X188304Y220460D01*
X188411Y221000D01*
X188304Y221540D01*
X187998Y221998D01*
X187839Y222104D01*
Y225670D01*
X187998Y226104D01*
X188339Y226104D01*
X189782Y226104D01*
X189941Y225670D01*
Y199142D01*
X190010Y198791D01*
X190209Y198493D01*
X204082Y184620D01*
Y175000D01*
X204152Y174649D01*
X204351Y174351D01*
X208082Y170620D01*
Y157000D01*
X208152Y156649D01*
X208351Y156351D01*
X211608Y153095D01*
X211589Y153000D01*
X211696Y152460D01*
X212002Y152002D01*
X212460Y151696D01*
X213000Y151589D01*
X213540Y151696D01*
X213998Y152002D01*
X214304Y152460D01*
X214411Y153000D01*
X214304Y153540D01*
X213998Y153998D01*
X213540Y154304D01*
X213000Y154411D01*
X212905Y154393D01*
X209918Y157380D01*
Y171000D01*
X209848Y171351D01*
X209649Y171649D01*
X205918Y175380D01*
Y185000D01*
X205848Y185351D01*
X205649Y185649D01*
X191776Y199522D01*
Y223237D01*
X191891Y223320D01*
X192276Y223426D01*
X194607Y221095D01*
X194589Y221000D01*
X194696Y220460D01*
X195002Y220002D01*
X195460Y219696D01*
X196000Y219589D01*
X196540Y219696D01*
X196998Y220002D01*
X197304Y220460D01*
X197411Y221000D01*
X197304Y221540D01*
X196998Y221998D01*
X196540Y222304D01*
X196000Y222411D01*
X195905Y222393D01*
X193744Y224553D01*
Y225670D01*
X193903Y226104D01*
X194244Y226104D01*
X195687Y226104D01*
X196187Y226104D01*
X197656D01*
Y229821D01*
X197681Y229949D01*
Y241650D01*
X198181Y241882D01*
X198460Y241696D01*
X199000Y241589D01*
X199540Y241696D01*
X199998Y242002D01*
X200052Y242082D01*
X203120D01*
X203350Y241852D01*
Y236600D01*
X206082D01*
Y226195D01*
X203543Y223656D01*
X200104D01*
Y222287D01*
X199504D01*
Y221295D01*
X203949D01*
Y220295D01*
X199504D01*
Y219303D01*
X199750D01*
X200104Y218950D01*
X200104Y217935D01*
X200104Y217435D01*
X200104Y215966D01*
X200104Y215466D01*
Y213998D01*
X200104D01*
Y213813D01*
X200104D01*
Y212345D01*
X200104Y212029D01*
X200104D01*
Y211845D01*
X200104Y211845D01*
X200104Y210061D01*
X200104Y209561D01*
X200104Y208092D01*
X200104Y207592D01*
X200104Y206124D01*
X200104Y205624D01*
X200104Y204155D01*
X200104Y203655D01*
X200104Y202187D01*
X200104Y201687D01*
X200104Y200218D01*
X200104Y199718D01*
X200104Y198250D01*
X200104Y197750D01*
X200104Y196281D01*
X200104Y195781D01*
X200104Y194313D01*
X200104Y193813D01*
Y192344D01*
X203821D01*
X203949Y192319D01*
X208384D01*
X209082Y191620D01*
Y185052D01*
X209002Y184998D01*
X208696Y184540D01*
X208589Y184000D01*
X208696Y183460D01*
X209002Y183002D01*
X209460Y182696D01*
X210000Y182589D01*
X210540Y182696D01*
X210998Y183002D01*
X211304Y183460D01*
X211411Y184000D01*
X211304Y184540D01*
X210998Y184998D01*
X210918Y185052D01*
Y192000D01*
X210848Y192351D01*
X210649Y192649D01*
X209511Y193787D01*
X209617Y194172D01*
X209700Y194287D01*
X210415D01*
X212082Y192620D01*
Y187052D01*
X212002Y186998D01*
X211696Y186540D01*
X211589Y186000D01*
X211696Y185460D01*
X212002Y185002D01*
X212460Y184696D01*
X213000Y184589D01*
X213540Y184696D01*
X213998Y185002D01*
X214304Y185460D01*
X214411Y186000D01*
X214304Y186540D01*
X213998Y186998D01*
X213918Y187052D01*
Y193000D01*
X213848Y193351D01*
X213649Y193649D01*
X211542Y195756D01*
X211649Y196140D01*
X211731Y196256D01*
X213447D01*
X215082Y194620D01*
Y189052D01*
X215002Y188998D01*
X214696Y188540D01*
X214589Y188000D01*
X214696Y187460D01*
X215002Y187002D01*
X215460Y186696D01*
X216000Y186589D01*
X216540Y186696D01*
X216998Y187002D01*
X217304Y187460D01*
X217411Y188000D01*
X217304Y188540D01*
X216998Y188998D01*
X216918Y189052D01*
Y195000D01*
X216848Y195351D01*
X216649Y195649D01*
X214574Y197724D01*
X214680Y198109D01*
X214763Y198224D01*
X215478D01*
X218082Y195620D01*
Y191052D01*
X218002Y190998D01*
X217696Y190540D01*
X217589Y190000D01*
X217696Y189460D01*
X218002Y189002D01*
X218460Y188696D01*
X219000Y188589D01*
X219540Y188696D01*
X219982Y188992D01*
X220077Y188973D01*
X220482Y188827D01*
Y143119D01*
X212200Y134836D01*
X211426Y135156D01*
X210551Y135271D01*
X209676Y135156D01*
X208860Y134818D01*
X208160Y134281D01*
X207623Y133581D01*
X207285Y132765D01*
X207170Y131890D01*
X207285Y131015D01*
X207623Y130199D01*
X208160Y129499D01*
X208860Y128961D01*
X209676Y128623D01*
X210551Y128508D01*
X211426Y128623D01*
X212242Y128961D01*
X212942Y129499D01*
X213480Y130199D01*
X213818Y131015D01*
X213933Y131890D01*
X213818Y132765D01*
X213497Y133538D01*
X222049Y142090D01*
X222248Y142387D01*
X222318Y142739D01*
Y196600D01*
X222300Y196690D01*
X222715Y196905D01*
X223082Y196609D01*
Y135719D01*
X222200Y134836D01*
X221426Y135156D01*
X220551Y135271D01*
X219676Y135156D01*
X218860Y134818D01*
X218160Y134281D01*
X217623Y133581D01*
X217285Y132765D01*
X217169Y131890D01*
X217285Y131015D01*
X217623Y130199D01*
X218160Y129499D01*
X218860Y128961D01*
X219676Y128623D01*
X220551Y128508D01*
X221426Y128623D01*
X222242Y128961D01*
X222942Y129499D01*
X223480Y130199D01*
X223818Y131015D01*
X223933Y131890D01*
X223818Y132765D01*
X223497Y133538D01*
X224649Y134690D01*
X224848Y134987D01*
X224918Y135339D01*
Y197000D01*
X224848Y197351D01*
X224649Y197649D01*
X218668Y203630D01*
X218775Y204014D01*
X218857Y204130D01*
X222573D01*
X237082Y189620D01*
Y183900D01*
X234350D01*
Y178100D01*
X241650D01*
Y183900D01*
X238918D01*
Y190000D01*
X238848Y190351D01*
X238649Y190649D01*
X223700Y205598D01*
X223806Y205983D01*
X223889Y206098D01*
X225016D01*
X225367Y206168D01*
X225665Y206367D01*
X247380Y228082D01*
X294647D01*
Y225647D01*
X300446D01*
X300682Y225147D01*
X300502Y224918D01*
X246000D01*
X245649Y224848D01*
X245351Y224649D01*
X227095Y206393D01*
X227000Y206411D01*
X226460Y206304D01*
X226002Y205998D01*
X225696Y205540D01*
X225589Y205000D01*
X225696Y204460D01*
X226002Y204002D01*
X226460Y203696D01*
X227000Y203589D01*
X227540Y203696D01*
X227998Y204002D01*
X228304Y204460D01*
X228411Y205000D01*
X228393Y205095D01*
X246380Y223082D01*
X301000D01*
X301351Y223152D01*
X301649Y223351D01*
X305036Y226738D01*
X305535Y226705D01*
X305609Y226609D01*
X306309Y226071D01*
X307125Y225734D01*
X308000Y225618D01*
X308875Y225734D01*
X309691Y226071D01*
X310391Y226609D01*
X310929Y227309D01*
X311266Y228125D01*
X311382Y229000D01*
X311489Y229122D01*
X327238D01*
Y228219D01*
X327152Y227848D01*
X326782Y227762D01*
X322789D01*
Y226294D01*
X322789Y226017D01*
X322789Y225517D01*
X322789Y224049D01*
X322789Y223549D01*
X322789Y222080D01*
X322789Y221580D01*
Y220874D01*
X322327Y220682D01*
X318505Y224505D01*
X318273Y224659D01*
X318000Y224714D01*
X306000D01*
X305727Y224659D01*
X305495Y224505D01*
X301467Y220477D01*
X300977Y220574D01*
X300929Y220691D01*
X300391Y221391D01*
X299691Y221929D01*
X298875Y222266D01*
X298000Y222382D01*
X297125Y222266D01*
X296309Y221929D01*
X295609Y221391D01*
X295071Y220691D01*
X294751Y219918D01*
X245000D01*
X244649Y219848D01*
X244351Y219649D01*
X231095Y206393D01*
X231000Y206411D01*
X230460Y206304D01*
X230002Y205998D01*
X229696Y205540D01*
X229589Y205000D01*
X229696Y204460D01*
X230002Y204002D01*
X230460Y203696D01*
X231000Y203589D01*
X231540Y203696D01*
X231998Y204002D01*
X232304Y204460D01*
X232411Y205000D01*
X232393Y205095D01*
X245380Y218082D01*
X294751D01*
X295071Y217309D01*
X295609Y216609D01*
X296309Y216071D01*
X297125Y215734D01*
X298000Y215618D01*
X298875Y215734D01*
X299691Y216071D01*
X300391Y216609D01*
X300929Y217309D01*
X301266Y218125D01*
X301297Y218357D01*
X301505Y218495D01*
X306296Y223286D01*
X317704D01*
X322480Y218511D01*
X322515Y218488D01*
X322568Y218198D01*
X322212Y217761D01*
X311590D01*
X311284Y218261D01*
X311382Y219000D01*
X311266Y219875D01*
X310929Y220691D01*
X310391Y221391D01*
X309691Y221929D01*
X308875Y222266D01*
X308000Y222382D01*
X307125Y222266D01*
X306309Y221929D01*
X305609Y221391D01*
X305071Y220691D01*
X304734Y219875D01*
X304732Y219864D01*
X304649Y219848D01*
X304351Y219649D01*
X299620Y214918D01*
X244000D01*
X243649Y214848D01*
X243351Y214649D01*
X235095Y206393D01*
X235000Y206411D01*
X234460Y206304D01*
X234002Y205998D01*
X233696Y205540D01*
X233589Y205000D01*
X233696Y204460D01*
X234002Y204002D01*
X234460Y203696D01*
X235000Y203589D01*
X235540Y203696D01*
X235998Y204002D01*
X236304Y204460D01*
X236411Y205000D01*
X236392Y205095D01*
X237236Y205939D01*
X237780Y205776D01*
X237798Y205692D01*
X237696Y205540D01*
X237589Y205000D01*
X237696Y204460D01*
X238002Y204002D01*
X238460Y203696D01*
X239000Y203589D01*
X239540Y203696D01*
X239998Y204002D01*
X240304Y204460D01*
X240411Y205000D01*
X240304Y205540D01*
X240117Y205820D01*
X242479Y208182D01*
X294752D01*
X295072Y207408D01*
X295610Y206708D01*
X295988Y206418D01*
X295818Y205918D01*
X244052D01*
X243998Y205998D01*
X243540Y206304D01*
X243000Y206411D01*
X242460Y206304D01*
X242002Y205998D01*
X241696Y205540D01*
X241589Y205000D01*
X241696Y204460D01*
X242002Y204002D01*
X242460Y203696D01*
X243000Y203589D01*
X243540Y203696D01*
X243998Y204002D01*
X244052Y204082D01*
X303902D01*
X304253Y204152D01*
X304551Y204351D01*
X306352Y206153D01*
X307126Y205833D01*
X308001Y205717D01*
X308876Y205833D01*
X309692Y206171D01*
X310392Y206708D01*
X310930Y207408D01*
X311267Y208224D01*
X311383Y209099D01*
X311267Y209974D01*
X310930Y210790D01*
X310392Y211490D01*
X309692Y212028D01*
X308876Y212366D01*
X308001Y212481D01*
X307126Y212366D01*
X306310Y212028D01*
X305610Y211490D01*
X305072Y210790D01*
X304734Y209974D01*
X304619Y209099D01*
X304734Y208224D01*
X305055Y207451D01*
X303522Y205918D01*
X300184D01*
X300014Y206418D01*
X300392Y206708D01*
X300930Y207408D01*
X301267Y208224D01*
X301383Y209099D01*
X301351Y209341D01*
X306374Y214365D01*
X322252D01*
X322633Y213945D01*
X322606Y213615D01*
X319495Y210505D01*
X319341Y210273D01*
X319286Y210000D01*
Y205000D01*
X319341Y204727D01*
X319495Y204495D01*
X321786Y202204D01*
Y199900D01*
X318850D01*
Y196659D01*
X316542D01*
Y198805D01*
X308458D01*
Y193084D01*
X316542D01*
Y195231D01*
X318850D01*
Y194100D01*
X326150D01*
Y196286D01*
X328850D01*
Y194100D01*
X334391D01*
X336491Y192000D01*
X336284Y191500D01*
X333000D01*
Y188500D01*
X336750D01*
Y191033D01*
X337250Y191241D01*
X338850Y189641D01*
Y185600D01*
X346150D01*
Y189641D01*
X347750Y191241D01*
X348250Y191033D01*
Y188500D01*
X352000D01*
Y191500D01*
X348716D01*
X348509Y192000D01*
X350609Y194100D01*
X356150D01*
Y199900D01*
X353214D01*
Y200500D01*
X353159Y200773D01*
X353005Y201005D01*
X351345Y202665D01*
X351411Y203000D01*
X351304Y203540D01*
X350998Y203998D01*
X350540Y204304D01*
X350000Y204411D01*
X349460Y204304D01*
X349002Y203998D01*
X348696Y203540D01*
X348589Y203000D01*
X348696Y202460D01*
X349002Y202002D01*
X349460Y201696D01*
X350000Y201589D01*
X350335Y201655D01*
X351591Y200400D01*
X351384Y199900D01*
X348850D01*
Y194359D01*
X345891Y191400D01*
X339109D01*
X336150Y194359D01*
Y199900D01*
X332761D01*
Y207189D01*
X333516D01*
Y209961D01*
X334516D01*
Y207189D01*
X335484D01*
Y209961D01*
X336484D01*
Y207189D01*
X337239D01*
Y206156D01*
X337002Y205998D01*
X336696Y205540D01*
X336589Y205000D01*
X336696Y204460D01*
X337002Y204002D01*
X337460Y203696D01*
X337878Y203613D01*
X341591Y199900D01*
X341384Y199400D01*
X338850D01*
Y193600D01*
X346150D01*
Y199400D01*
X343214D01*
Y200000D01*
X343159Y200273D01*
X343005Y200505D01*
X339202Y204307D01*
X339304Y204460D01*
X339411Y205000D01*
X339304Y205540D01*
X338998Y205998D01*
X338667Y206220D01*
Y207505D01*
X339049Y207789D01*
X339325Y207789D01*
X340794Y207789D01*
X341294Y207789D01*
X342762D01*
Y211782D01*
X342848Y212152D01*
X343218Y212238D01*
X347211D01*
Y213606D01*
X347811D01*
Y214579D01*
X345039D01*
Y215579D01*
X347811D01*
Y216130D01*
X349573D01*
X352351Y213351D01*
X352649Y213152D01*
X353000Y213082D01*
X366372D01*
Y211490D01*
X373628D01*
Y216227D01*
X366372D01*
Y214918D01*
X353380D01*
X350602Y217696D01*
X350443Y217802D01*
X350595Y218302D01*
X353801D01*
X354002Y218002D01*
X354460Y217696D01*
X355000Y217589D01*
X355540Y217696D01*
X355998Y218002D01*
X356304Y218460D01*
X356411Y219000D01*
X356304Y219540D01*
X355998Y219998D01*
X355540Y220304D01*
X355000Y220411D01*
X354460Y220304D01*
X354002Y219998D01*
X353823Y219729D01*
X350626D01*
X350475Y220230D01*
X350633Y220335D01*
X353380Y223082D01*
X366372D01*
Y221773D01*
X373628D01*
Y226510D01*
X366372D01*
Y224918D01*
X353000D01*
X352649Y224848D01*
X352351Y224649D01*
X349604Y221902D01*
X347811D01*
Y222453D01*
X345039D01*
Y223453D01*
X347811D01*
Y224207D01*
X349921D01*
X350194Y224262D01*
X350426Y224417D01*
X350665Y224655D01*
X351000Y224589D01*
X351540Y224696D01*
X351998Y225002D01*
X352304Y225460D01*
X352411Y226000D01*
X352304Y226540D01*
X351998Y226998D01*
X351540Y227304D01*
X351000Y227411D01*
X350460Y227304D01*
X350002Y226998D01*
X349696Y226540D01*
X349589Y226000D01*
X349151Y225635D01*
X348532D01*
X348380Y226135D01*
X348539Y226241D01*
X353149Y230851D01*
X353348Y231149D01*
X353418Y231500D01*
Y232350D01*
X355400D01*
Y239650D01*
X354418D01*
Y243850D01*
X356400D01*
Y251150D01*
X350600D01*
Y243850D01*
X352582D01*
Y239650D01*
X349600D01*
Y232350D01*
X351510D01*
X351552Y231850D01*
X347510Y227807D01*
X345039D01*
X344812Y227762D01*
X343218D01*
X342848Y227848D01*
X342762Y228219D01*
Y229812D01*
X342807Y230039D01*
Y246510D01*
X355380Y259082D01*
X358100D01*
Y256350D01*
X360582D01*
Y251150D01*
X358600D01*
Y243850D01*
X364400D01*
Y251150D01*
X362418D01*
Y256350D01*
X363900D01*
Y263650D01*
X358100D01*
Y260918D01*
X355000D01*
X354649Y260848D01*
X354351Y260649D01*
X341241Y247539D01*
X341042Y247241D01*
X340972Y246890D01*
Y232811D01*
X340421D01*
Y230039D01*
X339421D01*
Y232811D01*
X338449D01*
Y232565D01*
X338095Y232211D01*
X337080Y232211D01*
X336580Y232211D01*
X335112Y232211D01*
X334730Y232495D01*
Y248744D01*
X335593Y249407D01*
X336288Y250313D01*
X336725Y251368D01*
X336874Y252500D01*
X336725Y253632D01*
X336288Y254687D01*
X336031Y255022D01*
X337505Y256495D01*
X337659Y256727D01*
X337714Y257000D01*
Y263850D01*
X339900D01*
Y270000D01*
X428000D01*
Y5000D01*
D02*
G37*
G36*
X185992Y269500D02*
X185733Y268875D01*
X185618Y268000D01*
X185733Y267125D01*
X186071Y266309D01*
X186609Y265609D01*
X187309Y265071D01*
X188125Y264734D01*
X189000Y264618D01*
X189875Y264734D01*
X190648Y265054D01*
X195846Y259856D01*
Y234228D01*
X195687Y233794D01*
X195346Y233794D01*
X193903Y233794D01*
X193403Y233794D01*
X191935Y233794D01*
X191435Y233794D01*
X189966Y233794D01*
X189466Y233794D01*
X187998Y233794D01*
X187498Y233794D01*
X186029Y233794D01*
X185870Y234228D01*
Y234573D01*
X187649Y236351D01*
X187848Y236649D01*
X187918Y237000D01*
Y260000D01*
X187848Y260351D01*
X187649Y260649D01*
X181946Y266352D01*
X182266Y267125D01*
X182382Y268000D01*
X182266Y268875D01*
X182008Y269500D01*
X182273Y270000D01*
X185727D01*
X185992Y269500D01*
D02*
G37*
G36*
X328318Y232673D02*
X328126Y232211D01*
X327238D01*
Y230957D01*
X310724D01*
X310391Y231391D01*
X309691Y231929D01*
X308875Y232266D01*
X308000Y232382D01*
X307125Y232266D01*
X306309Y231929D01*
X305609Y231391D01*
X305071Y230691D01*
X304734Y229875D01*
X304618Y229000D01*
X304628Y228926D01*
X301815Y226112D01*
X301353Y226304D01*
Y230343D01*
X305296Y234286D01*
X326704D01*
X328318Y232673D01*
D02*
G37*
G36*
X264684Y269500D02*
X264618Y269000D01*
X264734Y268125D01*
X265071Y267309D01*
X265609Y266609D01*
X266309Y266071D01*
X267082Y265751D01*
Y259380D01*
X219573Y211870D01*
X218855D01*
X218787Y211963D01*
X218668Y212370D01*
X258649Y252351D01*
X258848Y252649D01*
X258918Y253000D01*
Y265751D01*
X259691Y266071D01*
X260391Y266609D01*
X260929Y267309D01*
X261266Y268125D01*
X261382Y269000D01*
X261316Y269500D01*
X261728Y270000D01*
X264272D01*
X264684Y269500D01*
D02*
G37*
G36*
X305177Y217172D02*
X305609Y216609D01*
X306041Y216277D01*
X306044Y216242D01*
X305898Y215757D01*
X305806Y215738D01*
X305574Y215583D01*
X301133Y211142D01*
X300634Y211175D01*
X300392Y211490D01*
X299692Y212028D01*
X298876Y212366D01*
X298001Y212481D01*
X297126Y212366D01*
X296310Y212028D01*
X295610Y211490D01*
X295072Y210790D01*
X294752Y210017D01*
X242099D01*
X242002Y209998D01*
X241756Y210458D01*
X244380Y213082D01*
X300000D01*
X300351Y213152D01*
X300649Y213351D01*
X304596Y217298D01*
X305177Y217172D01*
D02*
G37*
G36*
X326638Y210461D02*
X328110D01*
Y209961D01*
X328610D01*
Y207189D01*
X329365D01*
Y204874D01*
X324391Y199900D01*
X323214D01*
Y202500D01*
X323159Y202773D01*
X323005Y203005D01*
X320714Y205296D01*
Y209704D01*
X323247Y212238D01*
X326638D01*
Y210461D01*
D02*
G37*
G36*
X166773Y10067D02*
X166698Y9969D01*
X166297Y9000D01*
X166160Y7961D01*
X166297Y6921D01*
X166698Y5952D01*
X167045Y5500D01*
X166799Y5000D01*
X163556D01*
X163309Y5500D01*
X163656Y5952D01*
X164057Y6921D01*
X164194Y7961D01*
X164057Y9000D01*
X163656Y9969D01*
X163018Y10801D01*
X162186Y11440D01*
X161217Y11841D01*
X160177Y11978D01*
X159137Y11841D01*
X158169Y11440D01*
X157337Y10801D01*
X156698Y9969D01*
X156297Y9000D01*
X156160Y7961D01*
X156297Y6921D01*
X156698Y5952D01*
X157045Y5500D01*
X156799Y5000D01*
X131390D01*
X131144Y5500D01*
X131491Y5952D01*
X131892Y6921D01*
X132029Y7961D01*
X131892Y9000D01*
X131491Y9969D01*
X130852Y10801D01*
X130020Y11440D01*
X129051Y11841D01*
X128012Y11978D01*
X126972Y11841D01*
X126003Y11440D01*
X125171Y10801D01*
X124533Y9969D01*
X124132Y9000D01*
X123995Y7961D01*
X124132Y6921D01*
X124533Y5952D01*
X124880Y5500D01*
X124633Y5000D01*
X121390D01*
X121144Y5500D01*
X121491Y5952D01*
X121892Y6921D01*
X122029Y7961D01*
X121892Y9000D01*
X121491Y9969D01*
X120852Y10801D01*
X120727Y10897D01*
X120694Y11396D01*
X125380Y16082D01*
X160758D01*
X166773Y10067D01*
D02*
G37*
%LPC*%
G36*
X251921Y268500D02*
X248500D01*
Y265079D01*
X249032Y265149D01*
X249993Y265547D01*
X250819Y266181D01*
X251453Y267007D01*
X251851Y267968D01*
X251921Y268500D01*
D02*
G37*
G36*
X247500D02*
X244079D01*
X244149Y267968D01*
X244547Y267007D01*
X245181Y266181D01*
X246007Y265547D01*
X246968Y265149D01*
X247500Y265079D01*
Y268500D01*
D02*
G37*
G36*
X211000Y263411D02*
X210460Y263304D01*
X210002Y262998D01*
X209696Y262540D01*
X209589Y262000D01*
X209696Y261460D01*
X210002Y261002D01*
X210460Y260696D01*
X211000Y260589D01*
X211540Y260696D01*
X211998Y261002D01*
X212304Y261460D01*
X212411Y262000D01*
X212304Y262540D01*
X211998Y262998D01*
X211540Y263304D01*
X211000Y263411D01*
D02*
G37*
G36*
X243500Y246924D02*
Y245500D01*
X244924D01*
X244869Y245774D01*
X244431Y246431D01*
X243774Y246869D01*
X243500Y246924D01*
D02*
G37*
G36*
X242500D02*
X242226Y246869D01*
X241569Y246431D01*
X241131Y245774D01*
X241076Y245500D01*
X242500D01*
Y246924D01*
D02*
G37*
G36*
X228042Y263416D02*
X219958D01*
Y257695D01*
X223082D01*
Y250963D01*
X222139D01*
Y246437D01*
X219620Y243918D01*
X218052D01*
X217998Y243998D01*
X217540Y244304D01*
X217000Y244411D01*
X216460Y244304D01*
X216002Y243998D01*
X215696Y243540D01*
X215589Y243000D01*
X215696Y242460D01*
X216002Y242002D01*
X216460Y241696D01*
X217000Y241589D01*
X217540Y241696D01*
X217998Y242002D01*
X218052Y242082D01*
X220000D01*
X220351Y242152D01*
X220649Y242351D01*
X222162Y243864D01*
X227861D01*
Y250963D01*
X224918D01*
Y257695D01*
X228042D01*
Y263416D01*
D02*
G37*
G36*
X244924Y244500D02*
X243500D01*
Y243076D01*
X243774Y243131D01*
X244431Y243569D01*
X244869Y244226D01*
X244924Y244500D01*
D02*
G37*
G36*
X242500D02*
X241076D01*
X241131Y244226D01*
X241569Y243569D01*
X242226Y243131D01*
X242500Y243076D01*
Y244500D01*
D02*
G37*
G36*
X228461Y240736D02*
X225500D01*
Y237087D01*
X228461D01*
Y240736D01*
D02*
G37*
G36*
X224500D02*
X221539D01*
Y237087D01*
X224500D01*
Y240736D01*
D02*
G37*
G36*
X228461Y236087D02*
X225500D01*
Y232437D01*
X228461D01*
Y236087D01*
D02*
G37*
G36*
X224500D02*
X221539D01*
Y232437D01*
X224500D01*
Y236087D01*
D02*
G37*
G36*
X313500Y268464D02*
Y265500D01*
X316464D01*
X316410Y265914D01*
X316057Y266765D01*
X315496Y267496D01*
X314765Y268057D01*
X313914Y268410D01*
X313500Y268464D01*
D02*
G37*
G36*
X312500D02*
X312086Y268410D01*
X311235Y268057D01*
X310504Y267496D01*
X309943Y266765D01*
X309590Y265914D01*
X309536Y265500D01*
X312500D01*
Y268464D01*
D02*
G37*
G36*
X331500Y267000D02*
X328500D01*
Y263250D01*
X331500D01*
Y267000D01*
D02*
G37*
G36*
X327500D02*
X324500D01*
Y263250D01*
X327500D01*
Y267000D01*
D02*
G37*
G36*
X300250Y265000D02*
X296500D01*
Y262000D01*
X300250D01*
Y265000D01*
D02*
G37*
G36*
X295500D02*
X291750D01*
Y262000D01*
X295500D01*
Y265000D01*
D02*
G37*
G36*
X316464Y264500D02*
X313500D01*
Y261536D01*
X313914Y261590D01*
X314765Y261943D01*
X315496Y262504D01*
X316057Y263235D01*
X316410Y264086D01*
X316464Y264500D01*
D02*
G37*
G36*
X312500D02*
X309536D01*
X309590Y264086D01*
X309943Y263235D01*
X310504Y262504D01*
X311235Y261943D01*
X312086Y261590D01*
X312500Y261536D01*
Y264500D01*
D02*
G37*
G36*
X282000Y263411D02*
X281460Y263304D01*
X281002Y262998D01*
X280696Y262540D01*
X280589Y262000D01*
X280608Y261905D01*
X268351Y249649D01*
X268152Y249351D01*
X268082Y249000D01*
Y247052D01*
X268002Y246998D01*
X267696Y246540D01*
X267589Y246000D01*
X267696Y245460D01*
X268002Y245002D01*
X268460Y244696D01*
X269000Y244589D01*
X269540Y244696D01*
X269998Y245002D01*
X270304Y245460D01*
X270411Y246000D01*
X270304Y246540D01*
X269998Y246998D01*
X269918Y247052D01*
Y248620D01*
X281905Y260608D01*
X282000Y260589D01*
X282540Y260696D01*
X282998Y261002D01*
X283304Y261460D01*
X283411Y262000D01*
X283304Y262540D01*
X282998Y262998D01*
X282540Y263304D01*
X282000Y263411D01*
D02*
G37*
G36*
X300250Y261000D02*
X296500D01*
Y258000D01*
X300250D01*
Y261000D01*
D02*
G37*
G36*
X295500D02*
X291750D01*
Y258000D01*
X295500D01*
Y261000D01*
D02*
G37*
G36*
X211250Y252000D02*
X207500D01*
Y249000D01*
X211250D01*
Y252000D01*
D02*
G37*
G36*
X206500D02*
X202750D01*
Y249000D01*
X206500D01*
Y252000D01*
D02*
G37*
G36*
Y248000D02*
X202750D01*
Y245000D01*
X206500D01*
Y248000D01*
D02*
G37*
G36*
X90953Y268362D02*
X87500D01*
Y265500D01*
X90953D01*
Y268362D01*
D02*
G37*
G36*
X86500D02*
X83047D01*
Y265500D01*
X86500D01*
Y268362D01*
D02*
G37*
G36*
X410500Y268464D02*
Y265500D01*
X413464D01*
X413410Y265914D01*
X413057Y266765D01*
X412496Y267496D01*
X411765Y268057D01*
X410914Y268410D01*
X410500Y268464D01*
D02*
G37*
G36*
X409500D02*
X409086Y268410D01*
X408235Y268057D01*
X407504Y267496D01*
X406943Y266765D01*
X406590Y265914D01*
X406536Y265500D01*
X409500D01*
Y268464D01*
D02*
G37*
G36*
X400500D02*
Y265500D01*
X403464D01*
X403410Y265914D01*
X403057Y266765D01*
X402496Y267496D01*
X401765Y268057D01*
X400914Y268410D01*
X400500Y268464D01*
D02*
G37*
G36*
X399500D02*
X399086Y268410D01*
X398235Y268057D01*
X397504Y267496D01*
X396943Y266765D01*
X396590Y265914D01*
X396536Y265500D01*
X399500D01*
Y268464D01*
D02*
G37*
G36*
X158500Y267500D02*
X155079D01*
X155149Y266968D01*
X155547Y266007D01*
X156181Y265181D01*
X157007Y264547D01*
X157968Y264149D01*
X158500Y264079D01*
Y267500D01*
D02*
G37*
G36*
X162921D02*
X159500D01*
Y264079D01*
X160032Y264149D01*
X160993Y264547D01*
X161819Y265181D01*
X162453Y266007D01*
X162851Y266968D01*
X162921Y267500D01*
D02*
G37*
G36*
X22083Y263925D02*
X17350D01*
Y262483D01*
X15555D01*
X15555Y262483D01*
X15009Y262374D01*
X14546Y262065D01*
X14546Y262064D01*
X11481Y259000D01*
X10500D01*
Y256000D01*
X14250D01*
Y257731D01*
X16146Y259628D01*
X17350D01*
Y258185D01*
X22083D01*
Y261055D01*
Y263925D01*
D02*
G37*
G36*
X90953Y264500D02*
X87500D01*
Y261638D01*
X90953D01*
Y264500D01*
D02*
G37*
G36*
X413464Y264500D02*
X410500D01*
Y261536D01*
X410914Y261590D01*
X411765Y261943D01*
X412496Y262504D01*
X413057Y263235D01*
X413410Y264086D01*
X413464Y264500D01*
D02*
G37*
G36*
X409500D02*
X406536D01*
X406590Y264086D01*
X406943Y263235D01*
X407504Y262504D01*
X408235Y261943D01*
X409086Y261590D01*
X409500Y261536D01*
Y264500D01*
D02*
G37*
G36*
X403464D02*
X400500D01*
Y261536D01*
X400914Y261590D01*
X401765Y261943D01*
X402496Y262504D01*
X403057Y263235D01*
X403410Y264086D01*
X403464Y264500D01*
D02*
G37*
G36*
X399500D02*
X396536D01*
X396590Y264086D01*
X396943Y263235D01*
X397504Y262504D01*
X398235Y261943D01*
X399086Y261590D01*
X399500Y261536D01*
Y264500D01*
D02*
G37*
G36*
X62250Y264000D02*
X58500D01*
Y261000D01*
X62250D01*
Y264000D01*
D02*
G37*
G36*
X50500Y269427D02*
X50500Y269427D01*
X29528D01*
X28981Y269319D01*
X28518Y269009D01*
X28518Y269009D01*
X23434Y263925D01*
X23083D01*
Y261555D01*
X27815D01*
Y263925D01*
X27815Y263925D01*
X27815D01*
X27938Y264392D01*
X30119Y266573D01*
X49909D01*
X53750Y262731D01*
Y261000D01*
X57500D01*
Y264000D01*
X56519D01*
X51509Y269009D01*
X51046Y269319D01*
X50500Y269427D01*
D02*
G37*
G36*
X381400Y263650D02*
X375600D01*
Y260918D01*
X372900D01*
Y263650D01*
X367100D01*
Y256350D01*
X372900D01*
Y259082D01*
X375600D01*
Y256350D01*
X381400D01*
Y263650D01*
D02*
G37*
G36*
X149000Y263411D02*
X148460Y263304D01*
X148002Y262998D01*
X147696Y262540D01*
X147589Y262000D01*
X147696Y261460D01*
X148002Y261002D01*
X148460Y260696D01*
X149000Y260589D01*
X149540Y260696D01*
X149998Y261002D01*
X150304Y261460D01*
X150411Y262000D01*
X150304Y262540D01*
X149998Y262998D01*
X149540Y263304D01*
X149000Y263411D01*
D02*
G37*
G36*
X86500Y264500D02*
X83047D01*
Y262345D01*
X80712Y260010D01*
X80250Y260201D01*
Y261000D01*
X76500D01*
Y257500D01*
Y254000D01*
X80250D01*
Y256952D01*
X84935Y261638D01*
X86500D01*
Y264500D01*
D02*
G37*
G36*
X27815Y260555D02*
X23083D01*
Y258185D01*
X27815D01*
Y260555D01*
D02*
G37*
G36*
X75500Y261000D02*
X71750D01*
Y258000D01*
X75500D01*
Y261000D01*
D02*
G37*
G36*
X62250Y260000D02*
X58500D01*
Y257000D01*
X62250D01*
Y260000D01*
D02*
G37*
G36*
X57500D02*
X53750D01*
Y257000D01*
X57500D01*
Y260000D01*
D02*
G37*
G36*
X410500Y258464D02*
Y255500D01*
X413464D01*
X413410Y255914D01*
X413057Y256765D01*
X412496Y257496D01*
X411765Y258057D01*
X410914Y258410D01*
X410500Y258464D01*
D02*
G37*
G36*
X409500D02*
X409086Y258410D01*
X408235Y258057D01*
X407504Y257496D01*
X406943Y256765D01*
X406590Y255914D01*
X406536Y255500D01*
X409500D01*
Y258464D01*
D02*
G37*
G36*
X400500D02*
Y255500D01*
X403464D01*
X403410Y255914D01*
X403057Y256765D01*
X402496Y257496D01*
X401765Y258057D01*
X400914Y258410D01*
X400500Y258464D01*
D02*
G37*
G36*
X399500D02*
X399086Y258410D01*
X398235Y258057D01*
X397504Y257496D01*
X396943Y256765D01*
X396590Y255914D01*
X396536Y255500D01*
X399500D01*
Y258464D01*
D02*
G37*
G36*
X183250Y257500D02*
X179500D01*
Y254500D01*
X183250D01*
Y257500D01*
D02*
G37*
G36*
X178500D02*
X174750D01*
Y254500D01*
X178500D01*
Y257500D01*
D02*
G37*
G36*
X75500Y257000D02*
X71750D01*
Y254000D01*
X75500D01*
Y257000D01*
D02*
G37*
G36*
X50050Y258798D02*
X40785D01*
Y253427D01*
X27215D01*
Y254270D01*
X17950D01*
Y249730D01*
X27215D01*
Y250573D01*
X40785D01*
Y245202D01*
X50050D01*
Y250573D01*
X54350D01*
Y248600D01*
X58881D01*
X60573Y246909D01*
Y241632D01*
X54379D01*
Y232368D01*
X65022D01*
Y241632D01*
X63427D01*
Y247500D01*
X63319Y248046D01*
X63009Y248509D01*
X63009Y248509D01*
X61650Y249869D01*
Y254400D01*
X54350D01*
Y253427D01*
X50050D01*
Y258798D01*
D02*
G37*
G36*
X420000Y266682D02*
X418696Y266554D01*
X417443Y266174D01*
X416288Y265556D01*
X415275Y264725D01*
X414444Y263712D01*
X413827Y262557D01*
X413446Y261304D01*
X413318Y260000D01*
X413446Y258696D01*
X413827Y257443D01*
X414444Y256288D01*
X415275Y255275D01*
X416288Y254444D01*
X417443Y253826D01*
X418696Y253446D01*
X420000Y253318D01*
X421304Y253446D01*
X422557Y253826D01*
X423712Y254444D01*
X424725Y255275D01*
X425556Y256288D01*
X426173Y257443D01*
X426554Y258696D01*
X426682Y260000D01*
X426554Y261304D01*
X426173Y262557D01*
X425556Y263712D01*
X424725Y264725D01*
X423712Y265556D01*
X422557Y266174D01*
X421304Y266554D01*
X420000Y266682D01*
D02*
G37*
G36*
X14250Y255000D02*
X10500D01*
Y252000D01*
X14250D01*
Y255000D01*
D02*
G37*
G36*
X413464Y254500D02*
X410500D01*
Y251536D01*
X410914Y251590D01*
X411765Y251943D01*
X412496Y252504D01*
X413057Y253235D01*
X413410Y254086D01*
X413464Y254500D01*
D02*
G37*
G36*
X409500D02*
X406536D01*
X406590Y254086D01*
X406943Y253235D01*
X407504Y252504D01*
X408235Y251943D01*
X409086Y251590D01*
X409500Y251536D01*
Y254500D01*
D02*
G37*
G36*
X403464D02*
X400500D01*
Y251536D01*
X400914Y251590D01*
X401765Y251943D01*
X402496Y252504D01*
X403057Y253235D01*
X403410Y254086D01*
X403464Y254500D01*
D02*
G37*
G36*
X399500D02*
X396536D01*
X396590Y254086D01*
X396943Y253235D01*
X397504Y252504D01*
X398235Y251943D01*
X399086Y251590D01*
X399500Y251536D01*
Y254500D01*
D02*
G37*
G36*
X178500Y253500D02*
X174750D01*
Y250500D01*
X178500D01*
Y253500D01*
D02*
G37*
G36*
X164000Y252250D02*
X161000D01*
Y248500D01*
X164000D01*
Y252250D01*
D02*
G37*
G36*
X365000Y240250D02*
X362000D01*
Y236500D01*
X365000D01*
Y240250D01*
D02*
G37*
G36*
X361000D02*
X358000D01*
Y236500D01*
X361000D01*
Y240250D01*
D02*
G37*
G36*
X102250Y239000D02*
X98500D01*
Y236000D01*
X102250D01*
Y239000D01*
D02*
G37*
G36*
X97500D02*
X93750D01*
Y236000D01*
X97500D01*
Y239000D01*
D02*
G37*
G36*
X389400Y263650D02*
X383600D01*
Y256350D01*
X388131D01*
X388573Y255909D01*
Y237400D01*
X386350D01*
Y235927D01*
X383650D01*
Y237400D01*
X376350D01*
Y235927D01*
X372642D01*
X372642Y235927D01*
X372095Y235819D01*
X371632Y235509D01*
X370350Y234227D01*
X366372D01*
Y229490D01*
X373628D01*
Y233073D01*
X376350D01*
Y231600D01*
X383650D01*
Y233073D01*
X386350D01*
Y231600D01*
X393650D01*
Y237400D01*
X391427D01*
Y256500D01*
X391427Y256500D01*
X391319Y257046D01*
X391009Y257509D01*
X391009Y257509D01*
X389400Y259119D01*
Y263650D01*
D02*
G37*
G36*
X135000Y251411D02*
X134460Y251304D01*
X134002Y250998D01*
X133696Y250540D01*
X133589Y250000D01*
X133696Y249460D01*
X134002Y249002D01*
X134082Y248948D01*
Y244445D01*
X134152Y244094D01*
X134351Y243796D01*
X136958Y241189D01*
Y235584D01*
X145042D01*
Y241305D01*
X139437D01*
X135918Y244825D01*
Y248948D01*
X135998Y249002D01*
X136304Y249460D01*
X136411Y250000D01*
X136304Y250540D01*
X135998Y250998D01*
X135540Y251304D01*
X135000Y251411D01*
D02*
G37*
G36*
X45500Y238464D02*
Y235500D01*
X48464D01*
X48410Y235914D01*
X48057Y236765D01*
X47496Y237496D01*
X46765Y238057D01*
X45914Y238410D01*
X45500Y238464D01*
D02*
G37*
G36*
X44500D02*
X44086Y238410D01*
X43235Y238057D01*
X42504Y237496D01*
X41943Y236765D01*
X41590Y235914D01*
X41536Y235500D01*
X44500D01*
Y238464D01*
D02*
G37*
G36*
X131250Y238000D02*
X127500D01*
Y235000D01*
X131250D01*
Y238000D01*
D02*
G37*
G36*
X126500D02*
X122750D01*
Y235000D01*
X126500D01*
Y238000D01*
D02*
G37*
G36*
X414250D02*
X410500D01*
Y235000D01*
X414250D01*
Y238000D01*
D02*
G37*
G36*
X409500D02*
X405750D01*
Y235000D01*
X409500D01*
Y238000D01*
D02*
G37*
G36*
X404250D02*
X400500D01*
Y235000D01*
X404250D01*
Y238000D01*
D02*
G37*
G36*
X399500D02*
X395750D01*
Y235000D01*
X399500D01*
Y238000D01*
D02*
G37*
G36*
X77621Y241632D02*
X66978D01*
Y232368D01*
X77621D01*
Y235573D01*
X85000D01*
X85546Y235681D01*
X86009Y235991D01*
X86319Y236454D01*
X86427Y237000D01*
X86319Y237546D01*
X86009Y238009D01*
X85546Y238319D01*
X85000Y238427D01*
X77621D01*
Y241632D01*
D02*
G37*
G36*
X102250Y235000D02*
X98500D01*
Y232000D01*
X102250D01*
Y235000D01*
D02*
G37*
G36*
X97500D02*
X93750D01*
Y232000D01*
X97500D01*
Y235000D01*
D02*
G37*
G36*
X365000Y235500D02*
X362000D01*
Y231750D01*
X365000D01*
Y235500D01*
D02*
G37*
G36*
X361000D02*
X358000D01*
Y231750D01*
X361000D01*
Y235500D01*
D02*
G37*
G36*
X48464Y234500D02*
X45500D01*
Y231536D01*
X45914Y231590D01*
X46765Y231943D01*
X47496Y232504D01*
X48057Y233235D01*
X48410Y234086D01*
X48464Y234500D01*
D02*
G37*
G36*
X44500D02*
X41536D01*
X41590Y234086D01*
X41943Y233235D01*
X42504Y232504D01*
X43235Y231943D01*
X44086Y231590D01*
X44500Y231536D01*
Y234500D01*
D02*
G37*
G36*
X202500Y232924D02*
Y231500D01*
X203924D01*
X203869Y231774D01*
X203431Y232431D01*
X202774Y232869D01*
X202500Y232924D01*
D02*
G37*
G36*
X201500D02*
X201226Y232869D01*
X200569Y232431D01*
X200131Y231774D01*
X200076Y231500D01*
X201500D01*
Y232924D01*
D02*
G37*
G36*
X414250Y234000D02*
X410500D01*
Y231000D01*
X414250D01*
Y234000D01*
D02*
G37*
G36*
X409500D02*
X405750D01*
Y231000D01*
X409500D01*
Y234000D01*
D02*
G37*
G36*
X404250D02*
X400500D01*
Y231000D01*
X404250D01*
Y234000D01*
D02*
G37*
G36*
X399500D02*
X395750D01*
Y231000D01*
X399500D01*
Y234000D01*
D02*
G37*
G36*
X131250Y234000D02*
X127500D01*
Y231000D01*
X131250D01*
Y234000D01*
D02*
G37*
G36*
X126500D02*
X122750D01*
Y231000D01*
X126500D01*
Y234000D01*
D02*
G37*
G36*
X203924Y230500D02*
X202500D01*
Y229076D01*
X202774Y229131D01*
X203431Y229569D01*
X203869Y230226D01*
X203924Y230500D01*
D02*
G37*
G36*
X201500D02*
X200076D01*
X200131Y230226D01*
X200569Y229569D01*
X201226Y229131D01*
X201500Y229076D01*
Y230500D01*
D02*
G37*
G36*
X426837Y233805D02*
X418163D01*
Y226927D01*
X413650D01*
Y228400D01*
X406350D01*
Y226927D01*
X403650D01*
Y228400D01*
X396350D01*
Y226927D01*
X393650D01*
Y228400D01*
X386350D01*
Y222600D01*
X393650D01*
Y224073D01*
X396350D01*
Y222600D01*
X403650D01*
Y224073D01*
X406350D01*
Y222600D01*
X413650D01*
Y224073D01*
X418163D01*
Y221195D01*
X426837D01*
Y233805D01*
D02*
G37*
G36*
X384250Y229000D02*
X380500D01*
Y226000D01*
X384250D01*
Y229000D01*
D02*
G37*
G36*
X379500D02*
X375750D01*
Y226000D01*
X379500D01*
Y229000D01*
D02*
G37*
G36*
X384250Y225000D02*
X380500D01*
Y222000D01*
X384250D01*
Y225000D01*
D02*
G37*
G36*
X379500D02*
X375750D01*
Y222000D01*
X379500D01*
Y225000D01*
D02*
G37*
G36*
X119905Y237059D02*
X113500D01*
Y220811D01*
X119905D01*
Y237059D01*
D02*
G37*
G36*
X112500D02*
X106095D01*
Y220811D01*
X112500D01*
Y237059D01*
D02*
G37*
G36*
X426837Y216089D02*
X418163D01*
Y213427D01*
X413650D01*
Y214900D01*
X406350D01*
Y213427D01*
X403650D01*
Y214900D01*
X396350D01*
Y213427D01*
X393650D01*
Y214900D01*
X386350D01*
Y209100D01*
X393650D01*
Y210573D01*
X396350D01*
Y209100D01*
X403650D01*
Y210573D01*
X406350D01*
Y209100D01*
X413650D01*
Y210573D01*
X418163D01*
Y203478D01*
X426837D01*
Y216089D01*
D02*
G37*
G36*
X384250Y215500D02*
X380500D01*
Y212500D01*
X384250D01*
Y215500D01*
D02*
G37*
G36*
X379500D02*
X375750D01*
Y212500D01*
X379500D01*
Y215500D01*
D02*
G37*
G36*
X19500Y215000D02*
X15750D01*
Y212000D01*
X19500D01*
Y215000D01*
D02*
G37*
G36*
X139000Y253411D02*
X138460Y253304D01*
X138002Y252998D01*
X137696Y252540D01*
X137589Y252000D01*
X137696Y251460D01*
X138002Y251002D01*
X138095Y250940D01*
X138152Y250654D01*
X138351Y250357D01*
X148337Y240370D01*
X148348Y240354D01*
X168082Y220620D01*
Y213380D01*
X166573Y211870D01*
X164330D01*
X163896Y212029D01*
X163896Y212370D01*
Y213813D01*
X163896D01*
Y213998D01*
X163896Y213998D01*
X163896Y215782D01*
X163896Y216282D01*
X163896Y217750D01*
X163896Y218250D01*
X163896Y219719D01*
X163896Y220219D01*
X163896Y221687D01*
X163896Y222187D01*
Y223656D01*
X160179D01*
X160051Y223681D01*
X153616D01*
X145094Y232204D01*
X145042Y232239D01*
Y234416D01*
X136958D01*
Y228695D01*
X145042D01*
Y229007D01*
X145504Y229199D01*
X152587Y222115D01*
X152885Y221916D01*
X153236Y221846D01*
X155772D01*
X156206Y221687D01*
X156206Y221346D01*
X156206Y219903D01*
X155772Y219744D01*
X134827D01*
X134476Y219674D01*
X134178Y219476D01*
X125620Y210918D01*
X119860D01*
X119652Y211418D01*
X128649Y220414D01*
X128848Y220712D01*
X128918Y221063D01*
Y222600D01*
X130650D01*
Y228400D01*
X123350D01*
Y222600D01*
X127082D01*
Y221443D01*
X119767Y214128D01*
X119306Y214319D01*
Y216305D01*
X114568D01*
Y203695D01*
X119306D01*
Y209082D01*
X126000D01*
X126097Y209102D01*
X126343Y208641D01*
X118620Y200918D01*
X112380D01*
X110103Y203194D01*
X110277Y203695D01*
X111432D01*
Y216305D01*
X106694D01*
Y214319D01*
X106233Y214128D01*
X98918Y221443D01*
Y223600D01*
X101650D01*
Y229400D01*
X94350D01*
Y223600D01*
X97082D01*
Y221063D01*
X97152Y220712D01*
X97351Y220414D01*
X106694Y211071D01*
Y203695D01*
X108145D01*
Y202937D01*
X108215Y202586D01*
X108414Y202288D01*
X111351Y199351D01*
X111649Y199152D01*
X112000Y199082D01*
X119000D01*
X119351Y199152D01*
X119649Y199351D01*
X125998Y205700D01*
X126482Y205477D01*
Y190780D01*
X123359Y187657D01*
X123187Y187788D01*
X122132Y188225D01*
X121000Y188374D01*
X119868Y188225D01*
X118813Y187788D01*
X118641Y187657D01*
X118149Y188149D01*
X117851Y188348D01*
X117500Y188418D01*
X108650D01*
Y190400D01*
X101350D01*
Y184600D01*
X108650D01*
Y186582D01*
X116885D01*
X117045Y186389D01*
X117178Y186107D01*
X116775Y185132D01*
X116626Y184000D01*
X116775Y182868D01*
X117212Y181813D01*
X117907Y180907D01*
X118813Y180212D01*
X119868Y179775D01*
X121000Y179626D01*
X122132Y179775D01*
X123187Y180212D01*
X124093Y180907D01*
X124788Y181813D01*
X125225Y182868D01*
X125374Y184000D01*
X125225Y185132D01*
X124788Y186187D01*
X124657Y186359D01*
X127582Y189285D01*
X128082Y189077D01*
Y173168D01*
X123359Y168444D01*
X123187Y168576D01*
X122132Y169013D01*
X121000Y169162D01*
X119868Y169013D01*
X118813Y168576D01*
X117907Y167881D01*
X117212Y166975D01*
X116775Y165920D01*
X116626Y164787D01*
X116775Y163655D01*
X117212Y162600D01*
X117343Y162428D01*
X116332Y161418D01*
X108650D01*
Y163400D01*
X101350D01*
Y157600D01*
X108650D01*
Y159582D01*
X116713D01*
X117064Y159652D01*
X117361Y159851D01*
X118641Y161131D01*
X118813Y160999D01*
X119868Y160562D01*
X121000Y160413D01*
X122132Y160562D01*
X123187Y160999D01*
X124093Y161694D01*
X124788Y162600D01*
X125225Y163655D01*
X125374Y164787D01*
X125225Y165920D01*
X124788Y166975D01*
X124657Y167146D01*
X129649Y172139D01*
X129782Y172338D01*
X130282Y172253D01*
Y168800D01*
X130352Y168449D01*
X130551Y168151D01*
X149634Y149069D01*
Y135139D01*
X148860Y134818D01*
X148160Y134281D01*
X147623Y133581D01*
X147285Y132765D01*
X147169Y131890D01*
X147285Y131015D01*
X147623Y130199D01*
X148160Y129499D01*
X148860Y128961D01*
X149676Y128623D01*
X150551Y128508D01*
X151426Y128623D01*
X152242Y128961D01*
X152942Y129499D01*
X153480Y130199D01*
X153818Y131015D01*
X153933Y131890D01*
X153818Y132765D01*
X153480Y133581D01*
X152942Y134281D01*
X152242Y134818D01*
X151469Y135139D01*
Y149449D01*
X151450Y149546D01*
X151910Y149792D01*
X159634Y142069D01*
Y135139D01*
X158860Y134818D01*
X158160Y134281D01*
X157623Y133581D01*
X157285Y132765D01*
X157169Y131890D01*
X157285Y131015D01*
X157623Y130199D01*
X158160Y129499D01*
X158860Y128961D01*
X159676Y128623D01*
X160551Y128508D01*
X161426Y128623D01*
X162242Y128961D01*
X162942Y129499D01*
X163480Y130199D01*
X163818Y131015D01*
X163933Y131890D01*
X163818Y132765D01*
X163480Y133581D01*
X162942Y134281D01*
X162242Y134818D01*
X161469Y135139D01*
Y142449D01*
X161450Y142546D01*
X161910Y142792D01*
X169266Y135436D01*
X169168Y134946D01*
X168860Y134818D01*
X168160Y134281D01*
X167623Y133581D01*
X167285Y132765D01*
X167169Y131890D01*
X167285Y131015D01*
X167623Y130199D01*
X168160Y129499D01*
X168860Y128961D01*
X169676Y128623D01*
X170551Y128508D01*
X171426Y128623D01*
X172242Y128961D01*
X172942Y129499D01*
X173480Y130199D01*
X173818Y131015D01*
X173933Y131890D01*
X173818Y132765D01*
X173480Y133581D01*
X172942Y134281D01*
X172242Y134818D01*
X171469Y135139D01*
Y135449D01*
X171399Y135800D01*
X171200Y136098D01*
X135318Y171980D01*
Y172678D01*
X135818Y172885D01*
X177224Y131479D01*
X177285Y131015D01*
X177623Y130199D01*
X178160Y129499D01*
X178860Y128961D01*
X179676Y128623D01*
X180551Y128508D01*
X181426Y128623D01*
X182242Y128961D01*
X182942Y129499D01*
X183480Y130199D01*
X183818Y131015D01*
X183933Y131890D01*
X183818Y132765D01*
X183480Y133581D01*
X182942Y134281D01*
X182242Y134818D01*
X181426Y135156D01*
X180551Y135271D01*
X179676Y135156D01*
X178860Y134818D01*
X178160Y134281D01*
X177894Y133935D01*
X177395Y133902D01*
X136918Y174380D01*
Y191284D01*
X137000Y191750D01*
X138216D01*
X138449Y191250D01*
X138131Y190774D01*
X138076Y190500D01*
X141924D01*
X141869Y190774D01*
X141551Y191250D01*
X141784Y191750D01*
X144000D01*
Y195500D01*
X140500D01*
Y196500D01*
X144000D01*
Y200193D01*
X151711D01*
X151928Y199693D01*
X151888Y199650D01*
X146600D01*
Y192350D01*
X148582D01*
Y191500D01*
X148652Y191149D01*
X148851Y190851D01*
X151608Y188095D01*
X151589Y188000D01*
X151696Y187460D01*
X152002Y187002D01*
X152460Y186696D01*
X153000Y186589D01*
X153540Y186696D01*
X153998Y187002D01*
X154304Y187460D01*
X154411Y188000D01*
X154304Y188540D01*
X153998Y188998D01*
X153540Y189304D01*
X153000Y189411D01*
X152905Y189392D01*
X150448Y191850D01*
X150490Y192350D01*
X152400D01*
Y197102D01*
X153522Y198224D01*
X155772D01*
X156206Y198065D01*
X156206Y197724D01*
X156206Y196281D01*
X155772Y196122D01*
X155205D01*
X154854Y196053D01*
X154556Y195854D01*
X153351Y194649D01*
X153152Y194351D01*
X153082Y194000D01*
Y191000D01*
X153152Y190649D01*
X153351Y190351D01*
X155082Y188620D01*
Y186380D01*
X153620Y184918D01*
X148052D01*
X147998Y184998D01*
X147540Y185304D01*
X147000Y185411D01*
X146460Y185304D01*
X146002Y184998D01*
X145696Y184540D01*
X145589Y184000D01*
X145696Y183460D01*
X146002Y183002D01*
X146460Y182696D01*
X147000Y182589D01*
X147540Y182696D01*
X147998Y183002D01*
X148052Y183082D01*
X154000D01*
X154351Y183152D01*
X154649Y183351D01*
X156649Y185351D01*
X156848Y185649D01*
X156918Y186000D01*
Y189000D01*
X156848Y189351D01*
X156649Y189649D01*
X154918Y191380D01*
Y193620D01*
X155585Y194287D01*
X155772D01*
X156206Y194128D01*
X156206Y193787D01*
Y192344D01*
X159134D01*
Y186086D01*
X159002Y185998D01*
X158696Y185540D01*
X158589Y185000D01*
X158696Y184460D01*
X159002Y184002D01*
X159460Y183696D01*
X160000Y183589D01*
X160540Y183696D01*
X160998Y184002D01*
X161304Y184460D01*
X161411Y185000D01*
X161304Y185540D01*
X160998Y185998D01*
X160969Y186018D01*
Y192344D01*
X163896D01*
X163896Y194128D01*
X163896Y194628D01*
X163896Y196097D01*
X164330Y196256D01*
X164447D01*
X165082Y195620D01*
Y192380D01*
X163351Y190649D01*
X163152Y190351D01*
X163082Y190000D01*
Y183380D01*
X161620Y181918D01*
X143052D01*
X142998Y181998D01*
X142540Y182304D01*
X142000Y182411D01*
X141460Y182304D01*
X141002Y181998D01*
X140696Y181540D01*
X140589Y181000D01*
X140696Y180460D01*
X141002Y180002D01*
X141460Y179696D01*
X142000Y179589D01*
X142540Y179696D01*
X142998Y180002D01*
X143052Y180082D01*
X162000D01*
X162351Y180152D01*
X162649Y180351D01*
X164649Y182351D01*
X164848Y182649D01*
X164918Y183000D01*
Y189620D01*
X166649Y191351D01*
X166848Y191649D01*
X166918Y192000D01*
Y196000D01*
X166848Y196351D01*
X166649Y196649D01*
X165476Y197822D01*
X165178Y198021D01*
X164827Y198091D01*
X164330D01*
X163896Y198250D01*
X163896Y198591D01*
Y199618D01*
X164496D01*
Y200610D01*
X160051D01*
Y201610D01*
X164496D01*
Y202602D01*
X163896D01*
Y203971D01*
X163896D01*
Y204155D01*
X163896D01*
Y205939D01*
X163896D01*
Y206124D01*
X163896D01*
Y207908D01*
X163896D01*
Y208092D01*
X163896D01*
X163896Y209876D01*
X164330Y210035D01*
X166953D01*
X167304Y210105D01*
X167602Y210304D01*
X169649Y212351D01*
X169848Y212649D01*
X169918Y213000D01*
Y221000D01*
X169848Y221351D01*
X169649Y221649D01*
X149660Y241638D01*
X149649Y241654D01*
X140120Y251184D01*
X140304Y251460D01*
X140411Y252000D01*
X140304Y252540D01*
X139998Y252998D01*
X139540Y253304D01*
X139000Y253411D01*
D02*
G37*
G36*
X180500Y213464D02*
Y210500D01*
X183464D01*
X183410Y210914D01*
X183057Y211765D01*
X182496Y212496D01*
X181765Y213057D01*
X180914Y213410D01*
X180500Y213464D01*
D02*
G37*
G36*
X179500D02*
X179086Y213410D01*
X178235Y213057D01*
X177504Y212496D01*
X176943Y211765D01*
X176590Y210914D01*
X176536Y210500D01*
X179500D01*
Y213464D01*
D02*
G37*
G36*
X41429Y214146D02*
X36500D01*
Y210496D01*
X41429D01*
Y214146D01*
D02*
G37*
G36*
X384250Y211500D02*
X380500D01*
Y208500D01*
X384250D01*
Y211500D01*
D02*
G37*
G36*
X379500D02*
X375750D01*
Y208500D01*
X379500D01*
Y211500D01*
D02*
G37*
G36*
X19500Y211000D02*
X15750D01*
Y208000D01*
X19500D01*
Y211000D01*
D02*
G37*
G36*
X183464Y209500D02*
X180500D01*
Y206536D01*
X180914Y206590D01*
X181765Y206943D01*
X182496Y207504D01*
X183057Y208235D01*
X183410Y209086D01*
X183464Y209500D01*
D02*
G37*
G36*
X179500D02*
X176536D01*
X176590Y209086D01*
X176943Y208235D01*
X177504Y207504D01*
X178235Y206943D01*
X179086Y206590D01*
X179500Y206536D01*
Y209500D01*
D02*
G37*
G36*
X66000Y218682D02*
X64696Y218554D01*
X63443Y218174D01*
X62288Y217556D01*
X61275Y216725D01*
X60444Y215712D01*
X59826Y214557D01*
X59446Y213304D01*
X59318Y212000D01*
X59446Y210696D01*
X59826Y209443D01*
X60444Y208288D01*
X61275Y207275D01*
X62288Y206444D01*
X63443Y205826D01*
X64696Y205446D01*
X66000Y205318D01*
X67304Y205446D01*
X68557Y205826D01*
X69712Y206444D01*
X70725Y207275D01*
X71556Y208288D01*
X72174Y209443D01*
X72554Y210696D01*
X72682Y212000D01*
X72554Y213304D01*
X72174Y214557D01*
X71556Y215712D01*
X70725Y216725D01*
X69712Y217556D01*
X68557Y218174D01*
X67304Y218554D01*
X66000Y218682D01*
D02*
G37*
G36*
X414250Y206500D02*
X410500D01*
Y203500D01*
X414250D01*
Y206500D01*
D02*
G37*
G36*
X409500D02*
X405750D01*
Y203500D01*
X409500D01*
Y206500D01*
D02*
G37*
G36*
X404250D02*
X400500D01*
Y203500D01*
X404250D01*
Y206500D01*
D02*
G37*
G36*
X399500D02*
X395750D01*
Y203500D01*
X399500D01*
Y206500D01*
D02*
G37*
G36*
X24250Y215000D02*
X20500D01*
Y211500D01*
Y208000D01*
X24250D01*
Y210073D01*
X30571D01*
Y205847D01*
X33187D01*
X33389Y205346D01*
X32943Y204765D01*
X32590Y203914D01*
X32536Y203500D01*
X39464D01*
X39410Y203914D01*
X39057Y204765D01*
X38611Y205346D01*
X38813Y205847D01*
X41429D01*
Y209496D01*
X36000D01*
Y209996D01*
X35500D01*
Y214146D01*
X30571D01*
Y212927D01*
X24250D01*
Y215000D01*
D02*
G37*
G36*
X180500Y203464D02*
Y200500D01*
X183464D01*
X183410Y200914D01*
X183057Y201765D01*
X182496Y202496D01*
X181765Y203057D01*
X180914Y203410D01*
X180500Y203464D01*
D02*
G37*
G36*
X179500D02*
X179086Y203410D01*
X178235Y203057D01*
X177504Y202496D01*
X176943Y201765D01*
X176590Y200914D01*
X176536Y200500D01*
X179500D01*
Y203464D01*
D02*
G37*
G36*
X373628Y208510D02*
X366372D01*
Y203773D01*
X370350D01*
X371491Y202632D01*
X371491Y202632D01*
X371954Y202323D01*
X372500Y202214D01*
X376350D01*
Y200100D01*
X383650D01*
Y201573D01*
X386350D01*
Y200100D01*
X393650D01*
Y205900D01*
X386350D01*
Y204427D01*
X383650D01*
Y205900D01*
X376350D01*
Y205069D01*
X373628D01*
Y208510D01*
D02*
G37*
G36*
X414250Y202500D02*
X410500D01*
Y199500D01*
X414250D01*
Y202500D01*
D02*
G37*
G36*
X409500D02*
X405750D01*
Y199500D01*
X409500D01*
Y202500D01*
D02*
G37*
G36*
X404250D02*
X400500D01*
Y199500D01*
X404250D01*
Y202500D01*
D02*
G37*
G36*
X399500D02*
X395750D01*
Y199500D01*
X399500D01*
Y202500D01*
D02*
G37*
G36*
X124000Y202411D02*
X123460Y202304D01*
X123002Y201998D01*
X122696Y201540D01*
X122589Y201000D01*
X122608Y200905D01*
X119620Y197918D01*
X106380D01*
X104393Y199905D01*
X104411Y200000D01*
X104304Y200540D01*
X103998Y200998D01*
X103540Y201304D01*
X103000Y201411D01*
X102460Y201304D01*
X102002Y200998D01*
X101696Y200540D01*
X101589Y200000D01*
X101696Y199460D01*
X102002Y199002D01*
X102460Y198696D01*
X103000Y198589D01*
X103095Y198608D01*
X105351Y196351D01*
X105649Y196152D01*
X106000Y196082D01*
X120000D01*
X120351Y196152D01*
X120649Y196351D01*
X123905Y199608D01*
X124000Y199589D01*
X124540Y199696D01*
X124998Y200002D01*
X125304Y200460D01*
X125411Y201000D01*
X125304Y201540D01*
X124998Y201998D01*
X124540Y202304D01*
X124000Y202411D01*
D02*
G37*
G36*
X183464Y199500D02*
X180500D01*
Y196536D01*
X180914Y196590D01*
X181765Y196943D01*
X182496Y197504D01*
X183057Y198235D01*
X183410Y199086D01*
X183464Y199500D01*
D02*
G37*
G36*
X179500D02*
X176536D01*
X176590Y199086D01*
X176943Y198235D01*
X177504Y197504D01*
X178235Y196943D01*
X179086Y196590D01*
X179500Y196536D01*
Y199500D01*
D02*
G37*
G36*
X124000Y198411D02*
X123460Y198304D01*
X123002Y197998D01*
X122696Y197540D01*
X122589Y197000D01*
X122608Y196905D01*
X120620Y194918D01*
X104479D01*
X104411Y195000D01*
X104304Y195540D01*
X103998Y195998D01*
X103540Y196304D01*
X103000Y196411D01*
X102460Y196304D01*
X102002Y195998D01*
X101696Y195540D01*
X101589Y195000D01*
X101696Y194460D01*
X102002Y194002D01*
X102460Y193696D01*
X103000Y193589D01*
X103095Y193607D01*
X103351Y193351D01*
X103649Y193152D01*
X104000Y193082D01*
X121000D01*
X121351Y193152D01*
X121649Y193351D01*
X123905Y195607D01*
X124000Y195589D01*
X124540Y195696D01*
X124998Y196002D01*
X125304Y196460D01*
X125411Y197000D01*
X125304Y197540D01*
X124998Y197998D01*
X124540Y198304D01*
X124000Y198411D01*
D02*
G37*
G36*
X25500Y195464D02*
Y192500D01*
X28464D01*
X28410Y192914D01*
X28057Y193765D01*
X27496Y194496D01*
X26765Y195057D01*
X25914Y195410D01*
X25500Y195464D01*
D02*
G37*
G36*
X24500D02*
X24086Y195410D01*
X23235Y195057D01*
X22504Y194496D01*
X21943Y193765D01*
X21590Y192914D01*
X21536Y192500D01*
X24500D01*
Y195464D01*
D02*
G37*
G36*
X375500Y193464D02*
Y190500D01*
X378464D01*
X378410Y190914D01*
X378057Y191765D01*
X377496Y192496D01*
X376765Y193057D01*
X375914Y193410D01*
X375500Y193464D01*
D02*
G37*
G36*
X374500D02*
X374086Y193410D01*
X373235Y193057D01*
X372504Y192496D01*
X371943Y191765D01*
X371590Y190914D01*
X371536Y190500D01*
X374500D01*
Y193464D01*
D02*
G37*
G36*
X365500D02*
Y190500D01*
X368464D01*
X368410Y190914D01*
X368057Y191765D01*
X367496Y192496D01*
X366765Y193057D01*
X365914Y193410D01*
X365500Y193464D01*
D02*
G37*
G36*
X364500D02*
X364086Y193410D01*
X363235Y193057D01*
X362504Y192496D01*
X361943Y191765D01*
X361590Y190914D01*
X361536Y190500D01*
X364500D01*
Y193464D01*
D02*
G37*
G36*
X316542Y191916D02*
X308458D01*
Y190482D01*
X304055D01*
X304055Y190483D01*
X303509Y190374D01*
X303046Y190065D01*
X303046Y190064D01*
X300991Y188009D01*
X300793Y187714D01*
X288000D01*
X287727Y187659D01*
X287495Y187505D01*
X284495Y184505D01*
X284341Y184273D01*
X284286Y184000D01*
Y164296D01*
X280495Y160505D01*
X280341Y160273D01*
X280286Y160000D01*
Y153296D01*
X279259Y152269D01*
X278042D01*
Y153416D01*
X269958D01*
Y147695D01*
X278042D01*
Y150841D01*
X279555D01*
X279828Y150896D01*
X280060Y151050D01*
X281505Y152495D01*
X281659Y152727D01*
X281714Y153000D01*
Y159704D01*
X285505Y163495D01*
X285659Y163727D01*
X285714Y164000D01*
Y183704D01*
X288296Y186286D01*
X300793D01*
X300991Y185991D01*
X301454Y185681D01*
X302000Y185573D01*
X302546Y185681D01*
X303009Y185991D01*
X304646Y187628D01*
X308458D01*
Y186195D01*
X316542D01*
Y191916D01*
D02*
G37*
G36*
X28464Y191500D02*
X25500D01*
Y188536D01*
X25914Y188590D01*
X26765Y188943D01*
X27496Y189504D01*
X28057Y190235D01*
X28410Y191086D01*
X28464Y191500D01*
D02*
G37*
G36*
X24500D02*
X21536D01*
X21590Y191086D01*
X21730Y190749D01*
X20991Y190009D01*
X20681Y189546D01*
X20573Y189000D01*
X20573Y189000D01*
Y187250D01*
X18500D01*
Y183500D01*
X22000D01*
Y183000D01*
D01*
Y183500D01*
X25500D01*
Y187250D01*
X23427D01*
Y188398D01*
X23804Y188707D01*
X24086Y188590D01*
X24500Y188536D01*
Y191500D01*
D02*
G37*
G36*
X326750D02*
X323000D01*
Y188500D01*
X326750D01*
Y191500D01*
D02*
G37*
G36*
X356750D02*
X353000D01*
Y188500D01*
X356750D01*
Y191500D01*
D02*
G37*
G36*
X332000D02*
X328250D01*
Y188500D01*
X332000D01*
Y191500D01*
D02*
G37*
G36*
X322000D02*
X318250D01*
Y188500D01*
X322000D01*
Y191500D01*
D02*
G37*
G36*
X141924Y189500D02*
X140500D01*
Y188076D01*
X140774Y188131D01*
X141431Y188569D01*
X141869Y189226D01*
X141924Y189500D01*
D02*
G37*
G36*
X139500D02*
X138076D01*
X138131Y189226D01*
X138569Y188569D01*
X139226Y188131D01*
X139500Y188076D01*
Y189500D01*
D02*
G37*
G36*
X378464D02*
X375500D01*
Y186536D01*
X375914Y186590D01*
X376765Y186943D01*
X377496Y187504D01*
X378057Y188235D01*
X378410Y189086D01*
X378464Y189500D01*
D02*
G37*
G36*
X374500D02*
X371536D01*
X371590Y189086D01*
X371943Y188235D01*
X372504Y187504D01*
X373235Y186943D01*
X374086Y186590D01*
X374500Y186536D01*
Y189500D01*
D02*
G37*
G36*
X368464D02*
X365500D01*
Y186536D01*
X365914Y186590D01*
X366765Y186943D01*
X367496Y187504D01*
X368057Y188235D01*
X368410Y189086D01*
X368464Y189500D01*
D02*
G37*
G36*
X364500D02*
X361536D01*
X361590Y189086D01*
X361943Y188235D01*
X362504Y187504D01*
X363235Y186943D01*
X364086Y186590D01*
X364500Y186536D01*
Y189500D01*
D02*
G37*
G36*
X196287Y190496D02*
X195295D01*
Y186051D01*
X194295D01*
Y190496D01*
X193303D01*
Y190250D01*
X192950Y189896D01*
X191935Y189896D01*
X191435Y189896D01*
X189966Y189896D01*
X189466Y189896D01*
X187998Y189896D01*
X187498Y189896D01*
X186029Y189896D01*
X185529Y189896D01*
X184061Y189896D01*
X183561Y189896D01*
X182092Y189896D01*
X181592Y189896D01*
X180124Y189896D01*
X179624Y189896D01*
X178155Y189896D01*
X177655Y189896D01*
X176187Y189896D01*
X175687Y189896D01*
X174218Y189896D01*
X173718Y189896D01*
X172250Y189896D01*
X171750Y189896D01*
X170697D01*
Y190496D01*
X169705D01*
Y186051D01*
Y181606D01*
X170256D01*
Y173053D01*
X168620Y171418D01*
X164650D01*
Y173400D01*
X157350D01*
Y171418D01*
X154328D01*
X154304Y171540D01*
X153998Y171998D01*
X153540Y172304D01*
X153000Y172411D01*
X152460Y172304D01*
X152002Y171998D01*
X151696Y171540D01*
X151589Y171000D01*
X151696Y170460D01*
X152002Y170002D01*
X152460Y169696D01*
X153000Y169589D01*
X153234Y169635D01*
X153500Y169582D01*
X157350D01*
Y167600D01*
X164650D01*
Y169582D01*
X169000D01*
X169351Y169652D01*
X169649Y169851D01*
X171724Y171926D01*
X172109Y171820D01*
X172224Y171737D01*
Y164522D01*
X166351Y158649D01*
X166152Y158351D01*
X166082Y158000D01*
Y154052D01*
X166002Y153998D01*
X165696Y153540D01*
X165589Y153000D01*
X165696Y152460D01*
X166002Y152002D01*
X166460Y151696D01*
X167000Y151589D01*
X167540Y151696D01*
X167998Y152002D01*
X168304Y152460D01*
X168411Y153000D01*
X168304Y153540D01*
X167998Y153998D01*
X167918Y154052D01*
Y157620D01*
X173693Y163395D01*
X174077Y163288D01*
X174193Y163206D01*
Y161490D01*
X173095Y160392D01*
X173000Y160411D01*
X172460Y160304D01*
X172002Y159998D01*
X171696Y159540D01*
X171589Y159000D01*
X171696Y158460D01*
X172002Y158002D01*
X172460Y157696D01*
X173000Y157589D01*
X173540Y157696D01*
X173998Y158002D01*
X174304Y158460D01*
X174411Y159000D01*
X174392Y159095D01*
X175661Y160363D01*
X176046Y160257D01*
X176161Y160174D01*
Y157459D01*
X175095Y156393D01*
X175000Y156411D01*
X174460Y156304D01*
X174002Y155998D01*
X173696Y155540D01*
X173589Y155000D01*
X173696Y154460D01*
X174002Y154002D01*
X174460Y153696D01*
X175000Y153589D01*
X175540Y153696D01*
X175998Y154002D01*
X176304Y154460D01*
X176411Y155000D01*
X176392Y155095D01*
X177630Y156332D01*
X178014Y156225D01*
X178130Y156143D01*
Y155427D01*
X175095Y152392D01*
X175000Y152411D01*
X174460Y152304D01*
X174002Y151998D01*
X173696Y151540D01*
X173589Y151000D01*
X173696Y150460D01*
X174002Y150002D01*
X174460Y149696D01*
X175000Y149589D01*
X175540Y149696D01*
X175998Y150002D01*
X176304Y150460D01*
X176411Y151000D01*
X176392Y151095D01*
X179582Y154285D01*
X180031Y154140D01*
X180082Y154101D01*
Y147000D01*
X180152Y146649D01*
X180351Y146351D01*
X189634Y137069D01*
Y135139D01*
X188860Y134818D01*
X188160Y134281D01*
X187623Y133581D01*
X187285Y132765D01*
X187170Y131890D01*
X187285Y131015D01*
X187623Y130199D01*
X188160Y129499D01*
X188860Y128961D01*
X189676Y128623D01*
X190551Y128508D01*
X191426Y128623D01*
X192242Y128961D01*
X192942Y129499D01*
X193480Y130199D01*
X193818Y131015D01*
X193933Y131890D01*
X193818Y132765D01*
X193480Y133581D01*
X192942Y134281D01*
X192242Y134818D01*
X191469Y135139D01*
Y137449D01*
X191399Y137800D01*
X191200Y138098D01*
X181918Y147380D01*
Y148533D01*
X182097Y148651D01*
X182418Y148726D01*
X197605Y133538D01*
X197285Y132765D01*
X197169Y131890D01*
X197285Y131015D01*
X197623Y130199D01*
X198160Y129499D01*
X198860Y128961D01*
X199676Y128623D01*
X200551Y128508D01*
X201426Y128623D01*
X202242Y128961D01*
X202942Y129499D01*
X203480Y130199D01*
X203818Y131015D01*
X203933Y131890D01*
X203818Y132765D01*
X203480Y133581D01*
X202942Y134281D01*
X202242Y134818D01*
X201426Y135156D01*
X200551Y135271D01*
X199676Y135156D01*
X198903Y134836D01*
X183902Y149837D01*
Y153797D01*
X183935Y153836D01*
X184402Y154046D01*
X184613Y153879D01*
X184696Y153460D01*
X185002Y153002D01*
X185460Y152696D01*
X186000Y152589D01*
X186540Y152696D01*
X186998Y153002D01*
X187304Y153460D01*
X187411Y154000D01*
X187304Y154540D01*
X186998Y154998D01*
X186540Y155304D01*
X186000Y155411D01*
X185870Y155895D01*
Y156875D01*
X186370Y157114D01*
X186603Y156926D01*
X186696Y156460D01*
X187002Y156002D01*
X187460Y155696D01*
X188000Y155589D01*
X188540Y155696D01*
X188998Y156002D01*
X189304Y156460D01*
X189411Y157000D01*
X189304Y157540D01*
X188998Y157998D01*
X188540Y158304D01*
X188000Y158411D01*
X187833Y158888D01*
Y173513D01*
X188333Y173781D01*
X188460Y173696D01*
X189000Y173589D01*
X189540Y173696D01*
X189998Y174002D01*
X190304Y174460D01*
X190411Y175000D01*
X190304Y175540D01*
X189998Y175998D01*
X189918Y176052D01*
Y178620D01*
X191409Y180111D01*
X191794Y180005D01*
X191909Y179922D01*
Y179393D01*
X191460Y179304D01*
X191002Y178998D01*
X190696Y178540D01*
X190589Y178000D01*
X190696Y177460D01*
X191002Y177002D01*
X191460Y176696D01*
X192000Y176589D01*
X192540Y176696D01*
X192998Y177002D01*
X193304Y177460D01*
X193378Y177830D01*
X193878Y177781D01*
Y170250D01*
X191000D01*
Y166500D01*
X194500D01*
Y166000D01*
D01*
Y166500D01*
X198000D01*
Y170250D01*
X195713D01*
Y174300D01*
X195828Y174383D01*
X196213Y174489D01*
X200732Y169970D01*
X200600Y169650D01*
X200600D01*
Y162350D01*
X202582D01*
Y141259D01*
X201095Y139771D01*
X201000Y139790D01*
X200460Y139682D01*
X200002Y139376D01*
X199696Y138919D01*
X199589Y138378D01*
X199696Y137838D01*
X200002Y137381D01*
X200460Y137074D01*
X201000Y136967D01*
X201540Y137074D01*
X201998Y137381D01*
X202304Y137838D01*
X202411Y138378D01*
X202393Y138473D01*
X204149Y140230D01*
X204348Y140527D01*
X204418Y140878D01*
Y162350D01*
X206400D01*
Y169650D01*
X203648D01*
X197681Y175616D01*
Y186051D01*
X197656Y186179D01*
Y189896D01*
X196287D01*
Y190496D01*
D02*
G37*
G36*
X356750Y187500D02*
X353000D01*
Y184500D01*
X356750D01*
Y187500D01*
D02*
G37*
G36*
X352000D02*
X348250D01*
Y184500D01*
X352000D01*
Y187500D01*
D02*
G37*
G36*
X336750D02*
X333000D01*
Y184500D01*
X336750D01*
Y187500D01*
D02*
G37*
G36*
X332000D02*
X328250D01*
Y184500D01*
X332000D01*
Y187500D01*
D02*
G37*
G36*
X326750D02*
X323000D01*
Y184500D01*
X326750D01*
Y187500D01*
D02*
G37*
G36*
X322000D02*
X318250D01*
Y184500D01*
X322000D01*
Y187500D01*
D02*
G37*
G36*
X263185Y183787D02*
X261504D01*
Y182500D01*
X263185D01*
Y183787D01*
D02*
G37*
G36*
X276000Y202918D02*
X259000D01*
X258649Y202848D01*
X258351Y202649D01*
X255352Y199650D01*
X252100D01*
Y192350D01*
X257900D01*
Y199602D01*
X259380Y201082D01*
X275620D01*
X276552Y200150D01*
X276345Y199650D01*
X271100D01*
Y192350D01*
X273397D01*
Y187858D01*
X272953Y187724D01*
Y187724D01*
X269500D01*
Y182000D01*
X268500D01*
Y187724D01*
X265047D01*
Y187724D01*
X264603Y187858D01*
Y192350D01*
X265900D01*
Y199650D01*
X260100D01*
Y192350D01*
X262767D01*
Y187124D01*
X262104D01*
Y186918D01*
X260052D01*
X259998Y186998D01*
X259540Y187304D01*
X259000Y187411D01*
X258460Y187304D01*
X258002Y186998D01*
X257696Y186540D01*
X257589Y186000D01*
X257696Y185460D01*
X258002Y185002D01*
X258460Y184696D01*
X259000Y184589D01*
X259540Y184696D01*
X259998Y185002D01*
X260052Y185082D01*
X262104D01*
Y184750D01*
X265047D01*
Y183787D01*
X264185D01*
Y182000D01*
Y180213D01*
X265047D01*
Y179250D01*
X262104D01*
Y176876D01*
X265047D01*
Y176276D01*
X268082D01*
Y174880D01*
X264452Y171250D01*
X261000D01*
Y167500D01*
X264500D01*
X268000D01*
Y171250D01*
X267701D01*
X267510Y171712D01*
X269649Y173851D01*
X269848Y174149D01*
X269918Y174500D01*
Y176276D01*
X272953D01*
Y176876D01*
X275896D01*
Y179250D01*
X272953D01*
Y180813D01*
X275890D01*
X277082Y179620D01*
Y173380D01*
X274352Y170650D01*
X270600D01*
Y163350D01*
X273082D01*
Y160306D01*
X269958D01*
Y154584D01*
X278042D01*
Y160306D01*
X274918D01*
Y163350D01*
X276400D01*
Y166082D01*
X277000D01*
X277351Y166152D01*
X277649Y166351D01*
X282649Y171351D01*
X282848Y171649D01*
X282918Y172000D01*
Y192350D01*
X284900D01*
Y199650D01*
X279648D01*
X276649Y202649D01*
X276351Y202848D01*
X276000Y202918D01*
D02*
G37*
G36*
X375500Y183464D02*
Y180500D01*
X378464D01*
X378410Y180914D01*
X378057Y181765D01*
X377496Y182496D01*
X376765Y183057D01*
X375914Y183410D01*
X375500Y183464D01*
D02*
G37*
G36*
X374500D02*
X374086Y183410D01*
X373235Y183057D01*
X372504Y182496D01*
X371943Y181765D01*
X371590Y180914D01*
X371536Y180500D01*
X374500D01*
Y183464D01*
D02*
G37*
G36*
X365500D02*
Y180500D01*
X368464D01*
X368410Y180914D01*
X368057Y181765D01*
X367496Y182496D01*
X366765Y183057D01*
X365914Y183410D01*
X365500Y183464D01*
D02*
G37*
G36*
X364500D02*
X364086Y183410D01*
X363235Y183057D01*
X362504Y182496D01*
X361943Y181765D01*
X361590Y180914D01*
X361536Y180500D01*
X364500D01*
Y183464D01*
D02*
G37*
G36*
X75500D02*
Y180500D01*
X78464D01*
X78410Y180914D01*
X78057Y181765D01*
X77496Y182496D01*
X76765Y183057D01*
X75914Y183410D01*
X75500Y183464D01*
D02*
G37*
G36*
X74500D02*
X74086Y183410D01*
X73235Y183057D01*
X72504Y182496D01*
X71943Y181765D01*
X71590Y180914D01*
X71536Y180500D01*
X74500D01*
Y183464D01*
D02*
G37*
G36*
X55500D02*
Y180500D01*
X58464D01*
X58410Y180914D01*
X58057Y181765D01*
X57496Y182496D01*
X56765Y183057D01*
X55914Y183410D01*
X55500Y183464D01*
D02*
G37*
G36*
X54500D02*
X54086Y183410D01*
X53235Y183057D01*
X52504Y182496D01*
X51943Y181765D01*
X51590Y180914D01*
X51536Y180500D01*
X54500D01*
Y183464D01*
D02*
G37*
G36*
X263185Y181500D02*
X261504D01*
Y180213D01*
X263185D01*
Y181500D01*
D02*
G37*
G36*
X109250Y182000D02*
X105500D01*
Y179000D01*
X109250D01*
Y182000D01*
D02*
G37*
G36*
X104500D02*
X100750D01*
Y179000D01*
X104500D01*
Y182000D01*
D02*
G37*
G36*
X168705Y190496D02*
X167713D01*
Y189896D01*
X166344D01*
Y186179D01*
X166319Y186051D01*
Y181616D01*
X163620Y178918D01*
X159052D01*
X158998Y178998D01*
X158540Y179304D01*
X158000Y179411D01*
X157460Y179304D01*
X157002Y178998D01*
X156696Y178540D01*
X156589Y178000D01*
X156696Y177460D01*
X157002Y177002D01*
X157460Y176696D01*
X158000Y176589D01*
X158540Y176696D01*
X158998Y177002D01*
X159052Y177082D01*
X164000D01*
X164351Y177152D01*
X164649Y177351D01*
X167885Y180587D01*
X168084Y180885D01*
X168154Y181236D01*
Y181606D01*
X168705D01*
Y186051D01*
Y190496D01*
D02*
G37*
G36*
X25500Y182500D02*
X22500D01*
Y178750D01*
X25500D01*
Y182500D01*
D02*
G37*
G36*
X21500D02*
X18500D01*
Y178750D01*
X21500D01*
Y182500D01*
D02*
G37*
G36*
X290000Y182733D02*
X289228Y182631D01*
X288508Y182333D01*
X287890Y181858D01*
X287415Y181240D01*
X287117Y180520D01*
X287015Y179748D01*
X287117Y178976D01*
X287415Y178256D01*
X287890Y177638D01*
X288508Y177163D01*
X289228Y176865D01*
X290000Y176763D01*
X290773Y176865D01*
X291492Y177163D01*
X292110Y177638D01*
X292585Y178256D01*
X292883Y178976D01*
X292985Y179748D01*
X292883Y180520D01*
X292585Y181240D01*
X292110Y181858D01*
X291492Y182333D01*
X290773Y182631D01*
X290000Y182733D01*
D02*
G37*
G36*
X378464Y179500D02*
X375500D01*
Y176536D01*
X375914Y176590D01*
X376765Y176943D01*
X377496Y177504D01*
X378057Y178235D01*
X378410Y179086D01*
X378464Y179500D01*
D02*
G37*
G36*
X374500D02*
X371536D01*
X371590Y179086D01*
X371943Y178235D01*
X372504Y177504D01*
X373235Y176943D01*
X374086Y176590D01*
X374500Y176536D01*
Y179500D01*
D02*
G37*
G36*
X368464D02*
X365500D01*
Y176536D01*
X365914Y176590D01*
X366765Y176943D01*
X367496Y177504D01*
X368057Y178235D01*
X368410Y179086D01*
X368464Y179500D01*
D02*
G37*
G36*
X364500D02*
X361536D01*
X361590Y179086D01*
X361943Y178235D01*
X362504Y177504D01*
X363235Y176943D01*
X364086Y176590D01*
X364500Y176536D01*
Y179500D01*
D02*
G37*
G36*
X78464D02*
X75500D01*
Y176536D01*
X75914Y176590D01*
X76765Y176943D01*
X77496Y177504D01*
X78057Y178235D01*
X78410Y179086D01*
X78464Y179500D01*
D02*
G37*
G36*
X74500D02*
X71536D01*
X71590Y179086D01*
X71943Y178235D01*
X72504Y177504D01*
X73235Y176943D01*
X74086Y176590D01*
X74500Y176536D01*
Y179500D01*
D02*
G37*
G36*
X58464D02*
X55500D01*
Y176536D01*
X55914Y176590D01*
X56765Y176943D01*
X57496Y177504D01*
X58057Y178235D01*
X58410Y179086D01*
X58464Y179500D01*
D02*
G37*
G36*
X54500D02*
X51536D01*
X51590Y179086D01*
X51943Y178235D01*
X52504Y177504D01*
X53235Y176943D01*
X54086Y176590D01*
X54500Y176536D01*
Y179500D01*
D02*
G37*
G36*
X109250Y178000D02*
X105500D01*
Y175000D01*
X109250D01*
Y178000D01*
D02*
G37*
G36*
X104500D02*
X100750D01*
Y175000D01*
X104500D01*
Y178000D01*
D02*
G37*
G36*
X365500Y173464D02*
Y170500D01*
X368464D01*
X368410Y170914D01*
X368057Y171765D01*
X367496Y172496D01*
X366765Y173057D01*
X365914Y173410D01*
X365500Y173464D01*
D02*
G37*
G36*
X364500D02*
X364086Y173410D01*
X363235Y173057D01*
X362504Y172496D01*
X361943Y171765D01*
X361590Y170914D01*
X361536Y170500D01*
X364500D01*
Y173464D01*
D02*
G37*
G36*
X109250Y173000D02*
X105500D01*
Y170000D01*
X109250D01*
Y173000D01*
D02*
G37*
G36*
X104500D02*
X100750D01*
Y170000D01*
X104500D01*
Y173000D01*
D02*
G37*
G36*
X305000Y171411D02*
X304460Y171304D01*
X304002Y170998D01*
X303948Y170918D01*
X300000D01*
X299649Y170848D01*
X299351Y170649D01*
X284351Y155649D01*
X284152Y155351D01*
X284082Y155000D01*
Y125000D01*
X284152Y124649D01*
X284351Y124351D01*
X288351Y120351D01*
X288649Y120152D01*
X289000Y120082D01*
X291350D01*
Y118100D01*
X294082D01*
Y98887D01*
X293860Y98738D01*
X293511Y98215D01*
X293388Y97598D01*
Y91299D01*
X293511Y90682D01*
X293860Y90159D01*
X294383Y89810D01*
X295000Y89687D01*
X295617Y89810D01*
X296140Y90159D01*
X296489Y90682D01*
X296612Y91299D01*
Y97598D01*
X296489Y98215D01*
X296140Y98738D01*
X295918Y98887D01*
Y118100D01*
X298650D01*
Y123900D01*
X291350D01*
Y121918D01*
X289380D01*
X285918Y125380D01*
Y154620D01*
X300380Y169082D01*
X303948D01*
X304002Y169002D01*
X304460Y168696D01*
X305000Y168589D01*
X305540Y168696D01*
X305998Y169002D01*
X306304Y169460D01*
X306411Y170000D01*
X306304Y170540D01*
X305998Y170998D01*
X305540Y171304D01*
X305000Y171411D01*
D02*
G37*
G36*
X32900Y186650D02*
X27100D01*
Y179350D01*
X29073D01*
Y175650D01*
X27600D01*
Y168350D01*
X33400D01*
Y175650D01*
X31927D01*
Y179350D01*
X32900D01*
Y186650D01*
D02*
G37*
G36*
X368464Y169500D02*
X365500D01*
Y166536D01*
X365914Y166590D01*
X366765Y166943D01*
X367496Y167504D01*
X368057Y168235D01*
X368410Y169086D01*
X368464Y169500D01*
D02*
G37*
G36*
X364500D02*
X361536D01*
X361590Y169086D01*
X361943Y168235D01*
X362504Y167504D01*
X363235Y166943D01*
X364086Y166590D01*
X364500Y166536D01*
Y169500D01*
D02*
G37*
G36*
X109250Y169000D02*
X105500D01*
Y166000D01*
X109250D01*
Y169000D01*
D02*
G37*
G36*
X104500D02*
X100750D01*
Y166000D01*
X104500D01*
Y169000D01*
D02*
G37*
G36*
X168500Y166924D02*
Y165500D01*
X169924D01*
X169869Y165774D01*
X169431Y166431D01*
X168774Y166869D01*
X168500Y166924D01*
D02*
G37*
G36*
X167500D02*
X167226Y166869D01*
X166569Y166431D01*
X166131Y165774D01*
X166076Y165500D01*
X167500D01*
Y166924D01*
D02*
G37*
G36*
X243299Y165921D02*
X241028D01*
Y164240D01*
X243299D01*
Y165921D01*
D02*
G37*
G36*
X240028D02*
X237756D01*
Y164240D01*
X240028D01*
Y165921D01*
D02*
G37*
G36*
X165250Y165000D02*
X161500D01*
Y161500D01*
Y158000D01*
X165250D01*
Y160952D01*
X167395Y163097D01*
X167500Y163076D01*
Y164500D01*
X166076D01*
X166097Y164395D01*
X165712Y164010D01*
X165250Y164201D01*
Y165000D01*
D02*
G37*
G36*
X169924Y164500D02*
X168500D01*
Y163076D01*
X168774Y163131D01*
X169431Y163569D01*
X169869Y164226D01*
X169924Y164500D01*
D02*
G37*
G36*
X268000Y166500D02*
X265000D01*
Y162750D01*
X268000D01*
Y166500D01*
D02*
G37*
G36*
X264000D02*
X261000D01*
Y162750D01*
X264000D01*
Y166500D01*
D02*
G37*
G36*
X160500Y165000D02*
X156750D01*
Y162000D01*
X160500D01*
Y165000D01*
D02*
G37*
G36*
X198000Y165500D02*
X195000D01*
Y161750D01*
X198000D01*
Y165500D01*
D02*
G37*
G36*
X194000D02*
X191000D01*
Y161750D01*
X194000D01*
Y165500D01*
D02*
G37*
G36*
X243299Y163240D02*
X241028D01*
Y161559D01*
X243299D01*
Y163240D01*
D02*
G37*
G36*
X240028D02*
X237756D01*
Y161559D01*
X240028D01*
Y163240D01*
D02*
G37*
G36*
X30000Y164250D02*
X27000D01*
Y160500D01*
X30000D01*
Y164250D01*
D02*
G37*
G36*
X300000Y184411D02*
X299460Y184304D01*
X299002Y183998D01*
X298696Y183540D01*
X298589Y183000D01*
X298696Y182460D01*
X299002Y182002D01*
X299460Y181696D01*
X300000Y181589D01*
X300540Y181696D01*
X300998Y182002D01*
X301052Y182082D01*
X307620D01*
X324100Y165602D01*
Y158905D01*
X323600Y158698D01*
X321918Y160380D01*
Y165000D01*
X321848Y165351D01*
X321649Y165649D01*
X306649Y180649D01*
X306351Y180848D01*
X306000Y180918D01*
X298052D01*
X297998Y180998D01*
X297540Y181304D01*
X297000Y181411D01*
X296460Y181304D01*
X296002Y180998D01*
X295696Y180540D01*
X295589Y180000D01*
X295696Y179460D01*
X296002Y179002D01*
X296460Y178696D01*
X297000Y178589D01*
X297540Y178696D01*
X297998Y179002D01*
X298052Y179082D01*
X305620D01*
X320082Y164620D01*
Y160000D01*
X320152Y159649D01*
X320351Y159351D01*
X334351Y145351D01*
X334649Y145152D01*
X335000Y145082D01*
X368948D01*
X369002Y145002D01*
X369460Y144696D01*
X370000Y144589D01*
X370540Y144696D01*
X370998Y145002D01*
X371304Y145460D01*
X371411Y146000D01*
X371304Y146540D01*
X370998Y146998D01*
X370540Y147304D01*
X370000Y147411D01*
X369460Y147304D01*
X369002Y146998D01*
X368948Y146918D01*
X335380D01*
X324448Y157850D01*
X324655Y158350D01*
X329900D01*
Y165650D01*
X326648D01*
X308649Y183649D01*
X308351Y183848D01*
X308000Y183918D01*
X301052D01*
X300998Y183998D01*
X300540Y184304D01*
X300000Y184411D01*
D02*
G37*
G36*
X47500Y161464D02*
Y158500D01*
X50464D01*
X50410Y158914D01*
X50057Y159765D01*
X49496Y160496D01*
X48765Y161057D01*
X47914Y161410D01*
X47500Y161464D01*
D02*
G37*
G36*
X34000Y164250D02*
X31000D01*
Y160000D01*
Y155750D01*
X32731D01*
X33573Y154909D01*
Y147181D01*
X32819D01*
Y142350D01*
X37181D01*
Y147181D01*
X36427D01*
Y155500D01*
X36427Y155500D01*
X36319Y156046D01*
X36009Y156509D01*
X36009Y156509D01*
X34446Y158073D01*
X34653Y158573D01*
X43166D01*
X43230Y158500D01*
X46500D01*
Y161464D01*
X46086Y161410D01*
X45669Y161237D01*
X45546Y161319D01*
X45000Y161427D01*
X45000Y161427D01*
X34000D01*
Y164250D01*
D02*
G37*
G36*
X337900Y165650D02*
X332100D01*
Y158350D01*
X337900D01*
Y159382D01*
X340350D01*
Y158100D01*
X347650D01*
Y159822D01*
X351513D01*
Y158372D01*
X357825D01*
Y163109D01*
X351513D01*
Y161658D01*
X347650D01*
Y163900D01*
X340350D01*
Y161218D01*
X337900D01*
Y165650D01*
D02*
G37*
G36*
X160500Y161000D02*
X156750D01*
Y158000D01*
X160500D01*
Y161000D01*
D02*
G37*
G36*
X380039Y160580D02*
X379113Y160458D01*
X378249Y160101D01*
X377508Y159532D01*
X376939Y158790D01*
X376581Y157927D01*
X376580Y157918D01*
X366487D01*
Y159369D01*
X360175D01*
Y154631D01*
X366487D01*
Y156082D01*
X376580D01*
X376581Y156073D01*
X376939Y155210D01*
X377508Y154468D01*
X378249Y153899D01*
X379113Y153542D01*
X380039Y153420D01*
X380966Y153542D01*
X381830Y153899D01*
X382571Y154468D01*
X383140Y155210D01*
X383498Y156073D01*
X383620Y157000D01*
X383498Y157927D01*
X383140Y158790D01*
X382571Y159532D01*
X381830Y160101D01*
X380966Y160458D01*
X380039Y160580D01*
D02*
G37*
G36*
X218000Y169411D02*
X217460Y169304D01*
X217002Y168998D01*
X216696Y168540D01*
X216589Y168000D01*
X216696Y167460D01*
X217002Y167002D01*
X217082Y166948D01*
Y160052D01*
X217002Y159998D01*
X216696Y159540D01*
X216589Y159000D01*
X216696Y158460D01*
X217002Y158002D01*
X217460Y157696D01*
X218000Y157589D01*
X218540Y157696D01*
X218998Y158002D01*
X219304Y158460D01*
X219411Y159000D01*
X219304Y159540D01*
X218998Y159998D01*
X218918Y160052D01*
Y166948D01*
X218998Y167002D01*
X219304Y167460D01*
X219411Y168000D01*
X219304Y168540D01*
X218998Y168998D01*
X218540Y169304D01*
X218000Y169411D01*
D02*
G37*
G36*
X30000Y159500D02*
X27000D01*
Y155750D01*
X30000D01*
Y159500D01*
D02*
G37*
G36*
X130500Y158464D02*
Y155500D01*
X133464D01*
X133410Y155914D01*
X133057Y156765D01*
X132496Y157496D01*
X131765Y158057D01*
X130914Y158410D01*
X130500Y158464D01*
D02*
G37*
G36*
X129500D02*
X129086Y158410D01*
X128235Y158057D01*
X127504Y157496D01*
X126943Y156765D01*
X126590Y155914D01*
X126536Y155500D01*
X129500D01*
Y158464D01*
D02*
G37*
G36*
X120500D02*
Y155500D01*
X123464D01*
X123410Y155914D01*
X123057Y156765D01*
X122496Y157496D01*
X121765Y158057D01*
X120914Y158410D01*
X120500Y158464D01*
D02*
G37*
G36*
X119500D02*
X119086Y158410D01*
X118235Y158057D01*
X117504Y157496D01*
X116943Y156765D01*
X116590Y155914D01*
X116536Y155500D01*
X119500D01*
Y158464D01*
D02*
G37*
G36*
X241650Y175900D02*
X234350D01*
Y170100D01*
X241650D01*
Y172082D01*
X242620D01*
X245082Y169620D01*
Y162112D01*
X240811Y157841D01*
X238356D01*
Y154679D01*
X242699D01*
Y157134D01*
X246649Y161083D01*
X246848Y161381D01*
X246918Y161732D01*
Y170000D01*
X246848Y170351D01*
X246649Y170649D01*
X243649Y173649D01*
X243351Y173848D01*
X243000Y173918D01*
X241650D01*
Y175900D01*
D02*
G37*
G36*
X215000Y166411D02*
X214460Y166304D01*
X214002Y165998D01*
X213696Y165540D01*
X213589Y165000D01*
X213696Y164460D01*
X214002Y164002D01*
X214082Y163948D01*
Y157000D01*
X214152Y156649D01*
X214351Y156351D01*
X214608Y156095D01*
X214589Y156000D01*
X214696Y155460D01*
X215002Y155002D01*
X215460Y154696D01*
X216000Y154589D01*
X216540Y154696D01*
X216998Y155002D01*
X217304Y155460D01*
X217411Y156000D01*
X217304Y156540D01*
X216998Y156998D01*
X216540Y157304D01*
X216000Y157411D01*
X215918Y157479D01*
Y163948D01*
X215998Y164002D01*
X216304Y164460D01*
X216411Y165000D01*
X216304Y165540D01*
X215998Y165998D01*
X215540Y166304D01*
X215000Y166411D01*
D02*
G37*
G36*
X50464Y157500D02*
X47500D01*
Y154536D01*
X47914Y154590D01*
X48765Y154943D01*
X49496Y155504D01*
X50057Y156235D01*
X50410Y157086D01*
X50464Y157500D01*
D02*
G37*
G36*
X46500D02*
X43536D01*
X43590Y157086D01*
X43943Y156235D01*
X44504Y155504D01*
X45235Y154943D01*
X46086Y154590D01*
X46500Y154536D01*
Y157500D01*
D02*
G37*
G36*
X358425Y156228D02*
X355169D01*
Y153760D01*
X358425D01*
Y156228D01*
D02*
G37*
G36*
X343500Y156500D02*
X339750D01*
Y153500D01*
X343500D01*
Y156500D01*
D02*
G37*
G36*
X133464Y154500D02*
X130500D01*
Y151536D01*
X130914Y151590D01*
X131765Y151943D01*
X132496Y152504D01*
X133057Y153235D01*
X133410Y154086D01*
X133464Y154500D01*
D02*
G37*
G36*
X129500D02*
X126536D01*
X126590Y154086D01*
X126943Y153235D01*
X127504Y152504D01*
X128235Y151943D01*
X129086Y151590D01*
X129500Y151536D01*
Y154500D01*
D02*
G37*
G36*
X123464D02*
X120500D01*
Y151536D01*
X120914Y151590D01*
X121765Y151943D01*
X122496Y152504D01*
X123057Y153235D01*
X123410Y154086D01*
X123464Y154500D01*
D02*
G37*
G36*
X119500D02*
X116536D01*
X116590Y154086D01*
X116943Y153235D01*
X117504Y152504D01*
X118235Y151943D01*
X119086Y151590D01*
X119500Y151536D01*
Y154500D01*
D02*
G37*
G36*
X358425Y152760D02*
X355169D01*
Y150291D01*
X358425D01*
Y152760D01*
D02*
G37*
G36*
X348250Y156500D02*
X344500D01*
Y153000D01*
Y149500D01*
X348250D01*
Y152342D01*
X350913D01*
Y150291D01*
X354169D01*
Y153260D01*
Y156228D01*
X350913D01*
Y154177D01*
X348250D01*
Y156500D01*
D02*
G37*
G36*
X343500Y152500D02*
X339750D01*
Y149500D01*
X343500D01*
Y152500D01*
D02*
G37*
G36*
X290000Y152635D02*
X289076Y152452D01*
X288292Y151928D01*
X287769Y151145D01*
X287585Y150221D01*
X287769Y149296D01*
X288292Y148513D01*
X289076Y147989D01*
X290000Y147806D01*
X290924Y147989D01*
X291708Y148513D01*
X292231Y149296D01*
X292415Y150221D01*
X292231Y151145D01*
X291708Y151928D01*
X290924Y152452D01*
X290000Y152635D01*
D02*
G37*
G36*
X233644Y161581D02*
X229301D01*
Y158419D01*
X231082D01*
Y148650D01*
X229100D01*
Y141350D01*
X234900D01*
Y148650D01*
X232918D01*
Y158419D01*
X233644D01*
Y161581D01*
D02*
G37*
G36*
X131051Y135811D02*
Y132390D01*
X134472D01*
X134402Y132922D01*
X134004Y133883D01*
X133370Y134709D01*
X132545Y135343D01*
X131583Y135741D01*
X131051Y135811D01*
D02*
G37*
G36*
X130051D02*
X129519Y135741D01*
X128558Y135343D01*
X127732Y134709D01*
X127099Y133883D01*
X126700Y132922D01*
X126630Y132390D01*
X130051D01*
Y135811D01*
D02*
G37*
G36*
X70232Y137122D02*
X65500D01*
Y131201D01*
X64500D01*
Y137122D01*
X59768D01*
Y133927D01*
X55404D01*
X55057Y134765D01*
X54496Y135496D01*
X53765Y136057D01*
X52914Y136410D01*
X52500Y136464D01*
Y133000D01*
Y129536D01*
X52914Y129590D01*
X53765Y129943D01*
X54496Y130504D01*
X54933Y131073D01*
X59768D01*
Y125279D01*
X63573D01*
Y124362D01*
X63573Y124362D01*
X63681Y123816D01*
X63991Y123353D01*
X72701Y114643D01*
Y113799D01*
X75563D01*
Y116661D01*
X74720D01*
X66601Y124779D01*
X66808Y125279D01*
X70232D01*
Y130462D01*
X86598D01*
Y127937D01*
X90051D01*
Y131890D01*
Y135843D01*
X86598D01*
Y133317D01*
X70232D01*
Y137122D01*
D02*
G37*
G36*
X134472Y131390D02*
X131051D01*
Y127969D01*
X131583Y128039D01*
X132545Y128437D01*
X133370Y129071D01*
X134004Y129896D01*
X134402Y130858D01*
X134472Y131390D01*
D02*
G37*
G36*
X130051D02*
X126630D01*
X126700Y130858D01*
X127099Y129896D01*
X127732Y129071D01*
X128558Y128437D01*
X129519Y128039D01*
X130051Y127969D01*
Y131390D01*
D02*
G37*
G36*
X94504D02*
X91051D01*
Y127937D01*
X94504D01*
Y131390D01*
D02*
G37*
G36*
X375500Y126924D02*
Y125500D01*
X376924D01*
X376869Y125774D01*
X376431Y126431D01*
X375774Y126869D01*
X375500Y126924D01*
D02*
G37*
G36*
X374500D02*
X374226Y126869D01*
X373569Y126431D01*
X373131Y125774D01*
X373076Y125500D01*
X374500D01*
Y126924D01*
D02*
G37*
G36*
X310000Y167411D02*
X309460Y167304D01*
X309002Y166998D01*
X308696Y166540D01*
X308589Y166000D01*
X308696Y165460D01*
X309002Y165002D01*
X309082Y164948D01*
Y145000D01*
X309152Y144649D01*
X309351Y144351D01*
X322082Y131620D01*
Y126052D01*
X322002Y125998D01*
X321696Y125540D01*
X321589Y125000D01*
X321696Y124460D01*
X322002Y124002D01*
X322460Y123696D01*
X323000Y123589D01*
X323540Y123696D01*
X323998Y124002D01*
X324304Y124460D01*
X324411Y125000D01*
X324304Y125540D01*
X323998Y125998D01*
X323918Y126052D01*
Y132000D01*
X323848Y132351D01*
X323649Y132649D01*
X310918Y145380D01*
Y164948D01*
X310998Y165002D01*
X311304Y165460D01*
X311411Y166000D01*
X311304Y166540D01*
X310998Y166998D01*
X310540Y167304D01*
X310000Y167411D01*
D02*
G37*
G36*
X376924Y124500D02*
X375500D01*
Y123076D01*
X375774Y123131D01*
X376431Y123569D01*
X376869Y124226D01*
X376924Y124500D01*
D02*
G37*
G36*
X374500D02*
X373076D01*
X373131Y124226D01*
X373569Y123569D01*
X374226Y123131D01*
X374500Y123076D01*
Y124500D01*
D02*
G37*
G36*
X24400Y175650D02*
X18600D01*
Y168350D01*
X20073D01*
Y163650D01*
X18600D01*
Y156350D01*
X20102D01*
X20181Y155954D01*
X20491Y155491D01*
X28573Y147409D01*
Y146581D01*
X28419D01*
Y137120D01*
X30201D01*
Y133000D01*
X37500D01*
Y132000D01*
X30201D01*
Y127880D01*
X28419D01*
Y123587D01*
X27759Y122927D01*
X16150D01*
Y124400D01*
X13927D01*
Y138100D01*
X16150D01*
Y143900D01*
X8850D01*
Y138100D01*
X11073D01*
Y124400D01*
X8850D01*
Y118600D01*
X16150D01*
Y120073D01*
X28350D01*
X28350Y120073D01*
X28419Y120016D01*
Y118419D01*
X31581D01*
Y127661D01*
X33419D01*
Y118419D01*
X36581D01*
Y127661D01*
X37819D01*
Y123650D01*
X42181D01*
Y127661D01*
X43419D01*
Y118419D01*
X43573D01*
Y113650D01*
X41600D01*
Y106350D01*
X41600D01*
X41760Y105964D01*
X24406Y88609D01*
X23844Y88842D01*
X22815Y88977D01*
X21786Y88842D01*
X20826Y88445D01*
X20003Y87812D01*
X19371Y86989D01*
X18973Y86029D01*
X18838Y85000D01*
X18973Y83971D01*
X19371Y83011D01*
X20003Y82188D01*
X20826Y81555D01*
X21786Y81158D01*
X22815Y81023D01*
X23844Y81158D01*
X24804Y81555D01*
X25627Y82188D01*
X26259Y83011D01*
X26657Y83971D01*
X26792Y85000D01*
X26657Y86029D01*
X26424Y86591D01*
X45509Y105676D01*
X45509Y105676D01*
X45819Y106139D01*
X45861Y106350D01*
X47400D01*
Y108573D01*
X56409D01*
X67573Y97409D01*
Y92896D01*
X66238D01*
Y87372D01*
X71762D01*
Y92896D01*
X70427D01*
Y98000D01*
X70319Y98546D01*
X70009Y99009D01*
X70009Y99009D01*
X58009Y111009D01*
X57546Y111319D01*
X57000Y111427D01*
X57000Y111427D01*
X47400D01*
Y113650D01*
X46427D01*
Y118419D01*
X46581D01*
Y127880D01*
X44799D01*
Y131073D01*
X49067D01*
X49504Y130504D01*
X50235Y129943D01*
X51086Y129590D01*
X51500Y129536D01*
Y133000D01*
Y136464D01*
X51086Y136410D01*
X50235Y136057D01*
X49504Y135496D01*
X48943Y134765D01*
X48596Y133927D01*
X44799D01*
Y137120D01*
X46581D01*
Y141413D01*
X47540Y142372D01*
X60368D01*
Y138478D01*
X69632D01*
Y149120D01*
X66427D01*
Y161234D01*
X71699D01*
Y171876D01*
X58301D01*
Y161234D01*
X63573D01*
Y149120D01*
X60368D01*
Y145227D01*
X46949D01*
X46949Y145227D01*
X46581Y145528D01*
Y146581D01*
X43419D01*
Y137339D01*
X41581D01*
Y146581D01*
X38419D01*
Y137339D01*
X37181D01*
Y141350D01*
X32819D01*
Y137339D01*
X31581D01*
Y146581D01*
X31427D01*
Y148000D01*
X31427Y148000D01*
X31319Y148546D01*
X31009Y149009D01*
X31009Y149009D01*
X24131Y155888D01*
X24322Y156350D01*
X24400D01*
Y163650D01*
X22927D01*
Y168350D01*
X24400D01*
Y175650D01*
D02*
G37*
G36*
X171000Y123411D02*
X170460Y123304D01*
X170002Y122998D01*
X169696Y122540D01*
X169589Y122000D01*
X169696Y121460D01*
X169781Y121333D01*
X169513Y120833D01*
X166080D01*
X165392Y121520D01*
X165411Y121615D01*
X165304Y122155D01*
X164998Y122613D01*
X164540Y122919D01*
X164000Y123027D01*
X163460Y122919D01*
X163002Y122613D01*
X162696Y122155D01*
X162589Y121615D01*
X162696Y121075D01*
X163002Y120617D01*
X163460Y120311D01*
X164000Y120204D01*
X164095Y120223D01*
X165051Y119267D01*
X165348Y119068D01*
X165700Y118998D01*
X205838D01*
X207238Y117597D01*
Y113371D01*
X212763D01*
Y118895D01*
X208536D01*
X206867Y120565D01*
X206840Y120582D01*
X206992Y121082D01*
X214754D01*
X218238Y117597D01*
Y113371D01*
X223763D01*
Y118895D01*
X219536D01*
X215782Y122649D01*
X215485Y122848D01*
X215134Y122918D01*
X172052D01*
X171998Y122998D01*
X171540Y123304D01*
X171000Y123411D01*
D02*
G37*
G36*
X42181Y122650D02*
X37819D01*
Y117819D01*
X37819D01*
X37960Y117479D01*
X34731Y114250D01*
X32000D01*
Y111427D01*
X16750D01*
Y113000D01*
X13000D01*
Y110000D01*
X13981D01*
X14991Y108991D01*
X14991Y108991D01*
X15454Y108681D01*
X16000Y108573D01*
X16000Y108573D01*
X31347D01*
X31554Y108073D01*
X22409Y98927D01*
X17500D01*
X17500Y98927D01*
X16954Y98819D01*
X16491Y98509D01*
X16491Y98509D01*
X11963Y93982D01*
X11654Y93519D01*
X11545Y92972D01*
X11545Y92972D01*
Y79484D01*
X10681Y79126D01*
X9732Y78398D01*
X9004Y77449D01*
X8546Y76344D01*
X8456Y75657D01*
X12972D01*
Y75157D01*
X13472D01*
Y70641D01*
X14159Y70731D01*
X15264Y71189D01*
X16213Y71917D01*
X16941Y72866D01*
X17299Y73730D01*
X28331D01*
X28689Y72866D01*
X29417Y71917D01*
X30366Y71189D01*
X31471Y70731D01*
X32157Y70641D01*
Y75157D01*
Y79674D01*
X31471Y79584D01*
X30366Y79126D01*
X29417Y78398D01*
X28689Y77449D01*
X28331Y76585D01*
X17299D01*
X16941Y77449D01*
X16213Y78398D01*
X15264Y79126D01*
X14400Y79484D01*
Y92381D01*
X18091Y96073D01*
X23000D01*
X23000Y96073D01*
X23546Y96181D01*
X24009Y96491D01*
X33269Y105750D01*
X35000D01*
Y110000D01*
X35500D01*
Y110500D01*
X39000D01*
Y114250D01*
X39000Y114250D01*
X39000D01*
X39193Y114674D01*
X41009Y116491D01*
X41009Y116491D01*
X41319Y116954D01*
X41427Y117500D01*
X41770Y117819D01*
X42181D01*
Y122650D01*
D02*
G37*
G36*
X127650Y118400D02*
X120350D01*
Y116918D01*
X116052D01*
X115998Y116998D01*
X115540Y117304D01*
X115000Y117411D01*
X114460Y117304D01*
X114002Y116998D01*
X113696Y116540D01*
X113589Y116000D01*
X113696Y115460D01*
X114002Y115002D01*
X114460Y114696D01*
X115000Y114589D01*
X115540Y114696D01*
X115998Y115002D01*
X116052Y115082D01*
X120350D01*
Y112600D01*
X127650D01*
Y118400D01*
D02*
G37*
G36*
X168650D02*
X161350D01*
Y116418D01*
X137650D01*
Y118400D01*
X130350D01*
Y112600D01*
X137650D01*
Y114582D01*
X161350D01*
Y113148D01*
X153351Y105149D01*
X153152Y104851D01*
X153082Y104500D01*
Y95500D01*
X149500D01*
Y92000D01*
Y88500D01*
X153082D01*
Y88000D01*
X153152Y87649D01*
X153351Y87351D01*
X155350Y85352D01*
Y80648D01*
X145946Y71243D01*
X145747Y70946D01*
X145677Y70595D01*
Y63493D01*
X145177Y63393D01*
X144867Y64141D01*
X144266Y64924D01*
X143484Y65525D01*
X142572Y65902D01*
X141595Y66031D01*
X140617Y65902D01*
X140333Y65785D01*
X139918Y66062D01*
Y80600D01*
X142650D01*
Y82582D01*
X145350D01*
Y80100D01*
X152650D01*
Y85900D01*
X145350D01*
Y84418D01*
X142650D01*
Y86400D01*
X135350D01*
Y80600D01*
X138082D01*
Y64846D01*
X138152Y64495D01*
X138351Y64198D01*
X138359Y64190D01*
X138322Y64141D01*
X138012Y63393D01*
X137512Y63493D01*
Y75406D01*
X137442Y75757D01*
X137243Y76054D01*
X132650Y80648D01*
Y85900D01*
X125350D01*
Y80100D01*
X130602D01*
X135677Y75025D01*
Y63493D01*
X135177Y63393D01*
X134867Y64141D01*
X134266Y64924D01*
X133484Y65525D01*
X132572Y65902D01*
X131595Y66031D01*
X130616Y65902D01*
X129705Y65525D01*
X129657Y65487D01*
X119918Y75226D01*
Y80600D01*
X122650D01*
Y86400D01*
X115350D01*
Y84418D01*
X112650D01*
Y86400D01*
X105350D01*
Y80600D01*
X112650D01*
Y82582D01*
X115350D01*
Y80600D01*
X118082D01*
Y74847D01*
X118152Y74495D01*
X118351Y74198D01*
X128359Y64190D01*
X128322Y64141D01*
X127945Y63230D01*
X127816Y62252D01*
X127945Y61274D01*
X128322Y60363D01*
X128922Y59580D01*
X129705Y58979D01*
X130616Y58602D01*
X131595Y58473D01*
X132572Y58602D01*
X133484Y58979D01*
X134266Y59580D01*
X134867Y60363D01*
X135177Y61111D01*
X135677Y61011D01*
Y55910D01*
X135617Y55902D01*
X134705Y55524D01*
X133923Y54924D01*
X133322Y54141D01*
X132945Y53230D01*
X132816Y52252D01*
X132945Y51274D01*
X133322Y50363D01*
X133923Y49580D01*
X134705Y48979D01*
X135617Y48602D01*
X136594Y48473D01*
X137573Y48602D01*
X138484Y48979D01*
X139267Y49580D01*
X139867Y50363D01*
X140244Y51274D01*
X140373Y52252D01*
X140244Y53230D01*
X139867Y54141D01*
X139267Y54924D01*
X138484Y55524D01*
X137573Y55902D01*
X137512Y55910D01*
Y61011D01*
X138012Y61111D01*
X138322Y60363D01*
X138923Y59580D01*
X139705Y58979D01*
X140617Y58602D01*
X141595Y58473D01*
X142572Y58602D01*
X143484Y58979D01*
X144266Y59580D01*
X144867Y60363D01*
X145177Y61111D01*
X145677Y61011D01*
Y55910D01*
X145616Y55902D01*
X144705Y55524D01*
X143922Y54924D01*
X143322Y54141D01*
X142945Y53230D01*
X142816Y52252D01*
X142945Y51274D01*
X143322Y50363D01*
X143922Y49580D01*
X144705Y48979D01*
X145616Y48602D01*
X146595Y48473D01*
X147573Y48602D01*
X148484Y48979D01*
X149267Y49580D01*
X149867Y50363D01*
X150244Y51274D01*
X150373Y52252D01*
X150244Y53230D01*
X149867Y54141D01*
X149267Y54924D01*
X148484Y55524D01*
X147573Y55902D01*
X147512Y55910D01*
Y61011D01*
X148012Y61111D01*
X148322Y60363D01*
X148923Y59580D01*
X149705Y58979D01*
X150617Y58602D01*
X151594Y58473D01*
X152573Y58602D01*
X153484Y58979D01*
X154267Y59580D01*
X154867Y60363D01*
X155245Y61274D01*
X155373Y62252D01*
X155245Y63230D01*
X154867Y64141D01*
X154267Y64924D01*
X153976Y65147D01*
X153943Y65646D01*
X168398Y80100D01*
X173650D01*
Y85900D01*
X166350D01*
Y80648D01*
X151717Y66015D01*
X151594Y66031D01*
X150617Y65902D01*
X149705Y65525D01*
X148923Y64924D01*
X148322Y64141D01*
X148012Y63393D01*
X147512Y63493D01*
Y70214D01*
X157398Y80100D01*
X162650D01*
Y85900D01*
X157398D01*
X155298Y88000D01*
X155505Y88500D01*
X158500D01*
Y92000D01*
Y95500D01*
X154918D01*
Y104120D01*
X160850Y110052D01*
X161350Y109845D01*
Y104600D01*
X168650D01*
Y106582D01*
X171350D01*
Y105148D01*
X169351Y103149D01*
X169152Y102851D01*
X169082Y102500D01*
Y94900D01*
X166350D01*
Y89100D01*
X173650D01*
Y94900D01*
X170918D01*
Y102120D01*
X173398Y104600D01*
X178650D01*
Y110400D01*
X171350D01*
Y108418D01*
X168650D01*
Y110400D01*
X161905D01*
X161698Y110900D01*
X163398Y112600D01*
X168650D01*
Y118400D01*
D02*
G37*
G36*
X16750Y117000D02*
X13000D01*
Y114000D01*
X16750D01*
Y117000D01*
D02*
G37*
G36*
X12000D02*
X8250D01*
Y114000D01*
X12000D01*
Y117000D01*
D02*
G37*
G36*
X79425Y116661D02*
X76563D01*
Y113799D01*
X79425D01*
Y116661D01*
D02*
G37*
G36*
X110551Y135271D02*
X109676Y135156D01*
X108860Y134818D01*
X108160Y134281D01*
X107623Y133581D01*
X107285Y132765D01*
X107169Y131890D01*
X107285Y131015D01*
X107623Y130199D01*
X108160Y129499D01*
X108860Y128961D01*
X109124Y128852D01*
Y128142D01*
X99881Y118900D01*
X95350D01*
Y113100D01*
X102650D01*
Y117631D01*
X111560Y126542D01*
X111560Y126542D01*
X111870Y127005D01*
X111979Y127551D01*
X111979Y127551D01*
Y128852D01*
X112242Y128961D01*
X112942Y129499D01*
X113480Y130199D01*
X113818Y131015D01*
X113933Y131890D01*
X113818Y132765D01*
X113480Y133581D01*
X112942Y134281D01*
X112242Y134818D01*
X111426Y135156D01*
X110551Y135271D01*
D02*
G37*
G36*
X317500Y114250D02*
X314500D01*
Y110500D01*
X317500D01*
Y114250D01*
D02*
G37*
G36*
X313500D02*
X310500D01*
Y110500D01*
X313500D01*
Y114250D01*
D02*
G37*
G36*
X12000Y113000D02*
X8250D01*
Y110000D01*
X12000D01*
Y113000D01*
D02*
G37*
G36*
X79425Y112799D02*
X76563D01*
Y109937D01*
X79425D01*
Y112799D01*
D02*
G37*
G36*
X75563D02*
X72701D01*
Y109937D01*
X75563D01*
Y112799D01*
D02*
G37*
G36*
X137650Y110400D02*
X130350D01*
Y108418D01*
X127650D01*
Y110400D01*
X120350D01*
Y104600D01*
X125602D01*
X128082Y102120D01*
Y94900D01*
X125350D01*
Y89100D01*
X132650D01*
Y94900D01*
X129918D01*
Y102500D01*
X129848Y102851D01*
X129649Y103149D01*
X127650Y105148D01*
Y106582D01*
X130350D01*
Y104600D01*
X137650D01*
Y110400D01*
D02*
G37*
G36*
X313500Y109500D02*
X310500D01*
Y105750D01*
X313500D01*
Y109500D01*
D02*
G37*
G36*
X39000D02*
X36000D01*
Y105750D01*
X39000D01*
Y109500D01*
D02*
G37*
G36*
X272213Y113374D02*
X271080Y113225D01*
X270025Y112788D01*
X269119Y112093D01*
X268424Y111187D01*
X267987Y110132D01*
X267838Y109000D01*
X267987Y107868D01*
X268424Y106813D01*
X269119Y105907D01*
X270025Y105212D01*
X271080Y104775D01*
X272213Y104626D01*
X273345Y104775D01*
X274400Y105212D01*
X275306Y105907D01*
X276001Y106813D01*
X276438Y107868D01*
X276587Y109000D01*
X276438Y110132D01*
X276001Y111187D01*
X275306Y112093D01*
X274400Y112788D01*
X273345Y113225D01*
X272213Y113374D01*
D02*
G37*
G36*
X253000D02*
X251868Y113225D01*
X250813Y112788D01*
X249907Y112093D01*
X249212Y111187D01*
X248775Y110132D01*
X248626Y109000D01*
X248775Y107868D01*
X249212Y106813D01*
X249907Y105907D01*
X250813Y105212D01*
X251868Y104775D01*
X253000Y104626D01*
X254132Y104775D01*
X255187Y105212D01*
X256093Y105907D01*
X256788Y106813D01*
X257225Y107868D01*
X257374Y109000D01*
X257225Y110132D01*
X256788Y111187D01*
X256093Y112093D01*
X255187Y112788D01*
X254132Y113225D01*
X253000Y113374D01*
D02*
G37*
G36*
X102650Y110900D02*
X95350D01*
Y106369D01*
X90913Y101931D01*
X83550D01*
Y103857D01*
X76450D01*
Y97151D01*
X83550D01*
Y99076D01*
X91504D01*
X91504Y99076D01*
X92050Y99185D01*
X92513Y99495D01*
X98119Y105100D01*
X102650D01*
Y110900D01*
D02*
G37*
G36*
X183000Y104411D02*
X182460Y104304D01*
X182002Y103998D01*
X181696Y103540D01*
X181589Y103000D01*
X181607Y102905D01*
X177351Y98649D01*
X177152Y98351D01*
X177082Y98000D01*
Y96052D01*
X177002Y95998D01*
X176696Y95540D01*
X176589Y95000D01*
X176696Y94460D01*
X177002Y94002D01*
X177460Y93696D01*
X178000Y93589D01*
X178540Y93696D01*
X178998Y94002D01*
X179304Y94460D01*
X179411Y95000D01*
X179304Y95540D01*
X178998Y95998D01*
X178918Y96052D01*
Y97620D01*
X182905Y101608D01*
X183000Y101589D01*
X183540Y101696D01*
X183998Y102002D01*
X184304Y102460D01*
X184411Y103000D01*
X184304Y103540D01*
X183998Y103998D01*
X183540Y104304D01*
X183000Y104411D01*
D02*
G37*
G36*
X298000Y177411D02*
X297460Y177304D01*
X297002Y176998D01*
X296696Y176540D01*
X296589Y176000D01*
X296696Y175460D01*
X297002Y175002D01*
X297460Y174696D01*
X298000Y174589D01*
X298540Y174696D01*
X298998Y175002D01*
X299052Y175082D01*
X304620D01*
X315082Y164620D01*
Y158000D01*
X315152Y157649D01*
X315351Y157351D01*
X331351Y141351D01*
X331649Y141152D01*
X332000Y141082D01*
X352620D01*
X381351Y112351D01*
X381649Y112152D01*
X382000Y112082D01*
X404948D01*
X405002Y112002D01*
X405082Y111948D01*
Y108650D01*
X403100D01*
Y101350D01*
X408900D01*
Y108650D01*
X406918D01*
Y111948D01*
X406998Y112002D01*
X407304Y112460D01*
X407411Y113000D01*
X407304Y113540D01*
X406998Y113998D01*
X406540Y114304D01*
X406000Y114411D01*
X405460Y114304D01*
X405002Y113998D01*
X404948Y113918D01*
X382380D01*
X353649Y142649D01*
X353351Y142848D01*
X353000Y142918D01*
X332380D01*
X316918Y158380D01*
Y165000D01*
X316848Y165351D01*
X316649Y165649D01*
X305649Y176649D01*
X305351Y176848D01*
X305000Y176918D01*
X299052D01*
X298998Y176998D01*
X298540Y177304D01*
X298000Y177411D01*
D02*
G37*
G36*
X105000Y102411D02*
X104460Y102304D01*
X104002Y101998D01*
X103696Y101540D01*
X103589Y101000D01*
X103607Y100905D01*
X98351Y95649D01*
X98152Y95351D01*
X98082Y95000D01*
Y94400D01*
X95350D01*
Y88600D01*
X102650D01*
Y94400D01*
X100405D01*
X100198Y94900D01*
X104905Y99607D01*
X105000Y99589D01*
X105540Y99696D01*
X105998Y100002D01*
X106304Y100460D01*
X106411Y101000D01*
X106304Y101540D01*
X105998Y101998D01*
X105540Y102304D01*
X105000Y102411D01*
D02*
G37*
G36*
X349000Y138411D02*
X348460Y138304D01*
X348002Y137998D01*
X347696Y137540D01*
X347589Y137000D01*
X347696Y136460D01*
X348002Y136002D01*
X348460Y135696D01*
X349000Y135589D01*
X349095Y135608D01*
X355082Y129620D01*
Y123052D01*
X355002Y122998D01*
X354696Y122540D01*
X354589Y122000D01*
X354696Y121460D01*
X355002Y121002D01*
X355082Y120948D01*
Y105380D01*
X348095Y98392D01*
X348000Y98411D01*
X347460Y98304D01*
X347002Y97998D01*
X346696Y97540D01*
X346589Y97000D01*
X346696Y96460D01*
X347002Y96002D01*
X347460Y95696D01*
X348000Y95589D01*
X348540Y95696D01*
X348998Y96002D01*
X349304Y96460D01*
X349411Y97000D01*
X349393Y97095D01*
X356649Y104351D01*
X356848Y104649D01*
X356918Y105000D01*
Y120948D01*
X356998Y121002D01*
X357304Y121460D01*
X357411Y122000D01*
X357304Y122540D01*
X356998Y122998D01*
X356918Y123052D01*
Y130000D01*
X356848Y130351D01*
X356649Y130649D01*
X350393Y136905D01*
X350411Y137000D01*
X350304Y137540D01*
X349998Y137998D01*
X349540Y138304D01*
X349000Y138411D01*
D02*
G37*
G36*
X279500Y100250D02*
X276500D01*
Y96500D01*
X279500D01*
Y100250D01*
D02*
G37*
G36*
X275500D02*
X272500D01*
Y96500D01*
X275500D01*
Y100250D01*
D02*
G37*
G36*
X212763Y110627D02*
X207238D01*
Y105103D01*
X211465D01*
X219217Y97351D01*
X219515Y97152D01*
X219866Y97082D01*
X224350D01*
Y95100D01*
X231650D01*
Y100900D01*
X224350D01*
Y98918D01*
X220246D01*
X212763Y106401D01*
Y110627D01*
D02*
G37*
G36*
X250000Y151411D02*
X249460Y151304D01*
X249002Y150998D01*
X248696Y150540D01*
X248589Y150000D01*
X248696Y149460D01*
X249002Y149002D01*
X249460Y148696D01*
X250000Y148589D01*
X250095Y148608D01*
X286082Y112620D01*
Y95052D01*
X286002Y94998D01*
X285696Y94540D01*
X285589Y94000D01*
X285696Y93460D01*
X286002Y93002D01*
X286460Y92696D01*
X287000Y92589D01*
X287540Y92696D01*
X287998Y93002D01*
X288304Y93460D01*
X288411Y94000D01*
X288304Y94540D01*
X287998Y94998D01*
X287918Y95052D01*
Y113000D01*
X287848Y113351D01*
X287649Y113649D01*
X251393Y149905D01*
X251411Y150000D01*
X251304Y150540D01*
X250998Y150998D01*
X250540Y151304D01*
X250000Y151411D01*
D02*
G37*
G36*
X148500Y95500D02*
X144750D01*
Y92500D01*
X148500D01*
Y95500D01*
D02*
G37*
G36*
X163250D02*
X159500D01*
Y92500D01*
X163250D01*
Y95500D01*
D02*
G37*
G36*
X92650Y94400D02*
X85350D01*
Y92418D01*
X81328D01*
X81304Y92540D01*
X80998Y92998D01*
X80540Y93304D01*
X80000Y93411D01*
X79460Y93304D01*
X79002Y92998D01*
X78696Y92540D01*
X78589Y92000D01*
X78696Y91460D01*
X79002Y91002D01*
X79460Y90696D01*
X80000Y90589D01*
X80234Y90635D01*
X80500Y90582D01*
X85350D01*
Y88600D01*
X92650D01*
Y94400D01*
D02*
G37*
G36*
X257000Y124918D02*
X232000D01*
X231649Y124848D01*
X231351Y124649D01*
X226351Y119649D01*
X226152Y119351D01*
X226082Y119000D01*
Y110380D01*
X224485Y108783D01*
X223763D01*
Y110627D01*
X218238D01*
Y105103D01*
X223763D01*
Y106948D01*
X224865D01*
X225216Y107017D01*
X225514Y107216D01*
X227649Y109351D01*
X227848Y109649D01*
X227918Y110000D01*
Y118620D01*
X232380Y123082D01*
X256620D01*
X263082Y116620D01*
Y100000D01*
X263152Y99649D01*
X263351Y99351D01*
X265100Y97602D01*
Y92350D01*
X270900D01*
Y99650D01*
X265648D01*
X264918Y100380D01*
Y117000D01*
X264848Y117351D01*
X264649Y117649D01*
X257649Y124649D01*
X257351Y124848D01*
X257000Y124918D01*
D02*
G37*
G36*
X279500Y95500D02*
X276500D01*
Y91750D01*
X279500D01*
Y95500D01*
D02*
G37*
G36*
X275500D02*
X272500D01*
Y91750D01*
X275500D01*
Y95500D01*
D02*
G37*
G36*
X372000Y94250D02*
X369000D01*
Y90500D01*
X372000D01*
Y94250D01*
D02*
G37*
G36*
X298650Y131900D02*
X291350D01*
Y126100D01*
X298650D01*
Y129082D01*
X307120D01*
X308334Y127868D01*
X308127Y127368D01*
X302513D01*
Y122632D01*
X305082D01*
Y113650D01*
X303100D01*
Y106350D01*
X304082D01*
Y98887D01*
X303860Y98738D01*
X303511Y98215D01*
X303388Y97598D01*
Y95366D01*
X301612D01*
Y97598D01*
X301489Y98215D01*
X301140Y98738D01*
X300617Y99088D01*
X300000Y99211D01*
X299383Y99088D01*
X298860Y98738D01*
X298511Y98215D01*
X298388Y97598D01*
Y91299D01*
X298511Y90682D01*
X298860Y90159D01*
X299383Y89810D01*
X300000Y89687D01*
X300617Y89810D01*
X301140Y90159D01*
X301489Y90682D01*
X301612Y91299D01*
Y93531D01*
X303388D01*
Y91299D01*
X303511Y90682D01*
X303860Y90159D01*
X304383Y89810D01*
X305000Y89687D01*
X305617Y89810D01*
X306140Y90159D01*
X306489Y90682D01*
X306612Y91299D01*
Y97598D01*
X306489Y98215D01*
X306140Y98738D01*
X305918Y98887D01*
Y106350D01*
X308900D01*
Y113650D01*
X306918D01*
Y122632D01*
X308825D01*
Y124829D01*
X309325Y124980D01*
X309351Y124942D01*
X311175Y123118D01*
Y118891D01*
X317487D01*
Y123131D01*
X317487Y123210D01*
X317952Y123663D01*
X318112Y123661D01*
X327082Y114691D01*
Y90862D01*
X326750Y90500D01*
X323418D01*
Y101500D01*
X323348Y101851D01*
X323149Y102149D01*
X317500Y107798D01*
Y109500D01*
X314500D01*
Y105750D01*
X316952D01*
X321255Y101447D01*
X321251Y101430D01*
X320681Y101210D01*
X320540Y101304D01*
X320000Y101411D01*
X319460Y101304D01*
X319002Y100998D01*
X318696Y100540D01*
X318589Y100000D01*
X318607Y99905D01*
X314069Y95366D01*
X311612D01*
Y97598D01*
X311489Y98215D01*
X311140Y98738D01*
X310617Y99088D01*
X310000Y99211D01*
X309383Y99088D01*
X308860Y98738D01*
X308511Y98215D01*
X308388Y97598D01*
Y91299D01*
X308511Y90682D01*
X308860Y90159D01*
X309383Y89810D01*
X310000Y89687D01*
X310617Y89810D01*
X311140Y90159D01*
X311489Y90682D01*
X311612Y91299D01*
Y93531D01*
X314449D01*
X314800Y93601D01*
X315098Y93800D01*
X319905Y98607D01*
X320000Y98589D01*
X320540Y98696D01*
X320998Y99002D01*
X321082Y99128D01*
X321582Y98977D01*
Y90500D01*
X318250D01*
Y87500D01*
X322500D01*
Y86500D01*
X318250D01*
Y84201D01*
X317788Y84010D01*
X317149Y84649D01*
X316851Y84848D01*
X316500Y84918D01*
X284000D01*
X283649Y84848D01*
X283351Y84649D01*
X267851Y69149D01*
X267652Y68851D01*
X267582Y68500D01*
Y63650D01*
X265600D01*
Y56350D01*
X271400D01*
Y63650D01*
X269418D01*
Y68120D01*
X284380Y83082D01*
X316120D01*
X318850Y80352D01*
Y76469D01*
X311612D01*
Y78701D01*
X311489Y79318D01*
X311140Y79841D01*
X310617Y80190D01*
X310000Y80313D01*
X309383Y80190D01*
X308860Y79841D01*
X308511Y79318D01*
X308388Y78701D01*
Y72402D01*
X308511Y71785D01*
X308860Y71262D01*
X309383Y70912D01*
X310000Y70789D01*
X310617Y70912D01*
X311140Y71262D01*
X311489Y71785D01*
X311612Y72402D01*
Y74634D01*
X320051D01*
X320402Y74703D01*
X320700Y74902D01*
X320898Y75100D01*
X326150D01*
Y77082D01*
X330958D01*
Y76195D01*
X339042D01*
Y81916D01*
X330958D01*
Y78918D01*
X326150D01*
Y79852D01*
X328649Y82351D01*
X328848Y82649D01*
X328918Y83000D01*
Y115071D01*
X328848Y115422D01*
X328649Y115720D01*
X317487Y126882D01*
Y131109D01*
X311175D01*
Y128262D01*
X310675Y128110D01*
X310649Y128149D01*
X308149Y130649D01*
X307851Y130848D01*
X307500Y130918D01*
X298650D01*
Y131900D01*
D02*
G37*
G36*
X232250Y93500D02*
X228500D01*
Y90500D01*
X232250D01*
Y93500D01*
D02*
G37*
G36*
X227500D02*
X223750D01*
Y90500D01*
X227500D01*
Y93500D01*
D02*
G37*
G36*
X368000Y94250D02*
X365000D01*
Y90500D01*
X368000D01*
Y94250D01*
D02*
G37*
G36*
X407762Y91897D02*
X402237D01*
Y90052D01*
X397917D01*
X397540Y90304D01*
X397000Y90411D01*
X396460Y90304D01*
X396002Y89998D01*
X395696Y89540D01*
X395589Y89000D01*
X395696Y88460D01*
X396002Y88002D01*
X396460Y87696D01*
X397000Y87589D01*
X397540Y87696D01*
X397998Y88002D01*
X398142Y88217D01*
X402237D01*
Y86373D01*
X407762D01*
Y91897D01*
D02*
G37*
G36*
X247500Y146411D02*
X246960Y146304D01*
X246502Y145998D01*
X246196Y145540D01*
X246089Y145000D01*
X246196Y144460D01*
X246502Y144002D01*
X246960Y143696D01*
X247500Y143589D01*
X247595Y143607D01*
X283082Y108120D01*
Y92052D01*
X283002Y91998D01*
X282696Y91540D01*
X282589Y91000D01*
X282696Y90460D01*
X283002Y90002D01*
X283460Y89696D01*
X284000Y89589D01*
X284540Y89696D01*
X284998Y90002D01*
X285304Y90460D01*
X285411Y91000D01*
X285304Y91540D01*
X284998Y91998D01*
X284918Y92052D01*
Y108500D01*
X284848Y108851D01*
X284649Y109149D01*
X248892Y144905D01*
X248911Y145000D01*
X248804Y145540D01*
X248498Y145998D01*
X248040Y146304D01*
X247500Y146411D01*
D02*
G37*
G36*
X139000Y101411D02*
X138460Y101304D01*
X138002Y100998D01*
X137696Y100540D01*
X137589Y100000D01*
X137696Y99460D01*
X138002Y99002D01*
X138082Y98948D01*
Y94400D01*
X135350D01*
Y88600D01*
X142650D01*
Y94400D01*
X139918D01*
Y98948D01*
X139998Y99002D01*
X140304Y99460D01*
X140411Y100000D01*
X140304Y100540D01*
X139998Y100998D01*
X139540Y101304D01*
X139000Y101411D01*
D02*
G37*
G36*
X115000Y111411D02*
X114460Y111304D01*
X114002Y110998D01*
X113696Y110540D01*
X113589Y110000D01*
X113696Y109460D01*
X114002Y109002D01*
X114082Y108948D01*
Y105000D01*
X114152Y104649D01*
X114351Y104351D01*
X118082Y100620D01*
Y94400D01*
X115350D01*
Y88600D01*
X122650D01*
Y94400D01*
X119918D01*
Y101000D01*
X119848Y101351D01*
X119649Y101649D01*
X115918Y105380D01*
Y108948D01*
X115998Y109002D01*
X116304Y109460D01*
X116411Y110000D01*
X116304Y110540D01*
X115998Y110998D01*
X115540Y111304D01*
X115000Y111411D01*
D02*
G37*
G36*
X109000Y101411D02*
X108460Y101304D01*
X108002Y100998D01*
X107696Y100540D01*
X107589Y100000D01*
X107696Y99460D01*
X108002Y99002D01*
X108082Y98948D01*
Y94400D01*
X105350D01*
Y88600D01*
X112650D01*
Y94400D01*
X109918D01*
Y98948D01*
X109998Y99002D01*
X110304Y99460D01*
X110411Y100000D01*
X110304Y100540D01*
X109998Y100998D01*
X109540Y101304D01*
X109000Y101411D01*
D02*
G37*
G36*
X163250Y91500D02*
X159500D01*
Y88500D01*
X163250D01*
Y91500D01*
D02*
G37*
G36*
X148500Y91500D02*
X144750D01*
Y88500D01*
X148500D01*
Y91500D01*
D02*
G37*
G36*
X187500Y89674D02*
Y88250D01*
X188924D01*
X188869Y88524D01*
X188431Y89181D01*
X187774Y89619D01*
X187500Y89674D01*
D02*
G37*
G36*
X186500D02*
X186226Y89619D01*
X185569Y89181D01*
X185131Y88524D01*
X185076Y88250D01*
X186500D01*
Y89674D01*
D02*
G37*
G36*
X379400Y93650D02*
X373600D01*
Y86350D01*
X375323D01*
Y81699D01*
X374659D01*
Y77356D01*
X377821D01*
Y81699D01*
X377158D01*
Y86350D01*
X379400D01*
Y89082D01*
X383850D01*
Y87100D01*
X391150D01*
Y92900D01*
X383850D01*
Y90918D01*
X379400D01*
Y93650D01*
D02*
G37*
G36*
X232250Y89500D02*
X228500D01*
Y86500D01*
X232250D01*
Y89500D01*
D02*
G37*
G36*
X345000Y140427D02*
X344454Y140319D01*
X343991Y140009D01*
X343681Y139546D01*
X343573Y139000D01*
Y126591D01*
X339991Y123009D01*
X339991Y123009D01*
X333991Y117009D01*
X333681Y116546D01*
X333573Y116000D01*
X333573Y116000D01*
Y88806D01*
X330958D01*
Y83084D01*
X339042D01*
Y84517D01*
X343464D01*
X346573Y81409D01*
Y76000D01*
X346681Y75454D01*
X346991Y74991D01*
X347454Y74681D01*
X348000Y74573D01*
X355000D01*
X355000Y74573D01*
X355546Y74681D01*
X356009Y74991D01*
X360009Y78991D01*
X360009Y78991D01*
X360319Y79454D01*
X360427Y80000D01*
Y92409D01*
X364591Y96573D01*
X407909D01*
X413850Y90631D01*
Y86100D01*
X421150D01*
Y91900D01*
X418927D01*
Y101500D01*
X418927Y101500D01*
X418819Y102046D01*
X418509Y102509D01*
X418509Y102509D01*
X416900Y104119D01*
Y108650D01*
X411100D01*
Y101350D01*
X415631D01*
X416073Y100909D01*
Y93099D01*
X415611Y92908D01*
X409509Y99009D01*
X409046Y99319D01*
X408500Y99427D01*
X408500Y99427D01*
X364000D01*
X364000Y99427D01*
X363454Y99319D01*
X362991Y99009D01*
X362991Y99009D01*
X357991Y94009D01*
X357681Y93546D01*
X357573Y93000D01*
X357573Y93000D01*
Y80591D01*
X354409Y77427D01*
X349427D01*
Y82000D01*
X349319Y82546D01*
X349009Y83009D01*
X349009Y83009D01*
X345064Y86954D01*
X344601Y87264D01*
X344055Y87372D01*
X344055Y87372D01*
X339042D01*
Y88806D01*
X336427D01*
Y115409D01*
X342009Y120991D01*
X342009Y120991D01*
X346009Y124991D01*
X346009Y124991D01*
X346319Y125454D01*
X346427Y126000D01*
Y139000D01*
X346319Y139546D01*
X346009Y140009D01*
X345546Y140319D01*
X345000Y140427D01*
D02*
G37*
G36*
X188924Y87250D02*
X187500D01*
Y85826D01*
X187774Y85881D01*
X188431Y86319D01*
X188869Y86976D01*
X188924Y87250D01*
D02*
G37*
G36*
X186500D02*
X185076D01*
X185131Y86976D01*
X185569Y86319D01*
X186226Y85881D01*
X186500Y85826D01*
Y87250D01*
D02*
G37*
G36*
X43000Y89517D02*
Y85500D01*
X47017D01*
X46926Y86186D01*
X46469Y87291D01*
X45740Y88240D01*
X44791Y88969D01*
X43686Y89426D01*
X43000Y89517D01*
D02*
G37*
G36*
X42000D02*
X41314Y89426D01*
X40209Y88969D01*
X39260Y88240D01*
X38531Y87291D01*
X38074Y86186D01*
X37983Y85500D01*
X42000D01*
Y89517D01*
D02*
G37*
G36*
X102650Y86400D02*
X95350D01*
Y84418D01*
X92650D01*
Y86400D01*
X85350D01*
Y80600D01*
X92650D01*
Y82582D01*
X95350D01*
Y80600D01*
X98082D01*
Y79847D01*
X98152Y79495D01*
X98351Y79198D01*
X123359Y54190D01*
X123322Y54141D01*
X122944Y53230D01*
X122816Y52252D01*
X122944Y51274D01*
X123322Y50363D01*
X123923Y49580D01*
X124705Y48979D01*
X125617Y48602D01*
X126594Y48473D01*
X127573Y48602D01*
X128484Y48979D01*
X129267Y49580D01*
X129867Y50363D01*
X130245Y51274D01*
X130373Y52252D01*
X130245Y53230D01*
X129867Y54141D01*
X129267Y54924D01*
X128484Y55524D01*
X127573Y55902D01*
X126594Y56031D01*
X125617Y55902D01*
X124705Y55524D01*
X124657Y55487D01*
X100044Y80100D01*
X100223Y80600D01*
X102650D01*
Y86400D01*
D02*
G37*
G36*
X235000Y105411D02*
X234460Y105304D01*
X234002Y104998D01*
X233696Y104540D01*
X233589Y104000D01*
X233696Y103460D01*
X234002Y103002D01*
X234082Y102948D01*
Y86000D01*
X234152Y85649D01*
X234351Y85351D01*
X236608Y83095D01*
X236589Y83000D01*
X236696Y82460D01*
X237002Y82002D01*
X237460Y81696D01*
X238000Y81589D01*
X238540Y81696D01*
X238998Y82002D01*
X239304Y82460D01*
X239411Y83000D01*
X239304Y83540D01*
X238998Y83998D01*
X238540Y84304D01*
X238000Y84411D01*
X237905Y84392D01*
X235918Y86380D01*
Y102948D01*
X235998Y103002D01*
X236304Y103460D01*
X236411Y104000D01*
X236304Y104540D01*
X235998Y104998D01*
X235540Y105304D01*
X235000Y105411D01*
D02*
G37*
G36*
X47017Y84500D02*
X43000D01*
Y80483D01*
X43686Y80574D01*
X44791Y81031D01*
X45740Y81760D01*
X46469Y82709D01*
X46926Y83814D01*
X47017Y84500D01*
D02*
G37*
G36*
X42000D02*
X37983D01*
X38074Y83814D01*
X38432Y82950D01*
X34707Y79226D01*
X33843Y79584D01*
X33158Y79674D01*
Y75157D01*
Y70641D01*
X33843Y70731D01*
X34949Y71189D01*
X35898Y71917D01*
X36626Y72866D01*
X36984Y73730D01*
X46251D01*
X62991Y56991D01*
X62991Y56991D01*
X63454Y56681D01*
X64000Y56573D01*
X64000Y56573D01*
X71000D01*
X71000Y56573D01*
X71546Y56681D01*
X72009Y56991D01*
X77769Y62750D01*
X80500D01*
Y66500D01*
X77000D01*
X73500D01*
Y62750D01*
X73500Y62750D01*
X73500D01*
X73308Y62326D01*
X70409Y59427D01*
X64591D01*
X47852Y76167D01*
X47389Y76476D01*
X46843Y76585D01*
X46843Y76585D01*
X36984D01*
X36726Y77207D01*
X40450Y80931D01*
X41314Y80574D01*
X42000Y80483D01*
Y84500D01*
D02*
G37*
G36*
X372000Y89500D02*
X368500D01*
X365000D01*
Y85750D01*
X367842D01*
Y82299D01*
X366579D01*
Y80028D01*
X370941D01*
Y82299D01*
X369677D01*
Y85750D01*
X372000D01*
Y89500D01*
D02*
G37*
G36*
X203416Y88042D02*
X197695D01*
Y85427D01*
X190000D01*
X189454Y85319D01*
X188991Y85009D01*
X188991Y85009D01*
X181991Y78009D01*
X181681Y77546D01*
X181573Y77000D01*
X181573Y77000D01*
Y27000D01*
X181573Y27000D01*
X181681Y26454D01*
X181991Y25991D01*
X193991Y13991D01*
X194454Y13681D01*
X195000Y13573D01*
X195546Y13681D01*
X196009Y13991D01*
X196319Y14454D01*
X196427Y15000D01*
X196319Y15546D01*
X196009Y16009D01*
X184427Y27591D01*
Y76409D01*
X190591Y82573D01*
X197695D01*
Y79958D01*
X203416D01*
Y88042D01*
D02*
G37*
G36*
X370941Y79028D02*
X369260D01*
Y76756D01*
X370941D01*
Y79028D01*
D02*
G37*
G36*
X368260D02*
X366579D01*
Y76756D01*
X368260D01*
Y79028D01*
D02*
G37*
G36*
X295500Y80825D02*
Y76051D01*
X297224D01*
Y78701D01*
X297055Y79552D01*
X296572Y80273D01*
X295851Y80755D01*
X295500Y80825D01*
D02*
G37*
G36*
X294500D02*
X294149Y80755D01*
X293427Y80273D01*
X292945Y79552D01*
X292776Y78701D01*
Y76051D01*
X294500D01*
Y80825D01*
D02*
G37*
G36*
X210000Y77250D02*
X207000D01*
Y73500D01*
X210000D01*
Y77250D01*
D02*
G37*
G36*
X206000D02*
X203000D01*
Y73500D01*
X206000D01*
Y77250D01*
D02*
G37*
G36*
X374081Y72644D02*
X370919D01*
Y70918D01*
X363215D01*
Y71286D01*
X360092D01*
Y68714D01*
X360736D01*
Y44034D01*
X356648Y39946D01*
X355875Y40266D01*
X355000Y40382D01*
X354125Y40266D01*
X353309Y39929D01*
X352609Y39391D01*
X352071Y38691D01*
X351734Y37875D01*
X351618Y37000D01*
X351734Y36125D01*
X352071Y35309D01*
X352609Y34609D01*
X353309Y34071D01*
X354125Y33734D01*
X355000Y33618D01*
X355875Y33734D01*
X356691Y34071D01*
X357391Y34609D01*
X357929Y35309D01*
X358266Y36125D01*
X358382Y37000D01*
X358266Y37875D01*
X357946Y38649D01*
X362302Y43005D01*
X362501Y43302D01*
X362571Y43654D01*
Y68714D01*
X363215D01*
Y69082D01*
X370919D01*
Y68301D01*
X374081D01*
Y72644D01*
D02*
G37*
G36*
X12472Y74657D02*
X8456D01*
X8546Y73971D01*
X9004Y72866D01*
X9732Y71917D01*
X10681Y71189D01*
X11786Y70731D01*
X12472Y70641D01*
Y74657D01*
D02*
G37*
G36*
X297224Y75051D02*
X295500D01*
Y70277D01*
X295851Y70347D01*
X296572Y70829D01*
X297055Y71551D01*
X297224Y72402D01*
Y75051D01*
D02*
G37*
G36*
X294500D02*
X292776D01*
Y72402D01*
X292945Y71551D01*
X293427Y70829D01*
X294149Y70347D01*
X294500Y70277D01*
Y75051D01*
D02*
G37*
G36*
X210000Y72500D02*
X207000D01*
Y68750D01*
X210000D01*
Y72500D01*
D02*
G37*
G36*
X206000D02*
X203000D01*
Y68750D01*
X206000D01*
Y72500D01*
D02*
G37*
G36*
X80500Y71250D02*
X77500D01*
Y67500D01*
X80500D01*
Y71250D01*
D02*
G37*
G36*
X76500D02*
X73500D01*
Y67500D01*
X76500D01*
Y71250D01*
D02*
G37*
G36*
X421150Y83900D02*
X413850D01*
Y78100D01*
X416073D01*
Y71758D01*
X414147D01*
Y63675D01*
X420853D01*
Y71758D01*
X418927D01*
Y78100D01*
X421150D01*
Y83900D01*
D02*
G37*
G36*
X407762Y83629D02*
X402237D01*
Y78105D01*
X403572D01*
Y70217D01*
X403572Y70217D01*
X403681Y69671D01*
X403990Y69208D01*
X404147Y69051D01*
Y63675D01*
X410853D01*
Y71758D01*
X406427D01*
Y78105D01*
X407762D01*
Y83629D01*
D02*
G37*
G36*
X71762Y84628D02*
X66238D01*
Y79104D01*
X67573D01*
Y70650D01*
X66100D01*
Y63350D01*
X71900D01*
Y70650D01*
X70427D01*
Y79104D01*
X71762D01*
Y84628D01*
D02*
G37*
G36*
X327500Y64250D02*
X324500D01*
Y60500D01*
X327500D01*
Y64250D01*
D02*
G37*
G36*
X323500D02*
X320500D01*
Y60500D01*
X323500D01*
Y64250D01*
D02*
G37*
G36*
X300000Y80313D02*
X299383Y80190D01*
X298860Y79841D01*
X298511Y79318D01*
X298388Y78701D01*
Y72402D01*
X298511Y71785D01*
X298573Y71692D01*
Y65591D01*
X292491Y59509D01*
X292181Y59046D01*
X292073Y58500D01*
X292073Y58500D01*
Y56653D01*
X291573Y56446D01*
X287009Y61009D01*
X286546Y61319D01*
X286000Y61427D01*
X286000Y61427D01*
X279400D01*
Y63650D01*
X273600D01*
Y56350D01*
X275073D01*
Y55536D01*
X270842Y51306D01*
X265958D01*
Y45584D01*
X274042D01*
Y50468D01*
X277509Y53935D01*
X277509Y53935D01*
X277819Y54399D01*
X277927Y54945D01*
X277927Y54945D01*
Y56350D01*
X279400D01*
Y58573D01*
X285409D01*
X290600Y53381D01*
Y48850D01*
X296400D01*
Y56150D01*
X294927D01*
Y57909D01*
X301009Y63991D01*
X301009Y63991D01*
X301319Y64454D01*
X301427Y65000D01*
X301427Y65000D01*
Y71692D01*
X301489Y71785D01*
X301612Y72402D01*
Y78701D01*
X301489Y79318D01*
X301140Y79841D01*
X300617Y80190D01*
X300000Y80313D01*
D02*
G37*
G36*
X210306Y88042D02*
X204584D01*
Y79958D01*
X210189D01*
X213035Y77112D01*
X212844Y76650D01*
X212600D01*
Y69350D01*
X214582D01*
Y65500D01*
X214652Y65149D01*
X214851Y64851D01*
X217851Y61851D01*
X218149Y61652D01*
X218500Y61582D01*
X221230D01*
Y60919D01*
X223960D01*
Y59081D01*
X221230D01*
Y58418D01*
X218500D01*
X218149Y58348D01*
X217851Y58149D01*
X213120Y53418D01*
X200770D01*
Y54081D01*
X193474D01*
Y50919D01*
X200770D01*
Y51582D01*
X213500D01*
X213851Y51652D01*
X214149Y51851D01*
X218880Y56582D01*
X221230D01*
Y55919D01*
X228526D01*
Y59081D01*
X225796D01*
Y60919D01*
X228526D01*
Y64081D01*
X221230D01*
Y63418D01*
X218880D01*
X216418Y65880D01*
Y69350D01*
X218400D01*
Y76650D01*
X216093D01*
X210306Y82437D01*
Y88042D01*
D02*
G37*
G36*
X327500Y59500D02*
X324500D01*
Y55750D01*
X327500D01*
Y59500D01*
D02*
G37*
G36*
X323500D02*
X320500D01*
Y55750D01*
X323500D01*
Y59500D01*
D02*
G37*
G36*
X161594Y66031D02*
X160617Y65902D01*
X159705Y65525D01*
X158923Y64924D01*
X158322Y64141D01*
X157945Y63230D01*
X157816Y62252D01*
X157945Y61274D01*
X158322Y60363D01*
X158923Y59580D01*
X159705Y58979D01*
X160617Y58602D01*
X160677Y58594D01*
Y57632D01*
X158532Y55487D01*
X158484Y55524D01*
X157572Y55902D01*
X156595Y56031D01*
X155616Y55902D01*
X154705Y55524D01*
X153922Y54924D01*
X153322Y54141D01*
X152945Y53230D01*
X152816Y52252D01*
X152945Y51274D01*
X153322Y50363D01*
X153922Y49580D01*
X154705Y48979D01*
X155616Y48602D01*
X156595Y48473D01*
X157572Y48602D01*
X158484Y48979D01*
X159266Y49580D01*
X159867Y50363D01*
X160245Y51274D01*
X160252Y51334D01*
X161214D01*
X170326Y42222D01*
X170059Y41874D01*
X169537Y40613D01*
X169479Y40178D01*
X118710D01*
X118652Y40613D01*
X118130Y41874D01*
X117299Y42957D01*
X116217Y43788D01*
X114955Y44310D01*
X113602Y44488D01*
X112249Y44310D01*
X110988Y43788D01*
X109906Y42957D01*
X109075Y41874D01*
X108552Y40613D01*
X108374Y39260D01*
X108552Y37907D01*
X109075Y36646D01*
X109906Y35563D01*
X110988Y34732D01*
X112249Y34210D01*
X113602Y34032D01*
X114955Y34210D01*
X116217Y34732D01*
X117299Y35563D01*
X118130Y36646D01*
X118652Y37907D01*
X118710Y38342D01*
X169479D01*
X169537Y37907D01*
X170059Y36646D01*
X170890Y35563D01*
X171973Y34732D01*
X173233Y34210D01*
X174587Y34032D01*
X175940Y34210D01*
X177201Y34732D01*
X178284Y35563D01*
X179114Y36646D01*
X179637Y37907D01*
X179815Y39260D01*
X179637Y40613D01*
X179114Y41874D01*
X178284Y42957D01*
X177201Y43788D01*
X175940Y44310D01*
X174587Y44488D01*
X173233Y44310D01*
X171973Y43788D01*
X171624Y43520D01*
X162243Y52901D01*
X161946Y53100D01*
X161594Y53170D01*
X160252D01*
X160245Y53230D01*
X159867Y54141D01*
X159830Y54190D01*
X162243Y56603D01*
X162442Y56901D01*
X162512Y57252D01*
Y58594D01*
X162573Y58602D01*
X163484Y58979D01*
X164267Y59580D01*
X164867Y60363D01*
X165244Y61274D01*
X165373Y62252D01*
X165244Y63230D01*
X164867Y64141D01*
X164267Y64924D01*
X163484Y65525D01*
X162573Y65902D01*
X161594Y66031D01*
D02*
G37*
G36*
X354908Y71286D02*
X351785D01*
Y68714D01*
X352429D01*
Y59157D01*
X352071Y58691D01*
X351734Y57875D01*
X351618Y57000D01*
X351734Y56125D01*
X352071Y55309D01*
X352609Y54609D01*
X353309Y54071D01*
X354125Y53734D01*
X355000Y53618D01*
X355875Y53734D01*
X356691Y54071D01*
X357391Y54609D01*
X357929Y55309D01*
X358266Y56125D01*
X358382Y57000D01*
X358266Y57875D01*
X357929Y58691D01*
X357391Y59391D01*
X356691Y59929D01*
X355875Y60266D01*
X355000Y60382D01*
X354640Y60334D01*
X354264Y60664D01*
Y68714D01*
X354908D01*
Y71286D01*
D02*
G37*
G36*
X345000Y60382D02*
X344125Y60266D01*
X343309Y59929D01*
X342609Y59391D01*
X342071Y58691D01*
X341734Y57875D01*
X341618Y57000D01*
X341734Y56125D01*
X341843Y55861D01*
X335991Y50009D01*
X335681Y49546D01*
X335573Y49000D01*
X335573Y49000D01*
Y25343D01*
X335573Y25343D01*
X335681Y24796D01*
X335991Y24333D01*
X345555Y14769D01*
X345138Y13761D01*
X344972Y12500D01*
X345138Y11239D01*
X345624Y10065D01*
X346398Y9056D01*
X347407Y8282D01*
X348582Y7795D01*
X349843Y7629D01*
X351103Y7795D01*
X352278Y8282D01*
X353287Y9056D01*
X354061Y10065D01*
X354547Y11239D01*
X354713Y12500D01*
X354547Y13761D01*
X354061Y14935D01*
X353287Y15944D01*
X352278Y16718D01*
X351103Y17205D01*
X349843Y17371D01*
X348582Y17205D01*
X347574Y16787D01*
X338427Y25934D01*
Y48409D01*
X343861Y53843D01*
X344125Y53734D01*
X345000Y53618D01*
X345875Y53734D01*
X346691Y54071D01*
X347391Y54609D01*
X347929Y55309D01*
X348266Y56125D01*
X348382Y57000D01*
X348266Y57875D01*
X347929Y58691D01*
X347391Y59391D01*
X346691Y59929D01*
X345875Y60266D01*
X345000Y60382D01*
D02*
G37*
G36*
X201370Y49681D02*
X197622D01*
Y48000D01*
X201370D01*
Y49681D01*
D02*
G37*
G36*
X196622D02*
X192874D01*
Y48000D01*
X196622D01*
Y49681D01*
D02*
G37*
G36*
X64463Y53550D02*
X59726D01*
Y51427D01*
X59000D01*
X58454Y51319D01*
X57991Y51009D01*
X57991Y51009D01*
X53991Y47009D01*
X53681Y46546D01*
X53573Y46000D01*
X53573Y46000D01*
Y33292D01*
X48913Y28632D01*
X40978D01*
Y19368D01*
X51621D01*
Y27303D01*
X56009Y31691D01*
X56009Y31691D01*
X56319Y32155D01*
X56427Y32701D01*
X56427Y32701D01*
Y45409D01*
X59226Y48207D01*
X59726Y48000D01*
Y46450D01*
X64463D01*
Y53550D01*
D02*
G37*
G36*
X305000Y80313D02*
X304383Y80190D01*
X303860Y79841D01*
X303511Y79318D01*
X303388Y78701D01*
Y72402D01*
X303511Y71785D01*
X303573Y71692D01*
Y63091D01*
X300491Y60009D01*
X300181Y59546D01*
X300073Y59000D01*
X300073Y59000D01*
Y56150D01*
X298600D01*
Y48850D01*
X304400D01*
Y53381D01*
X309591Y58573D01*
X313100D01*
Y56350D01*
X314573D01*
Y54000D01*
X314573Y54000D01*
X314681Y53454D01*
X314991Y52991D01*
X320546Y47436D01*
X320546Y47436D01*
X320958Y47160D01*
Y45584D01*
X329042D01*
Y51306D01*
X320958D01*
X320958Y51306D01*
Y51306D01*
X320529Y51490D01*
X317427Y54591D01*
Y56350D01*
X318900D01*
Y63650D01*
X313100D01*
Y61427D01*
X309000D01*
X309000Y61427D01*
X308454Y61319D01*
X307991Y61009D01*
X307991Y61009D01*
X303427Y56446D01*
X302927Y56653D01*
Y58409D01*
X306009Y61491D01*
X306009Y61491D01*
X306319Y61954D01*
X306427Y62500D01*
X306427Y62500D01*
Y71692D01*
X306489Y71785D01*
X306612Y72402D01*
Y78701D01*
X306489Y79318D01*
X306140Y79841D01*
X305617Y80190D01*
X305000Y80313D01*
D02*
G37*
G36*
X201370Y47000D02*
X197622D01*
Y45319D01*
X201370D01*
Y47000D01*
D02*
G37*
G36*
X196622D02*
X192874D01*
Y45319D01*
X196622D01*
Y47000D01*
D02*
G37*
G36*
X225924Y43500D02*
X224500D01*
Y42076D01*
X224774Y42131D01*
X225431Y42569D01*
X225869Y43226D01*
X225924Y43500D01*
D02*
G37*
G36*
X223500D02*
X222076D01*
X222131Y43226D01*
X222569Y42569D01*
X223226Y42131D01*
X223500Y42076D01*
Y43500D01*
D02*
G37*
G36*
X254000Y121918D02*
X233000D01*
X232649Y121848D01*
X232351Y121649D01*
X230351Y119649D01*
X230152Y119351D01*
X230082Y119000D01*
Y117000D01*
X230152Y116649D01*
X230351Y116351D01*
X233608Y113095D01*
X233589Y113000D01*
X233696Y112460D01*
X234002Y112002D01*
X234460Y111696D01*
X235000Y111589D01*
X235095Y111608D01*
X243082Y103620D01*
Y101900D01*
X242851Y101766D01*
X242582Y101715D01*
X236392Y107905D01*
X236411Y108000D01*
X236304Y108540D01*
X235998Y108998D01*
X235540Y109304D01*
X235000Y109411D01*
X234460Y109304D01*
X234002Y108998D01*
X233696Y108540D01*
X233589Y108000D01*
X233696Y107460D01*
X234002Y107002D01*
X234460Y106696D01*
X235000Y106589D01*
X235095Y106607D01*
X241082Y100620D01*
Y81052D01*
X241002Y80998D01*
X240696Y80540D01*
X240589Y80000D01*
X240696Y79460D01*
X241002Y79002D01*
X241460Y78696D01*
X242000Y78589D01*
X242095Y78607D01*
X246082Y74620D01*
Y70848D01*
X245851Y70713D01*
X245582Y70663D01*
X241312Y74933D01*
X241015Y75132D01*
X240663Y75202D01*
X236096D01*
X225260Y86038D01*
X225451Y86500D01*
X227500D01*
Y89500D01*
X223750D01*
Y88201D01*
X223288Y88010D01*
X194649Y116649D01*
X194351Y116848D01*
X194000Y116918D01*
X188052D01*
X187998Y116998D01*
X187540Y117304D01*
X187000Y117411D01*
X186460Y117304D01*
X186002Y116998D01*
X185696Y116540D01*
X185589Y116000D01*
X185696Y115460D01*
X186002Y115002D01*
X186460Y114696D01*
X187000Y114589D01*
X187540Y114696D01*
X187998Y115002D01*
X188052Y115082D01*
X193620D01*
X194343Y114359D01*
X194097Y113898D01*
X194000Y113918D01*
X191052D01*
X190998Y113998D01*
X190540Y114304D01*
X190000Y114411D01*
X189460Y114304D01*
X189002Y113998D01*
X188696Y113540D01*
X188589Y113000D01*
X188696Y112460D01*
X189002Y112002D01*
X189460Y111696D01*
X190000Y111589D01*
X190540Y111696D01*
X190998Y112002D01*
X191052Y112082D01*
X193620D01*
X195343Y110359D01*
X195097Y109898D01*
X195000Y109918D01*
X191052D01*
X190998Y109998D01*
X190540Y110304D01*
X190000Y110411D01*
X189460Y110304D01*
X189002Y109998D01*
X188696Y109540D01*
X188589Y109000D01*
X188696Y108460D01*
X189002Y108002D01*
X189460Y107696D01*
X190000Y107589D01*
X190540Y107696D01*
X190998Y108002D01*
X191052Y108082D01*
X194620D01*
X232085Y70617D01*
X231911Y70084D01*
X231665Y70047D01*
X197063Y104649D01*
X196765Y104848D01*
X196414Y104918D01*
X188380D01*
X178650Y114648D01*
Y118400D01*
X171350D01*
Y112600D01*
X178102D01*
X187351Y103351D01*
X187649Y103152D01*
X188000Y103082D01*
X196034D01*
X230765Y68351D01*
X231063Y68152D01*
X231414Y68082D01*
X234948D01*
X235002Y68002D01*
X235338Y67778D01*
X235369Y67656D01*
Y67344D01*
X235338Y67222D01*
X235002Y66998D01*
X234696Y66540D01*
X234589Y66000D01*
X234696Y65460D01*
X235002Y65002D01*
X235460Y64696D01*
X236000Y64589D01*
X236540Y64696D01*
X236992Y64998D01*
X242916D01*
X243267Y65068D01*
X243565Y65267D01*
X245582Y67285D01*
X245851Y67234D01*
X246082Y67100D01*
Y60380D01*
X239120Y53418D01*
X228526D01*
Y54081D01*
X221230D01*
Y50919D01*
X228526D01*
Y51582D01*
X239500D01*
X239851Y51652D01*
X240149Y51851D01*
X247649Y59351D01*
X247848Y59649D01*
X247918Y60000D01*
Y75000D01*
X247848Y75351D01*
X247649Y75649D01*
X243392Y79905D01*
X243411Y80000D01*
X243304Y80540D01*
X243205Y80689D01*
X243193Y80802D01*
X243225Y80837D01*
X243785Y80918D01*
X244607Y80095D01*
X244589Y80000D01*
X244696Y79460D01*
X245002Y79002D01*
X245460Y78696D01*
X246000Y78589D01*
X246540Y78696D01*
X246998Y79002D01*
X247304Y79460D01*
X247411Y80000D01*
X247304Y80540D01*
X247185Y80719D01*
X247408Y81280D01*
X247420Y81282D01*
X253082Y75620D01*
Y59380D01*
X242120Y48418D01*
X228526D01*
Y49081D01*
X221230D01*
Y45919D01*
X222400D01*
X222548Y45493D01*
X222562Y45419D01*
X222131Y44774D01*
X222076Y44500D01*
X225924D01*
X225869Y44774D01*
X225438Y45419D01*
X225452Y45493D01*
X225600Y45919D01*
X228526D01*
Y46582D01*
X242500D01*
X242851Y46652D01*
X243149Y46851D01*
X254649Y58351D01*
X254848Y58649D01*
X254918Y59000D01*
Y76000D01*
X254848Y76351D01*
X254649Y76649D01*
X248393Y82905D01*
X248411Y83000D01*
X248304Y83540D01*
X247998Y83998D01*
X247918Y84052D01*
Y106000D01*
X247848Y106351D01*
X247649Y106649D01*
X236392Y117905D01*
X236411Y118000D01*
X236304Y118540D01*
X235998Y118998D01*
X235540Y119304D01*
X235000Y119411D01*
X234460Y119304D01*
X234002Y118998D01*
X233696Y118540D01*
X233589Y118000D01*
X233696Y117460D01*
X234002Y117002D01*
X234460Y116696D01*
X235000Y116589D01*
X235095Y116607D01*
X246082Y105620D01*
Y84052D01*
X246002Y83998D01*
X245696Y83540D01*
X245589Y83000D01*
X245696Y82460D01*
X245815Y82281D01*
X245592Y81720D01*
X245580Y81718D01*
X244918Y82380D01*
Y104000D01*
X244848Y104351D01*
X244649Y104649D01*
X236392Y112905D01*
X236411Y113000D01*
X236304Y113540D01*
X235998Y113998D01*
X235540Y114304D01*
X235000Y114411D01*
X234905Y114392D01*
X231918Y117380D01*
Y118620D01*
X233380Y120082D01*
X253620D01*
X259082Y114620D01*
Y56380D01*
X243620Y40918D01*
X192380D01*
X190918Y42380D01*
Y53620D01*
X193037Y55739D01*
X193474Y55919D01*
Y55919D01*
X193474Y55919D01*
X200770D01*
Y59081D01*
X193474D01*
Y58412D01*
X193149Y58348D01*
X192851Y58149D01*
X189351Y54649D01*
X189152Y54351D01*
X189082Y54000D01*
Y42000D01*
X189152Y41649D01*
X189351Y41351D01*
X191351Y39351D01*
X191649Y39152D01*
X192000Y39082D01*
X244000D01*
X244351Y39152D01*
X244649Y39351D01*
X260649Y55351D01*
X260848Y55649D01*
X260918Y56000D01*
Y115000D01*
X260848Y115351D01*
X260649Y115649D01*
X254649Y121649D01*
X254351Y121848D01*
X254000Y121918D01*
D02*
G37*
G36*
X42500Y69292D02*
X41471Y69157D01*
X40511Y68759D01*
X39688Y68127D01*
X39055Y67304D01*
X38658Y66344D01*
X38523Y65315D01*
X38658Y64286D01*
X39055Y63326D01*
X39688Y62503D01*
X40511Y61870D01*
X41073Y61638D01*
Y46128D01*
X35250D01*
Y38872D01*
X45498D01*
Y41073D01*
X46952D01*
X46967Y41037D01*
X47432Y40432D01*
X48037Y39967D01*
X48743Y39675D01*
X49500Y39575D01*
X50257Y39675D01*
X50963Y39967D01*
X51568Y40432D01*
X52033Y41037D01*
X52325Y41743D01*
X52425Y42500D01*
X52325Y43257D01*
X52033Y43962D01*
X51568Y44568D01*
X50963Y45033D01*
X50257Y45325D01*
X49500Y45425D01*
X48743Y45325D01*
X48037Y45033D01*
X47432Y44568D01*
X46967Y43962D01*
X46952Y43927D01*
X45498D01*
Y46128D01*
X43927D01*
Y61638D01*
X44489Y61870D01*
X45312Y62503D01*
X45944Y63326D01*
X46342Y64286D01*
X46477Y65315D01*
X46342Y66344D01*
X45944Y67304D01*
X45312Y68127D01*
X44489Y68759D01*
X43529Y69157D01*
X42500Y69292D01*
D02*
G37*
G36*
X329042Y44416D02*
X320958D01*
Y42983D01*
X314429D01*
X313883Y42874D01*
X313420Y42564D01*
X313420Y42564D01*
X306984Y36128D01*
X300250D01*
Y28872D01*
X303573D01*
Y17136D01*
X302565Y16718D01*
X301556Y15944D01*
X300782Y14935D01*
X300295Y13761D01*
X300129Y12500D01*
X300295Y11239D01*
X300782Y10065D01*
X301556Y9056D01*
X302565Y8282D01*
X303739Y7795D01*
X305000Y7629D01*
X306261Y7795D01*
X307435Y8282D01*
X308444Y9056D01*
X309218Y10065D01*
X309705Y11239D01*
X309871Y12500D01*
X309705Y13761D01*
X309218Y14935D01*
X308444Y15944D01*
X307435Y16718D01*
X306427Y17136D01*
Y28872D01*
X310498D01*
Y30699D01*
X317657D01*
X321372Y26984D01*
Y20250D01*
X328628D01*
Y30498D01*
X321894D01*
X319257Y33135D01*
X318794Y33445D01*
X318248Y33553D01*
X318248Y33553D01*
X310498D01*
Y35606D01*
X315020Y40128D01*
X320958D01*
Y38695D01*
X329042D01*
Y44416D01*
D02*
G37*
G36*
X252000Y154411D02*
X251460Y154304D01*
X251002Y153998D01*
X250696Y153540D01*
X250589Y153000D01*
X250696Y152460D01*
X251002Y152002D01*
X251460Y151696D01*
X252000Y151589D01*
X252095Y151608D01*
X289082Y114620D01*
Y91380D01*
X285620Y87918D01*
X267000D01*
X266649Y87848D01*
X266351Y87649D01*
X261851Y83149D01*
X261652Y82851D01*
X261582Y82500D01*
Y54880D01*
X244620Y37918D01*
X191380D01*
X187918Y41380D01*
Y55620D01*
X193037Y60739D01*
X193474Y60919D01*
Y60919D01*
X193474Y60919D01*
X200770D01*
Y64081D01*
X193474D01*
Y63412D01*
X193149Y63348D01*
X192851Y63149D01*
X186351Y56649D01*
X186152Y56351D01*
X186082Y56000D01*
Y41000D01*
X186152Y40649D01*
X186351Y40351D01*
X190351Y36351D01*
X190649Y36152D01*
X191000Y36082D01*
X245000D01*
X245351Y36152D01*
X245649Y36351D01*
X263149Y53851D01*
X263348Y54149D01*
X263418Y54500D01*
Y82120D01*
X267380Y86082D01*
X286000D01*
X286351Y86152D01*
X286649Y86351D01*
X290649Y90351D01*
X290848Y90649D01*
X290918Y91000D01*
Y115000D01*
X290848Y115351D01*
X290649Y115649D01*
X253393Y152905D01*
X253411Y153000D01*
X253304Y153540D01*
X252998Y153998D01*
X252540Y154304D01*
X252000Y154411D01*
D02*
G37*
G36*
X274042Y44416D02*
X265958D01*
Y38695D01*
X274042D01*
Y40128D01*
X279980D01*
X284502Y35606D01*
Y33927D01*
X277126D01*
X277126Y33927D01*
X276580Y33819D01*
X276117Y33509D01*
X276117Y33509D01*
X273106Y30498D01*
X266372D01*
Y20250D01*
X273628D01*
Y26984D01*
X277717Y31073D01*
X284502D01*
Y28872D01*
X288573D01*
Y17329D01*
X285171D01*
Y7671D01*
X294829D01*
Y17329D01*
X291427D01*
Y28872D01*
X294750D01*
Y36128D01*
X288016D01*
X281580Y42564D01*
X281117Y42874D01*
X280571Y42983D01*
X280571Y42983D01*
X274042D01*
Y44416D01*
D02*
G37*
G36*
X413510Y160550D02*
X406411D01*
Y153450D01*
X413510D01*
Y156082D01*
X420620D01*
X425082Y151620D01*
Y36052D01*
X425002Y35998D01*
X424696Y35540D01*
X424589Y35000D01*
X424608Y34905D01*
X422903Y33201D01*
X420853D01*
Y36325D01*
X414147D01*
Y28242D01*
X420853D01*
Y31366D01*
X423283D01*
X423635Y31436D01*
X423932Y31635D01*
X425905Y33608D01*
X426000Y33589D01*
X426540Y33696D01*
X426998Y34002D01*
X427304Y34460D01*
X427411Y35000D01*
X427304Y35540D01*
X426998Y35998D01*
X426918Y36052D01*
Y152000D01*
X426848Y152351D01*
X426649Y152649D01*
X421649Y157649D01*
X421351Y157848D01*
X421000Y157918D01*
X413510D01*
Y160550D01*
D02*
G37*
G36*
X76274Y53550D02*
X71537D01*
Y46450D01*
X72195D01*
Y41840D01*
X68622D01*
X67473Y41688D01*
X66403Y41245D01*
X65484Y40540D01*
X64779Y39621D01*
X64335Y38550D01*
X64184Y37402D01*
X64335Y36253D01*
X64779Y35183D01*
X65484Y34264D01*
X66403Y33558D01*
X67473Y33115D01*
X68622Y32964D01*
X78622D01*
X79771Y33115D01*
X80841Y33558D01*
X81760Y34264D01*
X82465Y35183D01*
X82909Y36253D01*
X83060Y37402D01*
X82909Y38550D01*
X82465Y39621D01*
X81760Y40540D01*
X80841Y41245D01*
X79771Y41688D01*
X78622Y41840D01*
X75050D01*
Y46450D01*
X76274D01*
Y53550D01*
D02*
G37*
G36*
X391150Y84900D02*
X383850D01*
Y79100D01*
X389102D01*
X394082Y74120D01*
Y44000D01*
X394152Y43649D01*
X394351Y43351D01*
X404147Y33555D01*
Y28242D01*
X410853D01*
Y36325D01*
X404147D01*
X404147Y36325D01*
Y36325D01*
X403745Y36553D01*
X395918Y44380D01*
Y74500D01*
X395848Y74851D01*
X395649Y75149D01*
X391150Y79648D01*
Y84900D01*
D02*
G37*
G36*
X205500Y23464D02*
Y20500D01*
X208464D01*
X208410Y20914D01*
X208057Y21765D01*
X207496Y22496D01*
X206765Y23057D01*
X205914Y23410D01*
X205500Y23464D01*
D02*
G37*
G36*
X204500D02*
X204086Y23410D01*
X203235Y23057D01*
X202504Y22496D01*
X201943Y21765D01*
X201590Y20914D01*
X201536Y20500D01*
X204500D01*
Y23464D01*
D02*
G37*
G36*
X166595Y34478D02*
X165185Y34339D01*
X163829Y33928D01*
X162580Y33260D01*
X161485Y32362D01*
X160586Y31267D01*
X159918Y30017D01*
X159507Y28662D01*
X159368Y27252D01*
X159507Y25842D01*
X159918Y24487D01*
X160586Y23237D01*
X161485Y22142D01*
X162580Y21244D01*
X163829Y20576D01*
X165185Y20165D01*
X166595Y20026D01*
X168004Y20165D01*
X169360Y20576D01*
X170609Y21244D01*
X171704Y22142D01*
X172603Y23237D01*
X173271Y24487D01*
X173682Y25842D01*
X173821Y27252D01*
X173682Y28662D01*
X173271Y30017D01*
X172603Y31267D01*
X171704Y32362D01*
X170609Y33260D01*
X169360Y33928D01*
X168004Y34339D01*
X166595Y34478D01*
D02*
G37*
G36*
X121595D02*
X120185Y34339D01*
X118829Y33928D01*
X117580Y33260D01*
X116485Y32362D01*
X115586Y31267D01*
X114918Y30017D01*
X114507Y28662D01*
X114368Y27252D01*
X114507Y25842D01*
X114918Y24487D01*
X115586Y23237D01*
X116485Y22142D01*
X117580Y21244D01*
X118829Y20576D01*
X120185Y20165D01*
X121595Y20026D01*
X123004Y20165D01*
X124360Y20576D01*
X125609Y21244D01*
X126704Y22142D01*
X127603Y23237D01*
X128271Y24487D01*
X128682Y25842D01*
X128821Y27252D01*
X128682Y28662D01*
X128271Y30017D01*
X127603Y31267D01*
X126704Y32362D01*
X125609Y33260D01*
X124360Y33928D01*
X123004Y34339D01*
X121595Y34478D01*
D02*
G37*
G36*
X22815Y69292D02*
X21786Y69157D01*
X20826Y68759D01*
X20003Y68127D01*
X19371Y67304D01*
X18973Y66344D01*
X18838Y65315D01*
X18973Y64286D01*
X19371Y63326D01*
X20003Y62503D01*
X20826Y61870D01*
X21387Y61638D01*
Y46128D01*
X19502D01*
Y38872D01*
X23199D01*
Y33075D01*
X23199Y33075D01*
X23307Y32529D01*
X23617Y32065D01*
X28379Y27303D01*
Y19368D01*
X39022D01*
Y28632D01*
X31087D01*
X26053Y33666D01*
Y38872D01*
X29750D01*
Y46128D01*
X24242D01*
Y61638D01*
X24804Y61870D01*
X25627Y62503D01*
X26259Y63326D01*
X26657Y64286D01*
X26792Y65315D01*
X26657Y66344D01*
X26259Y67304D01*
X25627Y68127D01*
X24804Y68759D01*
X23844Y69157D01*
X22815Y69292D01*
D02*
G37*
G36*
X385000Y60382D02*
X384125Y60266D01*
X383309Y59929D01*
X382609Y59391D01*
X382071Y58691D01*
X381734Y57875D01*
X381618Y57000D01*
X381734Y56125D01*
X382071Y55309D01*
X382609Y54609D01*
X383309Y54071D01*
X383573Y53962D01*
Y40038D01*
X383309Y39929D01*
X382609Y39391D01*
X382071Y38691D01*
X381734Y37875D01*
X381618Y37000D01*
X381734Y36125D01*
X382071Y35309D01*
X382609Y34609D01*
X383309Y34071D01*
X383573Y33962D01*
Y18249D01*
X382111Y16787D01*
X381103Y17205D01*
X379842Y17371D01*
X378582Y17205D01*
X377407Y16718D01*
X376398Y15944D01*
X375624Y14935D01*
X375138Y13761D01*
X374972Y12500D01*
X375138Y11239D01*
X375624Y10065D01*
X376398Y9056D01*
X376669Y8848D01*
X376741Y8741D01*
X377204Y8431D01*
X377215Y8429D01*
X377407Y8282D01*
X378582Y7795D01*
X379842Y7629D01*
X381103Y7795D01*
X382278Y8282D01*
X383287Y9056D01*
X384061Y10065D01*
X384547Y11239D01*
X384713Y12500D01*
X384547Y13761D01*
X384130Y14769D01*
X386009Y16648D01*
X386009Y16648D01*
X386319Y17111D01*
X386427Y17658D01*
X386427Y17658D01*
Y33962D01*
X386691Y34071D01*
X387391Y34609D01*
X387929Y35309D01*
X388266Y36125D01*
X388382Y37000D01*
X388266Y37875D01*
X387929Y38691D01*
X387391Y39391D01*
X386691Y39929D01*
X386427Y40038D01*
Y53962D01*
X386691Y54071D01*
X387391Y54609D01*
X387929Y55309D01*
X388266Y56125D01*
X388382Y57000D01*
X388266Y57875D01*
X387929Y58691D01*
X387391Y59391D01*
X386691Y59929D01*
X385875Y60266D01*
X385000Y60382D01*
D02*
G37*
G36*
X208464Y19500D02*
X205500D01*
Y16536D01*
X205914Y16590D01*
X206765Y16943D01*
X207496Y17504D01*
X208057Y18235D01*
X208410Y19086D01*
X208464Y19500D01*
D02*
G37*
G36*
X204500D02*
X201536D01*
X201590Y19086D01*
X201943Y18235D01*
X202504Y17504D01*
X203235Y16943D01*
X204086Y16590D01*
X204500Y16536D01*
Y19500D01*
D02*
G37*
G36*
X92126Y34241D02*
X90977Y34090D01*
X89907Y33647D01*
X88988Y32941D01*
X88283Y32022D01*
X87839Y30952D01*
X87688Y29803D01*
Y22384D01*
X81130Y15826D01*
X80841Y16048D01*
X79771Y16491D01*
X78622Y16643D01*
X68622D01*
X67473Y16491D01*
X66403Y16048D01*
X65484Y15343D01*
X64779Y14424D01*
X64335Y13353D01*
X64184Y12205D01*
X64335Y11056D01*
X64779Y9986D01*
X65484Y9067D01*
X66403Y8361D01*
X67473Y7918D01*
X68622Y7767D01*
X78622D01*
X79771Y7918D01*
X80841Y8361D01*
X81760Y9067D01*
X82465Y9986D01*
X82909Y11056D01*
X83060Y12205D01*
X82909Y13353D01*
X82846Y13505D01*
X87567Y18225D01*
X88057Y18128D01*
X88283Y17584D01*
X88988Y16665D01*
X89907Y15960D01*
X90977Y15516D01*
X92126Y15365D01*
X93275Y15516D01*
X94345Y15960D01*
X95264Y16665D01*
X95969Y17584D01*
X96413Y18654D01*
X96564Y19803D01*
Y29803D01*
X96413Y30952D01*
X95969Y32022D01*
X95264Y32941D01*
X94345Y33647D01*
X93275Y34090D01*
X92126Y34241D01*
D02*
G37*
G36*
X329228Y15350D02*
X325500D01*
Y10126D01*
X329228D01*
Y15350D01*
D02*
G37*
G36*
X324500D02*
X320772D01*
Y10126D01*
X324500D01*
Y15350D01*
D02*
G37*
G36*
X274228D02*
X270500D01*
Y10126D01*
X274228D01*
Y15350D01*
D02*
G37*
G36*
X269500D02*
X265772D01*
Y10126D01*
X269500D01*
Y15350D01*
D02*
G37*
G36*
X420000Y21682D02*
X418696Y21554D01*
X417443Y21173D01*
X416288Y20556D01*
X415275Y19725D01*
X414444Y18712D01*
X413827Y17557D01*
X413446Y16304D01*
X413318Y15000D01*
X413446Y13696D01*
X413827Y12443D01*
X414444Y11288D01*
X415275Y10275D01*
X416288Y9444D01*
X417443Y8827D01*
X418696Y8446D01*
X420000Y8318D01*
X421304Y8446D01*
X422557Y8827D01*
X423712Y9444D01*
X424725Y10275D01*
X425556Y11288D01*
X426173Y12443D01*
X426554Y13696D01*
X426682Y15000D01*
X426554Y16304D01*
X426173Y17557D01*
X425556Y18712D01*
X424725Y19725D01*
X423712Y20556D01*
X422557Y21173D01*
X421304Y21554D01*
X420000Y21682D01*
D02*
G37*
G36*
X15000D02*
X13696Y21554D01*
X12443Y21173D01*
X11288Y20556D01*
X10275Y19725D01*
X9444Y18712D01*
X8827Y17557D01*
X8446Y16304D01*
X8318Y15000D01*
X8446Y13696D01*
X8827Y12443D01*
X9444Y11288D01*
X10275Y10275D01*
X11288Y9444D01*
X12443Y8827D01*
X13696Y8446D01*
X15000Y8318D01*
X16304Y8446D01*
X17557Y8827D01*
X18712Y9444D01*
X19725Y10275D01*
X20556Y11288D01*
X21173Y12443D01*
X21554Y13696D01*
X21682Y15000D01*
X21554Y16304D01*
X21173Y17557D01*
X20556Y18712D01*
X19725Y19725D01*
X18712Y20556D01*
X17557Y21173D01*
X16304Y21554D01*
X15000Y21682D01*
D02*
G37*
G36*
X345000Y40382D02*
X344125Y40266D01*
X343309Y39929D01*
X342609Y39391D01*
X342071Y38691D01*
X341734Y37875D01*
X341618Y37000D01*
X341734Y36125D01*
X342071Y35309D01*
X342609Y34609D01*
X343309Y34071D01*
X343573Y33962D01*
Y32343D01*
X343573Y32342D01*
X343681Y31796D01*
X343991Y31333D01*
X360555Y14769D01*
X360138Y13761D01*
X359972Y12500D01*
X360138Y11239D01*
X360624Y10065D01*
X361398Y9056D01*
X362407Y8282D01*
X363582Y7795D01*
X364843Y7629D01*
X366103Y7795D01*
X367278Y8282D01*
X368287Y9056D01*
X369061Y10065D01*
X369547Y11239D01*
X369713Y12500D01*
X369547Y13761D01*
X369061Y14935D01*
X368287Y15944D01*
X367278Y16718D01*
X366103Y17205D01*
X364843Y17371D01*
X363582Y17205D01*
X362574Y16787D01*
X346427Y32934D01*
Y33962D01*
X346691Y34071D01*
X347391Y34609D01*
X347929Y35309D01*
X348266Y36125D01*
X348382Y37000D01*
X348266Y37875D01*
X347929Y38691D01*
X347391Y39391D01*
X346691Y39929D01*
X345875Y40266D01*
X345000Y40382D01*
D02*
G37*
%LPD*%
G36*
X156206Y211845D02*
X156206Y211504D01*
X156206Y210061D01*
X155765Y209918D01*
X137737D01*
X137386Y209848D01*
X137088Y209649D01*
X130551Y203112D01*
X130418Y202912D01*
X129918Y202997D01*
Y204620D01*
X137301Y212004D01*
X155772D01*
X156206Y211845D01*
D02*
G37*
G36*
X279100Y197602D02*
Y192350D01*
X281082D01*
Y172380D01*
X276900Y168198D01*
X276400Y168405D01*
Y170102D01*
X278649Y172351D01*
X278848Y172649D01*
X278918Y173000D01*
Y180000D01*
X278848Y180351D01*
X278649Y180649D01*
X276649Y182649D01*
X276351Y182848D01*
X276000Y182918D01*
X275896D01*
Y183187D01*
X272953D01*
Y184750D01*
X275896D01*
X275896Y184750D01*
Y184750D01*
X276254Y184449D01*
X277607Y183095D01*
X277589Y183000D01*
X277696Y182460D01*
X278002Y182002D01*
X278460Y181696D01*
X279000Y181589D01*
X279540Y181696D01*
X279998Y182002D01*
X280304Y182460D01*
X280411Y183000D01*
X280304Y183540D01*
X279998Y183998D01*
X279540Y184304D01*
X279000Y184411D01*
X278905Y184392D01*
X276712Y186586D01*
X276414Y186785D01*
X276063Y186855D01*
X275896D01*
Y187124D01*
X275233D01*
Y192350D01*
X276900D01*
Y199095D01*
X277400Y199302D01*
X279100Y197602D01*
D02*
G37*
%LPC*%
G36*
X327610Y209461D02*
X326638D01*
Y207189D01*
X327610D01*
Y209461D01*
D02*
G37*
%LPD*%
D10*
X73905Y50000D02*
D03*
X62094D02*
D03*
D11*
X268000Y96000D02*
D03*
X276000D02*
D03*
X386500Y260000D02*
D03*
X378500D02*
D03*
X361500Y247500D02*
D03*
X353500D02*
D03*
X324000Y60000D02*
D03*
X316000D02*
D03*
X314000Y110000D02*
D03*
X306000D02*
D03*
X301500Y52500D02*
D03*
X293500D02*
D03*
X276500Y60000D02*
D03*
X268500D02*
D03*
X274000Y196000D02*
D03*
X282000D02*
D03*
X263000D02*
D03*
X255000D02*
D03*
X129000Y266000D02*
D03*
X137000D02*
D03*
X232000Y145000D02*
D03*
X240000D02*
D03*
X368500Y90000D02*
D03*
X376500D02*
D03*
X406000Y105000D02*
D03*
X414000D02*
D03*
X22000Y183000D02*
D03*
X30000D02*
D03*
X77000Y67000D02*
D03*
X69000D02*
D03*
X361000Y260000D02*
D03*
X370000D02*
D03*
X352500Y236000D02*
D03*
X361500D02*
D03*
X328000Y267500D02*
D03*
X337000D02*
D03*
X206500Y73000D02*
D03*
X215500D02*
D03*
X164500Y248000D02*
D03*
X155500D02*
D03*
X194500Y166000D02*
D03*
X203500D02*
D03*
X140500Y196000D02*
D03*
X149500D02*
D03*
X264500Y167000D02*
D03*
X273500D02*
D03*
X30500Y172000D02*
D03*
X21500D02*
D03*
X30500Y160000D02*
D03*
X21500D02*
D03*
X35500Y110000D02*
D03*
X44500D02*
D03*
X335000Y162000D02*
D03*
X327000D02*
D03*
D12*
X228000Y98000D02*
D03*
Y90000D02*
D03*
X295000Y121000D02*
D03*
Y129000D02*
D03*
X342500Y188500D02*
D03*
Y196500D02*
D03*
X179000Y246000D02*
D03*
Y254000D02*
D03*
X238000Y181000D02*
D03*
Y173000D02*
D03*
X99000Y108000D02*
D03*
Y116000D02*
D03*
X387500Y82000D02*
D03*
Y90000D02*
D03*
X417500Y81000D02*
D03*
Y89000D02*
D03*
X165000Y115500D02*
D03*
Y107500D02*
D03*
X134000Y115500D02*
D03*
Y107500D02*
D03*
X124000D02*
D03*
Y115500D02*
D03*
X175000Y107500D02*
D03*
Y115500D02*
D03*
X99000Y83500D02*
D03*
Y91500D02*
D03*
X119000Y83500D02*
D03*
Y91500D02*
D03*
X139000Y83500D02*
D03*
Y91500D02*
D03*
X89000Y83500D02*
D03*
Y91500D02*
D03*
X109000Y83500D02*
D03*
Y91500D02*
D03*
X12500Y113500D02*
D03*
Y121500D02*
D03*
Y141000D02*
D03*
Y149000D02*
D03*
X352500Y197000D02*
D03*
Y188000D02*
D03*
X332500Y197000D02*
D03*
Y188000D02*
D03*
X390000Y212000D02*
D03*
Y203000D02*
D03*
X410000D02*
D03*
Y212000D02*
D03*
X400000Y203000D02*
D03*
Y212000D02*
D03*
X380000D02*
D03*
Y203000D02*
D03*
X410000Y225500D02*
D03*
Y234500D02*
D03*
X400000Y225500D02*
D03*
Y234500D02*
D03*
X380000D02*
D03*
Y225500D02*
D03*
X390000D02*
D03*
Y234500D02*
D03*
X296000Y261500D02*
D03*
Y252500D02*
D03*
X322500Y197000D02*
D03*
Y188000D02*
D03*
Y78000D02*
D03*
Y87000D02*
D03*
X98000Y226500D02*
D03*
Y235500D02*
D03*
X127000Y225500D02*
D03*
Y234500D02*
D03*
X76000Y266500D02*
D03*
Y257500D02*
D03*
X105000Y160500D02*
D03*
Y169500D02*
D03*
Y187500D02*
D03*
Y178500D02*
D03*
X161000Y161500D02*
D03*
Y170500D02*
D03*
X207000Y248500D02*
D03*
Y239500D02*
D03*
X159000Y92000D02*
D03*
Y83000D02*
D03*
X170000D02*
D03*
Y92000D02*
D03*
X129000Y83000D02*
D03*
Y92000D02*
D03*
X149000Y83000D02*
D03*
Y92000D02*
D03*
X58000Y260500D02*
D03*
Y251500D02*
D03*
X10000Y255500D02*
D03*
Y246500D02*
D03*
X20000Y211500D02*
D03*
Y220500D02*
D03*
X344000Y161000D02*
D03*
Y153000D02*
D03*
D13*
X221001Y107865D02*
D03*
Y116133D02*
D03*
X210001Y107865D02*
D03*
Y116133D02*
D03*
X404999Y80867D02*
D03*
Y89135D02*
D03*
X69000Y90134D02*
D03*
Y81866D02*
D03*
D14*
X116937Y210000D02*
D03*
X109063D02*
D03*
D15*
X113000Y237559D02*
D03*
D16*
X83937Y113299D02*
D03*
X76063D02*
D03*
D17*
X80000Y100504D02*
D03*
D18*
X305669Y125000D02*
D03*
X314331Y128740D02*
D03*
Y121260D02*
D03*
X363331Y157000D02*
D03*
X354669Y153260D02*
D03*
Y160740D02*
D03*
D19*
X117315Y265000D02*
D03*
X87000D02*
D03*
D20*
X240528Y156260D02*
D03*
Y163740D02*
D03*
X231472Y160000D02*
D03*
D21*
X376240Y79528D02*
D03*
X368760D02*
D03*
X372500Y70472D02*
D03*
D22*
X422500Y227500D02*
D03*
Y209784D02*
D03*
D23*
X370000Y213858D02*
D03*
Y206142D02*
D03*
Y224142D02*
D03*
Y231858D02*
D03*
D24*
X65000Y166555D02*
D03*
Y198445D02*
D03*
D25*
X335000Y220000D02*
D03*
D26*
X324961Y213110D02*
D03*
Y215079D02*
D03*
Y217047D02*
D03*
Y219016D02*
D03*
Y220984D02*
D03*
Y222953D02*
D03*
Y224921D02*
D03*
Y226890D02*
D03*
X345039D02*
D03*
Y224921D02*
D03*
Y222953D02*
D03*
Y220984D02*
D03*
Y219016D02*
D03*
Y217047D02*
D03*
Y215079D02*
D03*
Y213110D02*
D03*
D27*
X328110Y230039D02*
D03*
X330079D02*
D03*
X332047D02*
D03*
X334016D02*
D03*
X335984D02*
D03*
X337953D02*
D03*
X339921D02*
D03*
X341890D02*
D03*
Y209961D02*
D03*
X339921D02*
D03*
X337953D02*
D03*
X335984D02*
D03*
X334016D02*
D03*
X332047D02*
D03*
X330079D02*
D03*
X328110D02*
D03*
D28*
X310000Y94449D02*
D03*
X305000D02*
D03*
X300000D02*
D03*
X295000D02*
D03*
X310000Y75551D02*
D03*
X305000D02*
D03*
X300000D02*
D03*
X295000D02*
D03*
D29*
X224878Y47500D02*
D03*
Y52500D02*
D03*
Y57500D02*
D03*
Y62500D02*
D03*
X197122Y47500D02*
D03*
Y52500D02*
D03*
Y57500D02*
D03*
Y62500D02*
D03*
D30*
X167236Y229949D02*
D03*
X169205D02*
D03*
X171173D02*
D03*
X173142D02*
D03*
X175110D02*
D03*
X177079D02*
D03*
X179047D02*
D03*
X181016D02*
D03*
X182984D02*
D03*
X184953D02*
D03*
X186921D02*
D03*
X188890D02*
D03*
X190858D02*
D03*
X192827D02*
D03*
X194795D02*
D03*
X196764D02*
D03*
Y186051D02*
D03*
X194795D02*
D03*
X192827D02*
D03*
X190858D02*
D03*
X188890D02*
D03*
X186921D02*
D03*
X184953D02*
D03*
X182984D02*
D03*
X181016D02*
D03*
X179047D02*
D03*
X177079D02*
D03*
X175110D02*
D03*
X173142D02*
D03*
X171173D02*
D03*
X169205D02*
D03*
X167236D02*
D03*
D31*
X203949Y222764D02*
D03*
Y220795D02*
D03*
Y218827D02*
D03*
Y216858D02*
D03*
Y214890D02*
D03*
Y212921D02*
D03*
Y210953D02*
D03*
Y208984D02*
D03*
Y207016D02*
D03*
Y205047D02*
D03*
Y203079D02*
D03*
Y201110D02*
D03*
Y199142D02*
D03*
Y197173D02*
D03*
Y195205D02*
D03*
Y193236D02*
D03*
X160051D02*
D03*
Y195205D02*
D03*
Y197173D02*
D03*
Y199142D02*
D03*
Y201110D02*
D03*
Y203079D02*
D03*
Y205047D02*
D03*
Y207016D02*
D03*
Y208984D02*
D03*
Y210953D02*
D03*
Y212921D02*
D03*
Y214890D02*
D03*
Y216858D02*
D03*
Y218827D02*
D03*
Y220795D02*
D03*
Y222764D02*
D03*
D32*
X417500Y67716D02*
D03*
X407500D02*
D03*
Y32283D02*
D03*
X417500D02*
D03*
D33*
X45417Y252000D02*
D03*
D34*
X22583Y242945D02*
D03*
Y252000D02*
D03*
Y261055D02*
D03*
D35*
X45000Y141850D02*
D03*
X40000D02*
D03*
X35000D02*
D03*
X30000D02*
D03*
X45000Y123150D02*
D03*
X40000D02*
D03*
X35000D02*
D03*
X30000D02*
D03*
D36*
X37500Y132500D02*
D03*
D37*
X312500Y189055D02*
D03*
Y195945D02*
D03*
X325000Y48445D02*
D03*
Y41555D02*
D03*
X270000Y48445D02*
D03*
Y41555D02*
D03*
X335000Y79055D02*
D03*
Y85945D02*
D03*
X141000Y238445D02*
D03*
Y231555D02*
D03*
X224000Y260555D02*
D03*
Y267445D02*
D03*
X274000Y157445D02*
D03*
Y150555D02*
D03*
D38*
X207445Y84000D02*
D03*
X200555D02*
D03*
D39*
X325000Y9626D02*
D03*
Y25374D02*
D03*
X270000Y9626D02*
D03*
Y25374D02*
D03*
D40*
X305374Y32500D02*
D03*
X289626D02*
D03*
X40374Y42500D02*
D03*
X24626D02*
D03*
D41*
X361653Y70000D02*
D03*
X353346D02*
D03*
D42*
X59701Y237000D02*
D03*
X72299D02*
D03*
X46299Y24000D02*
D03*
X33701D02*
D03*
D43*
X65000Y131201D02*
D03*
Y143799D02*
D03*
D44*
X225000Y236587D02*
D03*
Y247413D02*
D03*
D45*
X36000Y209996D02*
D03*
Y222004D02*
D03*
D46*
X269000Y182000D02*
D03*
D47*
X274315Y185937D02*
D03*
Y182000D02*
D03*
Y178063D02*
D03*
X263685D02*
D03*
Y182000D02*
D03*
Y185937D02*
D03*
D48*
X165700Y119916D02*
X206218D01*
X164000Y121615D02*
X165700Y119916D01*
X203500Y140878D02*
Y166000D01*
X201000Y138378D02*
X203500Y140878D01*
X353346Y58653D02*
X355000Y57000D01*
X353346Y58653D02*
Y70000D01*
X355000Y37000D02*
X361653Y43654D01*
X140500Y190500D02*
Y196000D01*
Y198500D01*
X143110Y201110D02*
X160051D01*
X140500Y198500D02*
X143110Y201110D01*
X149500Y197000D02*
X151000D01*
X153142Y199142D01*
X160051D01*
X190858D02*
X205000Y185000D01*
X187000Y56000D02*
X193500Y62500D01*
X187000Y41000D02*
Y56000D01*
Y41000D02*
X191000Y37000D01*
X193500Y62500D02*
X197122D01*
X190000Y54000D02*
X193500Y57500D01*
X190000Y42000D02*
Y54000D01*
Y42000D02*
X192000Y40000D01*
X193500Y57500D02*
X197122D01*
X99000Y79847D02*
Y83500D01*
Y79847D02*
X126594Y52252D01*
X119000Y74847D02*
Y83500D01*
Y74847D02*
X131595Y62252D01*
X129000Y83000D02*
X136594Y75406D01*
Y52252D02*
Y75406D01*
X139000Y64846D02*
Y83500D01*
Y64846D02*
X141595Y62252D01*
X146595Y52252D02*
Y70595D01*
X151594Y62252D02*
Y64595D01*
X161594Y57252D02*
Y62252D01*
X156595Y52252D02*
X161594Y57252D01*
X156595Y52252D02*
X161594D01*
X174587Y39260D01*
X113602D02*
X174587D01*
X161138Y17000D02*
X170177Y7961D01*
X125000Y17000D02*
X161138D01*
X118012Y10012D02*
X125000Y17000D01*
X118012Y7961D02*
Y10012D01*
X206218Y119916D02*
X210001Y116133D01*
X142000Y181000D02*
X162000D01*
X215134Y122000D02*
X221001Y116133D01*
X171000Y122000D02*
X215134D01*
X147000Y184000D02*
X154000D01*
X162000Y181000D02*
X164000Y183000D01*
Y190000D01*
X166000Y192000D01*
Y196000D01*
X164827Y197173D02*
X166000Y196000D01*
X160051Y197173D02*
X164827D01*
X154000Y184000D02*
X156000Y186000D01*
Y189000D01*
X154000Y191000D02*
X156000Y189000D01*
X154000Y191000D02*
Y194000D01*
X155205Y195205D01*
X160051D01*
X149500Y191500D02*
Y197000D01*
Y191500D02*
X153000Y188000D01*
X164500Y161500D02*
X168000Y165000D01*
X161000Y161500D02*
X164500D01*
X140000Y190000D02*
X140500Y190500D01*
X153000Y171000D02*
X153500Y170500D01*
X161000D01*
X169000D01*
X264000Y100000D02*
X268000Y96000D01*
X264000Y100000D02*
Y117000D01*
X257000Y124000D02*
X264000Y117000D01*
X232000Y124000D02*
X257000D01*
X227000Y119000D02*
X232000Y124000D01*
X227000Y110000D02*
Y119000D01*
X224865Y107865D02*
X227000Y110000D01*
X221001Y107865D02*
X224865D01*
X210001D02*
X219866Y98000D01*
X228000D01*
X245000Y68000D02*
Y69948D01*
X240663Y74284D02*
X245000Y69948D01*
X235716Y74284D02*
X240663D01*
X194000Y116000D02*
X235716Y74284D01*
X187000Y116000D02*
X194000D01*
X195000Y109000D02*
X232916Y71084D01*
X194000Y113000D02*
X234316Y72684D01*
X239316D01*
X232916Y71084D02*
X236863D01*
X239948Y68000D01*
X239316Y72684D02*
X240000Y72000D01*
X190000Y113000D02*
X194000D01*
X231414Y69000D02*
X236000D01*
X196414Y104000D02*
X231414Y69000D01*
X239948Y68000D02*
X240000D01*
X190000Y109000D02*
X195000D01*
X188000Y104000D02*
X196414D01*
X258000Y253000D02*
Y269000D01*
X203954Y212916D02*
X217916D01*
X203949Y212921D02*
X203954Y212916D01*
X417500Y32283D02*
X423283D01*
X426000Y35000D01*
X395000Y44000D02*
X407108Y31892D01*
X395000Y44000D02*
Y74500D01*
X314449Y94449D02*
X320000Y100000D01*
X310000Y94449D02*
X314449D01*
X274000Y159445D02*
Y167000D01*
Y169500D01*
Y167000D02*
X277000D01*
X273500D02*
X274000D01*
X277000D02*
X282000Y172000D01*
X240000Y145000D02*
X243000D01*
X249000Y139000D01*
Y135000D02*
Y139000D01*
X245890Y131890D02*
X249000Y135000D01*
X240551Y131890D02*
X245890D01*
X284000Y91000D02*
Y108500D01*
X247500Y145000D02*
X284000Y108500D01*
X287000Y94000D02*
Y113000D01*
X250000Y150000D02*
X287000Y113000D01*
X290000Y91000D02*
Y115000D01*
X252000Y153000D02*
X290000Y115000D01*
X254000Y121000D02*
X260000Y115000D01*
X233000Y121000D02*
X254000D01*
X231000Y119000D02*
X233000Y121000D01*
X231000Y117000D02*
Y119000D01*
Y117000D02*
X235000Y113000D01*
X247000Y83000D02*
Y106000D01*
X235000Y118000D02*
X247000Y106000D01*
X244000Y82000D02*
Y104000D01*
X235000Y113000D02*
X244000Y104000D01*
X242000Y80000D02*
Y101000D01*
X235000Y108000D02*
X242000Y101000D01*
X235000Y86000D02*
Y104000D01*
X300000Y183000D02*
X308000D01*
X274315Y185937D02*
X276063D01*
X279000Y183000D01*
X212858Y216858D02*
X215000Y219000D01*
X203949Y216858D02*
X212858D01*
X310000Y145000D02*
X323000Y132000D01*
Y125000D02*
Y132000D01*
X306000Y180000D02*
X321000Y165000D01*
X297000Y180000D02*
X306000D01*
X214890Y214890D02*
X215000Y215000D01*
X203949Y214890D02*
X214890D01*
X282000Y172000D02*
Y196000D01*
X276000Y202000D02*
X282000Y196000D01*
X259000Y202000D02*
X276000D01*
X255000Y198000D02*
X259000Y202000D01*
X255000Y196000D02*
Y198000D01*
X263000Y196000D02*
X263685Y195315D01*
Y185937D02*
Y195315D01*
X274000Y196000D02*
X274315Y195685D01*
Y185937D02*
Y195685D01*
X269000Y174500D02*
Y182000D01*
X264500Y170000D02*
X269000Y174500D01*
X263685Y182000D02*
X269000D01*
X274315D02*
X276000D01*
X278000Y180000D01*
Y173000D02*
Y180000D01*
X275000Y170000D02*
X278000Y173000D01*
X263622Y186000D02*
X263685Y185937D01*
X259000Y186000D02*
X263622D01*
X186916Y158084D02*
X188000Y157000D01*
X186916Y158084D02*
Y186046D01*
X186921Y186051D01*
X189000Y175000D02*
Y179000D01*
X190858Y180858D01*
Y186051D01*
X192000Y178000D02*
X192827Y178827D01*
Y186051D01*
X194795Y166295D02*
Y186051D01*
X194500Y166000D02*
X194795Y166295D01*
X213827Y197173D02*
X216000Y195000D01*
X323000Y78000D02*
X333945D01*
X322500D02*
X323000D01*
X295000Y94449D02*
Y121000D01*
X310000Y125591D02*
X314331Y121260D01*
X310000Y125591D02*
Y127500D01*
X307500Y130000D02*
X310000Y127500D01*
X296000Y130000D02*
X307500D01*
X295000Y129000D02*
X296000Y130000D01*
X300000Y94449D02*
X305000D01*
X322500Y87000D02*
Y101500D01*
X314000Y110000D02*
X322500Y101500D01*
X305669Y125000D02*
X306000Y124669D01*
Y110000D02*
Y124669D01*
X305000Y109000D02*
X306000Y110000D01*
X305000Y94449D02*
Y109000D01*
X333945Y78000D02*
X335000Y79055D01*
X310000Y75551D02*
X320051D01*
X322500Y78000D01*
X262500Y82500D02*
X267000Y87000D01*
X262500Y54500D02*
Y82500D01*
X245000Y37000D02*
X262500Y54500D01*
X260000Y56000D02*
Y115000D01*
X244000Y40000D02*
X260000Y56000D01*
X387500Y82000D02*
X395000Y74500D01*
X376500Y90000D02*
X387500D01*
X368500D02*
X368760Y89740D01*
Y79528D02*
Y89740D01*
X376240Y89740D02*
X376500Y90000D01*
X376240Y79528D02*
Y89740D01*
X361653Y70000D02*
X372028D01*
X372500Y70472D01*
X267000Y87000D02*
X286000D01*
X290000Y91000D01*
X246000Y161732D02*
Y170000D01*
X240528Y156260D02*
X246000Y161732D01*
X232000Y145000D02*
Y159472D01*
X231472Y160000D02*
X232000Y159472D01*
X247000Y83000D02*
X254000Y76000D01*
Y59000D02*
Y76000D01*
X242500Y47500D02*
X254000Y59000D01*
X242000Y80000D02*
X247000Y75000D01*
Y60000D02*
Y75000D01*
X239500Y52500D02*
X247000Y60000D01*
X335300Y160000D02*
X335600Y160300D01*
X345000Y153700D02*
X345440Y153260D01*
X354669D01*
X345000Y160300D02*
X345440Y160740D01*
X354669D01*
X363331Y157000D02*
X380039D01*
X184953Y155047D02*
X186000Y154000D01*
X184953Y155047D02*
Y186051D01*
X235000Y86000D02*
X238000Y83000D01*
X167000Y153000D02*
Y158000D01*
X173142Y164142D01*
Y186051D01*
X173000Y159000D02*
X175110Y161110D01*
Y186051D01*
X244000Y82000D02*
X246000Y80000D01*
X175000Y155000D02*
X177079Y157079D01*
Y186051D01*
X175000Y151000D02*
X179047Y155047D01*
Y186051D01*
X115000Y105000D02*
Y110000D01*
Y105000D02*
X119000Y101000D01*
X134000Y115500D02*
X165000D01*
X124000Y107500D02*
X134000D01*
X129000Y92000D02*
Y102500D01*
X124000Y107500D02*
X129000Y102500D01*
X154000Y88000D02*
X159000Y83000D01*
X154000Y88000D02*
Y104500D01*
X165000Y115500D01*
Y107500D02*
X175000D01*
X170000Y92000D02*
Y102500D01*
X175000Y107500D01*
X123500Y116000D02*
X124000Y115500D01*
X115000Y116000D02*
X123500D01*
X242916Y65916D02*
X245000Y68000D01*
X236084Y65916D02*
X242916D01*
X236000Y66000D02*
X236084Y65916D01*
X99000Y91500D02*
Y95000D01*
X105000Y101000D01*
X119000Y91500D02*
Y101000D01*
X151594Y64595D02*
X170000Y83000D01*
X146595Y70595D02*
X159000Y83000D01*
X148500Y83500D02*
X149000Y83000D01*
X139000Y83500D02*
X148500D01*
X109000D02*
X119000D01*
X89000D02*
X99000D01*
X141000Y231555D02*
X144445D01*
X139000Y251006D02*
X149000Y241005D01*
X139000Y251006D02*
Y252000D01*
X144445Y231555D02*
X153236Y222764D01*
X177079Y239079D02*
X178000Y240000D01*
X177079Y229949D02*
Y239079D01*
X179047Y237047D02*
X181000Y239000D01*
X179047Y229949D02*
Y237047D01*
X169000Y261000D02*
Y268000D01*
Y261000D02*
X172000Y258000D01*
X148997Y241003D02*
X169000Y221000D01*
Y213000D02*
Y221000D01*
X118315Y266000D02*
X125315Y273000D01*
X117315Y265000D02*
X118315Y266000D01*
X164000Y273000D02*
X169000Y268000D01*
X125315Y273000D02*
X164000D01*
X147000Y266000D02*
X149000Y268000D01*
X137000Y266000D02*
X147000D01*
X118315D02*
X129000D01*
X110315Y272000D02*
X117315Y265000D01*
X81500Y272000D02*
X110315D01*
X76000Y266500D02*
X81500Y272000D01*
X79500Y257500D02*
X87000Y265000D01*
X76000Y257500D02*
X79500D01*
X100000Y257000D02*
X166263D01*
X90000Y247000D02*
X100000Y257000D01*
X166263D02*
X173142Y250121D01*
X128000Y221063D02*
Y226500D01*
X173142Y229949D02*
Y250121D01*
X171173Y229949D02*
Y249827D01*
X166000Y255000D02*
X171173Y249827D01*
X101000Y255000D02*
X166000D01*
X92000Y246000D02*
X101000Y255000D01*
X189000Y268000D02*
X196764Y260236D01*
Y229949D02*
Y260236D01*
X175110Y242110D02*
X179000Y246000D01*
X175110Y229949D02*
Y242110D01*
X90000Y215000D02*
Y247000D01*
X92000Y216000D02*
Y246000D01*
X98000Y221063D02*
Y226500D01*
Y221063D02*
X109063Y210000D01*
X116937D02*
X128000Y221063D01*
X116937Y210000D02*
X126000D01*
X112000Y200000D02*
X119000D01*
X109063Y202937D02*
X112000Y200000D01*
X109063Y202937D02*
Y210000D01*
X98000Y152000D02*
Y210000D01*
X92000Y216000D02*
X98000Y210000D01*
X96400Y151337D02*
Y208600D01*
X90000Y215000D02*
X96400Y208600D01*
X303902Y205000D02*
X308001Y209099D01*
X243000Y205000D02*
X303902D01*
X222984Y208984D02*
X224000Y210000D01*
X203949Y208984D02*
X222984D01*
X247000Y229000D02*
X298000D01*
X225016Y207016D02*
X247000Y229000D01*
X203949Y207016D02*
X225016D01*
X239000Y205000D02*
Y206000D01*
X242099Y209099D01*
X298001D01*
X305000Y219000D02*
X308000D01*
X300000Y214000D02*
X305000Y219000D01*
X244000Y214000D02*
X300000D01*
X235000Y205000D02*
X244000Y214000D01*
X245000Y219000D02*
X298000D01*
X231000Y205000D02*
X245000Y219000D01*
X306000Y229000D02*
X308000D01*
X301000Y224000D02*
X306000Y229000D01*
X246000Y224000D02*
X301000D01*
X227000Y205000D02*
X246000Y224000D01*
X208764Y193236D02*
X210000Y192000D01*
X203949Y193236D02*
X208764D01*
X210795Y195205D02*
X213000Y193000D01*
X203949Y195205D02*
X210795D01*
X203949Y197173D02*
X213827D01*
X215858Y199142D02*
X219000Y196000D01*
X203949Y199142D02*
X215858D01*
X203949Y205047D02*
X222953D01*
X238000Y190000D01*
Y181000D02*
Y190000D01*
Y173000D02*
X243000D01*
X246000Y170000D01*
X120551Y131890D02*
Y141449D01*
X115000Y147000D02*
X120551Y141449D01*
X100737Y147000D02*
X115000D01*
X96400Y151337D02*
X100737Y147000D01*
X98000Y152000D02*
X101000Y149000D01*
X135000D01*
X140551Y131890D02*
Y143449D01*
X135000Y149000D02*
X140551Y143449D01*
X121000Y184000D02*
X127400Y190400D01*
X121000Y164787D02*
X129000Y172787D01*
X131200Y168800D02*
Y202463D01*
Y168800D02*
X150551Y149449D01*
X132800Y170200D02*
Y201800D01*
Y170200D02*
X160551Y142449D01*
X134400Y171600D02*
Y200663D01*
Y171600D02*
X170551Y135449D01*
X134400Y200663D02*
X138785Y205047D01*
X160051D01*
X136000Y200000D02*
X139079Y203079D01*
X160051D01*
X309039Y230039D02*
X328110D01*
X240000Y145000D02*
Y147000D01*
X224000Y135339D02*
Y197000D01*
X220551Y131890D02*
X224000Y135339D01*
X221400Y142739D02*
Y196600D01*
X216890Y201110D02*
X221400Y196600D01*
X203949Y201110D02*
X216890D01*
X210551Y131890D02*
X221400Y142739D01*
X196764Y175236D02*
Y186051D01*
X171173Y172673D02*
Y186051D01*
X169000Y170500D02*
X171173Y172673D01*
X106661Y138000D02*
X113000D01*
X100551Y131890D02*
X106661Y138000D01*
X116000Y128000D02*
X119000Y125000D01*
X116000Y128000D02*
Y135000D01*
X113000Y138000D02*
X116000Y135000D01*
X119000Y125000D02*
X223661D01*
X170551Y131890D02*
Y135449D01*
X160551Y131890D02*
Y142449D01*
X150551Y131890D02*
Y149449D01*
X190551Y131890D02*
Y137449D01*
X181000Y147000D02*
X190551Y137449D01*
X181000Y147000D02*
Y165000D01*
X308000Y229000D02*
X309039Y230039D01*
X353000Y224000D02*
X370000D01*
X349984Y220984D02*
X353000Y224000D01*
Y214000D02*
X370000D01*
X349953Y217047D02*
X353000Y214000D01*
X352500Y231500D02*
Y236000D01*
X347890Y226890D02*
X352500Y231500D01*
X345039Y226890D02*
X347890D01*
X345039Y220984D02*
X349984D01*
X345039Y217047D02*
X349953D01*
X370000Y260000D02*
X378500D01*
X361000D02*
X361500Y259500D01*
Y247500D02*
Y259500D01*
X355000Y260000D02*
X361000D01*
X341890Y246890D02*
X355000Y260000D01*
X341890Y230039D02*
Y246890D01*
X353500Y238500D02*
Y247500D01*
X181000Y165000D02*
X181016Y165016D01*
X160035Y209000D02*
X160051Y208984D01*
X240000Y132441D02*
X240551Y131890D01*
X223661Y125000D02*
X230551Y131890D01*
X181016Y165016D02*
Y186051D01*
X182984Y149457D02*
X200551Y131890D01*
X182984Y149457D02*
Y186051D01*
X203500Y166000D02*
Y168500D01*
X196764Y175236D02*
X203500Y168500D01*
X169205Y229949D02*
Y243295D01*
X164500Y248000D02*
X169205Y243295D01*
X167236Y229949D02*
Y236264D01*
X155500Y248000D02*
X167236Y236264D01*
X153236Y222764D02*
X160051D01*
X135000Y244445D02*
X141000Y238445D01*
X135000Y244445D02*
Y250000D01*
X203949Y218827D02*
X209827D01*
X214445Y267445D02*
X224000D01*
X214000Y267000D02*
X214445Y267445D01*
X224000Y248413D02*
Y260555D01*
Y248413D02*
X225000Y247413D01*
X224413D02*
X225000D01*
X199000Y243000D02*
X203500D01*
X207000Y239500D01*
Y225815D02*
Y239500D01*
X203949Y222764D02*
X207000Y225815D01*
X215000Y157000D02*
X216000Y156000D01*
X205000Y175000D02*
Y185000D01*
X209000Y157000D02*
X213000Y153000D01*
X209000Y157000D02*
Y171000D01*
X205000Y175000D02*
X209000Y171000D01*
X215000Y157000D02*
Y165000D01*
X218000Y159000D02*
Y168000D01*
X167236Y181236D02*
Y186051D01*
X164000Y178000D02*
X167236Y181236D01*
X160051Y185051D02*
Y193236D01*
X160000Y185000D02*
X160051Y185051D01*
X285000Y125000D02*
Y155000D01*
Y125000D02*
X289000Y121000D01*
X295000D01*
X160051Y210953D02*
X166953D01*
X169000Y213000D01*
X136000Y174000D02*
Y200000D01*
Y174000D02*
X178110Y131890D01*
X180551D01*
X158000Y178000D02*
X164000D01*
X203949Y203079D02*
X217921D01*
X224000Y197000D01*
X220000Y243000D02*
X224413Y247413D01*
X217000Y243000D02*
X220000D01*
X149000Y248000D02*
X155500D01*
X349000Y137000D02*
X356000Y130000D01*
Y122000D02*
Y130000D01*
X348000Y97000D02*
X356000Y105000D01*
Y122000D01*
X175000Y115500D02*
X176500D01*
X188000Y104000D01*
X178000Y95000D02*
Y98000D01*
X183000Y103000D01*
X224878Y52500D02*
X239500D01*
X224878Y47500D02*
X242500D01*
X224878Y57500D02*
Y62500D01*
X215500Y65500D02*
Y73000D01*
Y65500D02*
X218500Y62500D01*
X224878D01*
X197122Y52500D02*
X213500D01*
X218500Y57500D01*
X224878D01*
X192000Y40000D02*
X244000D01*
X191000Y37000D02*
X245000D01*
X207445Y84000D02*
X215500Y75945D01*
Y73000D02*
Y75945D01*
X139000Y91500D02*
Y100000D01*
X109000Y91500D02*
Y100000D01*
X80500Y91500D02*
X89000D01*
X80000Y92000D02*
X80500Y91500D01*
X323000Y78000D02*
X328000Y83000D01*
Y115071D01*
X314331Y128740D02*
X328000Y115071D01*
X203949Y210953D02*
X219953D01*
X268000Y259000D01*
Y269000D01*
X249000Y234000D02*
X252000D01*
X228000Y213000D02*
X249000Y234000D01*
X192827Y224173D02*
X196000Y221000D01*
X192827Y224173D02*
Y229949D01*
X190858Y199142D02*
Y229949D01*
X397135Y89135D02*
X404999D01*
X397000Y89000D02*
X397135Y89135D01*
X406000Y105000D02*
Y113000D01*
X382000D02*
X406000D01*
X321000Y160000D02*
Y165000D01*
Y160000D02*
X335000Y146000D01*
X370000D01*
X310000Y145000D02*
Y166000D01*
X285000Y155000D02*
X300000Y170000D01*
X305000D01*
X353000Y142000D02*
X382000Y113000D01*
X332000Y142000D02*
X353000D01*
X316000Y158000D02*
X332000Y142000D01*
X316000Y158000D02*
Y165000D01*
X305000Y176000D02*
X316000Y165000D01*
X298000Y176000D02*
X305000D01*
X219000Y190000D02*
Y196000D01*
X216000Y188000D02*
Y195000D01*
X213000Y186000D02*
Y193000D01*
X210000Y184000D02*
Y192000D01*
X186921Y221079D02*
X187000Y221000D01*
X186921Y221079D02*
Y229949D01*
X321500Y86000D02*
X322500Y87000D01*
X316500Y84000D02*
X322500Y78000D01*
X284000Y84000D02*
X316500D01*
X268500Y68500D02*
X284000Y84000D01*
X268500Y60000D02*
Y68500D01*
X361653Y43654D02*
Y70000D01*
X426000Y35000D02*
Y152000D01*
X421000Y157000D02*
X426000Y152000D01*
X409961Y157000D02*
X421000D01*
X209827Y218827D02*
X214000Y223000D01*
Y253000D01*
X199000Y268000D02*
X214000Y253000D01*
X207000Y248500D02*
X212400Y243100D01*
Y223663D02*
Y243100D01*
X209532Y220795D02*
X212400Y223663D01*
X203949Y220795D02*
X209532D01*
X217916Y212916D02*
X258000Y253000D01*
X335600Y160300D02*
X345000D01*
X328700Y160000D02*
Y162300D01*
X308000Y183000D02*
X328700Y162300D01*
X132800Y201800D02*
X138016Y207016D01*
X160051D01*
X131200Y202463D02*
X137737Y209000D01*
X160035D01*
X129000Y172787D02*
Y205000D01*
X127400Y190400D02*
Y205663D01*
X129000Y205000D02*
X136921Y212921D01*
X160051D01*
X127400Y205663D02*
X136627Y214890D01*
X160051D01*
X126000Y210000D02*
X134827Y218827D01*
X119000Y200000D02*
X135858Y216858D01*
X160051D01*
X134827Y218827D02*
X160051D01*
X179000Y268000D02*
X187000Y260000D01*
X184953Y229949D02*
Y234953D01*
X187000Y237000D01*
Y260000D01*
X181016Y229949D02*
Y235016D01*
X184000Y238000D01*
Y249000D01*
X105000Y160500D02*
X116713D01*
X121000Y164787D01*
X105000Y187500D02*
X117500D01*
X121000Y184000D01*
X103000Y195000D02*
X104000Y194000D01*
X121000D01*
X124000Y197000D01*
X120000D02*
X124000Y201000D01*
X106000Y197000D02*
X120000D01*
X103000Y200000D02*
X106000Y197000D01*
X237965Y139304D02*
X245540D01*
X230551Y131890D02*
X237965Y139304D01*
X269000Y249000D02*
X282000Y262000D01*
X269000Y246000D02*
Y249000D01*
D49*
X337000Y49000D02*
X345000Y57000D01*
X337000Y25343D02*
Y49000D01*
Y25343D02*
X349843Y12500D01*
X345000Y32342D02*
X364843Y12500D01*
X345000Y32342D02*
Y37000D01*
X377750Y9750D02*
X382500Y14500D01*
X379842Y12500D02*
X385000Y17658D01*
Y37000D01*
Y57000D01*
X183000Y77000D02*
X190000Y84000D01*
X183000Y27000D02*
Y77000D01*
Y27000D02*
X195000Y15000D01*
X41437Y43563D02*
X42000Y43000D01*
X55000Y46000D02*
X59000Y50000D01*
X55000Y32701D02*
Y46000D01*
X59000Y50000D02*
X62094D01*
X40374Y42500D02*
X49500D01*
X24626Y33075D02*
Y42500D01*
Y33075D02*
X33701Y24000D01*
X46299D02*
X55000Y32701D01*
X73622Y49716D02*
X73905Y50000D01*
X73622Y37402D02*
Y49716D01*
X348000Y76000D02*
Y82000D01*
X344055Y85945D02*
X348000Y82000D01*
X300000Y65000D02*
Y75551D01*
X293500Y58500D02*
X300000Y65000D01*
X293500Y52500D02*
Y58500D01*
X301500Y52500D02*
Y59000D01*
X305000Y62500D01*
Y75551D01*
X276500Y60000D02*
X286000D01*
X301500Y52500D02*
X309000Y60000D01*
X316000D01*
X276500Y54945D02*
Y60000D01*
X270000Y48445D02*
X276500Y54945D01*
X316000Y54000D02*
Y60000D01*
Y54000D02*
X321555Y48445D01*
X325000D01*
X270000Y41555D02*
X280571D01*
X289626Y32500D01*
X305000Y32126D02*
X318248D01*
X314429Y41555D02*
X325000D01*
X305374Y32500D02*
X314429Y41555D01*
X277126Y32500D02*
X289626D01*
X270000Y25374D02*
X277126Y32500D01*
X318248Y32126D02*
X325000Y25374D01*
X289626Y32500D02*
X290000Y32126D01*
Y12500D02*
Y32126D01*
X305000Y12500D02*
Y32126D01*
X41441Y222004D02*
X71996D01*
X304055Y189055D02*
X312500D01*
X302000Y187000D02*
X304055Y189055D01*
X100551Y129913D02*
Y131890D01*
X83937Y113299D02*
X100551Y129913D01*
X99000Y116000D02*
X110551Y127551D01*
X65689Y131890D02*
X90551D01*
X65000Y124362D02*
X76063Y113299D01*
X65000Y124362D02*
Y131201D01*
X72299Y237000D02*
X85000D01*
X370000Y206142D02*
X372500Y203642D01*
X370000Y231858D02*
X372642Y234500D01*
X372500Y203642D02*
X379358D01*
X390000Y234500D02*
Y256500D01*
X386500Y260000D02*
X390000Y256500D01*
X379358Y203642D02*
X380000Y203000D01*
X390000D01*
Y212000D02*
X400000D01*
X410000D01*
X420284D01*
X422500Y209784D01*
X372642Y234500D02*
X380000D01*
X390000D01*
Y225500D02*
X400000D01*
X410000D01*
X420500D01*
X422500Y227500D01*
X22815Y44311D02*
X24626Y42500D01*
X22815Y44311D02*
Y65315D01*
X42500Y44626D02*
Y65315D01*
X44500Y110000D02*
X45000Y110500D01*
Y123150D01*
X35500Y110000D02*
Y113000D01*
X40000Y117500D01*
Y123150D01*
X12972Y75157D02*
X32658D01*
X12972D02*
Y92972D01*
X17500Y97500D01*
X44500Y106685D02*
Y110000D01*
X22815Y85000D02*
X44500Y106685D01*
X17500Y97500D02*
X23000D01*
X35500Y110000D01*
X45000Y141850D02*
X46949Y143799D01*
X65000D01*
X40000Y123150D02*
Y130000D01*
X35000Y135000D02*
Y141850D01*
X63701Y132500D02*
X65000Y131201D01*
X12500Y121500D02*
X28350D01*
X30000Y123150D01*
X12500Y113500D02*
X16000Y110000D01*
X35500D01*
X12500Y121500D02*
Y141000D01*
X65000Y143799D02*
Y166555D01*
X12500Y149000D02*
Y190000D01*
X20945Y198445D01*
X65000D01*
X21500Y156500D02*
Y160000D01*
Y156500D02*
X30000Y148000D01*
Y141850D02*
Y148000D01*
X30500Y160000D02*
X35000Y155500D01*
Y141850D02*
Y155500D01*
X21500Y160000D02*
Y172000D01*
X30500D02*
Y182500D01*
X30000Y183000D02*
X30500Y182500D01*
X45000Y160000D02*
X47000Y158000D01*
X30500Y160000D02*
X45000D01*
X22000Y183000D02*
Y189000D01*
X25000Y192000D01*
X41441Y222004D02*
X65000Y198445D01*
X34496Y220500D02*
X36000Y222004D01*
X20000Y220500D02*
X34496D01*
X10000Y230500D02*
X20000Y220500D01*
X10000Y230500D02*
Y246500D01*
X13555Y242945D01*
X22583D01*
X45417Y252000D02*
X57500D01*
X58000Y251500D01*
X62000Y247500D01*
Y237299D02*
Y247500D01*
X36000Y203000D02*
Y209996D01*
X34496Y211500D02*
X36000Y209996D01*
X20000Y211500D02*
X34496D01*
X6500Y255500D02*
X10000D01*
X15555Y261055D01*
X22583D01*
X29528Y268000D01*
X50500D01*
X58000Y260500D01*
X22583Y252000D02*
X45417D01*
X79528Y12205D02*
X92126Y24803D01*
X73622Y12205D02*
X79528D01*
X40374Y42500D02*
X41437Y43563D01*
X42500Y44626D01*
X44500Y110000D02*
X57000D01*
X69000Y98000D01*
Y90134D02*
Y98000D01*
Y67000D02*
Y81866D01*
X77000Y64000D02*
Y67000D01*
X71000Y58000D02*
X77000Y64000D01*
X64000Y58000D02*
X71000D01*
X46843Y75157D02*
X64000Y58000D01*
X32658Y75157D02*
X46843D01*
X32658D02*
X42500Y85000D01*
X65000Y131201D02*
X65689Y131890D01*
X36000Y222004D02*
X41441D01*
X80000Y100504D02*
X91504D01*
X99000Y108000D01*
X110551Y127551D02*
Y131890D01*
X345000Y126000D02*
Y139000D01*
X341000Y122000D02*
X345000Y126000D01*
X335000Y116000D02*
X341000Y122000D01*
X335000Y85945D02*
Y116000D01*
Y85945D02*
X344055D01*
X190000Y84000D02*
X200555D01*
X348000Y76000D02*
X355000D01*
X359000Y80000D01*
Y93000D01*
X364000Y98000D01*
X408500D01*
X417500Y89000D01*
Y67716D02*
Y81000D01*
X404999Y70217D02*
X407500Y67716D01*
X404999Y70217D02*
Y80867D01*
X417500Y89000D02*
Y101500D01*
X414000Y105000D02*
X417500Y101500D01*
X286000Y60000D02*
X293500Y52500D01*
X35000Y135000D02*
X37500Y132500D01*
X40000Y130000D01*
X37500Y132500D02*
X63701D01*
X71996Y222004D02*
X90000Y204000D01*
Y142441D02*
X100551Y131890D01*
X90000Y142441D02*
Y204000D01*
D50*
X279555Y151555D02*
X281000Y153000D01*
Y160000D01*
X285000Y164000D01*
Y184000D01*
X288000Y187000D01*
X302000D01*
X337953Y205000D02*
Y209961D01*
X298001Y209099D02*
X300099D01*
X301000Y219000D02*
X306000Y224000D01*
X298000Y219000D02*
X301000D01*
X306000Y224000D02*
X318000D01*
X322984Y219016D01*
X324961D01*
X308000Y219000D02*
X309953Y217047D01*
X306079Y215079D02*
X324961D01*
X309953Y217047D02*
X324961D01*
X298000Y229000D02*
X299000D01*
X305000Y235000D01*
X327000D01*
X330079Y231921D01*
Y230039D02*
Y231921D01*
X323110Y213110D02*
X324961D01*
X320000Y210000D02*
X323110Y213110D01*
X320000Y205000D02*
Y210000D01*
Y205000D02*
X322500Y202500D01*
Y197000D02*
Y202500D01*
X349921Y224921D02*
X351000Y226000D01*
X345039Y224921D02*
X349921D01*
X352500Y197000D02*
Y200500D01*
X350000Y203000D02*
X352500Y200500D01*
X354984Y219016D02*
X355000Y219000D01*
X345039Y219016D02*
X354984D01*
X344000Y188500D02*
X352500Y197000D01*
X342500Y188500D02*
X344000D01*
X332500Y197000D02*
X341000Y188500D01*
X342500D01*
X337953Y204547D02*
X342500Y200000D01*
Y196500D02*
Y200000D01*
X335984Y219016D02*
X339331Y215669D01*
X339331Y224331D02*
X339921Y224921D01*
X335000Y220000D02*
X339331Y224331D01*
X339921Y224921D02*
Y230039D01*
X335000Y220000D02*
X335984Y219016D01*
X339921Y215079D02*
X345039D01*
X330669Y215669D02*
X335000Y220000D01*
X322500Y197000D02*
X332500D01*
X321445Y195945D02*
X322500Y197000D01*
X312500Y195945D02*
X321445D01*
X330079Y204579D02*
Y209961D01*
X322500Y197000D02*
X330079Y204579D01*
X332047Y197453D02*
Y209961D01*
Y197453D02*
X332500Y197000D01*
X328110Y213110D02*
X330669Y215669D01*
X328110Y209961D02*
Y213110D01*
X337000Y257000D02*
Y267500D01*
X332500Y252500D02*
X337000Y257000D01*
X313287Y252500D02*
X332047Y233740D01*
Y230039D02*
Y233740D01*
X332500Y252500D02*
X334016Y250984D01*
Y230039D02*
Y250984D01*
X300099Y209099D02*
X306079Y215079D01*
X296000Y252500D02*
X313287D01*
X274000Y151555D02*
X279555D01*
X334016Y209961D02*
Y215669D01*
X335984Y209961D02*
Y219016D01*
D51*
X253000Y109000D02*
D03*
X272213D02*
D03*
X313287Y252500D02*
D03*
X332500D02*
D03*
X121000Y164787D02*
D03*
Y184000D02*
D03*
D52*
X290000Y150221D02*
D03*
D53*
Y179748D02*
D03*
D54*
X268000Y269000D02*
D03*
X258000D02*
D03*
X248000D02*
D03*
X385000Y37000D02*
D03*
X355000D02*
D03*
X345000D02*
D03*
Y57000D02*
D03*
X355000D02*
D03*
X385000D02*
D03*
X308000Y219000D02*
D03*
X298000D02*
D03*
X308000Y229000D02*
D03*
X298001Y209099D02*
D03*
X308001D02*
D03*
X159000Y268000D02*
D03*
X189000D02*
D03*
X179000D02*
D03*
X169000D02*
D03*
X149000D02*
D03*
X240551Y131890D02*
D03*
X180551D02*
D03*
X170551D02*
D03*
X160551D02*
D03*
X130551D02*
D03*
X100551D02*
D03*
X110551D02*
D03*
X120551D02*
D03*
X140551D02*
D03*
X150551D02*
D03*
X190551D02*
D03*
X200551D02*
D03*
X210551D02*
D03*
X220551D02*
D03*
X230551D02*
D03*
D55*
X238000Y269000D02*
D03*
X298000Y229000D02*
D03*
X199000Y268000D02*
D03*
X90551Y131890D02*
D03*
D56*
X66000Y212000D02*
D03*
X420000Y15000D02*
D03*
Y260000D02*
D03*
X15000Y15000D02*
D03*
D57*
X305000Y12500D02*
D03*
X379842D02*
D03*
X364843D02*
D03*
X349843D02*
D03*
D58*
X290000D02*
D03*
D59*
X380039Y157000D02*
D03*
D60*
X409961D02*
D03*
D61*
X32658Y75157D02*
D03*
X42500Y85000D02*
D03*
X22815D02*
D03*
Y65315D02*
D03*
X42500D02*
D03*
X12972Y75157D02*
D03*
D62*
X166595Y27252D02*
D03*
X121595D02*
D03*
D63*
X170177Y7961D02*
D03*
X160177D02*
D03*
X128012D02*
D03*
X118012D02*
D03*
D64*
X126594Y52252D02*
D03*
X131595Y62252D02*
D03*
X136594Y52252D02*
D03*
X141595Y62252D02*
D03*
X146595Y52252D02*
D03*
X151594Y62252D02*
D03*
X156595Y52252D02*
D03*
X161594Y62252D02*
D03*
D65*
X113602Y39260D02*
D03*
X174587D02*
D03*
D66*
X73622Y37402D02*
D03*
Y12205D02*
D03*
D67*
X92126Y24803D02*
D03*
D68*
X45000Y235000D02*
D03*
X75000Y180000D02*
D03*
X55000D02*
D03*
X180000Y200000D02*
D03*
Y210000D02*
D03*
X205000Y20000D02*
D03*
X130000Y155000D02*
D03*
X120000D02*
D03*
X410000Y255000D02*
D03*
Y265000D02*
D03*
X400000Y255000D02*
D03*
Y265000D02*
D03*
X375000Y180000D02*
D03*
Y190000D02*
D03*
X365000Y170000D02*
D03*
Y180000D02*
D03*
Y190000D02*
D03*
X313000Y265000D02*
D03*
X49500Y42500D02*
D03*
X47000Y158000D02*
D03*
X25000Y192000D02*
D03*
X36000Y203000D02*
D03*
X52000Y133000D02*
D03*
D69*
X224000Y44000D02*
D03*
X339331Y224331D02*
D03*
Y220000D02*
D03*
Y215669D02*
D03*
X335000Y224331D02*
D03*
Y220000D02*
D03*
Y215669D02*
D03*
X330669Y224331D02*
D03*
Y220000D02*
D03*
Y215669D02*
D03*
X41831Y134665D02*
D03*
Y130335D02*
D03*
X37500Y134665D02*
D03*
Y130335D02*
D03*
X33169Y134665D02*
D03*
Y130335D02*
D03*
X164000Y121615D02*
D03*
X201000Y138378D02*
D03*
X142000Y181000D02*
D03*
X171000Y122000D02*
D03*
X147000Y184000D02*
D03*
X168000Y165000D02*
D03*
X140000Y190000D02*
D03*
X153000Y171000D02*
D03*
X202000Y231000D02*
D03*
X426000Y35000D02*
D03*
X320000Y100000D02*
D03*
X235000Y118000D02*
D03*
Y113000D02*
D03*
Y108000D02*
D03*
Y104000D02*
D03*
X348000Y76000D02*
D03*
X300000Y183000D02*
D03*
X279000D02*
D03*
X215000Y219000D02*
D03*
X370000Y146000D02*
D03*
X297000Y180000D02*
D03*
X215000Y215000D02*
D03*
X259000Y186000D02*
D03*
X189000Y175000D02*
D03*
X192000Y178000D02*
D03*
X188000Y157000D02*
D03*
X247500Y145000D02*
D03*
X250000Y150000D02*
D03*
X287000Y94000D02*
D03*
X284000Y91000D02*
D03*
X186000Y154000D02*
D03*
X238000Y83000D02*
D03*
X167000Y153000D02*
D03*
X242000Y80000D02*
D03*
X173000Y159000D02*
D03*
X246000Y80000D02*
D03*
X175000Y155000D02*
D03*
X247000Y83000D02*
D03*
X175000Y151000D02*
D03*
X115000Y110000D02*
D03*
Y116000D02*
D03*
X236000Y66000D02*
D03*
Y69000D02*
D03*
X105000Y101000D02*
D03*
X190000Y109000D02*
D03*
X240000Y68000D02*
D03*
X190000Y113000D02*
D03*
X240000Y72000D02*
D03*
X252000Y234000D02*
D03*
X178000Y240000D02*
D03*
X181000Y239000D02*
D03*
X172000Y258000D02*
D03*
X139000Y252000D02*
D03*
X243000Y205000D02*
D03*
X224000Y210000D02*
D03*
X239000Y205000D02*
D03*
X227000D02*
D03*
X231000D02*
D03*
X235000D02*
D03*
X302000Y187000D02*
D03*
X85000Y237000D02*
D03*
X338000Y205000D02*
D03*
X351000Y226000D02*
D03*
X350000Y203000D02*
D03*
X355000Y219000D02*
D03*
X135000Y250000D02*
D03*
X149000Y262000D02*
D03*
X214000Y267000D02*
D03*
X211000Y262000D02*
D03*
X199000Y243000D02*
D03*
X153000Y188000D02*
D03*
X213000Y153000D02*
D03*
X252000D02*
D03*
X216000Y156000D02*
D03*
X218000Y159000D02*
D03*
X215000Y165000D02*
D03*
X218000Y168000D02*
D03*
X323000Y125000D02*
D03*
X160000Y185000D02*
D03*
X158000Y178000D02*
D03*
X217000Y243000D02*
D03*
X149000Y248000D02*
D03*
X345000Y139000D02*
D03*
X341000Y122000D02*
D03*
X349000Y137000D02*
D03*
X356000Y122000D02*
D03*
X348000Y97000D02*
D03*
X187000Y116000D02*
D03*
X178000Y95000D02*
D03*
X183000Y103000D02*
D03*
X195000Y15000D02*
D03*
X139000Y100000D02*
D03*
X109000D02*
D03*
X80000Y92000D02*
D03*
X228000Y213000D02*
D03*
X196000Y221000D02*
D03*
X397000Y89000D02*
D03*
X406000Y113000D02*
D03*
X310000Y166000D02*
D03*
X305000Y170000D02*
D03*
X298000Y176000D02*
D03*
X219000Y190000D02*
D03*
X216000Y188000D02*
D03*
X213000Y186000D02*
D03*
X210000Y184000D02*
D03*
X187000Y221000D02*
D03*
X375000Y125000D02*
D03*
X282000Y262000D02*
D03*
X187000Y87750D02*
D03*
X184000Y249000D02*
D03*
X124000Y197000D02*
D03*
Y201000D02*
D03*
X103000Y195000D02*
D03*
Y200000D02*
D03*
X245540Y139304D02*
D03*
X269000Y246000D02*
D03*
X243000Y245000D02*
D03*
M02*
